<svg xmlns="http://www.w3.org/2000/svg" viewBox="0 0 332 277"><defs><style>.cls-1{fill:none;stroke:#25afe5;}</style></defs><g id="Layer_4" data-name="Layer 4"><path class="cls-1" d="M9.29,72.16,5.13,84.7l10.64,7.83L19.93,80Z"/><path class="cls-1" d="M-8.08,84.62l13.21.08-4-12.59L-12.08,72Z"/><path class="cls-1" d="M21.8,151.61l-13.22-.08L4.43,164.07l13.21.08Z"/><path class="cls-1" d="M5.13,84.7l-13.21-.08-10.73,7.7,13.21.08Z"/><path class="cls-1" d="M111.3,66.15l-4-12.59-13.21-.08,4,12.59Z"/><path class="cls-1" d="M121.94,74l-4-12.59-10.65-7.83,4,12.59Z"/><path class="cls-1" d="M118,45.86l-10.74,7.7,10.65,7.83,10.73-7.7Z"/><path class="cls-1" d="M93.93,78.61l4.16-12.54-4-12.59L89.93,66Z"/><path class="cls-1" d="M107.29,53.56,118,45.86l4.16-12.54L111.45,41Z"/><path class="cls-1" d="M98.24,40.94,94.08,53.48l13.21.08L111.45,41Z"/><path class="cls-1" d="M111.45,41l10.74-7.7L109,33.24l-10.74,7.7Z"/><path class="cls-1" d="M94.24,28.35l4,12.59L109,33.24l-4-12.59Z"/><path class="cls-1" d="M30.67,72.29l13.21.08-4-12.59L26.66,59.7Z"/><path class="cls-1" d="M33.14,80.07l10.74-7.7-13.21-.08L19.93,80Z"/><path class="cls-1" d="M33.14,80.07,19.93,80,15.77,92.53,29,92.61Z"/><path class="cls-1" d="M70,155.31l-4.16,12.54,10.73-7.7,4.16-12.54Z"/><path class="cls-1" d="M87.23,168l-10.65-7.83-10.73,7.7,10.64,7.83Z"/><path class="cls-1" d="M70,155.31l10.73-7.7-4-12.59L66,142.73Z"/><path class="cls-1" d="M91.38,155.44l-10.64-7.83-4.16,12.54L87.23,168Z"/><path class="cls-1" d="M48.63,155.19l4,12.58,13.21.08-4-12.58Z"/><path class="cls-1" d="M66,142.73l-4.16,12.54,4,12.58L70,155.31Z"/><path class="cls-1" d="M83.44,45.65l-13.21-.08L59.5,53.27l13.21.08Z"/><path class="cls-1" d="M55.49,40.68l4,12.59,10.73-7.7L66.23,33Z"/><path class="cls-1" d="M90,135.1,76.74,135l4,12.59,13.21.08Z"/><path class="cls-1" d="M83.35,61.18l10.73-7.7L83.44,45.65l-10.73,7.7Z"/><path class="cls-1" d="M66.23,33l4,12.59,13.21.08-4-12.59Z"/><path class="cls-1" d="M89.93,66l4.15-12.54-10.73,7.7L79.19,73.72Z"/><path class="cls-1" d="M87.6,33.11l-4-12.59L79.44,33.06l4,12.59Z"/><path class="cls-1" d="M87.6,33.11,83.44,45.65l10.64,7.83,4.16-12.54Z"/><path class="cls-1" d="M98.24,40.94l-4-12.59L83.59,20.52l4,12.59Z"/><path class="cls-1" d="M26.26,125.49l13.21.08L43.63,113,30.42,113Z"/><path class="cls-1" d="M27.53,210.19l13.21.08,10.73-7.7-13.21-.08Z"/><path class="cls-1" d="M55.48,215.16l-4-12.59-10.73,7.7,4,12.59Z"/><path class="cls-1" d="M19.78,105.12,30.42,113l13.21.08L33,105.2Z"/><path class="cls-1" d="M29,92.61l-13.21-.08,4,12.59L33,105.2Z"/><path class="cls-1" d="M26.26,125.49,30.42,113l-10.64-7.83-4.16,12.54Z"/><path class="cls-1" d="M51.47,202.57l4,12.59L66.12,223l-4-12.59Z"/><path class="cls-1" d="M55.39,230.69,66.12,223l-10.64-7.83-10.73,7.7Z"/><path class="cls-1" d="M66.27,197.86,55.63,190l-4.16,12.54,10.65,7.83Z"/><path class="cls-1" d="M27.62,194.66l-10.73,7.7,10.64,7.83,10.73-7.7Z"/><path class="cls-1" d="M44.75,222.86l-4-12.59-13.21-.08,4,12.59Z"/><path class="cls-1" d="M23.37,222.73l4.16-12.54-10.64-7.83L12.73,214.9Z"/><path class="cls-1" d="M27.38,235.32l4.16-12.54-4-12.59-4.16,12.54Z"/><path class="cls-1" d="M2,222.6l10.74-7.7,4.16-12.54-10.74,7.7Z"/><path class="cls-1" d="M23.37,222.73,12.73,214.9,2,222.6l10.65,7.83Z"/><path class="cls-1" d="M67.58,105.41l10.64,7.83,4.16-12.54L71.74,92.87Z"/><path class="cls-1" d="M39.63,100.44l4,12.59,10.74-7.7-4-12.59Z"/><path class="cls-1" d="M50.36,92.74l4,12.59,4.16-12.54-4-12.59Z"/><path class="cls-1" d="M71.74,92.87l-13.21-.08-4.16,12.54,13.21.08Z"/><path class="cls-1" d="M33,105.2,43.63,113l-4-12.59L29,92.61Z"/><path class="cls-1" d="M39.72,84.91,29,92.61l10.65,7.83,10.73-7.7Z"/><path class="cls-1" d="M65,113.16l13.21.08-10.64-7.83-13.21-.08Z"/><path class="cls-1" d="M65,113.16l-10.64-7.83L43.63,113l10.64,7.83Z"/><path class="cls-1" d="M29,92.61l10.74-7.7,4.16-12.54-10.74,7.7Z"/><path class="cls-1" d="M38,243.15l13.21.08L40.59,235.4l-13.21-.08Z"/><path class="cls-1" d="M44.75,222.86,40.59,235.4l10.64,7.83,4.16-12.54Z"/><path class="cls-1" d="M38,243.15l-10.64-7.83L16.64,243l10.64,7.83Z"/><path class="cls-1" d="M31.54,222.78l-4.16,12.54,13.21.08,4.16-12.54Z"/><path class="cls-1" d="M12.64,230.43l4,12.59,10.74-7.7-4-12.59Z"/><path class="cls-1" d="M6,235.19,16.64,243l-4-12.59L2,222.6Z"/></g></svg>