<svg xmlns="http://www.w3.org/2000/svg" viewBox="0 0 332 277"><defs><style>.prefix__cls-1{fill:none;stroke:#e6e6e6}</style></defs><g id="prefix__Layer_4" data-name="Layer 4"><path class="prefix__cls-1" d="M320.39 65l-4.16-12.54L327 60.19l4.16 12.54z"/><path class="prefix__cls-1" d="M337.6 52.36L327 60.19l-10.73-7.7 10.64-7.83zM299 65.16l4.16 12.54-10.64 7.83L288.37 73zM316.38 77.62l-13.21.08 4-12.59 13.22-.11zM320.24 39.9l10.64-7.83-4 12.59-10.64 7.83z"/><path class="prefix__cls-1" d="M337.6 52.36l-10.73-7.7 4-12.59 10.73 7.7zM279.51 13.61l13.21-.08 4.16 12.54-13.21.08zM320.63 105.69l-4.16-12.54 10.64-7.83 4.16 12.54zM320.39 65l10.73 7.7-4 12.59-10.73-7.7z"/><path class="prefix__cls-1" d="M341.76 64.9l-10.64 7.83L327 60.19l10.64-7.83zM303.17 77.7l13.21-.08 10.73 7.7-13.21.08zM197 59.15l4-12.59 13.21-.08-4 12.59z"/><path class="prefix__cls-1" d="M186.36 67l4-12.59L201 46.56l-4 12.59zM190.27 38.86l10.73 7.7-10.64 7.83-10.74-7.7zM214.37 71.61l-4.16-12.54 4-12.59L218.38 59z"/><path class="prefix__cls-1" d="M201 46.56l-10.74-7.7-4.16-12.54L196.85 34zM210.06 33.94l4.16 12.54-13.22.08L196.85 34zM340.33 85.24l-13.22.08 4-12.59 13.21-.08z"/><path class="prefix__cls-1" d="M344.33 72.65l-13.21.08 10.64-7.83 13.24-.08zM196.85 34l-10.74-7.7 13.22-.08 10.73 7.7z"/><path class="prefix__cls-1" d="M214.07 21.35l-4 12.59-10.73-7.7 4-12.59zM277.64 65.29l-13.22.08 4-12.59 13.21-.08z"/><path class="prefix__cls-1" d="M275.16 73.07l-10.74-7.7 13.22-.08L288.37 73z"/><path class="prefix__cls-1" d="M275.16 73.07l13.21-.07 4.16 12.54-13.21.08zM224.86 38.65l13.21-.08 10.74 7.7-13.22.08z"/><path class="prefix__cls-1" d="M252.81 33.68l-4 12.59-10.74-7.7 4-12.59zM293 257.23l-4.16-12.54 10.64-7.83 4.16 12.54z"/><path class="prefix__cls-1" d="M289 269.82l-4.15-12.54 4-12.59 4.15 12.54zM275.61 244.77l13.21-.08-4 12.59-13.22.08zM314.36 257.1l-10.74-7.7-4.16-12.54 10.74 7.7zM323.41 244.49l4.16 12.51-13.21.08-4.16-12.54z"/><path class="prefix__cls-1" d="M293 257.23l10.64-7.83 10.74 7.7-10.65 7.83zM288.82 244.69l-13.21.08-10.73-7.7 13.21-.08z"/><path class="prefix__cls-1" d="M288.73 229.16l10.73 7.7-10.64 7.83-10.73-7.69z"/><path class="prefix__cls-1" d="M278.09 237l-13.21.08 10.64-7.83 13.21-.08zM284.57 216.62l4.16 12.54-13.21.08-4.16-12.54zM225 54.18l-10.73-7.7 10.64-7.83 10.73 7.7z"/><path class="prefix__cls-1" d="M242.08 26l-4 12.59-13.21.08 4-12.59zM218.38 59l-4.16-12.54L225 54.18l4.16 12.54zM220.7 26.11l4-12.59 4.16 12.54-4 12.59z"/><path class="prefix__cls-1" d="M220.7 26.11l4.16 12.54-10.64 7.83-4.16-12.54z"/><path class="prefix__cls-1" d="M210.06 33.94l4-12.59 10.64-7.83-4 12.59zM312.67 236.78l-13.21.08 4-12.58 13.21-.08z"/><path class="prefix__cls-1" d="M310.2 244.56l-10.74-7.7 13.21-.08 10.74 7.71zM292.73 216.57L288.58 204l10.73 7.71 4.16 12.54z"/><path class="prefix__cls-1" d="M292.73 216.57l10.74 7.71-4 12.58-10.73-7.7zM288.73 229.16l-4.16-12.54 4-12.59 4.15 12.54zM282 118.49l-13.21.08-4.12-12.57 13.21-.08zM248.77 164.19l-13.21.08-10.73-7.7 13.21-.08zM220.82 169.16l4-12.59 10.73 7.7-4 12.59z"/><path class="prefix__cls-1" d="M288.52 98.12L277.88 106l-13.21.08 10.64-7.83z"/><path class="prefix__cls-1" d="M279.32 85.61l13.21-.08-4 12.59-13.21.08zM282 118.49L277.88 106l10.64-7.83 4.16 12.54zM224.83 156.57l-4 12.59-10.65 7.84 4-12.59zM220.92 184.69L210.18 177l10.64-7.83 10.74 7.7zM210 151.86l10.67-7.86 4.16 12.54-10.64 7.83zM248.68 148.66l10.73 7.7-10.64 7.83-10.77-7.7zM231.56 176.86l4-12.59 13.21-.08-4 12.59zM320.63 105.69l10.74 7.7-4 12.59-10.73-7.7z"/><path class="prefix__cls-1" d="M252.93 176.73l-4.16-12.54 10.64-7.83 4.16 12.54z"/><path class="prefix__cls-1" d="M248.93 189.32l-4.16-12.54 4-12.59 4.16 12.54zM274.31 176.6l-10.74-7.7-4.16-12.54 10.74 7.7z"/><path class="prefix__cls-1" d="M252.93 176.73l10.64-7.83 10.74 7.7-10.64 7.83zM240.72 98.41l-10.64 7.83-4.15-12.54 10.64-7.83zM268.68 93.44l-4 12.59-10.73-7.7 4-12.59zM257.94 85.74l-4 12.59-4.16-12.54 4-12.59z"/><path class="prefix__cls-1" d="M236.57 85.87l13.21-.08 4.16 12.54-13.22.08zM275.31 98.2l-10.64 7.8 4-12.59 10.64-7.83z"/><path class="prefix__cls-1" d="M268.58 77.91l10.74 7.7-10.64 7.83-10.74-7.7zM243.29 106.16l-13.21.08 10.64-7.83 13.22-.08zM243.29 106.16l10.65-7.83 10.73 7.7-10.67 7.83z"/><path class="prefix__cls-1" d="M279.32 85.61l-10.74-7.7-4.16-12.54 10.74 7.7zM238.28 197.15l-13.21.08 10.64-7.83 13.22-.08z"/><path class="prefix__cls-1" d="M231.56 176.86l4.15 12.54-10.64 7.83-4.15-12.54zM238.28 197.15l10.65-7.83 10.73 7.7-10.66 7.83z"/><path class="prefix__cls-1" d="M244.77 176.78l4.16 12.54-13.22.08-4.15-12.54zM263.67 184.43l-4 12.59-10.73-7.7 4-12.59z"/><path class="prefix__cls-1" d="M270.3 189.19L259.66 197l4-12.59 10.64-7.83z"/></g></svg>