<svg xmlns="http://www.w3.org/2000/svg" viewBox="0 0 332 277"><defs><style>.cls-1{fill:none;stroke:#e6e6e6;}</style></defs><g id="Layer_4" data-name="Layer 4"><path class="cls-1" d="M320.39,65l-4.16-12.54L327,60.19l4.16,12.54Z"/><path class="cls-1" d="M337.6,52.36,327,60.19l-10.73-7.7,10.64-7.83Z"/><path class="cls-1" d="M299,65.16l4.16,12.54-10.64,7.83L288.37,73Z"/><path class="cls-1" d="M316.38,77.62l-13.21.08,4-12.59L320.39,65Z"/><path class="cls-1" d="M320.24,39.9l10.64-7.83-4,12.59-10.64,7.83Z"/><path class="cls-1" d="M337.6,52.36l-10.73-7.7,4-12.59,10.73,7.7Z"/><path class="cls-1" d="M279.51,13.61l13.21-.08,4.16,12.54-13.21.08Z"/><path class="cls-1" d="M320.63,105.69l-4.16-12.54,10.64-7.83,4.16,12.54Z"/><path class="cls-1" d="M320.39,65l10.73,7.7-4,12.59-10.73-7.7Z"/><path class="cls-1" d="M341.76,64.9l-10.64,7.83L327,60.19l10.64-7.83Z"/><path class="cls-1" d="M303.17,77.7l13.21-.08,10.73,7.7-13.21.08Z"/><path class="cls-1" d="M197,59.15l4-12.59,13.21-.08-4,12.59Z"/><path class="cls-1" d="M186.36,67l4-12.59L201,46.56l-4,12.59Z"/><path class="cls-1" d="M190.27,38.86,201,46.56l-10.64,7.83-10.74-7.7Z"/><path class="cls-1" d="M214.37,71.61l-4.16-12.54,4-12.59L218.38,59Z"/><path class="cls-1" d="M201,46.56l-10.74-7.7-4.16-12.54L196.85,34Z"/><path class="cls-1" d="M210.06,33.94l4.16,12.54L201,46.56,196.85,34Z"/><path class="cls-1" d="M340.33,85.24l-13.22.08,4-12.59,13.21-.08Z"/><path class="cls-1" d="M344.33,72.65l-13.21.08,10.64-7.83L355,64.82Z"/><path class="cls-1" d="M196.85,34l-10.74-7.7,13.22-.08,10.73,7.7Z"/><path class="cls-1" d="M214.07,21.35l-4,12.59-10.73-7.7,4-12.59Z"/><path class="cls-1" d="M277.64,65.29l-13.22.08,4-12.59,13.21-.08Z"/><path class="cls-1" d="M275.16,73.07l-10.74-7.7,13.22-.08L288.37,73Z"/><path class="cls-1" d="M275.16,73.07,288.37,73l4.16,12.54-13.21.08Z"/><path class="cls-1" d="M224.86,38.65l13.21-.08,10.74,7.7-13.22.08Z"/><path class="cls-1" d="M252.81,33.68l-4,12.59-10.74-7.7,4-12.59Z"/><path class="cls-1" d="M293,257.23l-4.16-12.54,10.64-7.83,4.16,12.54Z"/><path class="cls-1" d="M289,269.82l-4.15-12.54,4-12.59L293,257.23Z"/><path class="cls-1" d="M275.61,244.77l13.21-.08-4,12.59-13.22.08Z"/><path class="cls-1" d="M314.36,257.1l-10.74-7.7-4.16-12.54,10.74,7.7Z"/><path class="cls-1" d="M323.41,244.49,327.57,257l-13.21.08-4.16-12.54Z"/><path class="cls-1" d="M293,257.23l10.64-7.83,10.74,7.7-10.65,7.83Z"/><path class="cls-1" d="M288.82,244.69l-13.21.08-10.73-7.7,13.21-.08Z"/><path class="cls-1" d="M288.73,229.16l10.73,7.7-10.64,7.83L278.09,237Z"/><path class="cls-1" d="M278.09,237l-13.21.08,10.64-7.83,13.21-.08Z"/><path class="cls-1" d="M284.57,216.62l4.16,12.54-13.21.08-4.16-12.54Z"/><path class="cls-1" d="M225,54.18l-10.73-7.7,10.64-7.83,10.73,7.7Z"/><path class="cls-1" d="M242.08,26l-4,12.59-13.21.08,4-12.59Z"/><path class="cls-1" d="M218.38,59l-4.16-12.54L225,54.18l4.16,12.54Z"/><path class="cls-1" d="M220.7,26.11l4-12.59,4.16,12.54-4,12.59Z"/><path class="cls-1" d="M220.7,26.11l4.16,12.54-10.64,7.83-4.16-12.54Z"/><path class="cls-1" d="M210.06,33.94l4-12.59,10.64-7.83-4,12.59Z"/><path class="cls-1" d="M312.67,236.78l-13.21.08,4-12.58,13.21-.08Z"/><path class="cls-1" d="M310.2,244.56l-10.74-7.7,13.21-.08,10.74,7.71Z"/><path class="cls-1" d="M292.73,216.57,288.58,204l10.73,7.71,4.16,12.54Z"/><path class="cls-1" d="M292.73,216.57l10.74,7.71-4,12.58-10.73-7.7Z"/><path class="cls-1" d="M288.73,229.16l-4.16-12.54,4-12.59,4.15,12.54Z"/><path class="cls-1" d="M282,118.49l-13.21.08L264.67,106l13.21-.08Z"/><path class="cls-1" d="M248.77,164.19l-13.21.08-10.73-7.7,13.21-.08Z"/><path class="cls-1" d="M220.82,169.16l4-12.59,10.73,7.7-4,12.59Z"/><path class="cls-1" d="M288.52,98.12,277.88,106l-13.21.08,10.64-7.83Z"/><path class="cls-1" d="M279.32,85.61l13.21-.08-4,12.59-13.21.08Z"/><path class="cls-1" d="M282,118.49,277.88,106l10.64-7.83,4.16,12.54Z"/><path class="cls-1" d="M224.83,156.57l-4,12.59L210.18,177l4-12.59Z"/><path class="cls-1" d="M220.92,184.69,210.18,177l10.64-7.83,10.74,7.7Z"/><path class="cls-1" d="M210,151.86,220.67,144l4.16,12.54-10.64,7.83Z"/><path class="cls-1" d="M248.68,148.66l10.73,7.7-10.64,7.83L238,156.49Z"/><path class="cls-1" d="M231.56,176.86l4-12.59,13.21-.08-4,12.59Z"/><path class="cls-1" d="M320.63,105.69l10.74,7.7-4,12.59-10.73-7.7Z"/><path class="cls-1" d="M252.93,176.73l-4.16-12.54,10.64-7.83,4.16,12.54Z"/><path class="cls-1" d="M248.93,189.32l-4.16-12.54,4-12.59,4.16,12.54Z"/><path class="cls-1" d="M274.31,176.6l-10.74-7.7-4.16-12.54,10.74,7.7Z"/><path class="cls-1" d="M252.93,176.73l10.64-7.83,10.74,7.7-10.64,7.83Z"/><path class="cls-1" d="M240.72,98.41l-10.64,7.83L225.93,93.7l10.64-7.83Z"/><path class="cls-1" d="M268.68,93.44l-4,12.59-10.73-7.7,4-12.59Z"/><path class="cls-1" d="M257.94,85.74l-4,12.59-4.16-12.54,4-12.59Z"/><path class="cls-1" d="M236.57,85.87l13.21-.08,4.16,12.54-13.22.08Z"/><path class="cls-1" d="M275.31,98.2,264.67,106l4-12.59,10.64-7.83Z"/><path class="cls-1" d="M268.58,77.91l10.74,7.7-10.64,7.83-10.74-7.7Z"/><path class="cls-1" d="M243.29,106.16l-13.21.08,10.64-7.83,13.22-.08Z"/><path class="cls-1" d="M243.29,106.16l10.65-7.83,10.73,7.7L254,113.86Z"/><path class="cls-1" d="M279.32,85.61l-10.74-7.7-4.16-12.54,10.74,7.7Z"/><path class="cls-1" d="M238.28,197.15l-13.21.08,10.64-7.83,13.22-.08Z"/><path class="cls-1" d="M231.56,176.86l4.15,12.54-10.64,7.83-4.15-12.54Z"/><path class="cls-1" d="M238.28,197.15l10.65-7.83,10.73,7.7L249,204.85Z"/><path class="cls-1" d="M244.77,176.78l4.16,12.54-13.22.08-4.15-12.54Z"/><path class="cls-1" d="M263.67,184.43l-4,12.59-10.73-7.7,4-12.59Z"/><path class="cls-1" d="M270.3,189.19,259.66,197l4-12.59,10.64-7.83Z"/></g></svg>