<?xml version="1.0" encoding="utf-8"?>
<!-- Generator: Adobe Illustrator 25.4.1, SVG Export Plug-In . SVG Version: 6.00 Build 0)  -->
<svg version="1.1" id="Layer_1" xmlns="http://www.w3.org/2000/svg" xmlns:xlink="http://www.w3.org/1999/xlink" x="0px" y="0px"
	 viewBox="0 0 332 277" style="enable-background:new 0 0 332 277;" xml:space="preserve">
<style type="text/css">
	.st0{fill:none;stroke:#E6E6E6;}
</style>
<g id="Layer_4">
	<path class="st0" d="M31.3,72.2l-4.2,12.5l10.6,7.8L41.9,80L31.3,72.2z"/>
	<path class="st0" d="M13.9,84.6l13.2,0.1l-4-12.6L9.9,72L13.9,84.6z"/>
	<path class="st0" d="M43.8,151.6l-13.2-0.1l-4.1,12.5l13.2,0.1L43.8,151.6z"/>
	<path class="st0" d="M27.1,84.7l-13.2-0.1L3.2,92.3l13.2,0.1L27.1,84.7z"/>
	<path class="st0" d="M133.3,66.1l-4-12.6l-13.2-0.1l4,12.6L133.3,66.1z"/>
	<path class="st0" d="M143.9,74l-4-12.6l-10.7-7.8l4,12.6L143.9,74z"/>
	<path class="st0" d="M140,45.9l-10.7,7.7l10.7,7.8l10.7-7.7L140,45.9z"/>
	<path class="st0" d="M115.9,78.6l4.2-12.5l-4-12.6L111.9,66L115.9,78.6z"/>
	<path class="st0" d="M129.3,53.6l10.7-7.7l4.2-12.5L133.5,41L129.3,53.6z"/>
	<path class="st0" d="M120.2,40.9l-4.2,12.5l13.2,0.1l4.2-12.6L120.2,40.9z"/>
	<path class="st0" d="M133.5,41l10.7-7.7L131,33.2l-10.7,7.7L133.5,41z"/>
	<path class="st0" d="M116.2,28.3l4,12.6l10.8-7.7l-4-12.6L116.2,28.3z"/>
	<path class="st0" d="M52.7,72.3l13.2,0.1l-4-12.6l-13.2-0.1L52.7,72.3z"/>
	<path class="st0" d="M55.1,80.1l10.7-7.7l-13.2-0.1L41.9,80L55.1,80.1z"/>
	<path class="st0" d="M55.1,80.1L41.9,80l-4.2,12.5L51,92.6L55.1,80.1z"/>
	<path class="st0" d="M92,155.3l-4.2,12.5l10.7-7.7l4.2-12.5L92,155.3z"/>
	<path class="st0" d="M109.2,168l-10.7-7.8l-10.7,7.7l10.6,7.8L109.2,168z"/>
	<path class="st0" d="M92,155.3l10.7-7.7l-4-12.6L88,142.7L92,155.3z"/>
	<path class="st0" d="M113.4,155.4l-10.6-7.8l-4.2,12.5l10.7,7.9L113.4,155.4z"/>
	<path class="st0" d="M70.6,155.2l4,12.6l13.2,0.1l-4-12.6L70.6,155.2z"/>
	<path class="st0" d="M88,142.7l-4.2,12.5l4,12.6l4.2-12.5L88,142.7z"/>
	<path class="st0" d="M105.4,45.6l-13.2-0.1l-10.7,7.7l13.2,0.1L105.4,45.6z"/>
	<path class="st0" d="M77.5,40.7l4,12.6l10.7-7.7l-4-12.6L77.5,40.7z"/>
	<path class="st0" d="M112,135.1L98.7,135l4,12.6l13.2,0.1L112,135.1z"/>
	<path class="st0" d="M105.4,61.2l10.7-7.7l-10.6-7.8l-10.7,7.7L105.4,61.2z"/>
	<path class="st0" d="M88.2,33l4,12.6l13.2,0.1l-4-12.6L88.2,33z"/>
	<path class="st0" d="M111.9,66l4.2-12.5l-10.7,7.7l-4.2,12.6L111.9,66z"/>
	<path class="st0" d="M109.6,33.1l-4-12.6l-4.2,12.5l4,12.6L109.6,33.1z"/>
	<path class="st0" d="M109.6,33.1l-4.2,12.5l10.6,7.8l4.2-12.5L109.6,33.1z"/>
	<path class="st0" d="M120.2,40.9l-4-12.6l-10.7-7.8l4,12.6L120.2,40.9z"/>
	<path class="st0" d="M48.3,125.5l13.2,0.1l4.2-12.6H52.4L48.3,125.5z"/>
	<path class="st0" d="M49.5,210.2l13.2,0.1l10.7-7.7l-13.2-0.1L49.5,210.2z"/>
	<path class="st0" d="M77.5,215.2l-4-12.6l-10.7,7.7l4,12.6L77.5,215.2z"/>
	<path class="st0" d="M41.8,105.1l10.6,7.9l13.2,0.1L55,105.2L41.8,105.1z"/>
	<path class="st0" d="M51,92.6l-13.2-0.1l4,12.6l13.2,0.1L51,92.6z"/>
	<path class="st0" d="M48.3,125.5l4.2-12.5l-10.6-7.8l-4.2,12.5L48.3,125.5z"/>
	<path class="st0" d="M73.5,202.6l4,12.6l10.7,7.8l-4-12.6L73.5,202.6z"/>
	<path class="st0" d="M77.4,230.7l10.7-7.7l-10.6-7.8l-10.7,7.7L77.4,230.7z"/>
	<path class="st0" d="M88.3,197.9L77.6,190l-4.2,12.5l10.7,7.8L88.3,197.9z"/>
	<path class="st0" d="M49.6,194.7l-10.7,7.7l10.6,7.8l10.7-7.7L49.6,194.7z"/>
	<path class="st0" d="M66.8,222.9l-4-12.6l-13.2-0.1l4,12.6L66.8,222.9z"/>
	<path class="st0" d="M45.4,222.7l4.2-12.5l-10.6-7.8l-4.2,12.5L45.4,222.7z"/>
	<path class="st0" d="M49.4,235.3l4.2-12.5l-4-12.6l-4.2,12.5L49.4,235.3z"/>
	<path class="st0" d="M24,222.6l10.7-7.7l4.2-12.5l-10.7,7.7L24,222.6z"/>
	<path class="st0" d="M45.4,222.7l-10.6-7.8L24,222.6l10.6,7.8L45.4,222.7z"/>
	<path class="st0" d="M89.6,105.4l10.6,7.8l4.2-12.5l-10.6-7.8L89.6,105.4z"/>
	<path class="st0" d="M61.6,100.4l4,12.6l10.7-7.7l-4-12.6L61.6,100.4z"/>
	<path class="st0" d="M72.4,92.7l4,12.6l4.2-12.5l-4-12.6L72.4,92.7z"/>
	<path class="st0" d="M93.7,92.9l-13.2-0.1l-4.2,12.5l13.2,0.1L93.7,92.9z"/>
	<path class="st0" d="M55,105.2l10.6,7.8l-4-12.6L51,92.6L55,105.2z"/>
	<path class="st0" d="M61.7,84.9L51,92.6l10.7,7.8l10.7-7.7L61.7,84.9z"/>
	<path class="st0" d="M87,113.2l13.2,0.1l-10.6-7.8l-13.2-0.1L87,113.2z"/>
	<path class="st0" d="M87,113.2l-10.6-7.8L65.6,113l10.6,7.8L87,113.2z"/>
	<path class="st0" d="M51,92.6l10.7-7.7l4.2-12.5l-10.7,7.7L51,92.6z"/>
	<path class="st0" d="M60,243.1l13.2,0.1l-10.6-7.8l-13.2-0.1L60,243.1z"/>
	<path class="st0" d="M66.8,222.9l-4.2,12.5l10.6,7.8l4.2-12.5L66.8,222.9z"/>
	<path class="st0" d="M60,243.1l-10.6-7.8L38.6,243l10.6,7.8L60,243.1z"/>
	<path class="st0" d="M53.5,222.8l-4.2,12.5l13.2,0.1l4.2-12.5L53.5,222.8z"/>
	<path class="st0" d="M34.6,230.4l4,12.6l10.7-7.7l-4-12.6L34.6,230.4z"/>
	<path class="st0" d="M28,235.2l10.6,7.8l-4-12.6L24,222.6L28,235.2z"/>
</g>
</svg>
