<svg id="Layer_1" data-name="Layer 1" xmlns="http://www.w3.org/2000/svg" viewBox="0 0 510.81 438.37">
    <defs>
        <style>
            .cls-1,
            .cls-10,
            .cls-11,
            .cls-12,
            .cls-13,
            .cls-14,
            .cls-15,
            .cls-16,
            .cls-17,
            .cls-18,
            .cls-2,
            .cls-3,
            .cls-4,
            .cls-5,
            .cls-6,
            .cls-7,
            .cls-8,
            .cls-9 {
                fill: none;
                stroke-linecap: round;
                stroke-linejoin: round;
            }

            .cls-1 {
                stroke: #e94e1b;
            }

            .cls-2 {
                stroke: #3aaa35;
            }

            .cls-3 {
                stroke: #878787;
            }

            .cls-4 {
                stroke: #e6007e;
            }

            .cls-5 {
                stroke: #575756;
            }

            .cls-6 {
                stroke: #36a9e1;
            }

            .cls-7 {
                stroke: #1d71b8;
            }

            .cls-8 {
                stroke: #1d1d1b;
            }

            .cls-9 {
                stroke: #f39200;
            }

            .cls-10 {
                stroke: #662483;
            }

            .cls-11 {
                stroke: #683c11;
            }

            .cls-12 {
                stroke: #e71d73;
            }

            .cls-13 {
                stroke: #3c3c3b;
            }

            .cls-14 {
                stroke: #2d2e83;
            }

            .cls-15 {
                stroke: #f9b233;
            }

            .cls-16 {
                stroke: #ffed00;
            }

            .cls-17 {
                stroke: #ca9e67;
            }

            .cls-18 {
                stroke: #be1622;
            }
        </style>
    </defs>
    <path class="cls-1" d="M463.91,27.27l-11.1-8-11.1,8,11.1,8Z" />
    <path class="cls-1" d="M468.11,14.27l-11.1-8-4.3,13,11.1,8Z" />
    <path class="cls-1" d="M470.81,48.27h-13.6l-4.3,13h13.6Z" />
    <path class="cls-1" d="M481.81,40.27h-13.6l-11.1,8h13.7Z" />
    <path class="cls-1" d="M452.91,35.27l4.3,13,11.1-8-4.3-13Z" />
    <path class="cls-1" d="M470.81,48.27l-4.3,13,11.1,8,4.3-13Z" />
    <path class="cls-1" d="M477.61,27.27l4.3-13h-13.7l-4.3,13Z" />
    <path class="cls-1" d="M481.81,56.27l11.1-8-11.1-8-11.1,8Z" />
    <path class="cls-1" d="M463.91,27.27l4.3,13h13.6l-4.3-13Z" />
    <path class="cls-1" d="M488.61,61.27l4.3-13-11.1,8-4.3,13Z" />
    <path class="cls-1" d="M486,27.27l-4.3-13-4.3,13,4.3,13Z" />
    <path class="cls-1" d="M486,27.27l-4.3,13,11.1,8,4.3-13Z" />
    <path class="cls-1" d="M497.11,35.27l-4.3-13-11.1-8,4.3,13Z" />
    <path class="cls-1" d="M492.81,74.27l4.3-13-4.3-13-4.3,13Z" />
    <path class="cls-1" d="M212.11,116.27l-4.3-13-4.3,13,4.3,13Z" />
    <path class="cls-2" d="M218.91,95.27l4.3-13-4.3-13-4.3,13Z" />
    <path class="cls-2" d="M232.61,69.27H219l4.3,13h13.6Z" />
    <path class="cls-2" d="M247.81,74.27l-4.3-13-11.1,8,4.3,13Z" />
    <path class="cls-2" d="M236.71,82.27h-13.6l-4.3,13h13.6Z" />
    <path class="cls-2" d="M229.91,103.27l-11.1-8-11.1,8,11.1,8Z" />
    <path class="cls-2" d="M243.51,103.27l-11.1-8h-13.6l11.1,8Z" />
    <path class="cls-2" d="M229.91,103.27l-11.1,8,4.3,13,11.1-8Z" />
    <path class="cls-2" d="M268.21,95.27l4.3-13h-13.6l-4.3,13Z" />
    <path class="cls-2" d="M254.61,95.27l4.3-13-11.1,8-4.3,13Z" />
    <path class="cls-2" d="M236.71,82.27l11.1,8,11.1-8-11.1-8Z" />
    <path class="cls-2" d="M276.81,95.27l-4.3-13-4.3,13,4.3,13Z" />
    <path class="cls-2" d="M258.91,108.27h13.6l-4.3-13h-13.6Z" />
    <path class="cls-2" d="M254.61,95.27l-11.1,8,4.3,13,11.1-8Z" />
    <path class="cls-2" d="M232.61,95.27l11.1,8,4.3-13-11.1-8Z" />
    <path class="cls-2" d="M234.11,116.27h13.6l-4.3-13h-13.6Z" />
    <path class="cls-2" d="M223.11,124.37l-4.3-13-11.1-8,4.3,13Z" />
    <path class="cls-3" d="M492.81,252.37l4.3-13-4.3-13-4.3,13Z" />
    <path class="cls-3" d="M477.61,247.37l-11.1-8h-13.6l11.1,8Z" />
    <path class="cls-3" d="M457,226.37l-4.3,13h13.7l4.3-13Z" />
    <path class="cls-3" d="M468.11,260.37h13.6l-4.3-13h-13.6Z" />
    <path class="cls-3" d="M470.81,226.37l-4.3,13,11.1,8,4.3-13Z" />
    <path class="cls-3" d="M463.91,247.37l-11.1-8,4.3,13,11.1,8Z" />
    <path class="cls-3" d="M470.81,226.37l-4.3-13h-13.6l4.3,13Z" />
    <path class="cls-3" d="M488.61,239.37l4.3-13-11.1,8-4.3,13Z" />
    <path class="cls-3" d="M470.81,226.37l11.1,8,11.1-8-11.1-8Z" />
    <path class="cls-3" d="M488.61,239.37l-11.1,8,4.3,13,11.1-8Z" />
    <path class="cls-3" d="M481.81,218.37l-4.3-13-11.1,8,4.3,13Z" />
    <path class="cls-3" d="M477.61,205.37l4.3,13,11.1,8-4.3-13Z" />
    <path class="cls-4" d="M406.11,247.37l-4.3,13,11.1-8,4.3-13Z" />
    <path class="cls-4" d="M423.91,260.37l-11.1-8-11.1,8,11.1,8Z" />
    <path class="cls-4" d="M401.91,234.37h-13.7l4.3,13h13.6Z" />
    <path class="cls-4" d="M399.21,226.37h13.6l-11.1-8h-13.6Z" />
    <path class="cls-4" d="M406.11,205.37l-4.3,13,11.1,8,4.3-13Z" />
    <path class="cls-4" d="M406.11,247.37l11.1-8-4.3-13-11.1,8Z" />
    <path class="cls-4" d="M388.21,234.37h13.6l11.1-8h-13.6Z" />
    <path class="cls-4" d="M428.21,205.37l-11.1,8-4.3,13,11.1-8Z" />
    <path class="cls-4" d="M399.21,226.37l-11.1-8-11.1,8,11.1,8Z" />
    <path class="cls-4" d="M430.71,239.37l11.1,8,11.1-8-11.1-8Z" />
    <path class="cls-4" d="M417.11,239.37l11.1,8h13.6l-11.1-8Z" />
    <path class="cls-4" d="M430.71,239.37l11.1-8-4.3-13-11.1,8Z" />
    <path class="cls-4" d="M428.21,247.37l-11.1-8-4.3,13,11.1,8Z" />
    <path class="cls-4" d="M426.61,226.37H413l4.3,13h13.6Z" />
    <path class="cls-4" d="M423.91,218.37l-11.1,8h13.6l11.1-8Z" />
    <g id="m1">
        <path class="cls-5" d="M63.21,40.27l11.1,8,4.3-13-11.1-8Z" />
        <path class="cls-5" d="M67.41,27.27l11.1,8,11.1-8-11.1-8.1Z" />
        <path class="cls-5" d="M34.31,35.27l4.3,13,11.1-8-4.3-13Z" />
        <path class="cls-5" d="M45.31,27.27l4.3,13,4.3-13-4.3-13Z" />
        <path class="cls-5" d="M67.41,27.27H53.81l-4.3,13h13.6Z" />
        <path class="cls-5" d="M27.41,40.27l11.1,8-4.3-13-11.1-8Z" />
        <path class="cls-5" d="M34.31,19.17l-11.1,8,11.1,8,11.1-8Z" />
        <path class="cls-5" d="M60.61,48.27h13.6l-11.1-8H49.51Z" />
        <path class="cls-5" d="M60.61,48.27l-11.1-8-11.1,8,11.1,8Z" />
        <path class="cls-5" d="M67.41,69.27l11.1-8-4.3-13-11.1,8Z" />
        <path class="cls-5" d="M49.51,56.27h13.6l11.1-8H60.61Z" />
        <path class="cls-5" d="M67.41,69.27l-4.3-13H49.51l4.3,13Z" />
        <path class="cls-5" d="M67.41,27.27l11.1-8-4.3-13-11.1,8Z" />
        <path class="cls-5" d="M45.31,27.27l4.3-13-11.1-8-4.3,13Z" />
        <path class="cls-5" d="M63.21,14.27H49.51l4.3,13h13.6Z" />
        <path class="cls-5" d="M23.21,27.27l11.1-8,4.3-13-11.1,8Z" />
        <path class="cls-5" d="M20.61,61.27h13.6l4.3-13H24.91Z" />
        <path class="cls-5" d="M13.81,40.27l11.1,8h13.6l-11.1-8Z" />
        <path class="cls-5" d="M49.51,56.27l-11.1-8-4.3,13,11.1,8Z" />
        <path class="cls-5" d="M45.31,69.27l4.3,13,4.3-13-4.3-13Z" />
    </g>
    <g id="m2">
        <path class="cls-6" d="M152.51,27.27l11.1,8,4.3-13-11.1-8Z" />
        <path class="cls-6" d="M110,48.27l4.3,13,4.3-13-4.3-13Z" />
        <path class="cls-6" d="M132.11,48.27h-13.6l-4.3,13h13.6Z" />
        <path class="cls-6" d="M127.91,35.27h-13.7l4.3,13h13.6Z" />
        <path class="cls-6" d="M150,61.27l-11.1,8,4.3,13,11.1-8Z" />
        <path class="cls-6" d="M154.21,48.27l-11.1,8-4.3,13,11.1-8Z" />
        <path class="cls-6" d="M127.91,61.27l11.1,8,4.3-13-11.1-8Z" />
        <path class="cls-6" d="M138.91,69.27l-11.1-8h-13.6l11.1,8Z" />
        <path class="cls-6" d="M129.51,82.27h13.7l-4.3-13h-13.6Z" />
        <path class="cls-6" d="M118.41,74.27l-4.3-13-11,8,4.3,13Z" />
        <path class="cls-6" d="M125.31,69.27l-11.1-8,4.3,13,11.1,8Z" />
        <path class="cls-6" d="M114.21,35.27h13.6l11.1-8h-13.6Z" />
        <path class="cls-6" d="M143.21,40.27l-4.3-13-11.1,8,4.3,13Z" />
        <path class="cls-6" d="M114.21,19.17l-11,8.1,11.1,8,11.1-8Z" />
        <path class="cls-6" d="M127.91,19.17l11.1,8,4.3-13-11.1-8Z" />
        <path class="cls-6" d="M163.61,61.27l4.3-13h-13.7l-4.3,13Z" />
        <path class="cls-6" d="M132.11,48.27l11.1,8,11.1-8-11.1-8Z" />
        <path class="cls-6" d="M150,35.27l-11.1-8,4.3,13,11.1,8Z" />
        <path class="cls-6" d="M150,35.27l4.3,13h13.6l-4.3-13Z" />
        <path class="cls-6" d="M156.81,14.27h-13.6l-4.3,13h13.6Z" />
        <path class="cls-6" d="M163.61,35.27l-11.1-8h-13.6l11.1,8Z" />
        <path class="cls-6" d="M150,61.27l4.3,13h13.6l-4.3-13Z" />
    </g>
    <g id="m3">
        <path class="cls-1" d="M223.11,40.27l-4.3,13h13.6l4.3-13Z" />
        <path class="cls-1" d="M203.61,6.27l4.3,13,11.1,8-4.3-13Z" />
        <path class="cls-1" d="M207.81,35.27l11.1-8-11.1-8-11.1,8Z" />
        <path class="cls-1" d="M196.81,27.27l11.1-8-4.3-13-11.1,8Z" />
        <path class="cls-1" d="M223.11,14.27l-4.3,13h13.6l4.3-13Z" />
        <path class="cls-1" d="M214.71,14.27l4.3,13,4.3-13-4.3-13Z" />
        <path class="cls-1" d="M194.21,61.27h13.6l-4.3-13h-13.6Z" />
        <path class="cls-1" d="M189.91,48.27h13.6l-11.1-8h-13.6Z" />
        <path class="cls-1" d="M196.81,27.27l-4.3,13,11.1,8,4.3-13Z" />
        <path class="cls-1" d="M178.91,56.27l4.3,13,11.1-8-4.3-13Z" />
        <path class="cls-1" d="M214.71,40.27l4.3-13-11.1,8-4.3,13Z" />
        <path class="cls-1" d="M214.71,40.27l-11.1,8,4.3,13,11.1-8Z" />
        <path class="cls-1" d="M236.71,40.27l-4.3-13h-13.6l4.3,13Z" />
        <path class="cls-1" d="M218.91,53.27l4.3-13-4.3-13-4.3,13Z" />
        <path class="cls-1" d="M196.81,27.27l-4.3-13h-13.6l4.3,13Z" />
        <path class="cls-1" d="M183.11,27.27l-4.3,13h13.6l4.3-13Z" />
    </g>
    <g id="m4">
        <path class="cls-7" d="M268.21,27.27l4.3-13h-13.6l-4.3,13Z" />
        <path class="cls-7" d="M287.71,19.17l-4.3-13-11.1,8,4.3,13Z" />
        <path class="cls-7" d="M276.81,27.27l-4.3-13-4.3,13,4.3,13Z" />
        <path class="cls-7" d="M294.61,14.27l-11.1-8,4.3,13,11.1,8Z" />
        <path class="cls-7" d="M287.71,35.27l11.1-8-11.1-8-11.1,8Z" />
        <path class="cls-7" d="M294.61,40.27l-11.1,8h13.6l11.1-8Z" />
        <path class="cls-7" d="M301.41,61.27l-4.3-13h-13.6l4.3,13Z" />
        <path class="cls-7" d="M276.81,27.27l-4.3,13,11.1,8,4.3-13Z" />
        <path class="cls-7" d="M258.91,40.27h13.6l-4.3-13h-13.6Z" />
        <path class="cls-7" d="M298.81,27.27l-11.1,8-4.3,13,11.1-8Z" />
        <path class="cls-7" d="M272.51,40.27h-13.6l-11.1,8h13.6Z" />
        <path class="cls-7" d="M261.41,48.27l-4.3,13,11.1,8,4.3-13Z" />
        <path class="cls-7" d="M287.71,61.27l-4.3,13H297l4.3-13Z" />
        <path class="cls-7" d="M283.61,74.27l4.3-13-4.3-13-4.3,13Z" />
        <path class="cls-7" d="M268.21,69.27l4.3,13,11.1-8-4.3-13Z" />
        <path class="cls-7" d="M272.51,56.27l11.1-8-11.1-8-11.1,8Z" />
        <path class="cls-7" d="M279.31,61.27l4.3-13-11.1,8-4.3,13Z" />
    </g>
    <g id="m5">
        <path class="cls-5" d="M366.11,14.27h-13.6l-4.3,13h13.6Z" />
        <path class="cls-5" d="M361.91,27.27l11.1-8,4.3-13-11.1,8Z" />
        <path class="cls-5" d="M384,27.27l-11.1-8-11.1,8,11.1,8Z" />
        <path class="cls-5" d="M337.21,19.17h-13.6l-11.1,8h13.6Z" />
        <path class="cls-5" d="M337.21,35.27l11.1-8-11.1-8-11.1,8Z" />
        <path class="cls-5" d="M337.21,19.17l11.1,8,4.3-13-11.1-8Z" />
        <path class="cls-5" d="M352.41,40.27l11.1,8h13.6l-11.1-8Z" />
        <path class="cls-5" d="M361.91,27.27h-13.6l4.3,13h13.6Z" />
        <path class="cls-5" d="M359.21,61.27l4.3-13-11.1-8-4.3,13Z" />
        <path class="cls-5" d="M366.11,40.27l11.1,8-4.3-13-11.1-8Z" />
        <path class="cls-5" d="M326.11,27.27h-13.6l11.1,8h13.6Z" />
        <path class="cls-5" d="M332.91,48.27l4.3-13h-13.6l-4.3,13Z" />
        <path class="cls-5" d="M341.41,48.27l-4.3,13,11.1-8,4.3-13Z" />
        <path class="cls-5" d="M341.41,48.27l11.1-8-4.3-13-11.1,8Z" />
        <path class="cls-5" d="M319.31,48.27l4.3,13h13.6l-4.3-13Z" />
        <path class="cls-5" d="M337.21,35.27l-4.3,13,4.3,13,4.3-13Z" />
    </g>
    <g id="m6">
        <path class="cls-4" d="M423.91,14.27l-11.1-8,4.3,13,11.1,8Z" />
        <path class="cls-4" d="M406.11,27.27l11.1-8-4.3-13-11.1,8Z" />
        <path class="cls-4" d="M423.91,40.27l-11.1,8,4.3,13,11.1-8Z" />
        <path class="cls-4" d="M428.21,27.27l-11.1,8-4.3,13,11.1-8Z" />
        <path class="cls-4" d="M401.91,40.27l11.1,8,4.3-13-11.1-8Z" />
        <path class="cls-4" d="M441.81,53.27h-13.6l-11.1,8h13.6Z" />
        <path class="cls-4" d="M423.91,40.27l4.3,13h13.6l-4.3-13Z" />
        <path class="cls-4" d="M423.91,14.27l4.3,13h13.6l-4.3-13Z" />
        <path class="cls-4" d="M417.11,35.27l11.1-8-11.1-8-11.1,8Z" />
        <path class="cls-4" d="M437.51,40.27l4.3-13h-13.6l-4.3,13Z" />
        <path class="cls-4" d="M401.91,14.27h-13.7l4.3,13h13.6Z" />
        <path class="cls-4" d="M403.51,61.27h13.6l-4.3-13h-13.6Z" />
        <path class="cls-4" d="M399.21,48.27h13.6l-11.1-8h-13.6Z" />
        <path class="cls-4" d="M388.21,56.27l4.3,13,11.1-8-4.3-13Z" />
        <path class="cls-4" d="M406.11,27.27h-13.6l-4.3,13h13.6Z" />
        <path class="cls-4" d="M399.21,48.27l-11.1-8-11.1,8,11.1,8Z" />
    </g>
    <g id="m7">
        <path class="cls-6" d="M45.31,95.27l4.3-13-11.1,8-4.3,13Z" />
        <path class="cls-6" d="M45.31,95.27l-11.1,8,4.3,13,11.1-8Z" />
        <path class="cls-6" d="M23.21,95.27l11.1,8,4.3-13-11.1-8Z" />
        <path class="cls-6" d="M49.51,108.27l4.3-13-4.3-13-4.3,13Z" />
        <path class="cls-6" d="M67.41,95.27H53.81l-4.3,13h13.6Z" />
        <path class="cls-6" d="M24.91,116.27l-11.1,8-4.3,13,11.1-8Z" />
        <path class="cls-6" d="M34.31,129.27l4.3-13H24.91l-4.3,13Z" />
        <path class="cls-6" d="M34.31,103.27l-11.1-8H9.51l11.1,8Z" />
        <path class="cls-6" d="M13.81,82.27l-4.3,13h13.7l4.3-13Z" />
        <path class="cls-6" d="M24.91,116.27h13.6l-4.3-13H20.61Z" />
        <path class="cls-6" d="M20.61,103.27l-11.1-8,4.3,13,11.1,8Z" />
        <path class="cls-6" d="M49.51,124.37h13.6l11.1-8H60.61Z" />
        <path class="cls-6" d="M49.51,108.27l-11.1,8,11.1,8,11.1-8Z" />
        <path class="cls-6" d="M67.41,137.37l-4.3-13H49.51l4.3,13Z" />
        <path class="cls-6" d="M60.61,116.27h13.6l-11.1-8H49.51Z" />
        <path class="cls-6" d="M45.31,137.37l4.3,13,4.3-13-4.3-13Z" />
        <path class="cls-6" d="M45.31,137.37l4.3-13-11.1-8-4.3,13Z" />
    </g>
    <g id="m8">
        <path class="cls-5" d="M125.31,95.27l-11.1,8h13.6l11.1-8Z" />
        <path class="cls-5" d="M132.11,116.27l-4.3-13h-13.6l4.3,13Z" />
        <path class="cls-5" d="M107.41,82.27l-4.3,13,11.1,8,4.3-13Z" />
        <path class="cls-5" d="M103.21,69.27l-4.3,13,4.3,13,4.3-13Z" />
        <path class="cls-5" d="M89.61,95.27h13.6l-4.3-13H85.31Z" />
        <path class="cls-5" d="M129.51,82.27l-11.1,8-4.3,13,11.1-8Z" />
        <path class="cls-5" d="M103.21,111.37l11.1-8-11.1-8.1-11.1,8Z" />
        <path class="cls-5" d="M92.11,103.27l11.1-8H89.61l-11.1,8Z" />
        <path class="cls-5" d="M110,116.27l4.3-13-11.1,8.1-4.3,13Z" />
        <path class="cls-5" d="M87.91,116.27l11.1,8,4.3-13-11.1-8Z" />
        <path class="cls-5" d="M85.31,124.37l4.3,13h13.6l-4.3-13Z" />
        <path class="cls-5" d="M98.91,124.37l-11.1-8H74.21l11.1,8Z" />
        <path class="cls-5" d="M125.31,137.37l-11.1-8-11,8,11.1,8Z" />
        <path class="cls-5" d="M138.91,137.37l-11.1-8h-13.6l11.1,8Z" />
        <path class="cls-5" d="M118.41,116.27l-4.3,13h13.6l4.3-13Z" />
        <path class="cls-5" d="M114.21,129.27l4.3-13-4.3-13-4.3,13Z" />
        <path class="cls-5" d="M98.91,124.37l4.3,13,11.1-8-4.3-13Z" />
    </g>
    <g id="m9">
        <path class="cls-1" d="M203.61,116.27l4.3-13h-13.7l-4.3,13Z" />
        <path class="cls-1" d="M189.91,116.27l4.3,13h13.6l-4.3-13Z" />
        <path class="cls-1" d="M163.61,103.27l4.3-13h-13.7l-4.3,13Z" />
        <path class="cls-1" d="M172,103.27l11.1-8-4.3-13-11.1,8Z" />
        <path class="cls-1" d="M189.91,116.27l4.3-13-11.1-8-4.3,13Z" />
        <path class="cls-1" d="M172,103.27l-4.3,13,11.1-8,4.3-13Z" />
        <path class="cls-1" d="M189.91,116.27l-11.1-8-11.1,8,11.1,8Z" />
        <path class="cls-1" d="M150,103.27l4.3,13h13.6l-4.3-13Z" />
        <path class="cls-1" d="M167.91,90.37l-4.3,13,4.3,13,4.3-13Z" />
        <path class="cls-1" d="M178.91,124.37l4.3,13,11.1-8-4.3-13Z" />
        <path class="cls-1" d="M183.11,137.37l-4.3-13-11.1-8,4.3,13Z" />
        <path class="cls-1" d="M167.91,142.27l11,8,4.3-13-11.1-8Z" />
        <path class="cls-1" d="M163.61,129.27l4.3-13h-13.7l-4.3,13Z" />
        <path class="cls-1" d="M172,129.27l-4.3-13-4.3,13,4.3,13Z" />
        <path class="cls-1" d="M154.21,142.27h13.6l-4.3-13h-13.6Z" />
    </g>
    <g id="m10">
        <path class="cls-8" d="M294.61,82.27l-11.1,8,4.3,13,11.1-8Z" />
        <path class="cls-8" d="M298.81,95.27h13.6l-4.3-13h-13.6Z" />
        <path class="cls-8" d="M301.41,103.27l11.1-8h-13.6l-11.1,8Z" />
        <path class="cls-8" d="M326.11,95.27h-13.6l11.1,8h13.6Z" />
        <path class="cls-8" d="M326.11,95.27l11.1,8,11.1-8-11.1-8Z" />
        <path class="cls-8" d="M319.31,74.27l-11.1,8,4.3,13,11.1-8Z" />
        <path class="cls-8" d="M337.21,87.27h-13.6l-11.1,8h13.6Z" />
        <path class="cls-8" d="M297.21,116.27l11.1-8,4.3-13-11.1,8Z" />
        <path class="cls-8" d="M323.51,103.27l-11.1-8-4.3,13,11.1,8Z" />
        <path class="cls-8" d="M287.71,103.27l-4.3,13H297l4.3-13Z" />
        <path class="cls-8" d="M319.31,116.27h13.6l4.3-13h-13.6Z" />
        <path class="cls-8" d="M301.41,129.27l11.1,8-4.3-13-11.1-8Z" />
        <path class="cls-8" d="M319.31,116.27l-11.1,8,4.3,13,11.1-8Z" />
        <path class="cls-8" d="M301.41,129.27l-4.3-13h-13.6l4.3,13Z" />
        <path class="cls-8" d="M308.21,108.27l-11.1,8,11.1,8,11.1-8Z" />
        <path class="cls-8" d="M323.51,129.27h13.7l-4.3-13h-13.6Z" />
    </g>
    <g id="m11">
        <path class="cls-9" d="M406.11,95.27l-4.3-13h-13.6l4.3,13Z" />
        <path class="cls-9" d="M388.21,108.27l4.3-13-4.3-13-4.3,13Z" />
        <path class="cls-9" d="M372.91,103.27l4.3,13,11.1-8-4.3-13Z" />
        <path class="cls-9" d="M406.11,95.27h-13.6l-4.3,13h13.6Z" />
        <path class="cls-9" d="M388.21,108.27l-11.1,8,11.1,8,11.1-8Z" />
        <path class="cls-9" d="M384,95.27l4.3-13-11.1,8-4.3,13Z" />
        <path class="cls-9" d="M361.91,95.27l11.1,8,4.3-13-11.1-8Z" />
        <path class="cls-9" d="M366.11,82.27h-13.6l-4.3,13h13.6Z" />
        <path class="cls-9" d="M372.91,103.27l-11.1-8h-13.5l11.1,8Z" />
        <path class="cls-9" d="M363.51,116.27h13.6l-4.3-13h-13.6Z" />
        <path class="cls-9" d="M361.91,137.37h-13.6l4.3,13h13.6Z" />
        <path class="cls-9" d="M359.21,103.27l-11.1-8,4.3,13,11.1,8Z" />
        <path class="cls-9" d="M406.11,137.37l-4.3-13h-13.6l4.3,13Z" />
        <path class="cls-9" d="M359.21,129.27l-11.1,8h13.6l11.1-8Z" />
        <path class="cls-9" d="M359.21,129.27h13.6l4.3-13h-13.6Z" />
        <path class="cls-9" d="M377.11,142.27l-4.3-13-11.1,8,4.3,13Z" />
        <path class="cls-9" d="M384,137.37l4.3,13,4.3-13-4.3-13Z" />
        <path class="cls-9" d="M406.11,137.37h-13.6l-4.3,13h13.6Z" />
        <path class="cls-9" d="M384,137.37l4.3-13-11.1-8-4.3,13Z" />
        <path class="cls-9" d="M372.91,129.27l4.3,13,11.1,8-4.3-13Z" />
        <path class="cls-9" d="M363.51,116.27l-11.1,8-4.3,13,11.1-8Z" />
        <path class="cls-9" d="M341.41,116.27l11.1,8,11.1-8-11.1-8Z" />
        <path class="cls-9" d="M388.21,124.37h13.6l11.1-8h-13.6Z" />
        <path class="cls-9" d="M399.21,116.27h13.6l-11.1-8h-13.6Z" />
    </g>
    <g id="m12">
        <path class="cls-10" d="M446.11,82.27l-4.3-13-4.3,13,4.3,13Z" />
        <path class="cls-10" d="M457,90.37l11.1-8-11.1-8-11.1,8Z" />
        <path class="cls-10" d="M463.91,95.27l-11.1,8h13.7l11.1-8Z" />
        <path class="cls-10" d="M463.91,95.27h13.6l4.3-13h-13.6Z" />
        <path class="cls-10" d="M446.11,82.27l-4.3,13,11.1,8,4.3-13Z" />
        <path class="cls-10" d="M428.21,95.27h13.6l-4.3-13h-13.6Z" />
        <path class="cls-10" d="M468.11,82.27l-11.1,8-4.3,13,11.1-8Z" />
        <path class="cls-10" d="M430.71,103.27l11.1-8h-13.6l-11.1,8Z" />
        <path class="cls-10" d="M470.81,116.27l-4.3-13h-13.6l4.3,13Z" />
        <path class="cls-10" d="M481.81,108.27l-4.3-13-11.1,8,4.3,13Z" />
        <path class="cls-10" d="M457,116.27l-4.3,13h13.7l4.3-13Z" />
        <path class="cls-10" d="M452.91,129.27l4.3-13-4.3-13-4.3,13Z" />
        <path class="cls-10" d="M437.51,124.37l4.3,13,11.1-8-4.3-13Z" />
        <path class="cls-10" d="M441.81,111.37l11.1-8-11.1-8-11.1,8Z" />
        <path class="cls-10" d="M448.61,116.27l4.3-13-11.1,8-4.3,13Z" />
        <path class="cls-10" d="M426.61,116.27l11.1,8,4.3-13-11.1-8Z" />
        <path class="cls-10" d="M481.81,124.37l11.1-8-11.1-8-11.1,8Z" />
        <path class="cls-10" d="M470.81,116.27l-4.3,13,11.1,8,4.3-13Z" />
        <path class="cls-10" d="M423.91,124.37l4.3,13h13.6l-4.3-13Z" />
        <path class="cls-10" d="M437.51,124.37l-11.1-8h-13.6l11.1,8Z" />
    </g>
    <g id="m13">
        <path class="cls-6" d="M38.51,184.37H24.91l-11.1,8h13.6Z" />
        <path class="cls-6" d="M20.61,171.37l4.3,13h13.6l-4.3-13Z" />
        <path class="cls-6" d="M34.31,171.37l4.3,13,4.3-13-4.3-13Z" />
        <path class="cls-6" d="M34.31,171.37l4.3-13H24.91l-4.3,13Z" />
        <path class="cls-6" d="M38.51,200.37l11.1-8-11.1-8-11.1,8Z" />
        <path class="cls-6" d="M60.61,184.37l-11.1,8h13.6l11.1-8Z" />
        <path class="cls-6" d="M60.61,184.37h13.6l4.3-13H64.81Z" />
        <path class="cls-6" d="M42.71,171.37l-4.3,13,11.1,8,4.3-13Z" />
        <path class="cls-6" d="M64.81,171.37l-11.1,8-4.3,13,11.1-8Z" />
        <path class="cls-6" d="M42.71,171.37l11.1,8,11.1-8-11.1-8Z" />
        <path class="cls-6" d="M53.81,163.27l-4.3-13-11.1,8,4.3,13Z" />
        <path class="cls-6" d="M60.61,158.37l-11.1-8.1,4.3,13,11.1,8Z" />
    </g>
    <g id="m14">
        <path class="cls-1" d="M107.41,192.37l11.1-8-4.3-13-11,8Z" />
        <path class="cls-1" d="M132.11,184.37l-4.3-13h-13.6l4.3,13Z" />
        <path class="cls-1" d="M103.21,163.27l11.1,8,4.3-13-11.2-8Z" />
        <path class="cls-1" d="M118.41,158.37l-4.3,13h13.6l4.3-13Z" />
        <path class="cls-1" d="M85.31,192.37l4.3,13h13.6l-4.3-13Z" />
        <path class="cls-1" d="M103.21,179.37l-4.3,13,4.3,13,4.3-13Z" />
        <path class="cls-1" d="M85.31,192.37h13.6l4.3-13H89.61Z" />
        <path class="cls-1" d="M92.11,171.37H78.51l11.1,8h13.6Z" />
        <path class="cls-1" d="M92.11,171.37l11.1,8,11.1-8-11.1-8.1Z" />
        <path class="cls-1" d="M103.21,163.27H89.61l-11.1,8h13.6Z" />
    </g>
    <g id="m15">
        <path class="cls-11" d="M189.91,184.37l-11.1,8h13.6l11.1-8Z" />
        <path class="cls-11" d="M172,213.37l11.1-8-4.3-13-11.1,8Z" />
        <path class="cls-11" d="M154.21,184.37h13.6l-4.3-13h-13.6Z" />
        <path class="cls-11" d="M167.91,184.37h-13.7l-11.1,8h13.6Z" />
        <path class="cls-11" d="M167.91,200.37l11.1-8-11.1-8-11.1,8Z" />
        <path class="cls-11" d="M156.81,192.37h-13.6l11.1,8h13.6Z" />
        <path class="cls-11" d="M150,171.37h13.6l4.3-13h-13.7Z" />
        <path class="cls-11" d="M196.81,205.37l11.1-8-4.3-13-11.1,8Z" />
        <path class="cls-11" d="M192.61,192.37h-13.7l4.3,13h13.6Z" />
        <path class="cls-11" d="M172,171.37l-4.3,13,11.1,8,4.3-13Z" />
        <path class="cls-11" d="M163.61,171.37l4.3,13,4.3-13-4.3-13Z" />
        <path class="cls-11" d="M194.21,171.37l-11.1,8-4.3,13,11.1-8Z" />
        <path class="cls-11" d="M172,171.37l11.1,8,11.1-8-11.1-8Z" />
        <path class="cls-11" d="M183.11,163.27l-4.3-13-11.1,8,4.3,13Z" />
    </g>
    <g id="m16">
        <path class="cls-5" d="M236.71,192.37l11.1-8-4.3-13-11.1,8Z" />
        <path class="cls-5" d="M218.91,179.37h13.6l11.1-8H230Z" />
        <path class="cls-5" d="M236.71,192.37l-4.3-13h-13.6l4.3,13Z" />
        <path class="cls-5" d="M257.31,171.37h-13.6l4.3,13h13.6Z" />
        <path class="cls-5" d="M232.61,163.27l11.1,8,4.3-13-11.1-8Z" />
        <path class="cls-5" d="M229.91,171.37h13.6l-11.1-8h-13.6Z" />
        <path class="cls-5" d="M223.11,150.27l-4.3,13h13.6l4.3-13Z" />
        <path class="cls-5" d="M261.41,158.37l11.1-8h-13.6l-11.1,8Z" />
        <path class="cls-5" d="M261.41,158.37h-13.6l-4.3,13h13.7Z" />
        <path class="cls-5" d="M207.81,171.37l11.1,8,11.1-8-11.1-8Z" />
        <path class="cls-5" d="M236.71,150.27l11.1,8-4.3-13-11.1-8Z" />
        <path class="cls-5" d="M254.61,137.37l-11.1,8,4.3,13,11.1-8Z" />
    </g>
    <g id="m17">
        <path class="cls-12" d="M294.61,192.37l-11.1-8-11.1,8,11.1,8Z" />
        <path class="cls-12" d="M308.21,192.37l-11.1-8h-13.6l11.1,8Z" />
        <path class="cls-12" d="M287.71,171.37l-4.3,13H297l4.3-13Z" />
        <path class="cls-12" d="M287.71,213.37l-4.3-13-11.1-8,4.3,13Z" />
        <path class="cls-12" d="M294.61,192.37l-11.1,8,4.3,13,11.1-8Z" />
        <path class="cls-12" d="M268.21,179.37l4.3,13,11.1-8-4.3-13Z" />
        <path class="cls-12" d="M279.31,171.37l4.3,13,4.3-13-4.3-13Z" />
        <path class="cls-12" d="M257.31,171.37l11.1,8,11.1-8-11.1-8Z" />
        <path class="cls-12" d="M298.81,205.37h13.6l-4.3-13h-13.6Z" />
        <path class="cls-12" d="M301.41,171.37l-4.3,13,11.1,8,4.3-13Z" />
        <path class="cls-12" d="M279.31,171.37l4.3-13-11.1-8-4.3,13Z" />
        <path class="cls-12" d="M301.41,171.37l-4.3-13h-13.6l4.3,13Z" />
    </g>
    <g id="m18">
        <path class="cls-13" d="M348.31,179.37l4.3,13,11.1-8-4.3-13Z" />
        <path class="cls-13" d="M337.21,171.37l11.1,8,11.1-8-11.1-8Z" />
        <path class="cls-13" d="M359.21,171.37l4.3,13h13.6l-4.3-13Z" />
        <path class="cls-13" d="M359.21,171.37l4.3-13-11.1-8-4.3,13Z" />
        <path class="cls-13" d="M372.91,171.37l4.3-13h-13.6l-4.3,13Z" />
        <path class="cls-13" d="M341.41,158.37l-4.3,13,11.1-8,4.3-13Z" />
        <path class="cls-13" d="M319.31,158.37l4.3,13h13.6l-4.3-13Z" />
        <path class="cls-13" d="M337.21,145.37l-4.3,13,4.3,13,4.3-13Z" />
        <path class="cls-13" d="M352.41,192.37l-4.3-13-11.1-8,4.3,13Z" />
        <path class="cls-13" d="M332.91,184.37l4.3-13h-13.6l-4.3,13Z" />
        <path class="cls-13" d="M341.41,184.37l-4.3-13-4.3,13,4.3,13Z" />
    </g>
    <g id="m19">
        <path class="cls-14" d="M428.21,179.37l-11.1-8-4.3,13,11.1,8Z" />
        <path class="cls-14" d="M399.21,184.37h13.6l4.3-13h-13.6Z" />
        <path class="cls-14" d="M381.41,171.37l-4.3,13,11.1,8,4.3-13Z" />
        <path class="cls-14" d="M403.51,171.37l-11.1,8-4.3,13,11.1-8Z" />
        <path class="cls-14" d="M381.41,171.37l11.1,8,11.1-8-11.1-8Z" />
        <path class="cls-14" d="M403.51,171.37h13.6l-4.3-13h-13.6Z" />
        <path class="cls-14" d="M423.91,192.37h13.6l4.3-13h-13.6Z" />
        <path class="cls-14" d="M430.71,171.37h-13.6l11.1,8h13.6Z" />
        <path class="cls-14" d="M441.81,163.27h-13.6l-11.1,8h13.6Z" />
        <path class="cls-14" d="M428.21,163.27h13.6l-4.3-13h-13.6Z" />
        <path class="cls-14" d="M423.91,150.27l-11.1,8,4.3,13,11.1-8Z" />
    </g>
    <g id="m20">
        <path class="cls-15" d="M477.61,179.37l4.3,13,11.1-8-4.3-13Z" />
        <path class="cls-15" d="M488.61,171.37l4.3,13,4.3-13-4.3-13Z" />
        <path class="cls-15" d="M470.81,184.37l11.1,8-4.3-13-11.1-8Z" />
        <path class="cls-15" d="M470.81,184.37l-4.3-13h-13.6l4.3,13Z" />
        <path class="cls-15" d="M466.51,171.37l11.1,8,11.1-8-11.1-8Z" />
        <path class="cls-15" d="M488.61,171.37l4.3-13-11.1-8-4.3,13Z" />
        <path class="cls-15" d="M466.51,171.37l11.1-8,4.3-13-11.1,8Z" />
        <path class="cls-15" d="M446.11,192.37l11.1-8-4.3-13-11.1,8Z" />
        <path class="cls-15" d="M430.71,171.37l11.1,8,11.1-8-11.1-8Z" />
        <path class="cls-15" d="M441.81,163.27l11.1,8,4.3-13-11.1-8Z" />
        <path class="cls-15" d="M457,158.37l-4.3,13h13.7l4.3-13Z" />
    </g>
    <g id="m21">
        <path class="cls-5" d="M49.51,234.37l-11.1-8-4.3,13,11.1,8Z" />
        <path class="cls-5" d="M20.61,213.37l4.3,13h13.6l-4.3-13Z" />
        <path class="cls-5" d="M20.61,239.37h13.6l4.3-13H24.91Z" />
        <path class="cls-5" d="M63.21,234.37H49.51l4.3,13h13.6Z" />
        <path class="cls-5" d="M60.61,226.37h13.6l-11.1-8H49.51Z" />
        <path class="cls-5" d="M60.61,226.37l-11.1-8-11.1,8,11.1,8Z" />
        <path class="cls-5" d="M53.81,205.37l-4.3,13h13.6l4.3-13Z" />
        <path class="cls-5" d="M67.41,247.37l11.1-8-4.3-13-11.1,8Z" />
        <path class="cls-5" d="M49.51,234.37h13.6l11.1-8H60.61Z" />
        <path class="cls-5" d="M49.51,218.37l4.3-13-4.3-13-4.3,13Z" />
        <path class="cls-5" d="M34.31,213.37l4.3,13,11.1-8-4.3-13Z" />
    </g>
    <g id="m22">
        <path class="cls-16" d="M118.41,226.37l-4.3,13h13.6l4.3-13Z" />
        <path class="cls-16" d="M110,226.37l4.3,13,4.3-13-4.3-13Z" />
        <path class="cls-16" d="M127.91,239.37l11.1,8,4.3-13-11.1-8Z" />
        <path class="cls-16" d="M138.91,247.37l-11.1-8h-13.6l11.1,8Z" />
        <path class="cls-16" d="M132.11,226.37l11.1,8,11.1-8-11.1-8Z" />
        <path class="cls-16" d="M143.21,218.37l-4.3-13-11.1,8,4.3,13Z" />
        <path class="cls-16" d="M125.31,247.37l-11.1-8,4.3,13,11.1,8Z" />
        <path class="cls-16" d="M129.51,260.37h13.7l-4.3-13h-13.6Z" />
        <path class="cls-16" d="M118.41,252.37l-4.3-13-11,8,4.3,13Z" />
        <path class="cls-16" d="M92.11,239.37l11.1,8,11.1-8-11.1-8Z" />
        <path class="cls-16" d="M98.91,218.37l4.3,13,11.1,8-4.3-13Z" />
        <path class="cls-16" d="M132.11,226.37l-4.3-13h-13.6l4.3,13Z" />
        <path class="cls-16" d="M110,226.37l4.3-13-11.1-8-4.3,13Z" />
    </g>
    <g id="m23">
        <path class="cls-6" d="M196.81,247.37l11.1-8h-13.7l-11.1,8Z" />
        <path class="cls-6" d="M178.91,234.37l4.3,13,11.1-8-4.3-13Z" />
        <path class="cls-6" d="M214.71,260.37l4.3-13-11.1-8-4.3,13Z" />
        <path class="cls-6" d="M192.61,260.37l11.1-8,4.3-13-11.1,8Z" />
        <path class="cls-6" d="M183.11,247.37l-4.3-13-11.1-8,4.3,13Z" />
        <path class="cls-6" d="M178.91,218.37l-11.1,8,11.1,8,11.1-8Z" />
        <path class="cls-6" d="M203.61,252.37l-11.1,8,11.1,8,11.1-8Z" />
        <path class="cls-6" d="M196.81,247.37h-13.6l-4.3,13h13.6Z" />
        <path class="cls-6" d="M167.91,252.37l11.1,8,4.3-13-11.1-8Z" />
    </g>
    <g id="m24">
        <path class="cls-1" d="M232.61,247.37H219l4.3,13h13.6Z" />
        <path class="cls-1" d="M218.91,231.37l-11.1,8,11.1,8,11.1-8Z" />
        <path class="cls-1" d="M229.91,239.37l-11.1,8h13.6l11.1-8Z" />
        <path class="cls-1" d="M234.11,226.37l-11.1-8-4.3,13,11.1,8Z" />
        <path class="cls-1" d="M243.51,239.37l4.3,13,11.1,8-4.3-13Z" />
        <path class="cls-1" d="M247.81,268.37l11.1-8-11.1-8-11.1,8Z" />
        <path class="cls-1" d="M258.91,260.37l-11.1,8-4.3,13,11.1-8Z" />
        <path class="cls-1" d="M258.91,234.37l-11.1-8-4.3,13,11.1,8Z" />
        <path class="cls-1" d="M236.71,260.37l11.1-8-4.3-13-11.1,8Z" />
        <path class="cls-1" d="M229.91,239.37h13.6l4.3-13h-13.6Z" />
        <path class="cls-1" d="M236.71,260.37h-13.6l-4.3,13h13.6Z" />
        <path class="cls-1" d="M236.71,260.37l-4.3,13,11.1,8,4.3-13Z" />
    </g>
    <g id="m25">
        <path class="cls-2" d="M276.81,205.37l-4.3,13,11.1,8,4.3-13Z" />
        <path class="cls-2" d="M287.71,239.37l-4.3-13-11.1,8,4.3,13Z" />
        <path class="cls-2" d="M272.51,234.37l11.1-8-11.1-8-11.1,8Z" />
        <path class="cls-2" d="M297.21,226.37l11.1-8,4.3-13-11.1,8Z" />
        <path class="cls-2" d="M287.71,213.37l-4.3,13H297l4.3-13Z" />
        <path class="cls-2" d="M319.31,226.37l-11.1-8-11.1,8,11.1,8Z" />
        <path class="cls-2" d="M283.61,252.37l-11.1,8,11.1,8,11.1-8Z" />
        <path class="cls-2" d="M294.61,260.37l-11.1,8h13.6l11.1-8Z" />
        <path class="cls-2" d="M276.81,247.37l-4.3,13,11.1-8,4.3-13Z" />
        <path class="cls-2" d="M298.81,247.37l-11.1-8-4.3,13,11.1,8Z" />
        <path class="cls-2" d="M301.41,239.37l11.1,8-4.3-13-11.1-8Z" />
        <path class="cls-2" d="M319.31,226.37l-11.1,8,4.3,13,11.1-8Z" />
        <path class="cls-2" d="M301.41,239.37l-4.3-13h-13.6l4.3,13Z" />
        <path class="cls-2" d="M294.61,260.37h13.6l4.3-13h-13.6Z" />
        <path class="cls-2" d="M287.71,239.37l11.1,8h13.6l-11.1-8Z" />
    </g>
    <g id="m26">
        <path class="cls-5" d="M366.11,260.37l11.1-8-4.3-13-11.1,8Z" />
        <path class="cls-5" d="M361.91,247.37h-13.6l4.3,13h13.6Z" />
        <path class="cls-5" d="M359.21,239.37l-11.1,8h13.6l11.1-8Z" />
        <path class="cls-5" d="M359.21,239.37h13.6l4.3-13h-13.6Z" />
        <path class="cls-5" d="M341.41,268.37l11.1-8-4.3-13-11.1,8Z" />
        <path class="cls-5" d="M363.51,226.37h13.6l-4.3-13h-13.6Z" />
        <path class="cls-5" d="M352.41,218.37l-4.3-13-11.1,8,4.3,13Z" />
        <path class="cls-5" d="M341.41,226.37l-4.3-13-4.3,13,4.3,13Z" />
        <path class="cls-5" d="M359.21,213.37l-11.1-8,4.3,13,11.1,8Z" />
        <path class="cls-5" d="M352.41,234.37l11.1-8-11.1-8-11.1,8Z" />
        <path class="cls-5" d="M341.41,226.37l-4.3,13,11.1,8,4.3-13Z" />
        <path class="cls-5" d="M363.51,226.37l-11.1,8-4.3,13,11.1-8Z" />
        <path class="cls-5" d="M337.21,255.47l11.1-8-11.1-8-11.1,8Z" />
    </g>
    <g id="m27">
        <path class="cls-6" d="M45.31,315.27l4.3-13-11.1-8-4.3,13Z" />
        <path class="cls-6" d="M49.51,328.27l4.3-13-4.3-13-4.3,13Z" />
        <path class="cls-6" d="M63.21,302.37H49.51l4.3,13h13.6Z" />
        <path class="cls-6" d="M23.21,315.27l11.1-8,4.3-13-11.1,8Z" />
        <path class="cls-6" d="M45.31,315.27l-11.1-8-11.1,8,11.1,8Z" />
        <path class="cls-6" d="M49.51,302.37h13.6l11.1-8H60.61Z" />
        <path class="cls-6" d="M49.51,286.37l-11.1,8,11.1,8,11.1-8Z" />
        <path class="cls-6" d="M60.61,294.27h13.6l-11.1-8H49.51Z" />
        <path class="cls-6" d="M53.81,273.37l-4.3,13h13.6l4.3-13Z" />
        <path class="cls-6" d="M67.41,315.27H53.81l-4.3,13h13.6Z" />
        <path class="cls-6" d="M24.91,294.27h13.6l-4.3-13H20.61Z" />
        <path class="cls-6" d="M20.61,281.27h13.6l-11.1-8H9.51Z" />
        <path class="cls-6" d="M27.41,260.37l-4.3,13,11.1,8,4.3-13Z" />
        <path class="cls-6" d="M27.41,302.37l11.1-8H24.91l-11.1,8Z" />
        <path class="cls-6" d="M45.31,273.37l4.3-13-11.1,8-4.3,13Z" />
        <path class="cls-6" d="M45.31,273.37l-11.1,8,4.3,13,11.1-8Z" />
        <path class="cls-6" d="M67.41,273.37l-4.3-13H49.51l4.3,13Z" />
        <path class="cls-6" d="M49.51,286.37l4.3-13-4.3-13-4.3,13Z" />
    </g>
    <g id="m28">
        <path class="cls-1" d="M85.31,302.37l4.3,13h13.6l-4.3-13Z" />
        <path class="cls-1" d="M92.11,281.27l-4.3,13,11.1,8,4.3-13Z" />
        <path class="cls-1" d="M114.21,307.27l4.3-13-4.3-13-4.3,13Z" />
        <path class="cls-1" d="M127.91,281.27h-13.7l4.3,13h13.6Z" />
        <path class="cls-1" d="M98.91,302.37l4.3,13,11.1-8-4.3-13Z" />
        <path class="cls-1" d="M132.11,294.27h-13.6l-4.3,13h13.6Z" />
        <path class="cls-1" d="M103.21,289.37l11.1-8-11.1-8.1-11.1,8Z" />
        <path class="cls-1" d="M110,294.27l4.3-13-11.1,8.1-4.3,13Z" />
        <path class="cls-1" d="M125.31,273.37l-11.1,8h13.6l11.1-8Z" />
        <path class="cls-1" d="M107.41,260.37l-4.3,13,11.1,8,4.3-13Z" />
        <path class="cls-1" d="M125.31,315.27h13.6l-11.1-8h-13.6Z" />
        <path class="cls-1" d="M125.31,315.27l-11.1-8-11,8,11.1,8Z" />
        <path class="cls-1" d="M129.51,260.37l-11.1,8-4.3,13,11.1-8Z" />
    </g>
    <g id="m29">
        <path class="cls-6" d="M178.91,286.37l-11.1,8,11.1,8,11.1-8Z" />
        <path class="cls-6" d="M172,281.27l-4.3,13,11.1-8,4.3-13Z" />
        <path class="cls-6" d="M150,281.27l4.3,13h13.6l-4.3-13Z" />
        <path class="cls-6" d="M167.91,268.37l-4.3,13,4.3,13,4.3-13Z" />
        <path class="cls-6" d="M174.71,315.27l4.3-13-11.1-8-4.3,13Z" />
        <path class="cls-6" d="M163.61,307.27l4.3-13h-13.7l-4.3,13Z" />
    </g>
    <g id="m30">
        <path class="cls-4" d="M236.71,302.37l-4.3-13h-13.6l4.3,13Z" />
        <path class="cls-4" d="M178.91,302.37h13.6l11.1-8H190Z" />
        <path class="cls-4" d="M223.11,328.27l-4.3,13h13.6l4.3-13Z" />
        <path class="cls-4" d="M214.71,328.27l4.3-13-11.1,8-4.3,13Z" />
        <path class="cls-4" d="M196.81,315.27l11.1,8,11.1-8-11.1-8Z" />
        <path class="cls-4" d="M192.61,328.27l11.1,8,4.3-13-11.1-8Z" />
        <path class="cls-4" d="M236.71,328.27l-4.3-13h-13.6l4.3,13Z" />
        <path class="cls-4" d="M218.91,341.27l4.3-13-4.3-13-4.3,13Z" />
        <path class="cls-4" d="M207.81,307.27l-4.3-13-11.1,8,4.3,13Z" />
        <path class="cls-4" d="M203.61,294.27l4.3,13,11.1,8-4.3-13Z" />
        <path class="cls-4" d="M223.11,302.37l-4.3,13h13.6l4.3-13Z" />
        <path class="cls-4" d="M214.71,302.37l4.3,13,4.3-13-4.3-13Z" />
        <path class="cls-4" d="M218.91,289.37h13.6l11.1-8H230Z" />
        <path class="cls-4" d="M229.91,281.27l-11.1-8-11.1,8,11.1,8Z" />
        <path class="cls-4" d="M189.91,294.27h13.6l4.3-13h-13.6Z" />
        <path class="cls-4" d="M218.91,289.37l-11.1-8-4.3,13,11.1,8Z" />
    </g>
    <g id="m31">
        <path class="cls-17" d="M261.41,336.37l11.1-8h-13.6l-11.1,8Z" />
        <path class="cls-17" d="M254.61,315.27l4.3,13h13.6l-4.3-13Z" />
        <path class="cls-17" d="M254.61,315.27l-11.1,8,4.3,13,11.1-8Z" />
        <path class="cls-17" d="M258.91,302.37l-11.1-8-4.3,13,11.1,8Z" />
        <path class="cls-17" d="M254.61,273.37l-11.1,8h13.7l11.1-8Z" />
        <path class="cls-17" d="M279.31,281.27l4.3-13-11.1-8-4.3,13Z" />
        <path class="cls-17" d="M243.51,307.27l-11.1,8,11.1,8,11.1-8Z" />
        <path class="cls-17" d="M272.51,302.37l-4.3,13,4.3,13,4.3-13Z" />
        <path class="cls-17" d="M308.21,302.37l-11.1-8h-13.6l11.1,8Z" />
        <path class="cls-17" d="M287.71,281.27l-4.3,13H297l4.3-13Z" />
        <path class="cls-17" d="M287.71,307.27l-4.3-13-11.1,8,4.3,13Z" />
        <path class="cls-17" d="M254.61,315.27h13.6l4.3-13h-13.6Z" />
        <path class="cls-17" d="M294.61,302.37l-11.1-8,4.3,13,11.1,8Z" />
        <path class="cls-17" d="M257.31,281.27h-13.6l4.3,13h13.6Z" />
        <path class="cls-17" d="M261.41,294.27h-13.6l11.1,8h13.6Z" />
        <path class="cls-17" d="M272.51,286.37l-4.3-13-11.1,8,4.3,13Z" />
        <path class="cls-17" d="M279.31,281.27l4.3,13,4.3-13-4.3-13Z" />
        <path class="cls-17" d="M261.41,294.27l11.1,8,11.1-8-11.1-8Z" />
        <path class="cls-17" d="M268.21,273.37l4.3,13,11.1,8-4.3-13Z" />
        <path class="cls-17" d="M276.81,315.27l-4.3,13,11.1,8,4.3-13Z" />
        <path class="cls-17" d="M298.81,315.27l-11.1,8-4.3,13,11.1-8Z" />
        <path class="cls-17" d="M276.81,315.27l11.1,8,11.1-8-11.1-8Z" />
    </g>
    <g id="m32">
        <path class="cls-18" d="M326.11,315.27h-13.6l11.1,8h13.6Z" />
        <path class="cls-18" d="M326.11,315.27l11.1,8,11.1-8-11.1-8Z" />
        <path class="cls-18" d="M366.11,302.37h-13.6l-4.3,13h13.6Z" />
        <path class="cls-18" d="M348.31,289.37l4.3,13,11.1-8-4.3-13Z" />
        <path class="cls-18" d="M337.21,307.27h-13.6l-11.1,8h13.6Z" />
        <path class="cls-18" d="M319.31,294.27l4.3,13h13.6l-4.3-13Z" />
        <path class="cls-18" d="M352.41,302.37l-4.3-13-11.1-8,4.3,13Z" />
        <path class="cls-18" d="M337.21,307.27l11.1,8,4.3-13-11.1-8Z" />
        <path class="cls-18" d="M332.91,294.27l4.3-13h-13.6l-4.3,13Z" />
        <path class="cls-18" d="M341.41,294.27l-4.3-13-4.3,13,4.3,13Z" />
        <path class="cls-18" d="M348.31,273.37l-11.1,8,11.1,8,11.1-8Z" />
        <path class="cls-18" d="M372.91,307.27l-11.1,8,11.1,8,11.1-8Z" />
        <path class="cls-18" d="M366.11,302.37l11.1-8h-13.6l-11.1,8Z" />
        <path class="cls-18" d="M384,315.27l4.3-13-11.1-8-4.3,13Z" />
        <path class="cls-18" d="M361.91,315.27l11.1-8,4.3-13-11.1,8Z" />
        <path class="cls-18" d="M361.91,315.27h-13.6l4.3,13h13.6Z" />
        <path class="cls-18" d="M341.41,336.37l11.1-8-4.3-13-11.1,8Z" />
    </g>
    <g id="m33">
        <path class="cls-8" d="M428.21,315.27l-11.1,8-4.3,13,11.1-8Z" />
        <path class="cls-8" d="M399.21,336.37h13.6l-11.1-8h-13.6Z" />
        <path class="cls-8" d="M401.91,328.27l11.1,8,4.3-13-11.1-8Z" />
        <path class="cls-8" d="M423.91,302.37l-11.1-8,4.3,13,11.1,8Z" />
        <path class="cls-8" d="M406.11,315.27l11.1-8-4.3-13-11.1,8Z" />
        <path class="cls-8" d="M406.11,315.27l11.1,8,11.1-8-11.1-8Z" />
        <path class="cls-8" d="M406.11,315.27h-13.6l-4.3,13h13.6Z" />
        <path class="cls-8" d="M384,315.27l4.3,13,4.3-13-4.3-13Z" />
        <path class="cls-8" d="M388.21,302.37h13.6l11.1-8h-13.6Z" />
        <path class="cls-8" d="M401.91,302.37h-13.7l4.3,13h13.6Z" />
    </g>
    <g id="m34">
        <path class="cls-16" d="M457,336.37l-4.3-13-11.1-8,4.3,13Z" />
        <path class="cls-16" d="M441.81,341.27l11.1,8,4.3-13-11.1-8Z" />
        <path class="cls-16" d="M437.51,328.27l4.3-13h-13.6l-4.3,13Z" />
        <path class="cls-16" d="M446.11,328.27l-4.3-13-4.3,13,4.3,13Z" />
        <path class="cls-16" d="M470.81,294.27h-13.6l11.1,8h13.6Z" />
        <path class="cls-16" d="M423.91,302.37l4.3,13h13.6l-4.3-13Z" />
        <path class="cls-16" d="M470.81,336.37l11.1-8h-13.7l-11.1,8Z" />
        <path class="cls-16" d="M452.91,307.27l-11.1,8,11.1,8,11.1-8Z" />
        <path class="cls-16" d="M463.91,315.27l-11.1,8,4.3,13,11.1-8Z" />
        <path class="cls-16" d="M463.91,315.27l4.3-13-11.1-8-4.3,13Z" />
        <path class="cls-16" d="M446.11,302.37l-4.3,13,11.1-8,4.3-13Z" />
        <path class="cls-16" d="M446.11,302.37l11.1-8-4.3-13-11.1,8Z" />
        <path class="cls-16" d="M441.81,289.37l-4.3,13,4.3,13,4.3-13Z" />
        <path class="cls-16" d="M463.91,315.27l4.3,13h13.6l-4.3-13Z" />
        <path class="cls-16" d="M477.61,315.27l4.3-13h-13.7l-4.3,13Z" />
    </g>
    <g id="m35">
        <path class="cls-6" d="M352.41,396.37l-4.3-13-11.1,8,4.3,13Z" />
        <path class="cls-6" d="M359.21,391.37l-11.1-8,4.3,13,11.1,8Z" />
        <path class="cls-6" d="M359.21,391.37l4.3,13h13.6l-4.3-13Z" />
        <path class="cls-6" d="M372.91,391.37l-11.1-8h-13.5l11.1,8Z" />
        <path class="cls-6" d="M326.11,383.37l11.1,8,11.1-8-11.1-8Z" />
        <path class="cls-6" d="M337.21,375.27l11.1,8,4.3-13-11.1-8Z" />
        <path class="cls-6" d="M377.11,378.37l11.1-8-11.1-8-11.1,8Z" />
        <path class="cls-6" d="M366.11,370.37l11.1-8h-13.6l-11.1,8Z" />
        <path class="cls-6" d="M359.21,349.37l4.3,13h13.6l-4.3-13Z" />
        <path class="cls-6" d="M361.91,383.37l11.1,8,4.3-13-11.1-8Z" />
        <path class="cls-6" d="M359.21,349.37l-11.1-8-11.1,8,11.1,8Z" />
        <path class="cls-6" d="M366.11,370.37h-13.6l-4.3,13h13.6Z" />
        <path class="cls-6" d="M348.31,357.37l4.3,13,11.1-8-4.3-13Z" />
        <path class="cls-6" d="M352.41,370.37l-4.3-13-11.1-8,4.3,13Z" />
    </g>
    <g id="m36">
        <path class="cls-2" d="M167.91,336.37l-4.3,13,4.3,13,4.3-13Z" />
        <path class="cls-2" d="M156.81,370.37h-13.6l11.1,8h13.6Z" />
        <path class="cls-2" d="M172,349.37l-4.3,13,11.1,8,4.3-13Z" />
        <path class="cls-2" d="M194.21,349.37l-11.1,8-4.3,13,11.1-8Z" />
        <path class="cls-2" d="M172,349.37l11.1,8,11.1-8-11.1-8Z" />
        <path class="cls-2" d="M167.91,378.37l11.1-8-11.1-8-11.1,8Z" />
        <path class="cls-2" d="M154.21,362.27h13.6l-4.3-13h-13.6Z" />
        <path class="cls-2" d="M167.91,362.27h-13.7l-11.1,8h13.6Z" />
        <path class="cls-2" d="M138.91,357.37l4.3,13,11.1-8-4.3-13Z" />
        <path class="cls-2" d="M150,349.37h13.6l4.3-13h-13.7Z" />
        <path class="cls-2" d="M143.21,328.27l11.1,8h13.6l-11.1-8Z" />
        <path class="cls-2" d="M118.41,336.37l-4.3,13h13.6l4.3-13Z" />
        <path class="cls-2" d="M132.11,336.37l-4.3,13,11.1-8,4.3-13Z" />
        <path class="cls-2" d="M150,349.37l-11.1-8-11.1,8,11.1,8Z" />
        <path class="cls-2" d="M127.91,323.37h-13.7l4.3,13h13.6Z" />
        <path class="cls-2" d="M132.11,362.27l11.1,8-4.3-13-11.1-8Z" />
        <path class="cls-2" d="M132.11,336.37l11.1-8-4.3-13-11.1,8Z" />
        <path class="cls-2" d="M154.21,336.37l-11.1-8-4.3,13,11.1,8Z" />
    </g>
</svg>