<svg id="prefix_Layer_1" data-name="prefix  Layer 1" xmlns="http://www.w3.org/2000/svg" viewBox="0 0 603.2 383.2">
    <defs>
        <style>
            .st0,.st3{fill:none;stroke-linecap:round;stroke-linejoin:round;}
            .st0{stroke:#bdc3c7;}
            .st1{fill:#1190ce;}
            .st2{fill:#454a54;}
            .st3{stroke:red;}
            
            .st0{fill:none;stroke:#BDC3C7;stroke-linecap:round;stroke-linejoin:round;stroke-miterlimit:10;}
            .st1{fill:#1190CE;}
            .st2{fill:#454A54;}
            .st3{fill:none;stroke:#FF0000;stroke-linecap:round;stroke-linejoin:round;stroke-miterlimit:10;}
            .st-text-grey{fill:#454A54;}
            .st-text-blue{fill:#1190CE;}
        </style>
    </defs>
    <path class="st0" d="M15.2,258.1,3.5,266.6,8,280.4l11.7-8.5Z"/>
    <path class="st0" d="M64.8,33.6l11.7,8.5,11.7-8.5L76.5,25.1Z"/>
    <path class="st0" d="M50.3,33.6,62,42.1H76.5L64.8,33.6Z"/>
    <path class="st0" d="M72,55.8,76.5,42H62L57.5,55.8Z"/>
    <path class="st0" d="M72,11.3l4.5,13.8,11.7,8.5L83.7,19.8Z"/>
    <path class="st0" d="M88.2,6.1,76.5-2.4,72,11.4l11.7,8.5Z"/>
    <path class="st0" d="M64.8,33.6l11.7-8.5L72,11.3,60.3,19.8Z"/>
    <path class="st0" d="M76.5,42.1,72,55.9l4.5,13.8L81,55.9Z"/>
    <path class="st0" d="M62,69.6H76.5L72,55.8H57.5Z"/>
    <path class="st0" d="M92.6,47.3,88.1,33.5,76.4,42l4.5,13.8Z"/>
    <path class="st0" d="M88.2,61.1,76.5,69.6l11.7,8.5,11.7-8.5Z"/>
    <path class="st0" d="M99.9,69.6,88.2,78.1h14.5l11.7-8.5Z"/>
    <path class="st0" d="M107.1,91.8,102.6,78H88.1l4.5,13.8Z"/>
    <path class="st0" d="M80.9,55.8,76.4,69.6l11.7-8.5,4.5-13.8Z"/>
    <path class="st0" d="M104.3,55.8,92.6,47.3,88.1,61.1l11.7,8.5Z"/>
    <path class="st0" d="M62-2.4,50.3,6.1,45.8,19.9l11.7-8.5Z"/>
    <path class="st0" d="M34.1,11.3l11.7,8.5L50.3,6,38.6-2.5Z"/>
    <path class="st0" d="M72,11.3,76.5-2.5H62L57.5,11.3Z"/>
    <path class="st0" d="M38.6-2.4,50.3,6.1,62-2.4,50.3-10.9Z"/>
    <path class="st0" d="M60.3,19.8H45.8l4.5,13.8H64.8Z"/>
    <path class="st0" d="M57.5,55.8,62,42,50.3,33.5,45.8,47.3Z"/>
    <path class="st0" d="M57.5,11.3,45.8,19.8H60.3L72,11.3Z"/>
    <path class="st0" d="M3.5,6.1,8,19.9l11.7-8.5L15.2-2.4Z"/>
    <path class="st0" d="M15.2-2.4l4.5,13.8L24.2-2.4,19.7-16.2Z"/>
    <path class="st0" d="M38.6-2.4H24.1L19.6,11.4H34.1Z"/>
    <path class="st0" d="M-3.7,11.3,8,19.8,3.5,6-8.2-2.5Z"/>
    <path class="st0" d="M3.5-10.9-8.2-2.4,3.5,6.1,15.2-2.4Z"/>
    <path class="st0" d="M31.4,19.8H45.9L34.2,11.3H19.7Z"/>
    <path class="st0" d="M31.4,19.8,19.7,11.3,8,19.8l11.7,8.5Z"/>
    <path class="st0" d="M38.6,42.1l11.7-8.5L45.8,19.8,34.1,28.3Z"/>
    <path class="st0" d="M34.1,55.8l11.7-8.5,4.5-13.8L38.6,42Z"/>
    <path class="st0" d="M19.7,28.3H34.2l11.7-8.5H31.4Z"/>
    <path class="st0" d="M38.6,42.1,34.1,28.3H19.6l4.5,13.8Z"/>
    <path class="st0" d="M145,47.3H130.5l-11.7,8.5h14.5Z"/>
    <path class="st0" d="M114.3,42.1l4.5,13.8,11.7-8.5L126,33.6Z"/>
    <path class="st0" d="M145,64.3l11.7-8.5L145,47.3l-11.7,8.5Z"/>
    <path class="st0" d="M126,33.6l4.5,13.8H145l-4.5-13.8Z"/>
    <path class="st0" d="M130.5,64.3l-11.7-8.5-4.5,13.8L126,78.1Z"/>
    <path class="st0" d="M126,78.1l-11.7-8.5,4.5,13.8,11.7,8.5Z"/>
    <path class="st0" d="M107.1,91.8l11.7-8.5-4.5-13.8L102.6,78Z"/>
    <path class="st0" d="M133.3,55.8H118.8l11.7,8.5H145Z"/>
    <path class="st0" d="M140.5,78.1,145,64.3H130.5L126,78.1Z"/>
    <path class="st0" d="M92.6,19.8,88.1,33.6h14.5l4.5-13.8Z"/>
    <path class="st0" d="M107.1,19.8l-4.5,13.8,11.7-8.5,4.5-13.8Z"/>
    <path class="st0" d="M126,33.6l-11.7-8.5-11.7,8.5,11.7,8.5Z"/>
    <path class="st0" d="M83.7,19.8l4.5,13.8,4.5-13.8L88.2,6Z"/>
    <path class="st0" d="M102.6,6.1H88.1l4.5,13.8h14.5Z"/>
    <path class="st0" d="M107.1,47.3l11.7,8.5L114.3,42l-11.7-8.5Z"/>
    <path class="st0" d="M107.1,47.3l-4.5-13.8H88.1l4.5,13.8Z"/>
    <path class="st0" d="M99.9,69.6h14.5l4.5-13.8H104.4Z"/>
    <path class="st0" d="M92.6,47.3l11.7,8.5h14.5l-11.7-8.5Z"/>
    <path class="st0" d="M172.8,33.6h14.5l-4.5-13.8H168.3Z"/>
    <path class="st0" d="M168.4,19.8h14.5l-11.7-8.5H156.7Z"/>
    <path class="st0" d="M175.6-2.4l-4.5,13.8,11.7,8.5,4.5-13.8Z"/>
    <path class="st0" d="M175.6,42.1l11.7-8.5H172.8l-11.7,8.5Z"/>
    <path class="st0" d="M175.6,42.1H161.1l-4.5,13.8h14.5Z"/>
    <path class="st0" d="M156.7,28.3l4.5,13.8,11.7-8.5-4.5-13.8Z"/>
    <path class="st0" d="M194.5,11.3,199-2.5,187.3,6l-4.5,13.8Z"/>
    <path class="st0" d="M175.6-2.4l11.7,8.5L199-2.4l-11.7-8.5Z"/>
    <path class="st0" d="M194.5,11.3l-11.7,8.5,4.5,13.8L199,25.1Z"/>
    <path class="st0" d="M217.9,11.3,213.5-2.4H199l4.5,13.8,14.4-.1Z"/>
    <path class="st0" d="M229.6,19.8,225.1,6,213.5-2.4,218,11.4Z"/>
    <path class="st0" d="M225.2-10.9,213.5-2.4l11.7,8.5,11.7-8.5Z"/>
    <path class="st0" d="M199,25.1l4.5-13.8L199-2.5l-4.5,13.8Z"/>
    <path class="st0" d="M217.9,11.3H203.5L199,25.1h14.5Z"/>
    <path class="st0" d="M149.4,33.6l-4.5-13.8-4.5,13.8,4.5,13.8Z"/>
    <path class="st0" d="M126,33.6h14.5L145,19.8H130.5Z"/>
    <path class="st0" d="M149.4,33.6l-4.5,13.8,11.7,8.5,4.5-13.8Z"/>
    <path class="st0" d="M168.4,19.8l-11.7-8.5L145,19.8l11.7,8.5Z"/>
    <path class="st0" d="M161.1-2.4l-4.5,13.8h14.5l4.5-13.8Z"/>
    <path class="st0" d="M161.1,42.1l-4.5-13.8-11.7-8.5,4.5,13.8Z"/>
    <path class="st0" d="M107.1,19.8l11.7-8.5L114.3-2.5,102.6,6Z"/>
    <path class="st0" d="M130.5,19.8l-11.7-8.5-4.5,13.8L126,33.6Z"/>
    <path class="st0" d="M88.2,6.1h14.5l11.7-8.5H99.9Z"/>
    <path class="st0" d="M88.2-10.9,76.5-2.4,88.2,6.1,99.9-2.4Z"/>
    <path class="st0" d="M118.8,11.3l11.7,8.5H145l-11.7-8.5Z"/>
    <path class="st0" d="M128.8-2.4H114.3l4.5,13.8h14.5Z"/>
    <path class="st0" d="M140.5,6.1,145,19.9l11.7-8.5L152.2-2.4Z"/>
    <path class="st0" d="M152.2-2.4l4.5,13.8,4.5-13.8-4.5-13.8Z"/>
    <path class="st0" d="M133.3,11.3,145,19.8,140.5,6,128.8-2.5Z"/>
    <path class="st0" d="M140.5-10.9,128.8-2.4l11.7,8.5,11.7-8.5Z"/>
    <path class="st0" d="M3.5,78.1-8.2,69.6H-22.7L-11,78.1Z"/>
    <path class="st0" d="M-6.5,91.8H8L3.5,78H-11Z"/>
    <path class="st0" d="M-3.7,55.8-8.2,69.6,3.5,78.1,8,64.3Z"/>
    <path class="st0" d="M-11,33.6l-11.7,8.5H-8.2L3.5,33.6Z"/>
    <path class="st0" d="M34.1,83.3l11.7,8.5L50.3,78,38.6,69.5Z"/>
    <path class="st0" d="M38.6,69.6l11.7,8.5L45.8,64.3,34.1,55.8Z"/>
    <path class="st0" d="M57.5,55.8,45.8,64.3l4.5,13.8L62,69.6Z"/>
    <path class="st0" d="M31.4,91.8H45.9L34.2,83.3H19.7Z"/>
    <path class="st0" d="M31.4,91.8,19.7,83.3,8,91.8l11.7,8.5Z"/>
    <path class="st0" d="M24.1,69.6,19.6,83.4H34.1l4.5-13.8Z"/>
    <path class="st0" d="M64.8,78.1l11.7-8.5H62L50.3,78.1Z"/>
    <path class="st0" d="M64.8,78.1H50.3L45.8,91.9H60.3Z"/>
    <path class="st0" d="M83.7,91.8,88.2,78,76.5,69.5,72,83.3Z"/>
    <path class="st0" d="M88.2,105.6l4.5-13.8L88.2,78,83.7,91.8Z"/>
    <path class="st0" d="M60.3,91.8,72,83.3l4.5-13.8L64.8,78Z"/>
    <path class="st0" d="M83.7,91.8,72,83.3,60.3,91.8,72,100.3Z"/>
    <path class="st0" d="M15.2,69.6l4.5-13.8L8,64.3,3.5,78.1Z"/>
    <path class="st0" d="M-3.7,55.8,8,64.3l11.7-8.5L8,47.3Z"/>
    <path class="st0" d="M15.2,69.6,3.5,78.1,8,91.9l11.7-8.5Z"/>
    <path class="st0" d="M38.6,69.6,34.1,55.8H19.6l4.5,13.8Z"/>
    <path class="st0" d="M45.8,47.3,34.1,55.8l11.7,8.5,11.7-8.5Z"/>
    <path class="st0" d="M19.7,83.3l4.5-13.8L19.7,55.7,15.2,69.5Z"/>
    <path class="st0" d="M-11,33.6H3.5L8,19.8H-6.5Z"/>
    <path class="st0" d="M8,47.3,3.5,33.5-8.2,42l4.5,13.8Z"/>
    <path class="st0" d="M-18.2,11.3l11.7,8.5H8L-3.7,11.3Z"/>
    <path class="st0" d="M3.5,33.6,8,47.4l11.7,8.5L15.2,42.1Z"/>
    <path class="st0" d="M19.7,28.3,8,19.8,3.5,33.6l11.7,8.5Z"/>
    <path class="st0" d="M24.1,42.1,19.6,55.9H34.1l4.5-13.8Z"/>
    <path class="st0" d="M15.2,42.1l4.5,13.8,4.5-13.8L19.7,28.3Z"/>
    <path class="st0" d="M-11,105.6l-11.7,8.5H-8.2l11.7-8.5Z"/>
    <path class="st0" d="M-11,105.6H3.5L8,91.8H-6.5Z"/>
    <path class="st0" d="M8,119.3,3.5,105.5-8.2,114l4.5,13.8Z"/>
    <path class="st0" d="M3.5,150.1l-11.7-8.5H-22.7l11.7,8.5Z"/>
    <path class="st0" d="M38.6,114.1l11.7-8.5L45.8,91.8l-11.7,8.5Z"/>
    <path class="st0" d="M34.1,127.8l11.7-8.5,4.5-13.8L38.6,114Z"/>
    <path class="st0" d="M62,114.1l-11.7-8.5-4.5,13.8,11.7,8.5Z"/>
    <path class="st0" d="M19.7,100.3H34.2l11.7-8.5H31.4Z"/>
    <path class="st0" d="M38.6,114.1l-4.5-13.8H19.6l4.5,13.8Z"/>
    <path class="st0" d="M50.3,105.6,62,114.1H76.5l-11.7-8.5Z"/>
    <path class="st0" d="M72,127.8,76.5,114H62l-4.5,13.8Z"/>
    <path class="st0" d="M60.3,91.8H45.8l4.5,13.8H64.8Z"/>
    <path class="st0" d="M72,100.3l4.5,13.8,11.7-8.5L83.7,91.8Z"/>
    <path class="st0" d="M107.1,91.8H92.6l-4.5,13.8h14.5Z"/>
    <path class="st0" d="M64.8,105.6l11.7,8.5L72,100.3,60.3,91.8Z"/>
    <path class="st0" d="M3.5,105.6,8,119.4l11.7,8.5-4.5-13.8Z"/>
    <path class="st0" d="M8,136.3l11.7-8.5L8,119.3l-11.7,8.5Z"/>
    <path class="st0" d="M19.7,100.3,8,91.8,3.5,105.6l11.7,8.5Z"/>
    <path class="st0" d="M24.1,114.1l-4.5,13.8H34.1l4.5-13.8Z"/>
    <path class="st0" d="M57.5,127.8l-11.7-8.5-11.7,8.5,11.7,8.5Z"/>
    <path class="st0" d="M15.2,114.1l4.5,13.8,4.5-13.8-4.5-13.8Z"/>
    <path class="st0" d="M-6.5,163.9H8L3.5,150.1H-11Z"/>
    <path class="st0" d="M-3.7,127.8l-4.5,13.8,11.7,8.5L8,136.3Z"/>
    <path class="st0" d="M-3.7,172.4,8,163.9H-6.5l-11.7,8.5Z"/>
    <path class="st0" d="M15.2,141.6l4.5-13.8L8,136.3,3.5,150.1Z"/>
    <path class="st0" d="M15.2,141.6,3.5,150.1,8,163.9l11.7-8.5Z"/>
    <path class="st0" d="M38.6,141.6l-4.5-13.8H19.6l4.5,13.8Z"/>
    <path class="st0" d="M50.3,150.1l-4.5-13.8-11.7-8.5,4.5,13.8Z"/>
    <path class="st0" d="M19.7,155.4l4.5-13.8-4.5-13.8-4.5,13.8Z"/>
    <path class="st0" d="M38.6,141.6H24.1l-4.5,13.8H34.1Z"/>
    <path class="st0" d="M595.5,69.6l-11.7,8.5,4.5,13.8L600,83.4Z"/>
    <path class="st0" d="M600,55.8l-11.7,8.5-4.5,13.8,11.7-8.5Z"/>
    <path class="st0" d="M572.1,69.6l11.7,8.5,4.5-13.8-11.7-8.5Z"/>
    <path class="st0" d="M583.8,78.1l-11.7-8.5H557.6l11.7,8.5Z"/>
    <path class="st0" d="M562.1,55.8l-4.5,13.8h14.5l4.5-13.8Z"/>
    <path class="st0" d="M573.8,91.8h14.5L583.8,78H569.3Z"/>
    <path class="st0" d="M562.1,83.3l-4.5-13.8L545.9,78l4.5,13.8Z"/>
    <path class="st0" d="M550.4,91.8,545.9,78l-4.5,13.8,4.5,13.8Z"/>
    <path class="st0" d="M527,91.8h14.5L546,78H531.5Z"/>
    <path class="st0" d="M569.4,78.1l-11.7-8.5,4.5,13.8,11.7,8.5Z"/>
    <path class="st0" d="M562.1,100.3l11.7-8.5-11.7-8.5-11.7,8.5Z"/>
    <path class="st0" d="M576.6,55.8l11.7,8.5L600,55.8l-11.7-8.5Z"/>
    <path class="st0" d="M583.8,33.6l4.5,13.8L600,55.9l-4.5-13.8Z"/>
    <path class="st0" d="M557.7,141.6l4.5-13.8L557.7,114l-4.5,13.8Z"/>
    <path class="st0" d="M572.1,114.1H557.6l4.5,13.8h14.5Z"/>
    <path class="st0" d="M541.5,136.3l4.5,13.8,11.7-8.5-4.5-13.8Z"/>
    <path class="st0" d="M576.6,127.8H562.1l-4.5,13.8h14.5Z"/>
    <path class="st0" d="M546,122.6l11.7-8.5L546,105.6l-11.7,8.5Z"/>
    <path class="st0" d="M534.3,114.1l11.7-8.5H531.5l-11.7,8.5Z"/>
    <path class="st0" d="M527,91.8l4.5,13.8H546l-4.5-13.8Z"/>
    <path class="st0" d="M553.2,127.8l4.5-13.8L546,122.5l-4.5,13.8Z"/>
    <path class="st0" d="M529.8,127.8l11.7,8.5,4.5-13.8L534.3,114Z"/>
    <path class="st0" d="M600,100.3l-11.7-8.5-4.5,13.8,11.7,8.5Z"/>
    <path class="st0" d="M595.5,114.1l-11.7-8.5,4.5,13.8,11.7,8.5Z"/>
    <path class="st0" d="M576.6,127.8l11.7-8.5-4.5-13.8L572.1,114Z"/>
    <path class="st0" d="M569.4,105.6l-11.7,8.5h14.5l11.7-8.5Z"/>
    <path class="st0" d="M569.4,105.6h14.5l4.5-13.8H573.9Z"/>
    <path class="st0" d="M550.4,91.8l-4.5,13.8,11.7,8.5,4.5-13.8Z"/>
    <path class="st0" d="M573.8,91.8l-11.7,8.5-4.5,13.8,11.7-8.5Z"/>
    <path class="st0" d="M576.6,172.4l-4.5,13.8,11.7-8.5,4.5-13.8Z"/>
    <path class="st0" d="M595.5,186.1l-11.7-8.5-11.7,8.5,11.7,8.5Z"/>
    <path class="st0" d="M572.1,158.6H557.6l4.5,13.8h14.5Z"/>
    <path class="st0" d="M576.6,199.9l11.7,8.5-4.5-13.8-11.7-8.5Z"/>
    <path class="st0" d="M595.5,186.1l-11.7,8.5,4.5,13.8,11.7-8.5Z"/>
    <path class="st0" d="M557.7,230.6h14.5l11.7-8.5H569.4Z"/>
    <path class="st0" d="M588.3,235.9l-4.5-13.8-11.7,8.5,4.5,13.8Z"/>
    <path class="st0" d="M569.4,222.1l4.5-13.8-11.7-8.5-4.5,13.8Z"/>
    <path class="st0" d="M569.4,150.1h14.5l-11.7-8.5H557.7Z"/>
    <path class="st0" d="M576.6,127.8l-4.5,13.8,11.7,8.5,4.5-13.8Z"/>
    <path class="st0" d="M569.4,150.1l-11.7-8.5L546,150.1l11.7,8.5Z"/>
    <path class="st0" d="M576.6,172.4l11.7-8.5-4.5-13.8-11.7,8.5Z"/>
    <path class="st0" d="M600,172.4l-11.7-8.5-4.5,13.8,11.7,8.5Z"/>
    <path class="st0" d="M557.7,158.6h14.5l11.7-8.5H569.4Z"/>
    <path class="st0" d="M588.3,136.3l11.7-8.5-11.7-8.5-11.7,8.5Z"/>
    <path class="st0" d="M600,127.8l-11.7,8.5-4.5,13.8,11.7-8.5Z"/>
    <path class="st0" d="M598.3,150.1H583.8l4.5,13.8h14.5Z"/>
    <path class="st0" d="M595.5,141.6l-11.7,8.5h14.5l11.7-8.5Z"/>
    <path class="st0" d="M595.5-2.4l-11.7-8.5L572.1-2.4l11.7,8.5Z"/>
    <path class="st0" d="M557.7,25.1,546,33.6l11.7,8.5,11.7-8.5Z"/>
    <path class="st0" d="M569.4,33.6l-11.7,8.5h14.5l11.7-8.5Z"/>
    <path class="st0" d="M576.6,55.8,572.1,42H557.6l4.5,13.8Z"/>
    <path class="st0" d="M550.4,19.8l-4.5,13.8,11.7-8.5,4.5-13.8Z"/>
    <path class="st0" d="M550.4,19.8l11.7-8.5L557.6-2.5,545.9,6Z"/>
    <path class="st0" d="M573.8,19.8l-11.7-8.5-4.5,13.8,11.7,8.5Z"/>
    <path class="st0" d="M553.2,55.8l4.5,13.8,4.5-13.8L557.7,42Z"/>
    <path class="st0" d="M553.2,55.8,557.7,42,546,33.5l-4.5,13.8Z"/>
    <path class="st0" d="M534.3,69.6,546,78.1l11.7-8.5L546,61.1Z"/>
    <path class="st0" d="M519.8,69.6l11.7,8.5H546l-11.7-8.5Z"/>
    <path class="st0" d="M541.5,47.3,546,61.1l11.7,8.5-4.5-13.8Z"/>
    <path class="st0" d="M534.3,69.6,546,61.1l-4.5-13.8-11.7,8.5Z"/>
    <path class="st0" d="M576.6,11.3l11.7,8.5L583.8,6,572.1-2.5Z"/>
    <path class="st0" d="M595.5-2.4,583.8,6.1l4.5,13.8L600,11.4Z"/>
    <path class="st0" d="M576.6,11.3,572.1-2.5H557.6l4.5,13.8Z"/>
    <path class="st0" d="M569.4,33.6h14.5l4.5-13.8H573.9Z"/>
    <path class="st0" d="M588.3,47.3l-4.5-13.8L572.1,42l4.5,13.8Z"/>
    <path class="st0" d="M562.1,11.3l11.7,8.5h14.5l-11.7-8.5Z"/>
    <path class="st0" d="M600,28.3l-11.7-8.5-4.5,13.8,11.7,8.5Z"/>
    <path class="st0" d="M527,19.8l4.5,13.8H546l-4.5-13.8Z"/>
    <path class="st0" d="M515.3,11.3l4.5,13.8,11.7,8.5L527,19.8Z"/>
    <path class="st0" d="M519.8,42.1l11.7-8.5-11.7-8.5-11.7,8.5Z"/>
    <path class="st0" d="M546,6.1l-4.5,13.8L546,33.7l4.5-13.8Z"/>
    <path class="st0" d="M527,19.8h14.5L546,6H531.5Z"/>
    <path class="st0" d="M531.5,33.6l-11.7,8.5-4.5,13.8L527,47.4Z"/>
    <path class="st0" d="M503.6,47.3l11.7,8.5L519.8,42l-11.7-8.5Z"/>
    <path class="st0" d="M541.5,47.3,546,33.5H531.5L527,47.3Z"/>
    <path class="st0" d="M529.8,55.8H515.3l4.5,13.8h14.5Z"/>
    <path class="st0" d="M527,91.8,531.5,78l-11.7-8.5-4.5,13.8Z"/>
    <path class="st0" d="M527,47.3l-11.7,8.5h14.5l11.7-8.5Z"/>
    <path class="st0" d="M546,6.1l11.7-8.5L546-10.9,534.3-2.4Z"/>
    <path class="st0" d="M531.5,6.1,519.8-2.4l-4.5,13.8L527,19.9Z"/>
    <path class="st0" d="M508.1,33.6l11.7-8.5-4.5-13.8-11.7,8.5Z"/>
    <path class="st0" d="M534.3-2.4H519.8l11.7,8.5H546Z"/>
    <path class="st0" d="M500.9,11.3h14.5l4.5-13.8H505.4Z"/>
    <path class="st0" d="M489.2,19.8h14.5l11.7-8.5H500.9Z"/>
    <path class="st0" d="M500.9,11.3l4.5-13.8L493.7-11,489.2,2.8Z"/>
    <path class="st0" d="M583.8,222.1l4.5,13.8,11.7,8.5-4.5-13.8Z"/>
    <path class="st0" d="M600,244.4l-11.7-8.5-11.7,8.5,11.7,8.5Z"/>
    <path class="st0" d="M600,216.9l-11.7-8.5-4.5,13.8,11.7,8.5Z"/>
    <path class="st0" d="M362.2,33.6l4.5-13.8H352.2l-4.5,13.8Z"/>
    <path class="st0" d="M366.6,64.3l11.7-8.5-11.7-8.5-11.7,8.5Z"/>
    <path class="st0" d="M354.9,55.8l11.7-8.5H352.1l-11.7,8.5Z"/>
    <path class="st0" d="M347.7,33.6l4.5,13.8h14.5l-4.5-13.8Z"/>
    <path class="st0" d="M373.9,69.6l4.5-13.8-11.7,8.5-4.5,13.8Z"/>
    <path class="st0" d="M373.9,69.6l-11.7,8.5,4.5,13.8,11.7-8.5Z"/>
    <path class="st0" d="M350.5,69.6l11.7,8.5,4.5-13.8L355,55.8Z"/>
    <path class="st0" d="M371.1,33.6l-4.5-13.8-4.5,13.8,4.5,13.8Z"/>
    <path class="st0" d="M371.1,33.6l-4.5,13.8,11.7,8.5,4.5-13.8Z"/>
    <path class="st0" d="M382.8,42.1l-4.5-13.8-11.7-8.5,4.5,13.8Z"/>
    <path class="st0" d="M309.8,6.1,298.1-2.4l-4.5,13.8,11.7,8.5Z"/>
    <path class="st0" d="M279.2,11.3l-11.7,8.5H282l11.7-8.5Z"/>
    <path class="st0" d="M279.2,11.3h14.5l4.5-13.8H283.7Z"/>
    <path class="st0" d="M260.3-2.4l-4.5,13.8,11.7,8.5L272,6.1Z"/>
    <path class="st0" d="M255.8-16.2,251.3-2.4l4.5,13.8,4.5-13.8Z"/>
    <path class="st0" d="M241.3,11.3h14.5L251.3-2.5H236.8Z"/>
    <path class="st0" d="M283.7-2.4,272,6.1l-4.5,13.8,11.7-8.5Z"/>
    <path class="st0" d="M260.3-2.4,272,6.1l11.7-8.5L272-10.9Z"/>
    <path class="st0" d="M347.7,33.6,336,25.1l-11.7,8.5L336,42.1Z"/>
    <path class="st0" d="M354.9,55.8H340.5L336,69.6h14.5Z"/>
    <path class="st0" d="M336,42.1l4.5,13.8,11.7-8.5-4.5-13.8Z"/>
    <path class="st0" d="M362.2,78.1l-11.7-8.5H336l11.7,8.5Z"/>
    <path class="st0" d="M352.2,91.8h14.5L362.2,78H347.7Z"/>
    <path class="st0" d="M340.5,55.8,336,42l-11.7-8.5,4.5,13.8Z"/>
    <path class="st0" d="M324.3,61.1,336,69.6l4.5-13.8-11.7-8.5Z"/>
    <path class="st0" d="M328.8,47.3l-4.5-13.8-4.5,13.8,4.5,13.8Z"/>
    <path class="st0" d="M309.8,61.1h14.5l-4.5-13.8H305.3Z"/>
    <path class="st0" d="M465.8,136.3l11.7-8.5H463l-11.7,8.5Z"/>
    <path class="st0" d="M465.8,136.3H451.3l-4.5,13.8h14.5Z"/>
    <path class="st0" d="M519.8,114.1l-4.5-13.8-11.7-8.5,4.5,13.8Z"/>
    <path class="st0" d="M515.3,83.3l-11.7,8.5,11.7,8.5L527,91.8Z"/>
    <path class="st0" d="M439.6,127.8l-4.5,13.8,11.7,8.5,4.5-13.8Z"/>
    <path class="st0" d="M420.7,141.6h14.5l-4.5-13.8H416.2Z"/>
    <path class="st0" d="M397.3,114.1l11.7-8.5-4.5-13.8-11.7,8.5Z"/>
    <path class="st0" d="M392.8,127.8l11.7-8.5,4.5-13.8L397.3,114Z"/>
    <path class="st0" d="M420.7,114.1,409,105.6l-4.5,13.8,11.7,8.5Z"/>
    <path class="st0" d="M378.3,100.3h14.5l11.7-8.5H390Z"/>
    <path class="st0" d="M378.3,83.3l-11.7,8.5,11.7,8.5L390,91.8Z"/>
    <path class="st0" d="M397.3,114.1l-4.5-13.8H378.3l4.5,13.8Z"/>
    <path class="st0" d="M419,91.8H404.5l4.5,13.8h14.5Z"/>
    <path class="st0" d="M527,136.3l-11.7-8.5,4.5,13.8,11.7,8.5Z"/>
    <path class="st0" d="M527,136.3l4.5,13.8H546l-4.5-13.8Z"/>
    <path class="st0" d="M534.3,114.1H519.8l-4.5,13.8h14.5Z"/>
    <path class="st0" d="M515.3,100.3l4.5,13.8,11.7-8.5L527,91.8Z"/>
    <path class="st0" d="M541.5,136.3l-11.7-8.5H515.3l11.7,8.5Z"/>
    <path class="st0" d="M461.3,150.1l11.7-8.5,4.5-13.8-11.7,8.5Z"/>
    <path class="st0" d="M503.6,119.3l11.7,8.5,4.5-13.8-11.7-8.5Z"/>
    <path class="st0" d="M576.6,244.4l-4.5-13.8H557.6l4.5,13.8Z"/>
    <path class="st0" d="M465.8,163.9l-4.5-13.8H446.8l4.5,13.8Z"/>
    <path class="st0" d="M423.4,33.6l11.7,8.5,11.7-8.5-11.7-8.5Z"/>
    <path class="st0" d="M416.2,11.3l4.5,13.8h14.5l-4.5-13.8Z"/>
    <path class="st0" d="M397.3,69.6l-4.5-13.8H378.3l4.5,13.8Z"/>
    <path class="st0" d="M378.3,83.3l4.5-13.8-4.5-13.8-4.5,13.8Z"/>
    <path class="st0" d="M397.3,69.6H382.8l-4.5,13.8h14.5Z"/>
    <path class="st0" d="M458.5,69.6H473l4.5-13.8H463Z"/>
    <path class="st0" d="M446.8,78.1h14.5L473,69.6H458.5Z"/>
    <path class="st0" d="M451.3,47.3,463,55.8h14.5l-11.7-8.5Z"/>
    <path class="st0" d="M461.3,33.6H446.8l4.5,13.8h14.5Z"/>
    <path class="st0" d="M458.5,69.6,463,55.8l-11.7-8.5-4.5,13.8Z"/>
    <path class="st0" d="M489.2,64.3l-11.7-8.5L473,69.6l11.7,8.5Z"/>
    <path class="st0" d="M508.1,78.1l-4.5,13.8,11.7-8.5,4.5-13.8Z"/>
    <path class="st0" d="M503.6,64.3H489.1l4.5,13.8h14.5Z"/>
    <path class="st0" d="M435.1,42.1l-4.5,13.8,4.5,13.8,4.5-13.8Z"/>
    <path class="st0" d="M451.3,47.3l-4.5-13.8L435.1,42l4.5,13.8Z"/>
    <path class="st0" d="M446.8,61.1l-11.7,8.5,11.7,8.5,11.7-8.5Z"/>
    <path class="st0" d="M439.6,55.8l-4.5,13.8,11.7-8.5,4.5-13.8Z"/>
    <path class="st0" d="M390,91.8h14.5l-11.7-8.5H378.3Z"/>
    <path class="st0" d="M451.3,19.8,446.8,6,435.1-2.5l4.5,13.8Z"/>
    <path class="st0" d="M446.8-10.9,435.1-2.4l11.7,8.5,11.7-8.5Z"/>
    <path class="st0" d="M435.1,25.1l11.7,8.5,4.5-13.8-11.7-8.5Z"/>
    <path class="st0" d="M458.5-2.4,446.8,6.1l4.5,13.8L463,11.4Z"/>
    <path class="st0" d="M430.7,11.3l4.5-13.8H420.7l-4.5,13.8Z"/>
    <path class="st0" d="M439.6,11.3,435.1-2.5l-4.5,13.8,4.5,13.8Z"/>
    <path class="st0" d="M473,42.1l4.5,13.8,11.7-8.5-4.5-13.8Z"/>
    <path class="st0" d="M484.7,33.6l4.5,13.8,4.5-13.8-4.5-13.8Z"/>
    <path class="st0" d="M508.1,33.6H493.6l-4.5,13.8h14.5Z"/>
    <path class="st0" d="M465.8,47.3l11.7,8.5L473,42l-11.7-8.5Z"/>
    <path class="st0" d="M473,25.1l-11.7,8.5L473,42.1l11.7-8.5Z"/>
    <path class="st0" d="M500.9,55.8h14.5l-11.7-8.5H489.2Z"/>
    <path class="st0" d="M500.9,55.8l-11.7-8.5-11.7,8.5,11.7,8.5Z"/>
    <path class="st0" d="M508.1,78.1l11.7-8.5-4.5-13.8-11.7,8.5Z"/>
    <path class="st0" d="M489.2,64.3h14.5l11.7-8.5H500.9Z"/>
    <path class="st0" d="M465.8,19.8l11.7-8.5H463l-11.7,8.5Z"/>
    <path class="st0" d="M458.5-2.4,463,11.4h14.5L473-2.4Z"/>
    <path class="st0" d="M465.8,19.8H451.3l-4.5,13.8h14.5Z"/>
    <path class="st0" d="M484.7,33.6l4.5-13.8-11.7-8.5L473,25.1Z"/>
    <path class="st0" d="M503.6,19.8H489.1l4.5,13.8h14.5Z"/>
    <path class="st0" d="M461.3,33.6,473,25.1l4.5-13.8-11.7,8.5Z"/>
    <path class="st0" d="M477.5-16.2,473-2.4l4.5,13.8L482-2.4Z"/>
    <path class="st0" d="M489.2,2.8l-11.7,8.5,11.7,8.5,11.7-8.5Z"/>
    <path class="st0" d="M481.9-2.4l-4.5,13.8,11.7-8.5,4.5-13.8Z"/>
    <path class="st0" d="M133.3,127.8H118.8l11.7,8.5H145Z"/>
    <path class="st0" d="M126,150.1l4.5-13.8-11.7-8.5-4.5,13.8Z"/>
    <path class="st0" d="M133.3,127.8l11.7,8.5,11.7-8.5L145,119.3Z"/>
    <path class="st0" d="M126,105.6l-11.7,8.5,4.5,13.8,11.7-8.5Z"/>
    <path class="st0" d="M130.5,91.8l-11.7,8.5-4.5,13.8,11.7-8.5Z"/>
    <path class="st0" d="M102.6,105.6l11.7,8.5,4.5-13.8-11.7-8.5Z"/>
    <path class="st0" d="M145,119.3H130.5l-11.7,8.5h14.5Z"/>
    <path class="st0" d="M126,105.6l4.5,13.8H145l-4.5-13.8Z"/>
    <path class="st0" d="M168.4,163.9l-11.7,8.5h14.5l11.7-8.5Z"/>
    <path class="st0" d="M175.6,186.1l-4.5-13.8H156.6l4.5,13.8Z"/>
    <path class="st0" d="M168.4,163.9h14.5l4.5-13.8H172.9Z"/>
    <path class="st0" d="M187.3,177.6l-4.5-13.8-11.7,8.5,4.5,13.8Z"/>
    <path class="st0" d="M172.8,150.1l-11.7,8.5-4.5,13.8,11.7-8.5Z"/>
    <path class="st0" d="M168.4,208.4l-11.7-8.5L145,208.4l11.7,8.5Z"/>
    <path class="st0" d="M182.8,208.4l-11.7-8.5H156.6l11.7,8.5Z"/>
    <path class="st0" d="M161.1,186.1l-4.5,13.8h14.5l4.5-13.8Z"/>
    <path class="st0" d="M161.1,230.6l-4.5-13.8-11.7-8.5,4.5,13.8Z"/>
    <path class="st0" d="M145,235.9l11.7,8.5,4.5-13.8-11.7-8.5Z"/>
    <path class="st0" d="M168.4,208.4l-11.7,8.5,4.5,13.8,11.7-8.5Z"/>
    <path class="st0" d="M156.7,199.9l4.5-13.8-4.5-13.8-4.5,13.8Z"/>
    <path class="st0" d="M140.5,194.6l4.5,13.8,11.7-8.5-4.5-13.8Z"/>
    <path class="st0" d="M149.4,78.1l-4.5,13.8,11.7-8.5,4.5-13.8Z"/>
    <path class="st0" d="M168.4,91.8l-11.7-8.5L145,91.8l11.7,8.5Z"/>
    <path class="st0" d="M149.4,78.1l11.7-8.5-4.5-13.8-11.7,8.5Z"/>
    <path class="st0" d="M172.8,78.1l-11.7-8.5-4.5,13.8,11.7,8.5Z"/>
    <path class="st0" d="M126,78.1l4.5,13.8H145l-4.5-13.8Z"/>
    <path class="st0" d="M118.8,100.3l11.7-8.5-11.7-8.5-11.7,8.5Z"/>
    <path class="st0" d="M145,64.3l-4.5,13.8L145,91.9l4.5-13.8Z"/>
    <path class="st0" d="M175.6,114.1H161.1l-4.5,13.8h14.5Z"/>
    <path class="st0" d="M187.3,105.6H172.8l-11.7,8.5h14.5Z"/>
    <path class="st0" d="M156.7,100.3l4.5,13.8,11.7-8.5-4.5-13.8Z"/>
    <path class="st0" d="M161.1,114.1l-4.5-13.8-11.7-8.5,4.5,13.8Z"/>
    <path class="st0" d="M145,119.3l11.7,8.5,4.5-13.8-11.7-8.5Z"/>
    <path class="st0" d="M140.5,105.6,145,91.8H130.5L126,105.6Z"/>
    <path class="st0" d="M149.4,105.6l-4.5-13.8-4.5,13.8,4.5,13.8Z"/>
    <path class="st0" d="M194.5,55.8,199,42l-11.7-8.5-4.5,13.8Z"/>
    <path class="st0" d="M199,69.6l4.5-13.8L199,42l-4.5,13.8Z"/>
    <path class="st0" d="M213.5,42.1H199l4.5,13.8H218Z"/>
    <path class="st0" d="M171.1,55.8l11.7-8.5,4.5-13.8L175.6,42Z"/>
    <path class="st0" d="M194.5,55.8l-11.7-8.5-11.7,8.5,11.7,8.5Z"/>
    <path class="st0" d="M199,42.1h14.5l11.7-8.5H210.7Z"/>
    <path class="st0" d="M229.6,47.3l-4.5-13.8L213.4,42l4.5,13.8Z"/>
    <path class="st0" d="M199,25.1l-11.7,8.5L199,42.1l11.7-8.5Z"/>
    <path class="st0" d="M213.5,25.1l11.7,8.5,4.5-13.8L218,11.3Z"/>
    <path class="st0" d="M236.9-2.4,225.2,6.1l4.5,13.8,11.7-8.5Z"/>
    <path class="st0" d="M210.7,33.6h14.5l-11.7-8.5H199Z"/>
    <path class="st0" d="M161.1,69.6l11.7,8.5h14.5l-11.7-8.5Z"/>
    <path class="st0" d="M182.8,91.8,187.3,78H172.8l-4.5,13.8Z"/>
    <path class="st0" d="M171.1,55.8H156.6l4.5,13.8h14.5Z"/>
    <path class="st0" d="M182.8,64.3l4.5,13.8L199,69.6l-4.5-13.8Z"/>
    <path class="st0" d="M217.9,55.8H203.5L199,69.6h14.5Z"/>
    <path class="st0" d="M175.6,69.6l11.7,8.5-4.5-13.8-11.7-8.5Z"/>
    <path class="st0" d="M187.3,122.6l11.7-8.5-11.7-8.5-11.7,8.5Z"/>
    <path class="st0" d="M168.4,91.8l4.5,13.8h14.5l-4.5-13.8Z"/>
    <path class="st0" d="M191.8,91.8,187.3,78l-4.5,13.8,4.5,13.8Z"/>
    <path class="st0" d="M191.8,91.8l-4.5,13.8,11.7,8.5,4.5-13.8Z"/>
    <path class="st0" d="M210.7,78.1,199,69.6l-11.7,8.5L199,86.6Z"/>
    <path class="st0" d="M225.2,78.1l-11.7-8.5H199l11.7,8.5Z"/>
    <path class="st0" d="M203.5,100.3,199,86.5,187.3,78l4.5,13.8Z"/>
    <path class="st0" d="M210.7,78.1,199,86.6l4.5,13.8,11.7-8.5Z"/>
    <path class="st0" d="M83.7,208.4l4.5,13.8,4.5-13.8-4.5-13.8Z"/>
    <path class="st0" d="M83.7,208.4l4.5-13.8-11.7-8.5L72,199.9Z"/>
    <path class="st0" d="M126,222.1l-11.7,8.5,4.5,13.8,11.7-8.5Z"/>
    <path class="st0" d="M130.5,208.4l-11.7,8.5-4.5,13.8,11.7-8.5Z"/>
    <path class="st0" d="M145,235.9H130.5l-11.7,8.5h14.5Z"/>
    <path class="st0" d="M156.7,244.4,145,235.9l-11.7,8.5,11.7,8.5Z"/>
    <path class="st0" d="M126,222.1l4.5,13.8H145l-4.5-13.8Z"/>
    <path class="st0" d="M107.1,163.9l-4.5-13.8H88.1l4.5,13.8Z"/>
    <path class="st0" d="M118.8,172.4l-4.5-13.8-11.7-8.5,4.5,13.8Z"/>
    <path class="st0" d="M114.3,141.6l-11.7,8.5,11.7,8.5,11.7-8.5Z"/>
    <path class="st0" d="M88.2,177.6l4.5-13.8L88.2,150l-4.5,13.8Z"/>
    <path class="st0" d="M72,172.4l4.5,13.8,11.7-8.5-4.5-13.8Z"/>
    <path class="st0" d="M107.1,163.9H92.6l-4.5,13.8h14.5Z"/>
    <path class="st0" d="M102.6,150.1l11.7-8.5,4.5-13.8-11.7,8.5Z"/>
    <path class="st0" d="M92.6,136.3l-4.5,13.8h14.5l4.5-13.8Z"/>
    <path class="st0" d="M104.3,127.8h14.5L114.3,114H99.8Z"/>
    <path class="st0" d="M99.9,114.1h14.5l-11.7-8.5H88.2Z"/>
    <path class="st0" d="M107.1,136.3l11.7-8.5H104.3l-11.7,8.5Z"/>
    <path class="st0" d="M88.2,122.6l4.5,13.8,11.7-8.5-4.5-13.8Z"/>
    <path class="st0" d="M88.2,194.6h14.5l11.7-8.5H99.9Z"/>
    <path class="st0" d="M88.2,177.6l-11.7,8.5,11.7,8.5,11.7-8.5Z"/>
    <path class="st0" d="M102.6,177.6l11.7,8.5,4.5-13.8-11.7-8.5Z"/>
    <path class="st0" d="M126,150.1l-11.7,8.5,4.5,13.8,11.7-8.5Z"/>
    <path class="st0" d="M99.9,186.1h14.5l-11.7-8.5H88.2Z"/>
    <path class="st0" d="M140.5,222.1l4.5-13.8H130.5L126,222.1Z"/>
    <path class="st0" d="M149.4,222.1l-4.5-13.8-4.5,13.8,4.5,13.8Z"/>
    <path class="st0" d="M62,186.1l-11.7,8.5-4.5,13.8,11.7-8.5Z"/>
    <path class="st0" d="M34.1,199.9l11.7,8.5,4.5-13.8-11.7-8.5Z"/>
    <path class="st0" d="M72,199.9l4.5-13.8H62l-4.5,13.8Z"/>
    <path class="st0" d="M38.6,186.1l11.7,8.5L62,186.1l-11.7-8.5Z"/>
    <path class="st0" d="M3.5,194.6,8,208.4l11.7-8.5-4.5-13.8Z"/>
    <path class="st0" d="M15.2,186.1l4.5,13.8,4.5-13.8-4.5-13.8Z"/>
    <path class="st0" d="M38.6,186.1H24.1l-4.5,13.8H34.1Z"/>
    <path class="st0" d="M-3.7,199.9,8,208.4,3.5,194.6l-11.7-8.5Z"/>
    <path class="st0" d="M3.5,177.6l-11.7,8.5,11.7,8.5,11.7-8.5Z"/>
    <path class="st0" d="M31.4,208.4H45.9l-11.7-8.5H19.7Z"/>
    <path class="st0" d="M76.5,158.6l11.7-8.5-11.7-8.5-11.7,8.5Z"/>
    <path class="st0" d="M64.8,150.1l11.7-8.5H62l-11.7,8.5Z"/>
    <path class="st0" d="M57.5,127.8,62,141.6H76.5L72,127.8Z"/>
    <path class="st0" d="M83.7,163.9l4.5-13.8-11.7,8.5L72,172.4Z"/>
    <path class="st0" d="M60.3,163.9,72,172.4l4.5-13.8-11.7-8.5Z"/>
    <path class="st0" d="M80.9,127.8,76.4,114l-4.5,13.8,4.5,13.8Z"/>
    <path class="st0" d="M80.9,127.8l-4.5,13.8,11.7,8.5,4.5-13.8Z"/>
    <path class="st0" d="M99.9,114.1l-11.7-8.5-11.7,8.5,11.7,8.5Z"/>
    <path class="st0" d="M92.6,136.3l-4.5-13.8L76.4,114l4.5,13.8Z"/>
    <path class="st0" d="M57.5,172.4l-11.7-8.5,4.5,13.8L62,186.2Z"/>
    <path class="st0" d="M38.6,186.1l11.7-8.5-4.5-13.8-11.7,8.5Z"/>
    <path class="st0" d="M57.5,172.4,62,186.2H76.5L72,172.4Z"/>
    <path class="st0" d="M64.8,150.1H50.3l-4.5,13.8H60.3Z"/>
    <path class="st0" d="M45.8,136.3l4.5,13.8L62,141.6l-4.5-13.8Z"/>
    <path class="st0" d="M72,172.4l-11.7-8.5H45.8l11.7,8.5Z"/>
    <path class="st0" d="M15.2,186.1l4.5-13.8L8,163.8,3.5,177.6Z"/>
    <path class="st0" d="M34.1,172.4H19.6l4.5,13.8H38.6Z"/>
    <path class="st0" d="M-8.2,186.1l11.7-8.5L8,163.8l-11.7,8.5Z"/>
    <path class="st0" d="M19.7,172.4H34.2l11.7-8.5H31.4Z"/>
    <path class="st0" d="M19.7,155.4,8,163.9l11.7,8.5,11.7-8.5Z"/>
    <path class="st0" d="M34.1,155.4l11.7,8.5,4.5-13.8-11.7-8.5Z"/>
    <path class="st0" d="M31.4,163.9H45.9l-11.7-8.5H19.7Z"/>
    <path class="st0" d="M286.4,105.6l11.7,8.5-4.5-13.8-11.7-8.5Z"/>
    <path class="st0" d="M305.4,91.8l-11.7,8.5,4.5,13.8,11.7-8.5Z"/>
    <path class="st0" d="M293.7,83.3,282,91.8l11.7,8.5,11.7-8.5Z"/>
    <path class="st0" d="M279.2,127.8h14.5l4.5-13.8H283.7Z"/>
    <path class="st0" d="M267.5,136.3H282l11.7-8.5H279.2Z"/>
    <path class="st0" d="M298.1,141.6l-4.5-13.8-11.7,8.5,4.5,13.8Z"/>
    <path class="st0" d="M272,105.6l11.7,8.5h14.5l-11.7-8.5Z"/>
    <path class="st0" d="M279.2,127.8l4.5-13.8L272,105.5l-4.5,13.8Z"/>
    <path class="st0" d="M328.8,91.8l-4.5,13.8,11.7,8.5,4.5-13.8Z"/>
    <path class="st0" d="M324.3,78.1l-4.5,13.8,4.5,13.8,4.5-13.8Z"/>
    <path class="st0" d="M309.8,105.6h14.5l-4.5-13.8H305.3Z"/>
    <path class="st0" d="M352.2,91.8l-11.7,8.5L336,114.1l11.7-8.5Z"/>
    <path class="st0" d="M362.2,105.6l4.5-13.8H352.2l-4.5,13.8Z"/>
    <path class="st0" d="M328.8,91.8l11.7,8.5,11.7-8.5-11.7-8.5Z"/>
    <path class="st0" d="M324.3,105.6H309.8l-11.7,8.5h14.5Z"/>
    <path class="st0" d="M324.3,122.6l11.7-8.5-11.7-8.5-11.7,8.5Z"/>
    <path class="st0" d="M309.8,122.6l-11.7-8.5-4.5,13.8,11.7,8.5Z"/>
    <path class="st0" d="M305.4,136.3l-11.7-8.5,4.5,13.8,11.7,8.5Z"/>
    <path class="st0" d="M312.6,114.1H298.1l11.7,8.5h14.5Z"/>
    <path class="st0" d="M319.8,136.3l4.5-13.8H309.8l-4.5,13.8Z"/>
    <path class="st0" d="M293.7,55.8,282,47.3H267.5l11.7,8.5Z"/>
    <path class="st0" d="M267.5,47.3,272,33.5l-4.5-13.8L263,33.5Z"/>
    <path class="st0" d="M255.8,28.3l11.7-8.5-11.7-8.5-11.7,8.5Z"/>
    <path class="st0" d="M244.1,19.8l11.7-8.5H241.3l-11.7,8.5Z"/>
    <path class="st0" d="M263,33.6l4.5-13.8-11.7,8.5-4.5,13.8Z"/>
    <path class="st0" d="M239.6,33.6l11.7,8.5,4.5-13.8-11.7-8.5Z"/>
    <path class="st0" d="M282,91.8l11.7-8.5,4.5-13.8L286.5,78Z"/>
    <path class="st0" d="M309.8,78.1l-11.7-8.5-4.5,13.8,11.7,8.5Z"/>
    <path class="st0" d="M283.7,69.6h14.5l-4.5-13.8H279.2Z"/>
    <path class="st0" d="M340.5,83.3,336,69.5,324.3,78l4.5,13.8Z"/>
    <path class="st0" d="M305.4,91.8h14.5L324.4,78H309.9Z"/>
    <path class="st0" d="M347.7,78.1,336,69.6l4.5,13.8,11.7,8.5Z"/>
    <path class="st0" d="M312.6,69.6H298.1l11.7,8.5h14.5Z"/>
    <path class="st0" d="M312.6,69.6l11.7,8.5L336,69.6l-11.7-8.5Z"/>
    <path class="st0" d="M305.4,47.3l-11.7,8.5,4.5,13.8,11.7-8.5Z"/>
    <path class="st0" d="M324.3,61.1H309.8l-11.7,8.5h14.5Z"/>
    <path class="st0" d="M217.9,172.4l11.7-8.5-4.5-13.8-11.7,8.5Z"/>
    <path class="st0" d="M213.5,186.1l11.7-8.5,4.5-13.8L218,172.3Z"/>
    <path class="st0" d="M241.3,172.4l-11.7-8.5-4.5,13.8,11.7,8.5Z"/>
    <path class="st0" d="M199,158.6h14.5l11.7-8.5H210.7Z"/>
    <path class="st0" d="M199,141.6l-11.7,8.5,11.7,8.5,11.7-8.5Z"/>
    <path class="st0" d="M217.9,172.4l-4.5-13.8H198.9l4.6,13.8Z"/>
    <path class="st0" d="M229.6,163.9l11.7,8.5h14.5l-11.7-8.5Z"/>
    <path class="st0" d="M251.3,186.1l4.5-13.8H241.3l-4.5,13.8Z"/>
    <path class="st0" d="M239.6,150.1H225.1l4.5,13.8h14.5Z"/>
    <path class="st0" d="M251.3,158.6l4.5,13.8,11.7-8.5L263,150.1Z"/>
    <path class="st0" d="M263,150.1l4.5,13.8,4.5-13.8-4.5-13.8Z"/>
    <path class="st0" d="M286.4,150.1H271.9l-4.5,13.8h14.5Z"/>
    <path class="st0" d="M244.1,163.9l11.7,8.5-4.5-13.8-11.7-8.5Z"/>
    <path class="st0" d="M251.3,141.6l-11.7,8.5,11.7,8.5,11.7-8.5Z"/>
    <path class="st0" d="M182.8,163.9l4.5,13.8,11.7,8.5-4.5-13.8Z"/>
    <path class="st0" d="M187.3,194.6l11.7-8.5-11.7-8.5-11.7,8.5Z"/>
    <path class="st0" d="M199,158.6l-11.7-8.5-4.5,13.8,11.7,8.5Z"/>
    <path class="st0" d="M203.5,172.4,199,186.2h14.5l4.5-13.8Z"/>
    <path class="st0" d="M236.9,186.1l-11.7-8.5-11.7,8.5,11.7,8.5Z"/>
    <path class="st0" d="M194.5,172.4l4.5,13.8,4.5-13.8L199,158.6Z"/>
    <path class="st0" d="M172.8,222.1h14.5l-4.5-13.8H168.3Z"/>
    <path class="st0" d="M175.6,186.1l-4.5,13.8,11.7,8.5,4.5-13.8Z"/>
    <path class="st0" d="M175.6,230.6l11.7-8.5H172.8l-11.7,8.5Z"/>
    <path class="st0" d="M175.6,230.6H161.1l-4.5,13.8h14.5Z"/>
    <path class="st0" d="M194.5,199.9l4.5-13.8-11.7,8.5-4.5,13.8Z"/>
    <path class="st0" d="M194.5,199.9l-11.7,8.5,4.5,13.8,11.7-8.5Z"/>
    <path class="st0" d="M217.9,199.9l-4.5-13.8H198.9l4.5,13.8Z"/>
    <path class="st0" d="M229.6,208.4l-4.5-13.8-11.7-8.5,4.5,13.8Z"/>
    <path class="st0" d="M199,213.6l4.5-13.8L199,186l-4.5,13.8Z"/>
    <path class="st0" d="M217.9,199.9H203.5L199,213.7h14.5Z"/>
    <path class="st0" d="M255.8,100.3l-4.5,13.8,4.5,13.8,4.5-13.8Z"/>
    <path class="st0" d="M241.3,127.8h14.5L251.3,114H236.8Z"/>
    <path class="st0" d="M236.9,114.1h14.5l4.5-13.8H241.4Z"/>
    <path class="st0" d="M267.5,119.3l-11.7,8.5,11.7,8.5,11.7-8.5Z"/>
    <path class="st0" d="M286.4,150.1l-4.5-13.8H267.5l4.5,13.8Z"/>
    <path class="st0" d="M260.3,114.1l-4.5,13.8,11.7-8.5,4.5-13.8Z"/>
    <path class="st0" d="M213.5,141.6l11.7,8.5,4.5-13.8L218,127.8Z"/>
    <path class="st0" d="M236.9,114.1l-11.7,8.5,4.5,13.8,11.7-8.5Z"/>
    <path class="st0" d="M210.7,150.1h14.5l-11.7-8.5H199Z"/>
    <path class="st0" d="M203.5,127.8,199,141.6h14.5l4.5-13.8Z"/>
    <path class="st0" d="M244.1,136.3l11.7-8.5H241.3l-11.7,8.5Z"/>
    <path class="st0" d="M244.1,136.3H229.6l-4.5,13.8h14.5Z"/>
    <path class="st0" d="M263,150.1l4.5-13.8-11.7-8.5-4.5,13.8Z"/>
    <path class="st0" d="M239.6,150.1l11.7-8.5,4.5-13.8-11.7,8.5Z"/>
    <path class="st0" d="M251.3,69.6l4.5-13.8H241.3l-4.5,13.8Z"/>
    <path class="st0" d="M236.9,69.6l4.5-13.8-11.7,8.5-4.5,13.8Z"/>
    <path class="st0" d="M217.9,55.8l11.7,8.5,11.7-8.5-11.7-8.5Z"/>
    <path class="st0" d="M236.9,42.1l-11.7-8.5,4.5,13.8,11.7,8.5Z"/>
    <path class="st0" d="M236.9,42.1l4.5,13.8h14.5l-4.5-13.8Z"/>
    <path class="st0" d="M244.1,19.8H229.6l-4.5,13.8h14.5Z"/>
    <path class="st0" d="M251.3,42.1l-11.7-8.5H225.1l11.7,8.5Z"/>
    <path class="st0" d="M213.5,69.6l11.7,8.5,4.5-13.8L218,55.8Z"/>
    <path class="st0" d="M215.2,91.8h14.5L225.2,78H210.7Z"/>
    <path class="st0" d="M217.9,100.3l11.7-8.5H215.1l-11.7,8.5Z"/>
    <path class="st0" d="M416.2,172.4l4.5,13.8h14.5l-4.5-13.8Z"/>
    <path class="st0" d="M404.5,163.9l4.5,13.8,11.7,8.5-4.5-13.8Z"/>
    <path class="st0" d="M409,194.6l11.7-8.5L409,177.6l-11.7,8.5Z"/>
    <path class="st0" d="M435.1,158.6l-4.5,13.8,4.5,13.8,4.5-13.8Z"/>
    <path class="st0" d="M451.3,163.9l-4.5-13.8-11.7,8.5,4.5,13.8Z"/>
    <path class="st0" d="M416.2,172.4h14.5l4.5-13.8H420.7Z"/>
    <path class="st0" d="M420.7,186.1,409,194.6l-4.5,13.8,11.7-8.5Z"/>
    <path class="st0" d="M392.8,199.9l11.7,8.5,4.5-13.8-11.7-8.5Z"/>
    <path class="st0" d="M430.7,199.9l4.5-13.8H420.7l-4.5,13.8Z"/>
    <path class="st0" d="M419,208.4H404.5l4.5,13.8h14.5Z"/>
    <path class="st0" d="M423.4,222.1H408.9l11.7,8.5h14.5Z"/>
    <path class="st0" d="M416.2,244.4l4.5-13.8L409,222.1l-4.5,13.8Z"/>
    <path class="st0" d="M416.2,199.9l-11.7,8.5H419l11.7-8.5Z"/>
    <path class="st0" d="M435.1,213.6l-4.5-13.8-11.7,8.5,4.5,13.8Z"/>
    <path class="st0" d="M435.1,141.6H420.6l-11.7,8.5h14.5Z"/>
    <path class="st0" d="M404.5,136.3l4.5,13.8,11.7-8.5-4.5-13.8Z"/>
    <path class="st0" d="M435.1,158.6l11.7-8.5-11.7-8.5-11.7,8.5Z"/>
    <path class="st0" d="M420.7,158.6,409,150.1l-4.5,13.8,11.7,8.5Z"/>
    <path class="st0" d="M397.3,186.1l11.7-8.5-4.5-13.8-11.7,8.5Z"/>
    <path class="st0" d="M423.4,150.1H408.9l11.7,8.5h14.5Z"/>
    <path class="st0" d="M382.8,114.1l-4.5,13.8h14.5l4.5-13.8Z"/>
    <path class="st0" d="M416.2,127.8l-11.7-8.5-11.7,8.5,11.7,8.5Z"/>
    <path class="st0" d="M373.9,114.1l4.5,13.8,4.5-13.8-4.5-13.8Z"/>
    <path class="st0" d="M373.9,114.1l4.5-13.8-11.7-8.5-4.5,13.8Z"/>
    <path class="st0" d="M397.3,141.6l11.7,8.5-4.5-13.8-11.7-8.5Z"/>
    <path class="st0" d="M397.3,141.6l-4.5-13.8H378.3l4.5,13.8Z"/>
    <path class="st0" d="M390,163.9h14.5l4.5-13.8H394.5Z"/>
    <path class="st0" d="M378.3,172.4h14.5l11.7-8.5H390Z"/>
    <path class="st0" d="M382.8,141.6l11.7,8.5H409l-11.7-8.5Z"/>
    <path class="st0" d="M390,163.9l4.5-13.8-11.7-8.5-4.5,13.8Z"/>
    <path class="st0" d="M465.8,208.4l-4.5,13.8,11.7,8.5,4.5-13.8Z"/>
    <path class="st0" d="M439.6,244.4l-4.5-13.8-4.5,13.8,4.5,13.8Z"/>
    <path class="st0" d="M416.2,244.4h14.5l4.5-13.8H420.7Z"/>
    <path class="st0" d="M446.8,177.6l-11.7,8.5,11.7,8.5,11.7-8.5Z"/>
    <path class="st0" d="M439.6,172.4l-4.5,13.8,11.7-8.5,4.5-13.8Z"/>
    <path class="st0" d="M463,172.4l-11.7-8.5-4.5,13.8,11.7,8.5Z"/>
    <path class="st0" d="M500.9,244.4h14.5l-11.7-8.5H489.2Z"/>
    <path class="st0" d="M534.3,230.6l11.7-8.5H531.5l-11.7,8.5Z"/>
    <path class="st0" d="M534.3,230.6H519.8l-4.5,13.8h14.5Z"/>
    <path class="st0" d="M553.2,244.4l4.5-13.8L546,222.1l-4.5,13.8Z"/>
    <path class="st0" d="M562.1,244.4l-4.5-13.8-4.5,13.8,4.5,13.8Z"/>
    <path class="st0" d="M529.8,244.4l11.7-8.5,4.5-13.8-11.7,8.5Z"/>
    <path class="st0" d="M553.2,244.4l-11.7-8.5-11.7,8.5,11.7,8.5Z"/>
    <path class="st0" d="M340.5,172.4,336,158.6l-11.7-8.5,4.5,13.8Z"/>
    <path class="st0" d="M336,141.6l-11.7,8.5,11.7,8.5,11.7-8.5Z"/>
    <path class="st0" d="M324.3,177.6l11.7,8.5,4.5-13.7-11.7-8.5Z"/>
    <path class="st0" d="M347.7,150.1,336,158.6l4.5,13.8,11.7-8.5Z"/>
    <path class="st0" d="M319.8,163.9l4.5-13.8H309.8l-4.5,13.8Z"/>
    <path class="st0" d="M305.4,163.9l4.5-13.8-11.7,8.5-4.5,13.8Z"/>
    <path class="st0" d="M286.4,150.1l11.7,8.5,11.7-8.5-11.7-8.5Z"/>
    <path class="st0" d="M328.8,163.9l-4.5-13.8-4.5,13.8,4.5,13.8Z"/>
    <path class="st0" d="M309.8,177.6h14.5l-4.5-13.8H305.3Z"/>
    <path class="st0" d="M350.5,114.1H336l4.5,13.8H355Z"/>
    <path class="st0" d="M354.9,127.8H340.5l11.7,8.5h14.5Z"/>
    <path class="st0" d="M347.7,150.1l4.5-13.8-11.7-8.5L336,141.6Z"/>
    <path class="st0" d="M347.7,105.6,336,114.1h14.5l11.7-8.5Z"/>
    <path class="st0" d="M366.6,119.3l-4.5-13.8L350.4,114l4.5,13.8Z"/>
    <path class="st0" d="M328.8,136.3l-4.5,13.8,11.7-8.5,4.5-13.8Z"/>
    <path class="st0" d="M328.8,136.3l11.7-8.5L336,114l-11.7,8.5Z"/>
    <path class="st0" d="M305.4,136.3l4.5,13.8h14.5l-4.5-13.8Z"/>
    <path class="st0" d="M324.3,122.6l-4.5,13.8,4.5,13.8,4.5-13.8Z"/>
    <path class="st0" d="M362.2,194.6l4.5,13.8,11.7-8.5-4.5-13.8Z"/>
    <path class="st0" d="M373.9,186.1l4.5,13.8,4.5-13.8-4.5-13.8Z"/>
    <path class="st0" d="M397.3,186.1H382.8l-4.5,13.8h14.5Z"/>
    <path class="st0" d="M354.9,199.9l11.7,8.5-4.5-13.8-11.7-8.5Z"/>
    <path class="st0" d="M354.9,199.9l-4.5-13.8H335.9l4.5,13.8Z"/>
    <path class="st0" d="M362.2,177.6l-11.7,8.5,11.7,8.5,11.7-8.5Z"/>
    <path class="st0" d="M390,208.4h14.5l-11.7-8.5H378.3Z"/>
    <path class="st0" d="M390,208.4l-11.7-8.5-11.7,8.5,11.7,8.5Z"/>
    <path class="st0" d="M397.3,230.6l11.7-8.5-4.5-13.7-11.7,8.5Z"/>
    <path class="st0" d="M392.8,244.4l11.7-8.5,4.5-13.8-11.7,8.5Z"/>
    <path class="st0" d="M378.3,216.9h14.5l11.7-8.5H390Z"/>
    <path class="st0" d="M397.3,230.6l-4.5-13.8H378.3l4.5,13.8Z"/>
    <path class="st0" d="M354.9,172.4l11.7-8.5H352.1l-11.6,8.5Z"/>
    <path class="st0" d="M347.7,150.1l4.5,13.8h14.5l-4.5-13.8Z"/>
    <path class="st0" d="M354.9,172.4H340.5L336,186.2h14.5Z"/>
    <path class="st0" d="M373.9,186.1l4.5-13.8-11.7-8.5-4.5,13.8Z"/>
    <path class="st0" d="M392.8,172.4H378.3l4.5,13.8h14.5Z"/>
    <path class="st0" d="M350.5,186.1l11.7-8.5,4.5-13.8L355,172.3Z"/>
    <path class="st0" d="M354.9,127.8l11.7,8.5,11.7-8.5-11.7-8.5Z"/>
    <path class="st0" d="M362.2,150.1l4.5-13.8H352.2l-4.5,13.8Z"/>
    <path class="st0" d="M362.2,105.6l4.5,13.8,11.7,8.5-4.5-13.8Z"/>
    <path class="st0" d="M366.6,136.3l-4.5,13.8,4.5,13.8,4.5-13.8Z"/>
    <path class="st0" d="M382.8,141.6l-4.5-13.8-11.7,8.5,4.5,13.8Z"/>
    <path class="st0" d="M378.3,155.4l-11.7,8.5,11.7,8.5,11.7-8.5Z"/>
    <path class="st0" d="M371.1,150.1l-4.5,13.8,11.7-8.5,4.5-13.8Z"/>
    <path class="st0" d="M255.8,216.9l11.7-8.5-11.7-8.5-11.7,8.5Z"/>
    <path class="st0" d="M244.1,208.4l11.7-8.5H241.3l-11.7,8.5Z"/>
    <path class="st0" d="M236.9,186.1l4.5,13.8h14.5l-4.5-13.8Z"/>
    <path class="st0" d="M263,222.1l4.5-13.7-11.7,8.5-4.5,13.8Z"/>
    <path class="st0" d="M263,222.1l-11.7,8.5,4.5,13.8,11.7-8.5Z"/>
    <path class="st0" d="M239.6,222.1l11.7,8.5,4.5-13.8-11.7-8.5Z"/>
    <path class="st0" d="M260.3,186.1l-4.5-13.8-4.5,13.8,4.5,13.8Z"/>
    <path class="st0" d="M260.3,186.1l-4.5,13.8,11.7,8.5,4.5-13.8Z"/>
    <path class="st0" d="M279.2,172.4l-11.7-8.5-11.7,8.5,11.7,8.5Z"/>
    <path class="st0" d="M293.7,172.4,282,163.9H267.5l11.7,8.5Z"/>
    <path class="st0" d="M272,194.6l-4.5-13.8-11.7-8.5,4.5,13.8Z"/>
    <path class="st0" d="M279.2,172.4l-11.7,8.5,4.5,13.8,11.7-8.5Z"/>
    <path class="st0" d="M236.9,230.6l-11.7-8.5,4.5,13.8,11.7,8.5Z"/>
    <path class="st0" d="M217.9,244.4l11.7-8.5-4.5-13.8-11.7,8.5Z"/>
    <path class="st0" d="M236.9,230.6l4.5,13.8h14.5l-4.5-13.8Z"/>
    <path class="st0" d="M241.3,244.4l-11.7-8.5-11.7,8.5,11.7,8.5Z"/>
    <path class="st0" d="M244.1,208.4H229.6l-4.5,13.8h14.5Z"/>
    <path class="st0" d="M225.2,194.6l4.5,13.8,11.7-8.5-4.5-13.8Z"/>
    <path class="st0" d="M251.3,230.6l-11.7-8.5H225.1l11.7,8.5Z"/>
    <path class="st0" d="M194.5,244.4l4.5-13.8-11.7-8.5-4.5,13.8Z"/>
    <path class="st0" d="M203.5,244.4,199,230.6l-4.5,13.8,4.5,13.8Z"/>
    <path class="st0" d="M213.5,230.6H199l4.5,13.8H218Z"/>
    <path class="st0" d="M171.1,244.4l11.7-8.5,4.5-13.8-11.7,8.5Z"/>
    <path class="st0" d="M194.5,244.4l-11.7-8.5-11.7,8.5,11.7,8.5Z"/>
    <path class="st0" d="M199,230.6h14.5l11.7-8.5H210.7Z"/>
    <path class="st0" d="M199,213.6l-11.7,8.5,11.7,8.5,11.7-8.5Z"/>
    <path class="st0" d="M213.5,213.6l11.7,8.5,4.5-13.8L218,199.8Z"/>
    <path class="st0" d="M210.7,222.1h14.5l-11.7-8.5H199Z"/>
    <path class="st0" d="M312.6,186.1H298.1l11.7,8.5h14.5Z"/>
    <path class="st0" d="M305.4,208.4l4.5-13.8-11.7-8.5-4.5,13.8Z"/>
    <path class="st0" d="M312.6,186.1l11.7,8.5,11.7-8.5-11.7-8.5Z"/>
    <path class="st0" d="M319.8,208.4l4.5-13.8H309.8l-4.5,13.8Z"/>
    <path class="st0" d="M305.4,163.9l-11.7,8.5,4.5,13.8,11.7-8.5Z"/>
    <path class="st0" d="M282,163.9l11.7,8.5,4.5-13.8-11.7-8.5Z"/>
    <path class="st0" d="M324.3,177.6H309.8l-11.7,8.5h14.5Z"/>
    <path class="st0" d="M286.4,222.1l-4.5-13.8H267.5l4.5,13.8Z"/>
    <path class="st0" d="M298.1,230.6l-4.5-13.8-11.7-8.5,4.5,13.8Z"/>
    <path class="st0" d="M293.7,199.9,282,208.4l11.7,8.5,11.7-8.5Z"/>
    <path class="st0" d="M267.5,235.9l4.5-13.8-4.5-13.7L263,222.2Z"/>
    <path class="st0" d="M286.4,222.1H271.9l-4.5,13.8h14.5Z"/>
    <path class="st0" d="M282,208.4l11.7-8.5,4.5-13.8-11.7,8.5Z"/>
    <path class="st0" d="M272,194.6l-4.5,13.8H282l4.5-13.8Z"/>
    <path class="st0" d="M283.7,186.1h14.5l-4.5-13.8H279.2Z"/>
    <path class="st0" d="M286.4,194.6l11.7-8.5H283.6l-11.7,8.5Z"/>
    <path class="st0" d="M347.7,222.1h14.5l4.5-13.8H352.2Z"/>
    <path class="st0" d="M336,230.6h14.5l11.7-8.5H347.7Z"/>
    <path class="st0" d="M366.6,235.9l-4.5-13.8-11.7,8.5,4.5,13.8Z"/>
    <path class="st0" d="M340.5,199.9l11.7,8.5h14.5L355,199.9Z"/>
    <path class="st0" d="M347.7,222.1l4.5-13.8-11.7-8.5L336,213.6Z"/>
    <path class="st0" d="M362.2,222.1l4.5,13.8,11.7,8.5-4.5-13.8Z"/>
    <path class="st0" d="M378.3,244.4l-11.7-8.5-11.7,8.5,11.7,8.5Z"/>
    <path class="st0" d="M378.3,216.9l-11.7-8.5-4.5,13.8,11.7,8.5Z"/>
    <path class="st0" d="M382.8,230.6l-4.5,13.8h14.5l4.5-13.8Z"/>
    <path class="st0" d="M416.2,244.4l-11.7-8.5-11.7,8.5,11.7,8.5Z"/>
    <path class="st0" d="M373.9,230.6l4.5,13.8,4.5-13.8-4.5-13.8Z"/>
    <path class="st0" d="M324.3,194.6l-4.5,13.8,4.5,13.8,4.5-13.8Z"/>
    <path class="st0" d="M309.8,222.1h14.5l-4.5-13.8H305.3Z"/>
    <path class="st0" d="M340.5,199.9,336,186.1l-11.7,8.5,4.5,13.8Z"/>
    <path class="st0" d="M336,213.6l-11.7,8.5,11.7,8.5,11.7-8.5Z"/>
    <path class="st0" d="M354.9,244.4l-4.5-13.8H335.9l4.6,13.8Z"/>
    <path class="st0" d="M328.8,208.4l-4.5,13.8,11.7-8.5,4.5-13.8Z"/>
    <path class="st0" d="M282,235.9l11.7,8.5,4.5-13.8-11.7-8.5Z"/>
    <path class="st0" d="M305.4,208.4l-11.7,8.5,4.5,13.8,11.7-8.5Z"/>
    <path class="st0" d="M279.2,244.4h14.5L282,235.9H267.5Z"/>
    <path class="st0" d="M279.2,244.4l-11.7-8.5-11.7,8.5,11.7,8.5Z"/>
    <path class="st0" d="M312.6,230.6l11.7-8.5H309.8l-11.7,8.5Z"/>
    <path class="st0" d="M312.6,230.6H298.1l-4.5,13.8h14.5Z"/>
    <path class="st0" d="M331.5,244.4l4.5-13.8-11.7-8.5-4.5,13.8Z"/>
    <path class="st0" d="M340.5,244.4,336,230.6l-4.5,13.8,4.5,13.8Z"/>
    <path class="st0" d="M308.1,244.4l11.7-8.5,4.5-13.8-11.7,8.5Z"/>
    <path class="st0" d="M331.5,244.4l-11.7-8.5-11.7,8.5,11.7,8.5Z"/>
    <path class="st0" d="M3.5,383.2l-11.7-8.5H-22.7l11.7,8.5Z"/>
    <path class="st0" d="M-3.7,360.9l-4.5,13.8,11.7,8.5L8,369.4Z"/>
    <path class="st0" d="M-11,338.7l-11.7,8.5H-8.2l11.7-8.5Z"/>
    <path class="st0" d="M38.6,374.7l11.7,8.5-4.5-13.8-11.7-8.5Z"/>
    <path class="st0" d="M57.5,360.9l-11.7,8.5,4.5,13.8L62,374.7Z"/>
    <path class="st0" d="M24.1,374.7l-4.5,13.8H34.1l4.5-13.8Z"/>
    <path class="st0" d="M64.8,383.2l11.7-8.5H62l-11.7,8.5Z"/>
    <path class="st0" d="M57.5,360.9,62,374.7H76.5L72,360.9Z"/>
    <path class="st0" d="M15.2,374.7l4.5-13.8L8,369.4,3.5,383.2Z"/>
    <path class="st0" d="M-3.7,360.9,8,369.4l11.7-8.5L8,352.4Z"/>
    <path class="st0" d="M38.6,374.7l-4.5-13.8H19.6l4.5,13.8Z"/>
    <path class="st0" d="M45.8,352.4l-11.7,8.5,11.7,8.5,11.7-8.5Z"/>
    <path class="st0" d="M19.7,388.4l4.5-13.8-4.5-13.8-4.5,13.8Z"/>
    <path class="st0" d="M-11,338.7H3.5L8,324.9H-6.5Z"/>
    <path class="st0" d="M8,352.4,3.5,338.6l-11.7,8.5,4.5,13.8Z"/>
    <path class="st0" d="M-18.2,316.4l11.7,8.5H8l-11.7-8.5Z"/>
    <path class="st0" d="M3.5,338.7,8,352.5,19.7,361l-4.5-13.8Z"/>
    <path class="st0" d="M19.7,333.4,8,324.9,3.5,338.7l11.7,8.5Z"/>
    <path class="st0" d="M24.1,347.2,19.6,361H34.1l4.5-13.8Z"/>
    <path class="st0" d="M38.6,347.2,34.1,361l11.7-8.5,4.5-13.8Z"/>
    <path class="st0" d="M15.2,347.2,19.7,361l4.5-13.8-4.5-13.8Z"/>
    <path class="st0" d="M34.1,333.4H19.6l4.5,13.8H38.6Z"/>
    <path class="st0" d="M553.2,360.9l4.5,13.8,4.5-13.8-4.5-13.8Z"/>
    <path class="st0" d="M576.6,360.9H562.1l-4.5,13.8h14.5Z"/>
    <path class="st0" d="M553.2,360.9l4.5-13.8L546,338.6l-4.5,13.8Z"/>
    <path class="st0" d="M572.1,347.2H557.6l4.5,13.8h14.5Z"/>
    <path class="st0" d="M534.3,374.7l11.7,8.5,11.7-8.5L546,366.2Z"/>
    <path class="st0" d="M519.8,374.7l11.7,8.5H546l-11.7-8.5Z"/>
    <path class="st0" d="M541.5,352.4l4.5,13.8,11.7,8.5-4.5-13.8Z"/>
    <path class="st0" d="M534.3,374.7l11.7-8.5-4.5-13.8-11.7,8.5Z"/>
    <path class="st0" d="M600,360.9l-11.7,8.5-4.5,13.8,11.7-8.5Z"/>
    <path class="st0" d="M572.1,374.7l11.7,8.5,4.5-13.8-11.7-8.5Z"/>
    <path class="st0" d="M583.8,383.2l-11.7-8.5H557.6l11.7,8.5Z"/>
    <path class="st0" d="M576.6,316.4l-4.5-13.8H557.6l4.5,13.8Z"/>
    <path class="st0" d="M588.3,324.9l-4.5-13.8-11.7-8.5,4.5,13.8Z"/>
    <path class="st0" d="M583.8,294.1l-11.7,8.5,11.7,8.5,11.7-8.5Z"/>
    <path class="st0" d="M557.7,330.1l4.5-13.8-4.5-13.8-4.5,13.8Z"/>
    <path class="st0" d="M541.5,324.9l4.5,13.8,11.7-8.5-4.5-13.8Z"/>
    <path class="st0" d="M576.6,316.4H562.1l-4.5,13.8h14.5Z"/>
    <path class="st0" d="M572.1,302.6l11.7-8.5,4.5-13.8-11.7,8.5Z"/>
    <path class="st0" d="M600,288.9l-11.7-8.5-4.5,13.8,11.7,8.5Z"/>
    <path class="st0" d="M562.1,288.9l-4.5,13.8h14.5l4.5-13.8Z"/>
    <path class="st0" d="M573.8,280.4h14.5l-4.5-13.8H569.3Z"/>
    <path class="st0" d="M569.4,266.6h14.5l-11.7-8.5H557.7Z"/>
    <path class="st0" d="M576.6,244.4l-4.5,13.8,11.7,8.5,4.5-13.8Z"/>
    <path class="st0" d="M576.6,288.9l11.7-8.5H573.8l-11.7,8.5Z"/>
    <path class="st0" d="M557.7,275.1l4.5,13.8,11.7-8.5-4.5-13.8Z"/>
    <path class="st0" d="M557.7,347.2h14.5l11.7-8.5H569.4Z"/>
    <path class="st0" d="M588.3,352.4l-4.5-13.8-11.7,8.5,4.5,13.8Z"/>
    <path class="st0" d="M557.7,330.1,546,338.6l11.7,8.5,11.7-8.5Z"/>
    <path class="st0" d="M572.1,330.1l11.7,8.5,4.5-13.8-11.7-8.5Z"/>
    <path class="st0" d="M595.5,302.6l-11.7,8.5,4.5,13.8,11.7-8.5Z"/>
    <path class="st0" d="M569.4,338.7h14.5l-11.7-8.5H557.7Z"/>
    <path class="st0" d="M576.6,360.9l11.7,8.5,11.7-8.5-11.7-8.5Z"/>
    <path class="st0" d="M595.5,347.2l-11.7-8.5,4.5,13.8L600,361Z"/>
    <path class="st0" d="M602.8,324.9H588.3l-4.5,13.8h14.5Z"/>
    <path class="st0" d="M610,347.2l-11.7-8.5H583.8l11.7,8.5Z"/>
    <path class="st0" d="M595.5,258.1l4.5-13.8-11.7,8.5-4.5,13.8Z"/>
    <path class="st0" d="M595.5,258.1l-11.7,8.5,4.5,13.8,11.7-8.5Z"/>
    <path class="st0" d="M458.5,374.7H473l4.5-13.8H463Z"/>
    <path class="st0" d="M446.8,383.2h14.5l11.7-8.5H458.5Z"/>
    <path class="st0" d="M451.3,352.4l11.7,8.5h14.5l-11.7-8.5Z"/>
    <path class="st0" d="M461.3,338.7H446.8l4.5,13.8h14.5Z"/>
    <path class="st0" d="M458.5,374.7l4.5-13.8-11.7-8.5-4.5,13.8Z"/>
    <path class="st0" d="M489.2,369.4l-11.7-8.5L473,374.7l11.7,8.5Z"/>
    <path class="st0" d="M503.6,369.4H489.1l4.5,13.8h14.5Z"/>
    <path class="st0" d="M435.1,347.2,430.6,361l4.5,13.8,4.5-13.8Z"/>
    <path class="st0" d="M420.7,374.7h14.5l-4.5-13.8H416.2Z"/>
    <path class="st0" d="M451.3,352.4l-4.5-13.8-11.7,8.5,4.5,13.8Z"/>
    <path class="st0" d="M446.8,366.2l-11.7,8.5,11.7,8.5,11.7-8.5Z"/>
    <path class="st0" d="M439.6,360.9l-4.5,13.8,11.7-8.5,4.5-13.8Z"/>
    <path class="st0" d="M397.3,374.7l11.7,8.5-4.5-13.8-11.7-8.5Z"/>
    <path class="st0" d="M416.2,360.9l-11.7,8.5,4.5,13.8,11.7-8.5Z"/>
    <path class="st0" d="M382.8,374.7l-4.5,13.8h14.5l4.5-13.8Z"/>
    <path class="st0" d="M423.4,383.2l11.7-8.5H420.6l-11.7,8.5Z"/>
    <path class="st0" d="M531.5,338.7l-11.7,8.5L515.3,361l11.7-8.5Z"/>
    <path class="st0" d="M503.6,352.4l11.7,8.5,4.5-13.8-11.7-8.5Z"/>
    <path class="st0" d="M541.5,352.4l4.5-13.8H531.5L527,352.4Z"/>
    <path class="st0" d="M508.1,338.7l11.7,8.5,11.7-8.5-11.7-8.5Z"/>
    <path class="st0" d="M529.8,360.9H515.3l4.5,13.8h14.5Z"/>
    <path class="st0" d="M527,352.4l-11.7,8.5h14.5l11.7-8.5Z"/>
    <path class="st0" d="M473,347.2l4.5,13.8,11.7-8.5-4.5-13.8Z"/>
    <path class="st0" d="M484.7,338.7l4.5,13.8,4.5-13.8-4.5-13.8Z"/>
    <path class="st0" d="M508.1,338.7H493.6l-4.5,13.8h14.5Z"/>
    <path class="st0" d="M465.8,352.4l11.7,8.5L473,347.1l-11.7-8.5Z"/>
    <path class="st0" d="M473,330.1l-11.7,8.5,11.7,8.5,11.7-8.5Z"/>
    <path class="st0" d="M500.9,360.9h14.5l-11.7-8.5H489.2Z"/>
    <path class="st0" d="M500.9,360.9l-11.7-8.5-11.7,8.5,11.7,8.5Z"/>
    <path class="st0" d="M508.1,383.2l11.7-8.5-4.5-13.8-11.7,8.5Z"/>
    <path class="st0" d="M489.2,369.4h14.5l11.7-8.5H500.9Z"/>
    <path class="st0" d="M546,311.1l11.7-8.5L546,294.1l-11.7,8.5Z"/>
    <path class="st0" d="M534.3,302.6l11.7-8.5H531.5l-11.7,8.5Z"/>
    <path class="st0" d="M527,280.4l4.5,13.8H546l-4.5-13.8Z"/>
    <path class="st0" d="M553.2,316.4l4.5-13.8L546,311.1l-4.5,13.8Z"/>
    <path class="st0" d="M529.8,316.4l11.7,8.5,4.5-13.8-11.7-8.5Z"/>
    <path class="st0" d="M550.4,280.4l-4.5-13.8-4.4,13.8,4.5,13.8Z"/>
    <path class="st0" d="M527,280.4h14.5l4.5-13.8H531.5Z"/>
    <path class="st0" d="M550.4,280.4l-4.5,13.8,11.7,8.5,4.5-13.8Z"/>
    <path class="st0" d="M569.4,266.6l-11.7-8.5L546,266.6l11.7,8.5Z"/>
    <path class="st0" d="M562.1,244.4l-4.5,13.8h14.5l4.5-13.8Z"/>
    <path class="st0" d="M562.1,288.9l-4.5-13.8-11.7-8.5,4.5,13.8Z"/>
    <path class="st0" d="M527,324.9l-11.7-8.5,4.5,13.8,11.7,8.5Z"/>
    <path class="st0" d="M508.1,338.7l11.7-8.5-4.5-13.8-11.7,8.5Z"/>
    <path class="st0" d="M527,324.9l4.5,13.8H546l-4.5-13.8Z"/>
    <path class="st0" d="M534.3,302.6H519.8l-4.5,13.8h14.5Z"/>
    <path class="st0" d="M515.3,288.9l4.5,13.8,11.7-8.5L527,280.4Z"/>
    <path class="st0" d="M541.5,324.9l-11.7-8.5H515.3l11.7,8.5Z"/>
    <path class="st0" d="M484.7,338.7l4.5-13.8-11.7-8.5L473,330.2Z"/>
    <path class="st0" d="M503.6,324.9H489.1l4.5,13.8h14.5Z"/>
    <path class="st0" d="M461.3,338.7l11.7-8.5,4.5-13.8-11.7,8.5Z"/>
    <path class="st0" d="M451.3,324.9l-4.5,13.8h14.5l4.5-13.8Z"/>
    <path class="st0" d="M489.2,324.9h14.5l11.7-8.5H500.9Z"/>
    <path class="st0" d="M489.2,307.9l-11.7,8.5,11.7,8.5,11.7-8.5Z"/>
    <path class="st0" d="M503.6,307.9l11.7,8.5,4.5-13.8-11.7-8.5Z"/>
    <path class="st0" d="M508.1,294.1l11.7,8.5-4.5-13.8-11.7-8.5Z"/>
    <path class="st0" d="M500.9,316.4h14.5l-11.7-8.5H489.2Z"/>
    <path class="st0" d="M149.4,338.7l-4.5,13.8,11.7,8.5,4.5-13.8Z"/>
    <path class="st0" d="M145,324.9l-4.5,13.8,4.5,13.8,4.5-13.8Z"/>
    <path class="st0" d="M130.5,352.4H145l-4.5-13.8H126Z"/>
    <path class="st0" d="M172.8,338.7l-11.7,8.5L156.6,361l11.7-8.5Z"/>
    <path class="st0" d="M182.8,352.4l4.5-13.8H172.8l-4.5,13.8Z"/>
    <path class="st0" d="M149.4,338.7l11.7,8.5,11.7-8.5-11.7-8.5Z"/>
    <path class="st0" d="M145,352.4H130.5l-11.7,8.5h14.5Z"/>
    <path class="st0" d="M114.3,347.2l4.5,13.8,11.7-8.6L126,338.6Z"/>
    <path class="st0" d="M145,369.4l11.7-8.5L145,352.4l-11.7,8.5Z"/>
    <path class="st0" d="M130.5,369.4l-11.7-8.5-4.5,13.8,11.7,8.5Z"/>
    <path class="st0" d="M133.3,360.9H118.8l11.7,8.5H145Z"/>
    <path class="st0" d="M140.5,383.2l4.5-13.8H130.5L126,383.2Z"/>
    <path class="st0" d="M182.8,324.9l-11.7-8.5H156.6l11.7,8.5Z"/>
    <path class="st0" d="M172.8,338.7h14.5l-4.5-13.8H168.3Z"/>
    <path class="st0" d="M161.1,330.1l-4.5-13.8-11.7,8.5,4.5,13.8Z"/>
    <path class="st0" d="M126,338.7h14.5l4.5-13.8H130.5Z"/>
    <path class="st0" d="M168.4,324.9l-11.7-8.5,4.5,13.8,11.7,8.5Z"/>
    <path class="st0" d="M149.4,266.6l11.7-8.5-4.5-13.8-11.7,8.5Z"/>
    <path class="st0" d="M172.8,266.6l-11.7-8.5-4.5,13.8,11.7,8.5Z"/>
    <path class="st0" d="M152.2,302.6l4.5,13.8,4.5-13.8-4.5-13.8Z"/>
    <path class="st0" d="M133.3,316.4l11.7,8.5,11.7-8.5L145,307.9Z"/>
    <path class="st0" d="M118.8,316.4l11.7,8.5H145l-11.7-8.5Z"/>
    <path class="st0" d="M140.5,294.1l4.5,13.8,11.7,8.5-4.5-13.8Z"/>
    <path class="st0" d="M133.3,316.4l11.7-8.5-4.5-13.8-11.7,8.5Z"/>
    <path class="st0" d="M171.1,360.9H156.6l4.5,13.8h14.5Z"/>
    <path class="st0" d="M175.6,374.7H161.1l11.7,8.5h14.5Z"/>
    <path class="st0" d="M168.4,352.4l-11.7,8.5h14.5l11.7-8.5Z"/>
    <path class="st0" d="M187.3,366.2l-4.5-13.8-11.7,8.5,4.5,13.8Z"/>
    <path class="st0" d="M149.4,383.2l11.7-8.5-4.5-13.8-11.7,8.5Z"/>
    <path class="st0" d="M175.6,374.7l11.7,8.5,11.7-8.5-11.7-8.5Z"/>
    <path class="st0" d="M182.8,352.4l4.5,13.8,11.7,8.5-4.5-13.8Z"/>
    <path class="st0" d="M199,347.2l-11.7-8.5-4.5,13.8,11.7,8.5Z"/>
    <path class="st0" d="M130.5,252.9l-11.7-8.5-4.5,13.8,11.7,8.5Z"/>
    <path class="st0" d="M133.3,244.4H118.8l11.7,8.5H145Z"/>
    <path class="st0" d="M140.5,266.6l4.5-13.8H130.5L126,266.6Z"/>
    <path class="st0" d="M99.9,258.1l-11.7,8.5h14.5l11.7-8.5Z"/>
    <path class="st0" d="M99.9,258.1h14.5l4.5-13.8H104.4Z"/>
    <path class="st0" d="M92.6,324.9l-4.5,13.8h14.5l4.5-13.8Z"/>
    <path class="st0" d="M107.1,324.9l-4.5,13.8,11.7-8.5,4.5-13.8Z"/>
    <path class="st0" d="M126,338.7l-11.7-8.5-11.7,8.5,11.7,8.5Z"/>
    <path class="st0" d="M83.7,324.9l4.5,13.8,4.5-13.8-4.5-13.8Z"/>
    <path class="st0" d="M83.7,324.9l4.5-13.8-11.7-8.5L72,316.4Z"/>
    <path class="st0" d="M102.6,311.1H88.1l4.5,13.8h14.5Z"/>
    <path class="st0" d="M107.1,352.4l11.7,8.5-4.5-13.8-11.7-8.5Z"/>
    <path class="st0" d="M107.1,352.4l-4.5-13.8H88.1l4.5,13.8Z"/>
    <path class="st0" d="M99.9,374.7h14.5l4.5-13.8H104.4Z"/>
    <path class="st0" d="M88.2,383.2h14.5l11.7-8.5H99.9Z"/>
    <path class="st0" d="M92.6,352.4l11.7,8.5h14.5l-11.7-8.5Z"/>
    <path class="st0" d="M99.9,374.7l4.5-13.8-11.7-8.5-4.5,13.8Z"/>
    <path class="st0" d="M99.9,302.6h14.5l-11.7-8.5H88.2Z"/>
    <path class="st0" d="M99.9,302.6l-11.7-8.5-11.7,8.5,11.7,8.5Z"/>
    <path class="st0" d="M107.1,324.9l11.7-8.5-4.5-13.8-11.7,8.5Z"/>
    <path class="st0" d="M130.5,324.9l-11.7-8.5-4.5,13.8,11.7,8.5Z"/>
    <path class="st0" d="M88.2,311.1h14.5l11.7-8.5H99.9Z"/>
    <path class="st0" d="M128.8,302.6H114.3l4.5,13.8h14.5Z"/>
    <path class="st0" d="M126,294.1l-11.7,8.5h14.5l11.7-8.5Z"/>
    <path class="st0" d="M-3.7,288.9,8,280.4H-6.5l-11.7,8.5Z"/>
    <path class="st0" d="M50.3,311.1,62,302.6l-11.7-8.5-11.7,8.5Z"/>
    <path class="st0" d="M15.2,302.6l4.5-13.8L8,280.3,3.5,294.1Z"/>
    <path class="st0" d="M19.7,316.4l4.5-13.8-4.5-13.8-4.5,13.8Z"/>
    <path class="st0" d="M34.1,288.9H19.6l4.5,13.8H38.6Z"/>
    <path class="st0" d="M-8.2,302.6l11.7-8.5L8,280.3l-11.7,8.5Z"/>
    <path class="st0" d="M15.2,302.6,3.5,294.1l-11.7,8.5,11.7,8.5Z"/>
    <path class="st0" d="M64.8,338.7l11.7,8.5,11.7-8.5-11.7-8.5Z"/>
    <path class="st0" d="M50.3,338.7,62,347.2H76.5l-11.7-8.5Z"/>
    <path class="st0" d="M72,360.9l4.5-13.8H62l-4.5,13.8Z"/>
    <path class="st0" d="M72,316.4l4.5,13.8,11.7,8.5-4.5-13.8Z"/>
    <path class="st0" d="M64.8,338.7l11.7-8.5L72,316.4l-11.7,8.5Z"/>
    <path class="st0" d="M76.5,347.2,72,361l4.5,13.8L81,361Z"/>
    <path class="st0" d="M92.6,352.4l-4.5-13.8-11.7,8.5,4.5,13.8Z"/>
    <path class="st0" d="M88.2,366.2l-11.7,8.5,11.7,8.5,11.7-8.5Z"/>
    <path class="st0" d="M80.9,360.9l-4.5,13.8,11.7-8.5,4.5-13.8Z"/>
    <path class="st0" d="M62,302.6l-11.7,8.5-4.5,13.8,11.7-8.5Z"/>
    <path class="st0" d="M34.1,316.4l11.7,8.5,4.5-13.8-11.7-8.5Z"/>
    <path class="st0" d="M72,316.4l4.5-13.8H62l-4.5,13.8Z"/>
    <path class="st0" d="M60.3,324.9H45.8l4.5,13.8H64.8Z"/>
    <path class="st0" d="M57.5,360.9,62,347.1l-11.7-8.5-4.5,13.8Z"/>
    <path class="st0" d="M57.5,316.4l-11.7,8.5H60.3L72,316.4Z"/>
    <path class="st0" d="M3.5,311.1,8,324.9l11.7-8.5-4.5-13.8Z"/>
    <path class="st0" d="M38.6,302.6H24.1l-4.5,13.8H34.1Z"/>
    <path class="st0" d="M-3.7,316.4,8,324.9,3.5,311.1l-11.7-8.5Z"/>
    <path class="st0" d="M31.4,324.9H45.9l-11.7-8.5H19.7Z"/>
    <path class="st0" d="M31.4,324.9l-11.7-8.5L8,324.9l11.7,8.5Z"/>
    <path class="st0" d="M38.6,347.2l11.7-8.5-4.5-13.8-11.7,8.5Z"/>
    <path class="st0" d="M19.7,333.4H34.2l11.7-8.5H31.4Z"/>
    <path class="st0" d="M279.2,360.9h14.5L282,352.4H267.5Z"/>
    <path class="st0" d="M286.4,338.7l-4.5,13.8,11.7,8.5,4.5-13.8Z"/>
    <path class="st0" d="M267.5,369.4l4.5,13.8,11.7-8.5-4.5-13.8Z"/>
    <path class="st0" d="M213.5,330.1l11.7,8.5,4.5-13.8L218,316.3Z"/>
    <path class="st0" d="M210.7,338.7h14.5l-11.7-8.5H199Z"/>
    <path class="st0" d="M210.7,338.7,199,330.2l-11.7,8.5,11.7,8.5Z"/>
    <path class="st0" d="M203.5,316.4,199,330.2h14.5l4.5-13.8Z"/>
    <path class="st0" d="M244.1,324.9l11.7-8.5H241.3l-11.7,8.5Z"/>
    <path class="st0" d="M244.1,324.9H229.6l-4.5,13.8h14.5Z"/>
    <path class="st0" d="M263,338.7l4.5-13.8-11.7-8.5-4.5,13.8Z"/>
    <path class="st0" d="M267.5,352.4l4.5-13.8-4.5-13.8L263,338.6Z"/>
    <path class="st0" d="M239.6,338.7l11.7-8.5,4.5-13.8-11.7,8.5Z"/>
    <path class="st0" d="M263,338.7l-11.7-8.5-11.7,8.5,11.7,8.5Z"/>
    <path class="st0" d="M194.5,316.4l-11.7,8.5,4.5,13.8,11.7-8.5Z"/>
    <path class="st0" d="M161.1,258.1l11.7,8.5h14.5l-11.7-8.5Z"/>
    <path class="st0" d="M171.1,244.4H156.6l4.5,13.8h14.5Z"/>
    <path class="st0" d="M213.5,275.1H199l4.5,13.8H218Z"/>
    <path class="st0" d="M260.3,374.7l-4.5-13.8-4.5,13.8,4.5,13.8Z"/>
    <path class="st0" d="M236.9,374.7h14.5l4.5-13.8H241.4Z"/>
    <path class="st0" d="M241.3,388.4h14.5l-4.5-13.8H236.8Z"/>
    <path class="st0" d="M279.2,360.9l-11.7-8.5-11.7,8.5,11.7,8.5Z"/>
    <path class="st0" d="M272,338.7l-4.5,13.7H282l4.5-13.8-14.5.1Z"/>
    <path class="st0" d="M272,383.2l-4.5-13.8-11.7-8.5,4.5,13.8Z"/>
    <path class="st0" d="M217.9,360.9l11.7-8.5-4.5-13.8-11.7,8.5Z"/>
    <path class="st0" d="M213.5,374.7l11.7-8.5,4.5-13.8L218,360.9Z"/>
    <path class="st0" d="M241.3,360.9l-11.7-8.5-4.5,13.8,11.7,8.5Z"/>
    <path class="st0" d="M199,347.2h14.5l11.7-8.5H210.7Z"/>
    <path class="st0" d="M217.9,360.9l-4.5-13.8H198.9l4.5,13.8Z"/>
    <path class="st0" d="M229.6,352.4l11.7,8.5h14.5l-11.7-8.5Z"/>
    <path class="st0" d="M239.6,338.7H225.1l4.5,13.8h14.5Z"/>
    <path class="st0" d="M251.3,347.2l4.5,13.8,11.7-8.6L263,338.6Z"/>
    <path class="st0" d="M244.1,352.4l11.7,8.5-4.5-13.8-11.7-8.5Z"/>
    <path class="st0" d="M203.5,360.9,199,374.7h14.5l4.5-13.8Z"/>
    <path class="st0" d="M236.9,374.7l-11.7-8.5-11.7,8.5,11.7,8.5Z"/>
    <path class="st0" d="M194.5,360.9l4.5,13.8,4.5-13.8L199,347.1Z"/>
    <path class="st0" d="M217.9,388.4l-4.5-13.8H198.9l4.6,13.8Z"/>
    <path class="st0" d="M397.3,302.6l11.7,8.5,11.7-8.5L409,294.1Z"/>
    <path class="st0" d="M439.6,316.4l-4.5,13.8,11.7,8.5,4.5-13.8Z"/>
    <path class="st0" d="M416.2,288.9l-11.7-8.5,4.5,13.8,11.7,8.5Z"/>
    <path class="st0" d="M397.3,302.6l11.7-8.5-4.5-13.7-11.7,8.5Z"/>
    <path class="st0" d="M423.4,266.6H408.9l-4.4,13.8H419Z"/>
    <path class="st0" d="M435.1,258.1H420.6l-11.7,8.5h14.5Z"/>
    <path class="st0" d="M404.5,252.9l4.5,13.8,11.7-8.5-4.5-13.8Z"/>
    <path class="st0" d="M430.7,288.9,419,280.4H404.5l11.7,8.5Z"/>
    <path class="st0" d="M423.4,266.6l-4.5,13.8,11.7,8.5,4.5-13.8Z"/>
    <path class="st0" d="M397.3,374.7l-4.5-13.8H378.3l4.5,13.8Z"/>
    <path class="st0" d="M404.5,352.4l-11.7,8.5,11.7,8.5,11.7-8.5Z"/>
    <path class="st0" d="M378.3,388.4l4.5-13.8-4.5-13.8-4.5,13.8Z"/>
    <path class="st0" d="M439.6,244.4l-4.5,13.8,11.7,8.5,4.5-13.8Z"/>
    <path class="st0" d="M420.7,258.1h14.5l-4.5-13.8H416.2Z"/>
    <path class="st0" d="M435.1,275.1l11.7-8.5-11.7-8.5-11.7,8.5Z"/>
    <path class="st0" d="M442.4,280.4l4.5-13.8-11.7,8.5-4.5,13.8Z"/>
    <path class="st0" d="M508.1,266.6l11.7-8.5-4.5-13.8-11.7,8.5Z"/>
    <path class="st0" d="M503.6,280.4l11.7-8.5,4.5-13.8-11.7,8.5Z"/>
    <path class="st0" d="M531.5,266.6l-11.7-8.5-4.5,13.8,11.7,8.5Z"/>
    <path class="st0" d="M489.2,252.9h14.5l11.7-8.5H500.9Z"/>
    <path class="st0" d="M519.8,258.1l11.7,8.5H546l-11.7-8.5Z"/>
    <path class="st0" d="M529.8,244.4H515.3l4.5,13.8h14.5Z"/>
    <path class="st0" d="M541.5,252.9l4.5,13.8,11.7-8.5-4.5-13.8Z"/>
    <path class="st0" d="M534.3,258.1l11.7,8.5-4.5-13.8-11.7-8.5Z"/>
    <path class="st0" d="M527,280.4l-11.7-8.5-11.7,8.5,11.7,8.5Z"/>
    <path class="st0" d="M392.8,288.9H378.3l4.5,13.8h14.5Z"/>
    <path class="st0" d="M378.3,288.9h14.5l11.7-8.5H390Z"/>
    <path class="st0" d="M378.3,271.9l-11.7,8.5,11.7,8.5,11.7-8.5Z"/>
    <path class="st0" d="M392.8,271.9l11.7,8.5,4.5-13.8-11.7-8.5Z"/>
    <path class="st0" d="M397.3,258.1l11.7,8.5-4.5-13.8-11.7-8.5Z"/>
    <path class="st0" d="M390,280.4h14.5l-11.7-8.5H378.3Z"/>
    <path class="st0" d="M382.8,258.1l-4.5,13.8h14.5l4.5-13.8Z"/>
    <path class="st0" d="M397.3,302.6H382.8l-4.5,13.8h14.5Z"/>
    <path class="st0" d="M366.6,369.4l11.7-8.5-11.7-8.5-11.7,8.5Z"/>
    <path class="st0" d="M373.9,374.7l4.5-13.8-11.7,8.5-4.5,13.8Z"/>
    <path class="st0" d="M244.1,280.4l11.7,8.5,11.7-8.5-11.7-8.5Z"/>
    <path class="st0" d="M229.6,280.4l11.7,8.5h14.5l-11.7-8.5Z"/>
    <path class="st0" d="M251.3,258.1l4.5,13.8,11.7,8.5L263,266.6Z"/>
    <path class="st0" d="M267.5,252.9l-11.7-8.5-4.5,13.8,11.7,8.5Z"/>
    <path class="st0" d="M244.1,280.4l11.7-8.5-4.5-13.8-11.7,8.5Z"/>
    <path class="st0" d="M241.3,244.4l-11.7,8.5-4.5,13.8,11.7-8.5Z"/>
    <path class="st0" d="M213.5,258.1l11.7,8.5,4.5-13.8L218,244.3Z"/>
    <path class="st0" d="M251.3,258.1l4.5-13.8H241.3l-4.5,13.8Z"/>
    <path class="st0" d="M239.6,266.6H225.1l4.5,13.8h14.5Z"/>
    <path class="st0" d="M236.9,258.1l-11.7,8.5h14.5l11.7-8.5Z"/>
    <path class="st0" d="M182.8,252.9l4.5,13.8,11.7-8.5-4.5-13.8Z"/>
    <path class="st0" d="M217.9,244.4H203.5L199,258.2h14.5Z"/>
    <path class="st0" d="M175.6,258.1l11.7,8.5-4.5-13.8-11.7-8.5Z"/>
    <path class="st0" d="M210.7,266.6h14.5l-11.7-8.5H199Z"/>
    <path class="st0" d="M210.7,266.6,199,258.1l-11.7,8.5,11.7,8.5Z"/>
    <path class="st0" d="M217.9,288.9l11.7-8.5-4.5-13.8-11.7,8.5Z"/>
    <path class="st0" d="M199,275.1h14.5l11.7-8.5H210.7Z"/>
    <path class="st0" d="M324.3,294.1H309.8l-11.7,8.5h14.5Z"/>
    <path class="st0" d="M293.7,288.9l4.5,13.8,11.7-8.5-4.5-13.8Z"/>
    <path class="st0" d="M305.4,280.4l4.5,13.8h14.5l-4.5-13.8Z"/>
    <path class="st0" d="M312.6,302.6H298.1l11.7,8.5h14.5Z"/>
    <path class="st0" d="M272,266.6l-4.5,13.8H282l4.5-13.8Z"/>
    <path class="st0" d="M286.4,266.6l-4.5,13.8,11.7-8.5,4.5-13.8Z"/>
    <path class="st0" d="M305.4,280.4l-11.7-8.5L282,280.4l11.7,8.5Z"/>
    <path class="st0" d="M263,266.6l4.5,13.8,4.5-13.8-4.5-13.8Z"/>
    <path class="st0" d="M282,252.9H267.5l4.5,13.8h14.5Z"/>
    <path class="st0" d="M286.4,294.1l11.7,8.5-4.5-13.8-11.7-8.5Z"/>
    <path class="st0" d="M286.4,294.1l-4.5-13.8H267.5l4.5,13.8Z"/>
    <path class="st0" d="M272,294.1l11.7,8.5h14.5l-11.7-8.5Z"/>
    <path class="st0" d="M352.2,280.4h14.5l-4.5-13.8H347.7Z"/>
    <path class="st0" d="M347.7,266.6h14.5l-11.7-8.5H336Z"/>
    <path class="st0" d="M354.9,244.4l-4.5,13.8,11.7,8.5,4.5-13.8Z"/>
    <path class="st0" d="M354.9,288.9l11.7-8.5H352.1l-11.7,8.5Z"/>
    <path class="st0" d="M336,275.1l4.5,13.8,11.7-8.5-4.5-13.8Z"/>
    <path class="st0" d="M373.9,258.1l4.5-13.8-11.7,8.5-4.5,13.8Z"/>
    <path class="st0" d="M373.9,258.1l-11.7,8.5,4.5,13.8,11.7-8.5Z"/>
    <path class="st0" d="M397.3,258.1l-4.5-13.8H378.3l4.5,13.8Z"/>
    <path class="st0" d="M378.3,271.9l4.5-13.8-4.5-13.8-4.5,13.8Z"/>
    <path class="st0" d="M328.8,280.4l-4.5-13.8-4.5,13.8,4.5,13.8Z"/>
    <path class="st0" d="M305.4,280.4h14.5l4.5-13.8H309.9Z"/>
    <path class="st0" d="M347.7,266.6,336,258.1l-11.7,8.5,11.7,8.5Z"/>
    <path class="st0" d="M340.5,244.4,336,258.2h14.5l4.5-13.8Z"/>
    <path class="st0" d="M340.5,288.9,336,275.1l-11.7-8.5,4.5,13.8Z"/>
    <path class="st0" d="M286.4,266.6l11.7-8.5-4.5-13.8-11.7,8.5Z"/>
    <path class="st0" d="M309.8,266.6l-11.7-8.5-4.5,13.8,11.7,8.5Z"/>
    <path class="st0" d="M267.5,252.9H282l11.7-8.5H279.2Z"/>
    <path class="st0" d="M298.1,258.1l11.7,8.5h14.5l-11.7-8.5Z"/>
    <path class="st0" d="M308.1,244.4H293.6l4.5,13.8h14.5Z"/>
    <path class="st0" d="M319.8,252.9l4.5,13.8,11.7-8.5-4.5-13.8Z"/>
    <path class="st0" d="M312.6,258.1l11.7,8.5-4.5-13.8-11.7-8.5Z"/>
    <g id="text-mesh-1">
        <path class="st-text-grey"
              d="M226.9,204.68l1.68-2.08a6.83,6.83,0,0,0,4.08,1.76c1.76,0,2.8-.8,2.8-2.08s-1-1.76-2.4-2.4l-2.16-1c-1.68-.64-3.2-1.76-3.2-4.24s2.16-4.48,5.28-4.48a7,7,0,0,1,4.88,2.08L236.42,194a5.54,5.54,0,0,0-3.44-1.44c-1.44,0-2.4.64-2.4,1.76s1.28,1.68,2.4,2.16l2.16.8c1.76.8,3.2,2.08,3.2,4.24,0,2.72-2.16,4.72-5.76,4.72A5.42,5.42,0,0,1,226.9,204.68Z"/>
        <path class="st-text-grey"
              d="M240.18,200.6a5.85,5.85,0,0,1,6.16-6.24,4.73,4.73,0,0,1,3.44,1.44l-1.44,1.76a2.65,2.65,0,0,0-2.08-.8c-2.08,0-3.2,1.68-3.2,4.08s1.28,4.08,3.2,4.08a3.19,3.19,0,0,0,2.4-1l1.28,1.76a6.23,6.23,0,0,1-3.84,1.44C242.74,207,240.18,204.68,240.18,200.6Z"/>
        <path class="st-text-grey"
              d="M252.1,191.16a1.76,1.76,0,1,1,1.76,1.68A1.88,1.88,0,0,1,252.1,191.16Zm.08,3.6H255v12h-2.8Z"/>
        <path class="st-text-grey"
              d="M257.94,200.6c0-3.84,2.72-6.24,5.52-6.24,3.2,0,4.88,2.4,4.88,5.76a2.6,2.6,0,0,1-.24,1.44h-7.6a3.35,3.35,0,0,0,3.44,3.2,7.42,7.42,0,0,0,2.8-.8l1,1.76A7.88,7.88,0,0,1,263.7,207C260.5,207,257.94,204.68,257.94,200.6Zm7.92-1c0-1.76-.8-3-2.4-3a2.84,2.84,0,0,0-2.8,3Z"/>
        <path class="st-text-grey"
              d="M271.14,194.76h2.16l.24,1.68h0a5.13,5.13,0,0,1,3.84-1.76c2.72,0,3.68,1.76,3.68,4.72v7.52h-2.8V199.8c0-2.08-.64-2.72-1.76-2.72s-1.76.64-2.72,1.44v8.32H271l.16-12.08Z"/>
        <path class="st-text-grey"
              d="M283.94,200.6a5.85,5.85,0,0,1,6.16-6.24,4.73,4.73,0,0,1,3.44,1.44l-1.44,1.76a2.65,2.65,0,0,0-2.08-.8c-2.08,0-3.2,1.68-3.2,4.08s1.28,4.08,3.2,4.08a3.19,3.19,0,0,0,2.4-1l1.28,1.76a6.23,6.23,0,0,1-3.84,1.44C286.34,207,283.94,204.68,283.94,200.6Z"/>
        <path class="st-text-grey"
              d="M294.74,200.6c0-3.84,2.72-6.24,5.52-6.24,3.2,0,4.88,2.4,4.88,5.76a2.6,2.6,0,0,1-.24,1.44h-7.6a3.35,3.35,0,0,0,3.44,3.2,7.42,7.42,0,0,0,2.8-.8l1,1.76A7.88,7.88,0,0,1,300.5,207C297.22,207,294.74,204.68,294.74,200.6Zm8-1c0-1.76-.8-3-2.4-3a2.84,2.84,0,0,0-2.8,3Z"/>
        <path class="st-text-blue"
              d="M307.94,190.68h3.2l2.8,7.68c.4,1,.64,2.08,1,3h0c.4-1,.64-2.08,1-3l2.8-7.68H322v15.84H319.3v-7.28c0-1.44.24-3.68.4-5.12h0l-1.28,3.68-2.72,7.12h-1.6l-2.72-7.12-1.28-3.68h0a36.79,36.79,0,0,1,.4,5.12v7.28h-2.72l.16-15.84Z"/>
        <path class="st-text-blue"
              d="M325.22,200.6c0-3.84,2.72-6.24,5.52-6.24,3.2,0,4.88,2.4,4.88,5.76a2.6,2.6,0,0,1-.24,1.44h-7.52a3.35,3.35,0,0,0,3.44,3.2,7.42,7.42,0,0,0,2.8-.8l1,1.76a7.88,7.88,0,0,1-4.08,1.28C327.86,207,325.22,204.68,325.22,200.6Zm7.92-1c0-1.76-.8-3-2.4-3a2.84,2.84,0,0,0-2.8,3Z"/>
        <path class="st-text-blue"
              d="M337.22,205.32l1.28-1.76a5.51,5.51,0,0,0,3.2,1.44c1.12,0,1.76-.64,1.76-1.44,0-1-1.28-1.44-2.72-2.08-1.68-.64-3.44-1.44-3.44-3.44s1.68-3.68,4.24-3.68a6.61,6.61,0,0,1,4.08,1.44l-1.28,1.68a4.26,4.26,0,0,0-2.72-1c-1.28,0-1.76.64-1.76,1.44,0,1,1.28,1.28,2.4,1.76,1.68.64,3.44,1.44,3.44,3.68,0,2.08-1.68,3.68-4.72,3.68A6.29,6.29,0,0,1,337.22,205.32Z"/>
        <path class="st-text-blue"
              d="M348.74,189.48h2.8V194l-.24,2.16a5.13,5.13,0,0,1,3.84-1.76c2.72,0,3.68,1.76,3.68,4.72v7.52H356.1v-7.12c0-2.08-.64-2.72-1.76-2.72s-1.76.64-2.72,1.44v8.32h-2.8V189.4l-.08.08Z"/>
    </g>
    <path class="st0" d="M503.6,235.9l11.7,8.5,4.5-13.8-11.7-8.5Z"/>
    <path class="st0" d="M500.9,244.4l-11.7-8.5-11.7,8.5,11.7,8.5Z"/>
    <path class="st0" d="M493.6,222.1l-4.5,13.8h14.5l4.5-13.8Z"/>
    <path class="st0" d="M484.7,222.1l4.5-13.8-11.7,8.5L473,230.6Z"/>
    <path class="st0" d="M484.7,222.1,473,230.6l4.5,13.8,11.7-8.5Z"/>
    <path class="st0" d="M489.2,235.9l4.5-13.8-4.5-13.8-4.5,13.8Z"/>
    <path class="st0" d="M493.6,294.1l-4.5,13.8h14.5l4.5-13.8Z"/>
    <path class="st0" d="M508.1,266.6l-4.5-13.8H489.1l4.5,13.8Z"/>
    <path class="st0" d="M473,258.1l4.5,13.8,11.7,8.5-4.5-13.8Z"/>
    <path class="st0" d="M477.5,288.9l11.7-8.5-11.7-8.5-11.7,8.5Z"/>
    <path class="st0" d="M489.2,252.9l-11.7-8.5L473,258.2l11.7,8.5Z"/>
    <path class="st0" d="M493.6,266.6l-4.5,13.8h14.5l4.5-13.8Z"/>
    <path class="st0" d="M484.7,266.6l4.5,13.8,4.5-13.8-4.5-13.8Z"/>
    <path class="st0" d="M484.7,294.1l4.5-13.8-11.7,8.5L473,302.6Z"/>
    <path class="st0" d="M508.1,294.1l-4.5-13.8H489.1l4.5,13.8Z"/>
    <path class="st0" d="M489.2,307.9l4.5-13.8-4.5-13.8-4.5,13.8Z"/>
    <path class="st0" d="M463,244.4h14.5L473,230.6H458.5Z"/>
    <path class="st0" d="M458.5,258.1H473l4.5-13.7H463Z"/>
    <path class="st0" d="M282,324.9H267.5l4.5,13.8h14.5Z"/>
    <path class="st0" d="M283.7,374.7h14.5l-4.5-13.8H279.2Z"/>
    <path class="st0" d="M286.4,383.2l11.7-8.5H283.6l-11.7,8.5Z"/>
    <path class="st0" d="M312.6,374.7H298.1l11.7,8.5h14.5Z"/>
    <path class="st0" d="M312.6,374.7l11.7,8.5,11.7-8.5-11.7-8.5Z"/>
    <path class="st0" d="M305.4,352.4l-11.7,8.5,4.5,13.8,11.7-8.5Z"/>
    <path class="st0" d="M324.3,366.2H309.8l-11.7,8.5h14.5Z"/>
    <path class="st0" d="M305.4,352.4l4.5,13.8h14.5l-4.5-13.8Z"/>
    <path class="st0" d="M354.9,360.9H340.5L336,374.7h14.5Z"/>
    <path class="st0" d="M362.2,383.2l-11.7-8.5H336l11.7,8.5Z"/>
    <path class="st0" d="M354.9,360.9l-4.5,13.8,11.7,8.5,4.5-13.8Z"/>
    <path class="st0" d="M324.3,366.2l11.7,8.5,4.5-13.8-11.7-8.5Z"/>
    <path class="st0" d="M328.8,352.4l-4.5-13.8-4.5,13.8,4.5,13.8Z"/>
    <path class="st0" d="M-6.5,280.4H8L3.5,266.6H-11Z"/>
    <path class="st0" d="M-11,266.6H3.5l-11.7-8.5H-22.7Z"/>
    <path class="st0" d="M15.2,258.1l4.5-13.8L8,252.8,3.5,266.6Z"/>
    <g id="mesh-1">
        <path class="st3" d="M-22.7,230.6H-8.2l11.7-8.5H-11Z"/>
        <path class="st3" d="M8,235.9,3.5,222.1l-11.7,8.5,4.5,13.8Z"/>
        <path class="st3" d="M19.7,244.4,8,235.9l-11.7,8.5L8,252.9Z"/>
        <path class="st3" d="M-3.7,244.4l-4.5,13.8,11.7,8.5L8,252.9Z"/>
        <path class="st3" d="M305.4,19.8l-11.7-8.5,4.5,13.8,11.7,8.5Z"/>
        <path class="st3" d="M286.4,33.6l11.7-8.5-4.5-13.8-11.7,8.5Z"/>
        <path class="st3" d="M286.4,33.6l-4.5-13.8H267.5L272,33.6Z"/>
        <path class="st3" d="M305.4,19.8l4.5,13.8h14.5l-4.5-13.8Z"/>
        <path class="st3" d="M298.1,42.1l11.7-8.5-11.7-8.5-11.7,8.5Z"/>
        <path class="st3" d="M319.8,47.3l4.5-13.8H309.8l-4.5,13.8Z"/>
        <path class="st3" d="M305.4,47.3l4.5-13.8L298.2,42l-4.5,13.8Z"/>
        <path class="st3" d="M161.1,141.6l-4.5-13.8-11.7,8.5,4.5,13.8Z"/>
        <path class="st3" d="M149.4,150.1l-4.5-13.8-4.5,13.8,4.5,13.8Z"/>
        <path class="st3" d="M126,150.1h14.5l4.5-13.8H130.5Z"/>
        <path class="st3" d="M168.4,136.3l-11.7-8.5,4.5,13.8,11.7,8.5Z"/>
        <path class="st3" d="M168.4,136.3l4.5,13.8h14.5l-4.5-13.8Z"/>
        <path class="st3" d="M161.1,158.6l11.7-8.5-11.7-8.5-11.7,8.5Z"/>
        <path class="st3" d="M149.4,150.1l-4.5,13.8,11.7,8.5,4.5-13.8Z"/>
        <path class="st3" d="M130.5,163.9H145l-4.5-13.8H126Z"/>
        <path class="st3" d="M145,180.9l11.7-8.5L145,163.9l-11.7,8.5Z"/>
        <path class="st3" d="M133.3,172.4l11.7-8.5H130.5l-11.7,8.5Z"/>
        <path class="st3" d="M152.2,186.1l4.5-13.8L145,180.8l-4.5,13.8Z"/>
        <path class="st3" d="M128.8,186.1l11.7,8.5,4.5-13.8-11.7-8.5Z"/>
        <path class="st3" d="M182.8,136.3l-11.7-8.5H156.6l11.7,8.5Z"/>
        <path class="st3" d="M175.6,114.1l-4.5,13.8,11.7,8.5,4.5-13.8Z"/>
        <path class="st3" d="M194.5,127.8,199,114l-11.7,8.5-4.5,13.8Z"/>
        <path class="st3" d="M194.5,127.8l-11.7,8.5,4.5,13.8,11.7-8.5Z"/>
        <path class="st3" d="M107.1,208.4H92.6l-4.5,13.8h14.5Z"/>
        <path class="st3" d="M102.6,194.6H88.1l4.5,13.8h14.5Z"/>
        <path class="st3" d="M102.6,222.1l11.7,8.5,4.5-13.8-11.7-8.5Z"/>
        <path class="st3" d="M114.3,230.6l-11.7-8.5H88.1l11.7,8.5Z"/>
        <path class="st3" d="M104.3,244.4h14.5l-4.5-13.8H99.8Z"/>
        <path class="st3" d="M99.9,230.6l-11.7-8.5,4.5,13.8,11.7,8.5Z"/>
        <path class="st3" d="M118.8,199.9l-4.5-13.8-11.7,8.5,4.5,13.8Z"/>
        <path class="st3" d="M107.1,208.4l11.7,8.5,11.7-8.5-11.7-8.5Z"/>
        <path class="st3" d="M126,194.6l-11.7-8.5,4.5,13.8,11.7,8.5Z"/>
        <path class="st3" d="M126,194.6l4.5,13.8H145l-4.5-13.8Z"/>
        <path class="st3" d="M133.3,172.4H118.8l-4.5,13.8h14.5Z"/>
        <path class="st3" d="M140.5,194.6l-11.7-8.5H114.3l11.7,8.5Z"/>
        <path class="st3" d="M279.2,55.8l-11.7-8.5-11.7,8.5,11.7,8.5Z"/>
        <path class="st3" d="M272,33.6l-4.5,13.8H282l4.5-13.8Z"/>
        <path class="st3" d="M272,78.1l-4.5-13.8-11.7-8.5,4.5,13.8Z"/>
        <path class="st3" d="M255.8,83.3l11.7,8.5L272,78l-11.7-8.5Z"/>
        <path class="st3" d="M279.2,55.8l-11.7,8.5L272,78.1l11.7-8.5Z"/>
        <path class="st3" d="M251.3,42.1l4.5,13.8,11.7-8.5L263,33.6Z"/>
        <path class="st3" d="M272,78.1l-4.5,13.8H282l4.5-13.8Z"/>
        <path class="st3" d="M286.4,33.6l-4.5,13.8,11.7,8.5,4.5-13.8Z"/>
        <path class="st3" d="M286.4,78.1l11.7-8.5H283.6l-11.7,8.5Z"/>
        <path class="st3" d="M272,105.6l-4.5-13.8-11.7,8.5,4.5,13.8Z"/>
        <path class="st3" d="M217.9,127.8l11.7,8.5-4.5-13.8L213.4,114Z"/>
        <path class="st3" d="M260.3,69.6l-4.5-13.8-4.5,13.8,4.5,13.8Z"/>
        <path class="st3" d="M241.3,83.3h14.5l-4.5-13.8H236.8Z"/>
        <path class="st3" d="M244.1,91.8H229.6l11.7,8.5h14.5Z"/>
        <path class="st3" d="M236.9,114.1l4.5-13.8-11.7-8.5-4.5,13.8Z"/>
        <path class="st3" d="M244.1,91.8l11.7,8.5,11.7-8.5-11.7-8.5Z"/>
        <path class="st3" d="M236.9,69.6l-11.7,8.5,4.5,13.8,11.7-8.5Z"/>
        <path class="st3" d="M255.8,83.3H241.3l-11.7,8.5h14.5Z"/>
        <path class="st3" d="M217.9,127.8,213.4,114H198.9l4.5,13.8Z"/>
        <path class="st3" d="M225.2,105.6l-11.7,8.5,11.7,8.5,11.7-8.5Z"/>
        <path class="st3" d="M199,141.6l4.5-13.8L199,114l-4.5,13.8Z"/>
        <path class="st3" d="M213.5,114.1l11.7-8.5,4.5-13.8L218,100.3Z"/>
        <path class="st3" d="M203.5,100.3,199,114.1h14.5l4.5-13.8Z"/>
        <path class="st3" d="M286.4,105.6l-4.5-13.8H267.5l4.5,13.8Z"/>
        <path class="st3" d="M463,127.8h14.5L473,114H458.5Z"/>
        <path class="st3" d="M458.5,114.1H473l-11.7-8.5H446.8Z"/>
        <path class="st3" d="M465.8,91.8l-4.5,13.8,11.7,8.5,4.5-13.8Z"/>
        <path class="st3" d="M446.8,122.6l4.5,13.8,11.7-8.5-4.5-13.8Z"/>
        <path class="st3" d="M484.7,105.6l4.5-13.8-11.7,8.5L473,114.1Z"/>
        <path class="st3" d="M465.8,91.8l11.7,8.5,11.7-8.5-11.7-8.5Z"/>
        <path class="st3" d="M484.7,105.6,473,114.1l4.5,13.8,11.7-8.5Z"/>
        <path class="st3" d="M508.1,105.6l-4.5-13.8H489.1l4.5,13.8Z"/>
        <path class="st3" d="M489.2,119.3l4.5-13.8-4.5-13.8-4.5,13.8Z"/>
        <path class="st3" d="M508.1,105.6H493.6l-4.5,13.8h14.5Z"/>
        <path class="st3" d="M439.6,127.8,435.1,114l-4.5,13.8,4.5,13.8Z"/>
        <path class="st3" d="M416.2,127.8h14.5l4.5-13.8H420.7Z"/>
        <path class="st3" d="M458.5,114.1l-11.7-8.5-11.7,8.5,11.7,8.5Z"/>
        <path class="st3" d="M451.3,91.8l-4.5,13.8h14.5l4.5-13.8Z"/>
        <path class="st3" d="M451.3,136.3l-4.5-13.8L435.1,114l4.5,13.8Z"/>
        <path class="st3" d="M409,105.6l11.7,8.5h14.5l-11.7-8.5Z"/>
        <path class="st3" d="M430.7,100.3l4.5,13.8,11.7-8.5-4.5-13.8Z"/>
        <path class="st3" d="M442.4,91.8l4.5,13.8,4.5-13.8L446.9,78Z"/>
        <path class="st3" d="M423.4,105.6l11.7,8.5-4.5-13.8-11.7-8.5Z"/>
        <path class="st3" d="M430.7,83.3,419,91.8l11.7,8.5,11.7-8.5Z"/>
        <path class="st3" d="M489.2,119.3l-11.7,8.5,11.7,8.5,11.7-8.5Z"/>
        <path class="st3" d="M500.9,127.8h14.5l-11.7-8.5H489.2Z"/>
        <path class="st3" d="M477.5,83.3,473,69.5,461.3,78l4.5,13.8Z"/>
        <path class="st3" d="M473,69.6l4.5,13.8,11.7,8.5-4.5-13.8Z"/>
        <path class="st3" d="M493.6,78.1l-4.5,13.8h14.5l4.5-13.8Z"/>
        <path class="st3" d="M484.7,78.1l4.5,13.8,4.5-13.8-4.5-13.8Z"/>
        <path class="st3" d="M465.8,91.8,461.3,78H446.8l4.5,13.8Z"/>
        <path class="st3" d="M442.4,91.8,446.9,78l-11.7-8.5-4.5,13.8Z"/>
        <path class="st3" d="M416.2,360.9h14.5l4.5-13.8H420.7Z"/>
        <path class="st3" d="M430.7,316.4l4.5-13.8H420.7l-4.5,13.8Z"/>
        <path class="st3" d="M416.2,316.4l4.5-13.8L409,311.1l-4.5,13.8Z"/>
        <path class="st3" d="M439.6,316.4l-4.5-13.8-4.5,13.8,4.5,13.8Z"/>
        <path class="st3" d="M420.7,330.1h14.5l-4.5-13.8H416.2Z"/>
        <path class="st3" d="M416.2,288.9l4.5,13.8h14.5l-4.5-13.8Z"/>
        <path class="st3" d="M423.4,338.7H408.9l11.7,8.5h14.5Z"/>
        <path class="st3" d="M416.2,360.9l4.5-13.8L409,338.6l-4.5,13.8Z"/>
        <path class="st3" d="M423.4,338.7l11.7,8.5,11.7-8.5-11.7-8.5Z"/>
        <path class="st3" d="M416.2,316.4l-11.7,8.5,4.5,13.8,11.7-8.5Z"/>
        <path class="st3" d="M392.8,316.4l11.7,8.5,4.5-13.8-11.7-8.5Z"/>
        <path class="st3" d="M435.1,330.1H420.6l-11.7,8.5h14.5Z"/>
        <path class="st3" d="M392.8,360.9l11.7-8.5,4.5-13.8-11.7,8.5Z"/>
        <path class="st3" d="M382.8,347.2,378.3,361h14.5l4.5-13.8Z"/>
        <path class="st3" d="M394.5,338.7H409l-4.5-13.8H390Z"/>
        <path class="st3" d="M390,324.9h14.5l-11.7-8.5H378.3Z"/>
        <path class="st3" d="M397.3,347.2l11.7-8.5H394.5l-11.7,8.5Z"/>
        <path class="st3" d="M378.3,333.4l4.5,13.8,11.7-8.5L390,324.9Z"/>
        <path class="st3" d="M465.8,280.4l-4.5-13.8H446.8l4.5,13.8Z"/>
        <path class="st3" d="M477.5,271.9,473,258.1l-11.7,8.5,4.5,13.8Z"/>
        <path class="st3" d="M458.5,302.6l-11.7-8.5-11.7,8.5,11.7,8.5Z"/>
        <path class="st3" d="M473,302.6l-11.7-8.5H446.8l11.7,8.5Z"/>
        <path class="st3" d="M451.3,280.4l-4.5,13.8h14.5l4.5-13.8Z"/>
        <path class="st3" d="M451.3,324.9l-4.5-13.8-11.7-8.5,4.5,13.8Z"/>
        <path class="st3" d="M458.5,302.6l-11.7,8.5,4.5,13.8,11.7-8.5Z"/>
        <path class="st3" d="M446.8,294.1l4.5-13.8-4.5-13.8-4.5,13.8Z"/>
        <path class="st3" d="M430.7,288.9l4.5,13.8,11.7-8.5-4.5-13.8Z"/>
        <path class="st3" d="M463,316.4h14.5L473,302.6H458.5Z"/>
        <path class="st3" d="M465.8,280.4l-4.5,13.8,11.7,8.5,4.5-13.8Z"/>
        <path class="st3" d="M465.8,324.9l11.7-8.5H463l-11.7,8.5Z"/>
        <path class="st3" d="M484.7,294.1,473,302.6l4.5,13.8,11.7-8.5Z"/>
        <path class="st3" d="M371.1,338.7l-4.5,13.8,11.7,8.5,4.5-13.8Z"/>
        <path class="st3" d="M390,324.9l-11.7-8.5-11.7,8.5,11.7,8.5Z"/>
        <path class="st3" d="M382.8,347.2l-4.5-13.8-11.7-8.5,4.5,13.8Z"/>
        <path class="st3" d="M161.1,302.6l-4.5,13.8h14.5l4.5-13.8Z"/>
        <path class="st3" d="M175.6,302.6l-4.5,13.8,11.7,8.5,4.5-13.8Z"/>
        <path class="st3" d="M156.7,271.9,145,280.4l11.7,8.5,11.7-8.5Z"/>
        <path class="st3" d="M168.4,280.4l-11.7,8.5h14.5l11.7-8.5Z"/>
        <path class="st3" d="M175.6,302.6l-4.5-13.8H156.6l4.5,13.8Z"/>
        <path class="st3" d="M149.4,266.6l-4.5,13.8,11.7-8.5,4.5-13.8Z"/>
        <path class="st3" d="M152.2,302.6l4.5-13.8L145,280.3l-4.5,13.8Z"/>
        <path class="st3" d="M126,266.6l-11.7-8.5,4.5,13.8,11.7,8.5Z"/>
        <path class="st3" d="M107.1,280.4l11.7-8.5-4.5-13.8-11.7,8.5Z"/>
        <path class="st3" d="M107.1,280.4l-4.5,13.8,11.7,8.5,4.5-13.8Z"/>
        <path class="st3" d="M126,266.6l4.5,13.8H145l-4.5-13.8Z"/>
        <path class="st3" d="M118.8,288.9l11.7-8.5-11.7-8.5-11.7,8.5Z"/>
        <path class="st3" d="M145,252.9l-4.5,13.8,4.5,13.8,4.5-13.8Z"/>
        <path class="st3" d="M130.5,280.4l-11.7,8.5-4.5,13.8,11.7-8.5Z"/>
        <path class="st3" d="M140.5,294.1l4.5-13.8H130.5L126,294.1Z"/>
        <path class="st3" d="M217.9,316.4l11.7,8.5-4.5-13.8-11.7-8.5Z"/>
        <path class="st3" d="M236.9,302.6l-11.7,8.5,4.5,13.8,11.7-8.5Z"/>
        <path class="st3" d="M236.9,302.6l4.5,13.8h14.5l-4.5-13.8Z"/>
        <path class="st3" d="M194.5,316.4l4.5-13.8-11.7,8.5-4.5,13.8Z"/>
        <path class="st3" d="M175.6,302.6l11.7,8.5,11.7-8.5-11.7-8.5Z"/>
        <path class="st3" d="M217.9,316.4l-4.5-13.8H198.9l4.6,13.8Z"/>
        <path class="st3" d="M225.2,294.1l-11.7,8.5,11.7,8.5,11.7-8.5Z"/>
        <path class="st3" d="M199,330.1l4.5-13.7L199,302.6l-4.5,13.8Z"/>
        <path class="st3" d="M168.4,280.4h14.5l4.5-13.8H172.9Z"/>
        <path class="st3" d="M187.3,294.1l-4.5-13.8-11.7,8.5,4.5,13.8Z"/>
        <path class="st3" d="M182.8,280.4l4.5,13.8,11.7,8.5-4.5-13.8Z"/>
        <path class="st3" d="M199,275.1l-11.7-8.5-4.5,13.8,11.7,8.5Z"/>
        <path class="st3" d="M203.5,288.9,199,302.7h14.5l4.5-13.8Z"/>
        <path class="st3" d="M217.9,288.9l-4.5,13.8,11.7-8.5,4.5-13.8Z"/>
        <path class="st3" d="M194.5,288.9l4.5,13.8,4.5-13.8L199,275.1Z"/>
        <path class="st3" d="M324.3,311.1l-4.5,13.8,4.5,13.8,4.5-13.8Z"/>
        <path class="st3" d="M305.4,324.9h14.5l4.5-13.8H309.9Z"/>
        <path class="st3" d="M251.3,302.6l4.5-13.8H241.3l-4.5,13.8Z"/>
        <path class="st3" d="M255.8,288.9l-4.5,13.8,4.5,13.8,4.5-13.8Z"/>
        <path class="st3" d="M272,294.1l-4.5-13.7-11.7,8.5,4.5,13.8Z"/>
        <path class="st3" d="M267.5,307.9l-11.7,8.5,11.7,8.5,11.7-8.5Z"/>
        <path class="st3" d="M279.2,316.4l-11.7,8.5H282l11.7-8.5Z"/>
        <path class="st3" d="M260.3,302.6l-4.5,13.8,11.7-8.5,4.5-13.8Z"/>
        <path class="st3" d="M283.7,302.6,272,294.1l-4.5,13.8,11.7,8.5Z"/>
        <path class="st3" d="M236.9,302.6l4.5-13.8-11.7-8.5-4.5,13.8Z"/>
        <path class="st3" d="M309.8,311.1l-11.7-8.5-4.5,13.8,11.7,8.5Z"/>
        <path class="st3" d="M279.2,316.4h14.5l4.5-13.8H283.7Z"/>
        <path class="st3" d="M473,230.6l-11.7-8.5H446.8l11.7,8.5Z"/>
        <path class="st3" d="M451.3,208.4l-4.5,13.8h14.5l4.5-13.8Z"/>
        <path class="st3" d="M458.5,230.6l-11.7-8.5,4.5,13.8,11.7,8.5Z"/>
        <path class="st3" d="M463,244.4l-11.7-8.5-11.7,8.5,11.7,8.5Z"/>
        <path class="st3" d="M465.8,208.4l-4.5-13.8H446.8l4.5,13.8Z"/>
        <path class="st3" d="M465.8,208.4l11.7,8.5,11.7-8.5-11.7-8.5Z"/>
        <path class="st3" d="M458.5,258.1l-11.7,8.5h14.5l11.7-8.5Z"/>
        <path class="st3" d="M463,244.4l-11.7,8.5-4.5,13.8,11.7-8.5Z"/>
        <path class="st3" d="M451.3,235.9l-4.5-13.8-11.7,8.5,4.5,13.8Z"/>
        <path class="st3" d="M442.4,208.4l4.5,13.8,4.5-13.8-4.5-13.8Z"/>
        <path class="st3" d="M442.4,208.4l4.5-13.8-11.7-8.5-4.5,13.8Z"/>
        <path class="st3" d="M423.4,222.1l11.7,8.5,11.7-8.5-11.7-8.5Z"/>
        <path class="st3" d="M430.7,199.9l4.5,13.8,11.7,8.5-4.5-13.8Z"/>
        <path class="st3" d="M-11,222.1H3.5L8,208.3H-6.5Z"/>
        <path class="st3" d="M-18.2,199.9l11.7,8.5H8l-11.7-8.5Z"/>
        <path class="st3" d="M64.8,222.1l11.7,8.5,11.7-8.5-11.7-8.5Z"/>
        <path class="st3" d="M50.3,222.1,62,230.6H76.5l-11.7-8.5Z"/>
        <path class="st3" d="M72,244.4l4.5-13.8H62l-4.5,13.8Z"/>
        <path class="st3" d="M72,199.9l4.5,13.8,11.7,8.5-4.5-13.8Z"/>
        <path class="st3" d="M64.8,222.1l11.7-8.5L72,199.8l-11.7,8.5Z"/>
        <path class="st3" d="M92.6,235.9l-4.5-13.8-11.7,8.5,4.5,13.8Z"/>
        <path class="st3" d="M80.9,244.4l-4.5-13.8-4.5,13.8,4.5,13.8Z"/>
        <path class="st3" d="M104.3,244.4l-11.7-8.5-11.7,8.5,11.7,8.5Z"/>
        <path class="st3" d="M3.5,222.1,8,235.9l11.7,8.5-4.5-13.8Z"/>
        <path class="st3" d="M19.7,216.9,8,208.4,3.5,222.2l11.7,8.5Z"/>
        <path class="st3" d="M24.1,230.6l-4.5,13.8H34.1l4.5-13.8Z"/>
        <path class="st3" d="M38.6,230.6l-4.5,13.8,11.7-8.5,4.5-13.8Z"/>
        <path class="st3" d="M57.5,244.4l-11.7-8.5-11.7,8.5,11.7,8.5Z"/>
        <path class="st3" d="M15.2,230.6l4.5,13.8,4.5-13.8-4.5-13.8Z"/>
        <path class="st3" d="M34.1,216.9H19.6l4.5,13.8H38.6Z"/>
        <path class="st3" d="M60.3,208.4H45.8l4.5,13.8H64.8Z"/>
        <path class="st3" d="M57.5,244.4,62,230.6l-11.7-8.5-4.5,13.8Z"/>
        <path class="st3" d="M57.5,199.9l-11.7,8.5H60.3L72,199.9Z"/>
        <path class="st3" d="M31.4,208.4l-11.7-8.5L8,208.4l11.7,8.5Z"/>
        <path class="st3" d="M38.6,230.6l11.7-8.5-4.5-13.8-11.7,8.5Z"/>
        <path class="st3" d="M19.7,216.9H34.2l11.7-8.5H31.4Z"/>
        <path class="st3" d="M88.2,294.1l4.5-13.8-4.5-13.8-4.5,13.8Z"/>
        <path class="st3" d="M102.6,266.6H88.1l4.5,13.8h14.5Z"/>
        <path class="st3" d="M72,288.9l4.5,13.8,11.7-8.5-4.5-13.8Z"/>
        <path class="st3" d="M107.1,280.4H92.6l-4.5,13.8h14.5Z"/>
        <path class="st3" d="M76.5,275.1l11.7-8.5-11.7-8.5-11.7,8.5Z"/>
        <path class="st3" d="M64.8,266.6l11.7-8.5H62l-11.7,8.5Z"/>
        <path class="st3" d="M57.5,244.4,62,258.2H76.5L72,244.4Z"/>
        <path class="st3" d="M83.7,280.4l4.5-13.8-11.7,8.5L72,288.9Z"/>
        <path class="st3" d="M60.3,280.4,72,288.9l4.5-13.8-11.7-8.5Z"/>
        <path class="st3" d="M80.9,244.4l-4.5,13.8,11.7,8.5,4.5-13.8Z"/>
        <path class="st3" d="M104.3,244.4l-11.7,8.5-4.5,13.8,11.7-8.5Z"/>
        <path class="st3" d="M38.6,258.1l-4.5-13.8H19.6l4.5,13.8Z"/>
        <path class="st3" d="M50.3,266.6l-4.5-13.8-11.7-8.5,4.5,13.8Z"/>
        <path class="st3" d="M19.7,271.9l4.5-13.8-4.5-13.8-4.5,13.8Z"/>
        <path class="st3" d="M38.6,258.1H24.1l-4.5,13.8H34.1Z"/>
        <path class="st3" d="M57.5,288.9l-11.7-8.5,4.5,13.8L62,302.7Z"/>
        <path class="st3" d="M38.6,302.6l11.7-8.5-4.5-13.8-11.7,8.5Z"/>
        <path class="st3" d="M57.5,288.9,62,302.7H76.5L72,288.9Z"/>
        <path class="st3" d="M64.8,266.6H50.3l-4.5,13.8H60.3Z"/>
        <path class="st3" d="M45.8,252.9l4.5,13.8L62,258.2l-4.5-13.8Z"/>
        <path class="st3" d="M72,288.9l-11.7-8.5H45.8l11.7,8.5Z"/>
        <path class="st3" d="M19.7,288.9H34.2l11.7-8.5H31.4Z"/>
        <path class="st3" d="M19.7,271.9,8,280.4l11.7,8.5,11.7-8.5Z"/>
        <path class="st3" d="M34.1,271.9l11.7,8.5,4.5-13.8-11.7-8.5Z"/>
        <path class="st3" d="M31.4,280.4H45.9l-11.7-8.5H19.7Z"/>
        <path class="st3" d="M562.1,172.4l-4.5,13.8h14.5l4.5-13.8Z"/>
        <path class="st3" d="M553.2,172.4l4.5,13.8,4.5-13.8-4.5-13.8Z"/>
        <path class="st3" d="M576.6,199.9l-4.5-13.8H557.6l4.5,13.8Z"/>
        <path class="st3" d="M569.4,222.1h14.5l4.5-13.8H573.9Z"/>
        <path class="st3" d="M562.1,199.9l11.7,8.5h14.5l-11.7-8.5Z"/>
        <path class="st3" d="M534.3,186.1l11.7,8.5,11.7-8.5L546,177.6Z"/>
        <path class="st3" d="M519.8,186.1l11.7,8.5H546l-11.7-8.5Z"/>
        <path class="st3" d="M541.5,208.4l4.5-13.8H531.5L527,208.4Z"/>
        <path class="st3" d="M541.5,163.9l4.5,13.8,11.7,8.5-4.5-13.8Z"/>
        <path class="st3" d="M534.3,186.1l11.7-8.5-4.5-13.8-11.7,8.5Z"/>
        <path class="st3" d="M546,194.6l-4.5,13.8,4.5,13.8,4.5-13.8Z"/>
        <path class="st3" d="M531.5,222.1H546l-4.5-13.7H527Z"/>
        <path class="st3" d="M562.1,199.9l-4.5-13.8-11.7,8.5,4.5,13.8Z"/>
        <path class="st3" d="M557.7,213.6,546,222.1l11.7,8.5,11.7-8.5Z"/>
        <path class="st3" d="M550.4,208.4l-4.5,13.8,11.7-8.5,4.5-13.8Z"/>
        <path class="st3" d="M529.8,172.4H515.3l4.5,13.8h14.5Z"/>
        <path class="st3" d="M527,208.4l4.5-13.8-11.7-8.5-4.5,13.8Z"/>
        <path class="st3" d="M508.1,194.6l11.7-8.5-4.5-13.8-11.7,8.5Z"/>
        <path class="st3" d="M503.6,208.4l11.7-8.5,4.5-13.8-11.7,8.5Z"/>
        <path class="st3" d="M489.2,180.9h14.5l11.7-8.5H500.9Z"/>
        <path class="st3" d="M508.1,194.6l-4.5-13.8H489.1l4.5,13.8Z"/>
        <path class="st3" d="M508.1,222.1l11.7,8.5-4.5-13.8-11.7-8.5Z"/>
        <path class="st3" d="M527,208.4l-11.7,8.5,4.5,13.8,11.7-8.5Z"/>
        <path class="st3" d="M508.1,222.1l-4.5-13.8H489.1l4.5,13.8Z"/>
        <path class="st3" d="M515.3,199.9l-11.7,8.5,11.7,8.5,11.7-8.5Z"/>
        <path class="st3" d="M493.6,194.6l-4.5,13.8h14.5l4.5-13.8Z"/>
        <path class="st3" d="M508.1,150.1l11.7-8.5-4.5-13.8-11.7,8.5Z"/>
        <path class="st3" d="M519.8,158.6l11.7-8.5-11.7-8.5-11.7,8.5Z"/>
        <path class="st3" d="M503.6,136.3H489.1l4.5,13.8h14.5Z"/>
        <path class="st3" d="M489.2,136.3h14.5l11.7-8.5H500.9Z"/>
        <path class="st3" d="M531.5,150.1l-11.7,8.5-4.5,13.8,11.7-8.5Z"/>
        <path class="st3" d="M503.6,163.9l11.7,8.5,4.5-13.8-11.7-8.5Z"/>
        <path class="st3" d="M541.5,163.9l4.5-13.8H531.5L527,163.9Z"/>
        <path class="st3" d="M527,163.9l-11.7,8.5h14.5l11.7-8.5Z"/>
        <path class="st3" d="M553.2,172.4l4.5-13.8L546,150.1l-4.5,13.8Z"/>
        <path class="st3" d="M484.7,150.1l4.5-13.8-11.7-8.5L473,141.6Z"/>
        <path class="st3" d="M489.2,163.9l4.5-13.8-4.5-13.8-4.5,13.8Z"/>
        <path class="st3" d="M484.7,150.1,473,141.6l-11.7,8.5,11.7,8.5Z"/>
        <path class="st3" d="M473,158.6l4.5,13.8,11.7-8.5-4.5-13.8Z"/>
        <path class="st3" d="M508.1,150.1H493.6l-4.5,13.8h14.5Z"/>
        <path class="st3" d="M465.8,163.9l11.7,8.5L473,158.6l-11.7-8.5Z"/>
        <path class="st3" d="M500.9,172.4h14.5l-11.7-8.5H489.2Z"/>
        <path class="st3" d="M500.9,172.4l-11.7-8.5-11.7,8.5,11.7,8.5Z"/>
        <path class="st3" d="M458.5,186.1l-11.7,8.5h14.5l11.7-8.5Z"/>
        <path class="st3" d="M458.5,186.1H473l4.5-13.7H463Z"/>
        <path class="st3" d="M477.5,199.9,473,186.1l-11.7,8.5,4.5,13.8Z"/>
        <path class="st3" d="M451.3,163.9l11.7,8.5h14.5l-11.7-8.5Z"/>
        <path class="st3" d="M473,186.1l4.5,13.8,11.7,8.5-4.5-13.8Z"/>
        <path class="st3" d="M489.2,180.9l-11.7-8.5L473,186.2l11.7,8.5Z"/>
        <path class="st3" d="M484.7,194.6l4.5,13.8,4.5-13.8-4.5-13.8Z"/>
        <path class="st3" d="M340.5,11.3l11.7,8.5h14.5L355,11.3Z"/>
        <path class="st3" d="M350.5-2.4H336l4.5,13.8H355Z"/>
        <path class="st3" d="M347.7,33.6l4.5-13.8-11.7-8.5L336,25.1Z"/>
        <path class="st3" d="M362.2,6.1l4.5,13.8,11.7-8.5L373.9-2.4Z"/>
        <path class="st3" d="M373.9-2.4l4.5,13.8,4.5-13.8-4.5-13.8Z"/>
        <path class="st3" d="M397.3-2.4H382.8l-4.5,13.8h14.5Z"/>
        <path class="st3" d="M354.9,11.3l11.7,8.5L362.1,6,350.5-2.4Z"/>
        <path class="st3" d="M362.2-10.9,350.5-2.4l11.7,8.5,11.7-8.5Z"/>
        <path class="st3" d="M390,19.8l-11.7-8.5-11.7,8.5,11.7,8.5Z"/>
        <path class="st3" d="M404.5,19.8l-11.7-8.5H378.3L390,19.8Z"/>
        <path class="st3" d="M312.6-2.4H298.1l11.7,8.5h14.5Z"/>
        <path class="st3" d="M312.6-2.4l11.7,8.5L336-2.4l-11.7-8.5Z"/>
        <path class="st3" d="M319.8,19.8,324.3,6H309.8l-4.5,13.8Z"/>
        <path class="st3" d="M328.8,19.8l-4.5,13.8L336,25.1l4.5-13.8Z"/>
        <path class="st3" d="M328.8,19.8l11.7-8.5L336-2.5,324.3,6Z"/>
        <path class="st3" d="M324.3,6.1l-4.5,13.8,4.5,13.8,4.5-13.8Z"/>
        <path class="st3" d="M420.7-2.4,409,6.1l-4.5,13.8,11.7-8.5Z"/>
        <path class="st3" d="M392.8,11.3l11.7,8.5L409,6,397.3-2.5Z"/>
        <path class="st3" d="M390,19.8l-11.7,8.5,4.5,13.8,11.7-8.5Z"/>
        <path class="st3" d="M423.4,33.6H408.9l11.7,8.5h14.5Z"/>
        <path class="st3" d="M416.2,55.8,420.7,42,409,33.5l-4.5,13.8Z"/>
        <path class="st3" d="M416.2,11.3l-11.7,8.5L409,33.6l11.7-8.5Z"/>
        <path class="st3" d="M435.1,25.1H420.6l-11.7,8.5h14.5Z"/>
        <path class="st3" d="M404.5,47.3l-11.7,8.5,11.7,8.5,11.7-8.5Z"/>
        <path class="st3" d="M392.8,55.8l11.7-8.5L409,33.5,397.3,42Z"/>
        <path class="st3" d="M382.8,42.1l-4.5,13.8h14.5l4.5-13.8Z"/>
        <path class="st3" d="M394.5,33.6H409l-4.5-13.8H390Z"/>
        <path class="st3" d="M397.3,42.1,409,33.6H394.5l-11.7,8.5Z"/>
        <path class="st3" d="M397.3-2.4,409,6.1l11.7-8.5L409-10.9Z"/>
        <path class="st3" d="M430.7,55.8,435.2,42H420.7l-4.5,13.8Z"/>
        <path class="st3" d="M409,78.1l-4.5-13.8-11.7-8.5,4.5,13.8Z"/>
        <path class="st3" d="M420.7,69.6h14.5l-4.5-13.8H416.2Z"/>
        <path class="st3" d="M392.8,83.3l11.7,8.5L409,78l-11.7-8.5Z"/>
        <path class="st3" d="M416.2,55.8l-11.7,8.5L409,78.1l11.7-8.5Z"/>
        <path class="st3" d="M423.4,78.1l11.7-8.5H420.6l-11.7,8.5Z"/>
        <path class="st3" d="M423.4,78.1H408.9l-4.5,13.8h14.5Z"/>
        <path class="st3" d="M419,91.8l11.7-8.5,4.5-13.8L423.5,78Z"/>
        <path class="st3" d="M305.4,324.9l4.5,13.8h14.5l-4.5-13.8Z"/>
        <path class="st3" d="M293.7,316.4l4.5,13.8,11.7,8.5-4.5-13.8Z"/>
        <path class="st3" d="M298.1,347.2l11.7-8.5-11.7-8.5-11.7,8.5Z"/>
        <path class="st3" d="M286.4,338.7l11.7-8.5-4.5-13.8-11.7,8.5Z"/>
        <path class="st3" d="M309.8,338.7l-11.7,8.5L293.6,361l11.7-8.5Z"/>
        <path class="st3" d="M328.8,324.9l-4.5,13.8,11.7-8.5,4.5-13.8Z"/>
        <path class="st3" d="M347.7,338.7,336,330.2l-11.7,8.5,11.7,8.5Z"/>
        <path class="st3" d="M352.2,324.9l-11.7-8.5L336,330.2l11.7,8.5Z"/>
        <path class="st3" d="M366.6,352.4H352.1l-11.7,8.5h14.5Z"/>
        <path class="st3" d="M336,347.2l4.5,13.8,11.7-8.5-4.5-13.8Z"/>
        <path class="st3" d="M340.5,360.9,336,347.1l-11.7-8.5,4.5,13.8Z"/>
        <path class="st3" d="M319.8,352.4l4.5-13.8H309.8l-4.5,13.8Z"/>
        <path class="st3" d="M347.7,338.7l4.5,13.8h14.5l-4.5-13.8Z"/>
        <path class="st3" d="M328.8,324.9l11.7-8.5L336,302.6l-11.7,8.5Z"/>
        <path class="st3" d="M373.9,302.6l4.5-13.8-11.7-8.5-4.5,13.8Z"/>
        <path class="st3" d="M378.3,316.4l4.5-13.8-4.5-13.8-4.5,13.8Z"/>
        <path class="st3" d="M350.5,302.6l11.7-8.5,4.5-13.8L355,288.8Z"/>
        <path class="st3" d="M340.5,288.9,336,302.7h14.5l4.5-13.8Z"/>
        <path class="st3" d="M373.9,302.6l-11.7-8.5-11.7,8.5,11.7,8.5Z"/>
        <path class="st3" d="M340.5,316.4l11.7,8.5h14.5L355,316.4Z"/>
        <path class="st3" d="M362.2,338.7l4.5-13.8H352.2l-4.5,13.8Z"/>
        <path class="st3" d="M350.5,302.6H336l4.5,13.8H355Z"/>
        <path class="st3" d="M362.2,311.1l4.5,13.8,11.7-8.5-4.5-13.8Z"/>
        <path class="st3" d="M354.9,316.4l11.7,8.5-4.5-13.8-11.7-8.5Z"/>
        <path class="st3" d="M371.1,338.7l-4.5-13.8-4.5,13.8,4.5,13.8Z"/>
        <path class="st3" d="M324.3,311.1l11.7-8.5-11.7-8.5-11.7,8.5Z"/>
        <path class="st3" d="M328.8,280.4l-4.5,13.8,11.7,8.5,4.5-13.8Z"/>
    </g>
</svg>