<?xml version="1.0" encoding="utf-8"?>
<!-- Generator: Adobe Illustrator 25.1.0, SVG Export Plug-In . SVG Version: 6.00 Build 0)  -->
<svg version="1.1" id="prefix__Layer_1" xmlns="http://www.w3.org/2000/svg" xmlns:xlink="http://www.w3.org/1999/xlink" x="0px"
	 y="0px" viewBox="0 0 516.4 440.3" style="enable-background:new 0 0 516.4 440.3;" xml:space="preserve">
<style type="text/css">
	.st0{fill:none;stroke:#BDC3C7;stroke-linecap:round;stroke-linejoin:round;stroke-miterlimit:10;}
	.st-text-grey{fill:#454A54;}
	.st-text-blue{fill:#1190CE;}
	.st3{fill:none;stroke:#999999;stroke-linecap:round;stroke-linejoin:round;stroke-miterlimit:10;}
	.st4{fill:none;stroke:#00FF00;stroke-linecap:round;stroke-linejoin:round;stroke-miterlimit:10;}
	.st5{fill:none;stroke:#FCEE21;stroke-linecap:round;stroke-linejoin:round;stroke-miterlimit:10;}
	.st6{fill:none;stroke:#000000;stroke-linecap:round;stroke-linejoin:round;stroke-miterlimit:10;}
	.st7{fill:none;stroke:#FBB03B;stroke-linecap:round;stroke-linejoin:round;stroke-miterlimit:10;}
	.st8{fill:none;stroke:#FF0000;stroke-linecap:round;stroke-linejoin:round;stroke-miterlimit:10;}
</style>
<path class="st0" d="M465.7,433.4h13.6l-4.3-13h-13.6L465.7,433.4z"/>
<path class="st0" d="M461.5,420.4h13.6l-11.1-8h-13.6L461.5,420.4z"/>
<path class="st0" d="M468.4,399.4l-4.3,13l11.1,8l4.3-13L468.4,399.4z"/>
<path class="st0" d="M450.5,428.5l4.3,13l11.1-8l-4.3-13L450.5,428.5z"/>
<path class="st0" d="M486.2,412.4l4.3-13l-11.1,8l-4.3,13L486.2,412.4z"/>
<path class="st0" d="M468.4,399.4l11.1,8l11.1-8l-11.1-8L468.4,399.4z"/>
<path class="st0" d="M486.2,412.4l-11.1,8l4.3,13l11.1-8L486.2,412.4z"/>
<path class="st0" d="M508.3,412.4l-4.3-13h-13.6l4.3,13H508.3z"/>
<path class="st0" d="M490.4,425.4l4.3-13l-4.3-13l-4.3,13L490.4,425.4z"/>
<path class="st0" d="M508.3,412.4h-13.6l-4.3,13H504L508.3,412.4z"/>
<path class="st0" d="M443.7,433.4l-4.3-13l-4.3,13l4.3,13L443.7,433.4z"/>
<path class="st0" d="M421.5,433.4h13.6l4.3-13h-13.6L421.5,433.4z"/>
<path class="st0" d="M461.5,420.4l-11.1-8l-11.1,8l11.1,8L461.5,420.4z"/>
<path class="st0" d="M454.6,399.4l-4.3,13H464l4.3-13H454.6z"/>
<path class="st0" d="M454.6,441.4l-4.3-13l-11.1-8l4.3,13L454.6,441.4z"/>
<path class="st0" d="M403.7,420.4l11.1-8l-4.3-13l-11.1,8L403.7,420.4z"/>
<path class="st0" d="M399.5,433.4l11.1-8l4.3-13l-11.1,8L399.5,433.4z"/>
<path class="st0" d="M425.8,420.4l-11.1-8l-4.3,13l11.1,8L425.8,420.4z"/>
<path class="st0" d="M385.8,407.4h13.6l11.1-8h-13.6L385.8,407.4z"/>
<path class="st0" d="M385.8,391.4l-11.1,8l11.1,8l11.1-8L385.8,391.4z"/>
<path class="st0" d="M403.7,420.4l-4.3-13h-13.6l4.3,13H403.7z"/>
<path class="st0" d="M414.7,412.4l11.1,8h13.6l-11.1-8H414.7z"/>
<path class="st0" d="M424.2,399.4h-13.6l4.3,13h13.6L424.2,399.4z"/>
<path class="st0" d="M435.1,407.4l4.3,13l11.1-8l-4.3-13L435.1,407.4z"/>
<path class="st0" d="M446.2,399.4l4.3,13l4.3-13l-4.3-13L446.2,399.4z"/>
<path class="st0" d="M428.3,412.4l11.1,8l-4.3-13l-11.1-8L428.3,412.4z"/>
<path class="st0" d="M435.1,391.4l-11.1,8l11.1,8l11.1-8L435.1,391.4z"/>
<path class="st0" d="M428.3,344.4h-13.6l11.1,8h13.6L428.3,344.4z"/>
<path class="st0" d="M421.5,365.4l4.3-13l-11.1-8l-4.3,13L421.5,365.4z"/>
<path class="st0" d="M428.3,344.4l11.1,8l11.1-8l-11.1-8L428.3,344.4z"/>
<path class="st0" d="M435.1,365.4l4.3-13h-13.6l-4.3,13H435.1z"/>
<path class="st0" d="M421.5,323.3l-11.1,8l4.3,13l11.1-8L421.5,323.3z"/>
<path class="st0" d="M425.8,310.3l-11.1,8l-4.3,13l11.1-8L425.8,310.3z"/>
<path class="st0" d="M399.5,323.3l11.1,8l4.3-13l-11.1-8L399.5,323.3z"/>
<path class="st0" d="M439.4,336.3h-13.6l-11.1,8h13.6L439.4,336.3z"/>
<path class="st0" d="M421.5,323.3l4.3,13h13.6l-4.3-13H421.5z"/>
<path class="st0" d="M403.7,378.4l-4.3-13h-13.6l4.3,13H403.7z"/>
<path class="st0" d="M414.7,386.4l-4.3-13l-11.1-8l4.3,13L414.7,386.4z"/>
<path class="st0" d="M410.5,357.3l-11.1,8l11.1,8l11.1-8L410.5,357.3z"/>
<path class="st0" d="M385.8,391.4l4.3-13l-4.3-13l-4.3,13L385.8,391.4z"/>
<path class="st0" d="M370.5,386.4l4.3,13l11.1-8l-4.3-13L370.5,386.4z"/>
<path class="st0" d="M403.7,378.4h-13.6l-4.3,13h13.6L403.7,378.4z"/>
<path class="st0" d="M399.5,365.4l11.1-8l4.3-13l-11.1,8L399.5,365.4z"/>
<path class="st0" d="M401.1,344.4h13.6l-4.3-13h-13.6L401.1,344.4z"/>
<path class="st0" d="M396.8,331.4h13.6l-11.1-8h-13.6L396.8,331.4z"/>
<path class="st0" d="M461.5,378.4h13.6l4.3-13h-13.6L461.5,378.4z"/>
<path class="st0" d="M450.5,386.4h13.6l11.1-8h-13.6L450.5,386.4z"/>
<path class="st0" d="M479.4,391.4l-4.3-13l-11.1,8l4.3,13L479.4,391.4z"/>
<path class="st0" d="M454.6,357.3l11.1,8h13.6l-11-8H454.6z"/>
<path class="st0" d="M464.1,344.4h-13.6l4.3,13h13.6L464.1,344.4z"/>
<path class="st0" d="M461.5,378.4l4.3-13l-11.1-8l-4.3,13L461.5,378.4z"/>
<path class="st0" d="M475.2,378.4l4.3,13l11.1,8l-4.3-13L475.2,378.4z"/>
<path class="st0" d="M490.4,373.4l-11.1-8l-4.3,13l11.1,8L490.4,373.4z"/>
<path class="st0" d="M494.7,386.4l-4.3,13H504l4.3-13H494.7z"/>
<path class="st0" d="M486.2,386.4l4.3,13l4.3-13l-4.3-13L486.2,386.4z"/>
<path class="st0" d="M504.1,373.4h-13.6l4.3,13h13.6L504.1,373.4z"/>
<path class="st0" d="M439.4,352.4l-4.3,13l4.3,13l4.3-13L439.4,352.4z"/>
<path class="st0" d="M425.8,378.4h13.6l-4.3-13h-13.6L425.8,378.4z"/>
<path class="st0" d="M454.6,357.3l-4.3-13l-11.1,8l4.3,13L454.6,357.3z"/>
<path class="st0" d="M450.5,370.3l-11.1,8l11.1,8l11.1-8L450.5,370.3z"/>
<path class="st0" d="M468.4,399.4l-4.3-13h-13.6l4.3,13H468.4z"/>
<path class="st0" d="M443.7,365.4l-4.3,13l11.1-8l4.3-13L443.7,365.4z"/>
<path class="st0" d="M399.5,391.4l11.1,8l4.3-13l-11.1-8L399.5,391.4z"/>
<path class="st0" d="M421.5,365.4l-11.1,8l4.3,13l11.1-8L421.5,365.4z"/>
<path class="st0" d="M396.8,399.4h13.6l-11.1-8h-13.6L396.8,399.4z"/>
<path class="st0" d="M428.3,386.4l11.1-8h-13.6l-11.1,8H428.3z"/>
<path class="st0" d="M428.3,386.4h-13.6l-4.3,13H424L428.3,386.4z"/>
<path class="st0" d="M446.2,399.4l4.3-13l-11.1-8l-4.3,13L446.2,399.4z"/>
<path class="st0" d="M424.2,399.4l11.1-8l4.3-13l-11.1,8L424.2,399.4z"/>
<path class="st0" d="M439.4,268.4h-13.6l-11.1,8h13.6L439.4,268.4z"/>
<path class="st0" d="M421.5,297.4l-11.1-8l4.3,13l11.1,8L421.5,297.4z"/>
<path class="st0" d="M403.7,310.3l11.1-8l-4.3-13l-11.1,8L403.7,310.3z"/>
<path class="st0" d="M461.5,200.4l-11.1,8h13.7l11.1-8H461.5z"/>
<path class="st0" d="M465.7,187.4l-11.1-8l-4.3,13l11.1,8L465.7,187.4z"/>
<path class="st0" d="M454.6,331.4l-4.3-13l-11.1-8l4.3,13L454.6,331.4z"/>
<path class="st0" d="M439.4,336.3l11.1,8l4.3-13l-11.1-8L439.4,336.3z"/>
<path class="st0" d="M435.1,323.3l4.3-13h-13.6l-4.3,13H435.1z"/>
<path class="st0" d="M403.7,310.3l11.1,8l11.1-8l-11.1-8L403.7,310.3z"/>
<path class="st0" d="M443.7,323.3l-4.3-13l-4.3,13l4.3,13L443.7,323.3z"/>
<path class="st0" d="M468.4,289.3h-13.6l11.1,8h13.6L468.4,289.3z"/>
<path class="st0" d="M461.5,268.4l-11.1,8h13.7l11.1-8H461.5z"/>
<path class="st0" d="M421.5,297.4l4.3,13h13.6l-4.3-13H421.5z"/>
<path class="st0" d="M475.2,352.4l4.3,13l11.1-8l-4.3-13L475.2,352.4z"/>
<path class="st0" d="M486.2,344.4l4.3,13l4.3-13l-4.3-13L486.2,344.4z"/>
<path class="st0" d="M508.3,344.4h-13.6l-4.3,13H504L508.3,344.4z"/>
<path class="st0" d="M468.4,357.3l11.1,8l-4.3-13l-11.1-8L468.4,357.3z"/>
<path class="st0" d="M475.2,336.3l-11.1,8l11.1,8l11.1-8L475.2,336.3z"/>
<path class="st0" d="M501.5,365.4l-11.1-8l-11.1,8l11.1,8L501.5,365.4z"/>
<path class="st0" d="M468.4,331.4l11.1-8h-13.7l-11.1,8H468.4z"/>
<path class="st0" d="M468.4,331.4h-13.6l-4.3,13h13.6L468.4,331.4z"/>
<path class="st0" d="M486.2,344.4l4.3-13l-11.1-8l-4.3,13L486.2,344.4z"/>
<path class="st0" d="M504.1,331.4h-13.6l4.3,13h13.6L504.1,331.4z"/>
<path class="st0" d="M464.1,344.4l11.1-8l4.3-13l-11.1,8L464.1,344.4z"/>
<path class="st0" d="M468.4,289.3l11.1,8l11.1-8l-11.1-8L468.4,289.3z"/>
<path class="st0" d="M475.2,268.4l4.3,13l11.1,8l-4.3-13L475.2,268.4z"/>
<path class="st0" d="M490.4,315.3l-11.1,8l11.1,8l11.1-8L490.4,315.3z"/>
<path class="st0" d="M505.7,310.3l-11.1-8l-4.3,13l11.1,8L505.7,310.3z"/>
<path class="st0" d="M390,420.4l-4.3,13h13.6l4.3-13H390z"/>
<path class="st0" d="M381.6,420.4l4.3,13l4.3-13l-4.3-13L381.6,420.4z"/>
<path class="st0" d="M381.6,420.4l4.3-13l-11.1-8l-4.3,13L381.6,420.4z"/>
<path class="st0" d="M370.5,412.4l4.3,13l11.1,8l-4.3-13L370.5,412.4z"/>
<path class="st0" d="M363.7,433.4l11.1-8l-4.3-13l-11.1,8L363.7,433.4z"/>
<path class="st0" d="M475.2,174.4l4.3,13l11.1-8l-4.3-13L475.2,174.4z"/>
<path class="st0" d="M486.2,166.4l4.3,13l4.3-13l-4.3-13L486.2,166.4z"/>
<path class="st0" d="M508.3,166.4h-13.6l-4.3,13H504L508.3,166.4z"/>
<path class="st0" d="M468.4,179.4l11.1,8l-4.3-13l-11.1-8L468.4,179.4z"/>
<path class="st0" d="M468.4,179.4l-4.3-13h-13.6l4.3,13H468.4z"/>
<path class="st0" d="M464.1,166.4l11.1,8l11.1-8l-11.1-8L464.1,166.4z"/>
<path class="st0" d="M501.5,187.4l-11.1-8l-11.1,8l11.1,8L501.5,187.4z"/>
<path class="st0" d="M508.3,208.4l-4.3-13h-13.6l4.3,13H508.3z"/>
<path class="st0" d="M494.7,234.4l-4.3,13H504l4.3-13H494.7z"/>
<path class="st0" d="M508.3,234.4l-4.3-13h-13.6l4.3,13H508.3z"/>
<path class="st0" d="M490.4,247.4l4.3-13l-4.3-13l-4.3,13L490.4,247.4z"/>
<path class="st0" d="M461.5,200.4h13.6l4.3-13h-13.6L461.5,200.4z"/>
<path class="st0" d="M454.6,179.4l11.1,8h13.6l-11-8H454.6z"/>
<path class="st0" d="M490.4,195.4l-11.1-8l-4.3,13l11.1,8L490.4,195.4z"/>
<path class="st0" d="M494.7,208.4l-4.3,13H504l4.3-13H494.7z"/>
<path class="st0" d="M486.2,208.4l4.3,13l4.3-13l-4.3-13L486.2,208.4z"/>
<path class="st0" d="M508.3,276.3l-4.3-13h-13.6l4.3,13H508.3z"/>
<path class="st0" d="M494.7,276.3l-4.3,13H504l4.3-13H494.7z"/>
<path class="st0" d="M486.2,276.3l4.3,13l4.3-13l-4.3-13L486.2,276.3z"/>
<path class="st0" d="M508.3,302.3l-4.3-13h-13.6l4.3,13H508.3z"/>
<path class="st0" d="M127.1,433.4h13.7l-4.3-13h-13.6L127.1,433.4z"/>
<path class="st0" d="M122.9,420.4h13.6l-11.1-8h-13.6L122.9,420.4z"/>
<path class="st0" d="M129.7,399.4l-4.3,13l11.1,8l4.3-13L129.7,399.4z"/>
<path class="st0" d="M111.8,428.5l4.3,13l11.1-8l-4.3-13L111.8,428.5z"/>
<path class="st0" d="M105,433.4l-4.3-13l-4.3,13l4.3,13L105,433.4z"/>
<path class="st0" d="M82.9,433.4h13.6l4.3-13H87.2L82.9,433.4z"/>
<path class="st0" d="M122.9,420.4l-11.1-8l-11,8l11.1,8L122.9,420.4z"/>
<path class="st0" d="M116,399.4l-4.3,13h13.6l4.3-13H116z"/>
<path class="st0" d="M116,441.4l-4.3-13l-11-8l4.3,13L116,441.4z"/>
<path class="st0" d="M285.3,386.4l-4.3-13l-11.1-8l4.3,13L285.3,386.4z"/>
<path class="st0" d="M270.1,391.4l11.1,8l4.3-13l-11.1-8L270.1,391.4z"/>
<path class="st0" d="M265.8,352.4l4.3,13l11.1-8l-4.3-13L265.8,352.4z"/>
<path class="st0" d="M270.1,339.4l11.1-8l-11.1-8l-11.1,8L270.1,339.4z"/>
<path class="st0" d="M259,331.4l11.1-8h-13.6l-11.1,8H259z"/>
<path class="st0" d="M252.2,310.3l4.3,13h13.6l-4.3-13H252.2z"/>
<path class="st0" d="M276.9,344.4l4.3-13l-11.1,8l-4.3,13L276.9,344.4z"/>
<path class="st0" d="M254.9,344.4l11.1,8l4.3-13l-11.1-8L254.9,344.4z"/>
<path class="st0" d="M285.3,386.4l-4.3,13h13.6l4.3-13H285.3z"/>
<path class="st0" d="M316.9,399.4l-11.1-8l-11.1,8l11.1,8L316.9,399.4z"/>
<path class="st0" d="M350,391.4l-4.3-13l-11.1,8l4.3,13L350,391.4z"/>
<path class="st0" d="M339,399.4l-4.3-13l-4.3,13l4.3,13L339,399.4z"/>
<path class="st0" d="M316.9,399.4h13.6l4.3-13h-13.6L316.9,399.4z"/>
<path class="st0" d="M356.8,386.4l-11.1-8l4.3,13l11.1,8L356.8,386.4z"/>
<path class="st0" d="M356.8,386.4l4.3,13h13.6l-4.3-13H356.8z"/>
<path class="st0" d="M350,407.4l11.1-8l-11.1-8l-11.1,8L350,407.4z"/>
<path class="st0" d="M252.2,310.3l-11.1,8l4.3,13l11.1-8L252.2,310.3z"/>
<path class="st0" d="M265.8,378.4l4.3-13h-13.6l-4.3,13H265.8z"/>
<path class="st0" d="M252.2,378.4l4.3-13l-11.1,8l-4.3,13L252.2,378.4z"/>
<path class="st0" d="M274.4,378.4l-4.3-13l-4.3,13l4.3,13L274.4,378.4z"/>
<path class="st0" d="M256.5,391.4h13.6l-4.3-13h-13.6L256.5,391.4z"/>
<path class="st0" d="M252.2,352.4l-11.1-8l4.3,13l11.1,8L252.2,352.4z"/>
<path class="st0" d="M252.2,352.4l4.3,13h13.6l-4.3-13H252.2z"/>
<path class="st0" d="M259,331.4h-13.6l-4.3,13h13.7L259,331.4z"/>
<path class="st0" d="M265.8,352.4l-11.1-8h-13.6l11.1,8H265.8z"/>
<path class="st0" d="M147.6,386.4l4.3,13h13.6l-4.3-13H147.6z"/>
<path class="st0" d="M136.5,378.4l4.3,13l11.1,8l-4.3-13L136.5,378.4z"/>
<path class="st0" d="M140.8,407.4l11.1-8l-11.1-8l-11.1,8L140.8,407.4z"/>
<path class="st0" d="M165.5,373.4l-4.3,13l4.3,13l4.3-13L165.5,373.4z"/>
<path class="st0" d="M147.6,386.4h13.6l4.3-13h-13.7L147.6,386.4z"/>
<path class="st0" d="M252.2,378.4l-11.1,8l4.3,13l11.1-8L252.2,378.4z"/>
<path class="st0" d="M270.1,391.4h-13.6l-11.1,8H259L270.1,391.4z"/>
<path class="st0" d="M270.1,407.4l11.1-8l-11.1-8l-11.1,8L270.1,407.4z"/>
<path class="st0" d="M403.7,310.3h-13.6l-4.3,13h13.6L403.7,310.3z"/>
<path class="st0" d="M396.8,331.4l-11.1-8l-11.1,8l11.1,8L396.8,331.4z"/>
<path class="st0" d="M321.1,318.4l-11.1-8l-4.3,13l11.1,8L321.1,318.4z"/>
<path class="st0" d="M323.7,310.3h-13.6l11.1,8h13.6L323.7,310.3z"/>
<path class="st0" d="M323.7,310.3l11.1,8l11.1-8l-11.1-8L323.7,310.3z"/>
<path class="st0" d="M330.5,331.4l4.3-13h-13.6l-4.3,13H330.5z"/>
<path class="st0" d="M292.2,323.3h13.6l4.3-13h-13.6L292.2,323.3z"/>
<path class="st0" d="M370.5,386.4l-11.1-8h-13.5l11.1,8H370.5z"/>
<path class="st0" d="M390,242.4l-4.3,13h13.6l4.3-13H390z"/>
<path class="st0" d="M403.7,242.4l-4.3,13l11.1-8l4.3-13L403.7,242.4z"/>
<path class="st0" d="M421.5,255.4l-11.1-8l-11.1,8l11.1,8L421.5,255.4z"/>
<path class="st0" d="M381.6,242.4l4.3,13l4.3-13l-4.3-13L381.6,242.4z"/>
<path class="st0" d="M399.5,229.4h-13.7l4.3,13h13.6L399.5,229.4z"/>
<path class="st0" d="M403.7,268.4l11.1,8l-4.3-13l-11.1-8L403.7,268.4z"/>
<path class="st0" d="M403.7,268.4l-4.3-13h-13.6l4.3,13H403.7z"/>
<path class="st0" d="M396.8,221.4h13.6l-11.1-8h-13.6L396.8,221.4z"/>
<path class="st0" d="M403.7,200.4l-4.3,13l11.1,8l4.3-13L403.7,200.4z"/>
<path class="st0" d="M390,200.4l-4.3,13h13.6l4.3-13H390z"/>
<path class="st0" d="M403.7,242.4l11.1-8l-4.3-13l-11.1,8L403.7,242.4z"/>
<path class="st0" d="M385.8,229.4h13.6l11.1-8h-13.6L385.8,229.4z"/>
<path class="st0" d="M410.5,179.4l4.3,13l11.1,8l-4.3-13L410.5,179.4z"/>
<path class="st0" d="M414.7,208.4l11.1-8l-11.1-8l-11.1,8L414.7,208.4z"/>
<path class="st0" d="M425.8,200.4l-11.1,8l-4.3,13l11.1-8L425.8,200.4z"/>
<path class="st0" d="M435.1,213.4l4.3-13h-13.6l-4.3,13H435.1z"/>
<path class="st0" d="M363.7,297.4h-13.6l-4.3,13h13.6L363.7,297.4z"/>
<path class="st0" d="M345.9,284.4l4.3,13l11.1-8l-4.3-13L345.9,284.4z"/>
<path class="st0" d="M334.8,302.3h-13.6l-11.1,8h13.6L334.8,302.3z"/>
<path class="st0" d="M316.9,289.3l4.3,13h13.6l-4.3-13H316.9z"/>
<path class="st0" d="M350,297.4l-4.3-13l-11.1-8l4.3,13L350,297.4z"/>
<path class="st0" d="M334.8,302.3l11.1,8l4.3-13l-11.1-8L334.8,302.3z"/>
<path class="st0" d="M330.5,289.3l4.3-13h-13.6l-4.3,13H330.5z"/>
<path class="st0" d="M339,289.3l-4.3-13l-4.3,13l4.3,13L339,289.3z"/>
<path class="st0" d="M147.6,412.4l-11.1,8l4.3,13l11.1-8L147.6,412.4z"/>
<path class="st0" d="M151.8,399.4l-11.1,8l-4.3,13l11.1-8L151.8,399.4z"/>
<path class="st0" d="M147.6,412.4l4.3,13h13.6l-4.3-13H147.6z"/>
<path class="st0" d="M274.4,420.4l-4.3,13l11.1-8l4.3-13L274.4,420.4z"/>
<path class="st0" d="M274.4,420.4l11.1-8l-4.3-13l-11.1,8L274.4,420.4z"/>
<path class="st0" d="M296.4,420.4l-11.1-8l-4.3,13l11.1,8L296.4,420.4z"/>
<path class="st0" d="M299,412.4l11.1,8l-4.3-13l-11.1-8L299,412.4z"/>
<path class="st0" d="M316.9,399.4l-11.1,8l4.3,13l11.1-8L316.9,399.4z"/>
<path class="st0" d="M299,412.4l-4.3-13h-13.6l4.3,13H299z"/>
<path class="st0" d="M292.2,433.4h13.6l4.3-13h-13.6L292.2,433.4z"/>
<path class="st0" d="M285.3,412.4l11.1,8H310l-11.1-8H285.3z"/>
<path class="st0" d="M339,399.4l-4.3,13l11.1,8l4.3-13L339,399.4z"/>
<path class="st0" d="M321.1,412.4h13.7l-4.3-13h-13.6L321.1,412.4z"/>
<path class="st0" d="M361.1,399.4l-11.1,8l-4.3,13l11.1-8L361.1,399.4z"/>
<path class="st0" d="M370.5,412.4l4.3-13h-13.6l-4.3,13H370.5z"/>
<path class="st0" d="M334.8,412.4h-13.6l-11.1,8h13.6L334.8,412.4z"/>
<path class="st0" d="M334.8,428.5l11.1-8l-11.1-8l-11.1,8L334.8,428.5z"/>
<path class="st0" d="M321.1,428.5l-11.1-8l-4.3,13l11.1,8L321.1,428.5z"/>
<path class="st0" d="M323.7,420.4h-13.6l11.1,8h13.6L323.7,420.4z"/>
<path class="st0" d="M252.2,420.4l4.3,13h13.6l-4.3-13H252.2z"/>
<path class="st0" d="M241.1,412.4l4.3,13l11.1,8l-4.3-13L241.1,412.4z"/>
<path class="st0" d="M270.1,407.4l-4.3,13l4.3,13l4.3-13L270.1,407.4z"/>
<path class="st0" d="M252.2,420.4h13.6l4.3-13h-13.6L252.2,420.4z"/>
<path class="st0" d="M194.4,420.4h-13.6l-4.3,13h13.6L194.4,420.4z"/>
<path class="st0" d="M205.4,412.4h-13.6l-11.1,8h13.6L205.4,412.4z"/>
<path class="st0" d="M176.5,407.4l4.3,13l11.1-8l-4.3-13L176.5,407.4z"/>
<path class="st0" d="M194.4,420.4l-4.3,13l11.1,8l4.3-13L194.4,420.4z"/>
<path class="st0" d="M180.7,420.4l-4.3-13l-11.1-8l4.3,13L180.7,420.4z"/>
<path class="st0" d="M165.5,425.4l11.1,8l4.3-13l-11.1-8L165.5,425.4z"/>
<path class="st0" d="M161.2,412.4l4.3-13h-13.7l-4.3,13H161.2z"/>
<path class="st0" d="M169.6,412.4l-4.3-13l-4.3,13l4.3,13L169.6,412.4z"/>
<path class="st0" d="M216.5,446.4l4.3-13l-4.3-13l-4.3,13L216.5,446.4z"/>
<path class="st0" d="M230.2,420.4h-13.6l4.3,13h13.6L230.2,420.4z"/>
<path class="st0" d="M205.4,428.5l11.1-8l-11.1-8l-11.1,8L205.4,428.5z"/>
<path class="st0" d="M187.5,399.4l4.3,13h13.6l-4.3-13H187.5z"/>
<path class="st0" d="M212.3,433.4l4.3-13l-11.1,8l-4.3,13L212.3,433.4z"/>
<path class="st0" d="M256.5,407.4l-11.1-8l-4.3,13l11.1,8L256.5,407.4z"/>
<path class="st0" d="M234.3,433.4l11.1-8l-4.3-13l-11.1,8L234.3,433.4z"/>
<path class="st0" d="M259,399.4h-13.6l11.1,8h13.6L259,399.4z"/>
<path class="st0" d="M227.5,412.4l-11.1,8H230l11.1-8H227.5z"/>
<path class="st0" d="M227.5,412.4h13.6l4.3-13h-13.6L227.5,412.4z"/>
<path class="st0" d="M209.7,399.4l-4.3,13l11.1,8l4.3-13L209.7,399.4z"/>
<path class="st0" d="M231.7,399.4l-11.1,8l-4.3,13l11.1-8L231.7,399.4z"/>
<path class="st0" d="M359.5,420.4h-13.6l4.3,13h13.6L359.5,420.4z"/>
<path class="st0" d="M356.8,412.4l-11.1,8h13.6l11.1-8H356.8z"/>
<path class="st0" d="M339,441.4l11.1-8l-4.3-13l-11.1,8L339,441.4z"/>
<path class="st0" d="M31.9,386.4l-11.1-8H7.1l11.1,8H31.9z"/>
<path class="st0" d="M11.4,365.4l-4.3,13h13.7l4.3-13H11.4z"/>
<path class="st0" d="M22.5,399.4h13.6l-4.3-13H18.2L22.5,399.4z"/>
<path class="st0" d="M25,365.4l-4.3,13l11.1,8l4.3-13L25,365.4z"/>
<path class="st0" d="M18.2,386.4l-11.1-8l4.3,13l11.1,8L18.2,386.4z"/>
<path class="st0" d="M18.2,344.4l-11.1,8h13.7l11.1-8H18.2z"/>
<path class="st0" d="M25,365.4l-4.3-13H7.1l4.3,13H25z"/>
<path class="st0" d="M22.5,331.4l-11.1-8l-4.3,13l11.1,8L22.5,331.4z"/>
<path class="st0" d="M60.8,391.4l11.1,8l4.3-13l-11.1-8L60.8,391.4z"/>
<path class="st0" d="M65,378.4l11.1,8l-4.3-13l-11.1-8L65,378.4z"/>
<path class="st0" d="M82.9,365.4l-11.1,8l4.3,13l11.1-8L82.9,365.4z"/>
<path class="st0" d="M58.2,399.4h13.6l-11-8H47.1L58.2,399.4z"/>
<path class="st0" d="M58.2,399.4l-11.1-8l-11.1,8l11.1,8L58.2,399.4z"/>
<path class="st0" d="M51.4,378.4l-4.3,13h13.6l4.3-13H51.4z"/>
<path class="st0" d="M89.7,386.4l11.1-8H87.2l-11.1,8H89.7z"/>
<path class="st0" d="M82.9,365.4l4.3,13h13.6l-4.3-13H82.9z"/>
<path class="st0" d="M89.7,386.4H76.1l-4.3,13h13.6L89.7,386.4z"/>
<path class="st0" d="M107.6,399.4l4.3-13l-11.1-8l-4.3,13L107.6,399.4z"/>
<path class="st0" d="M111.8,412.4l4.3-13l-4.3-13l-4.3,13L111.8,412.4z"/>
<path class="st0" d="M125.5,386.4h-13.7l4.3,13h13.6L125.5,386.4z"/>
<path class="st0" d="M85.5,399.4l11.1-8l4.3-13l-11.1,8L85.5,399.4z"/>
<path class="st0" d="M107.6,399.4l-11.1-8l-11.1,8l11.1,8L107.6,399.4z"/>
<path class="st0" d="M42.9,378.4l4.3-13l-11.1,8l-4.3,13L42.9,378.4z"/>
<path class="st0" d="M25,365.4l11.1,8l11.1-8l-11.1-8.1L25,365.4z"/>
<path class="st0" d="M42.9,378.4l-11.1,8l4.3,13l11-8L42.9,378.4z"/>
<path class="st0" d="M65,378.4l-4.3-13H47.1l4.3,13H65z"/>
<path class="st0" d="M71.8,357.3l-11.1,8l11.1,8l11.1-8L71.8,357.3z"/>
<path class="st0" d="M47.1,391.4l4.3-13l-4.3-13l-4.3,13L47.1,391.4z"/>
<path class="st0" d="M18.2,344.4h13.6l4.3-13H22.5L18.2,344.4z"/>
<path class="st0" d="M36.1,357.3l-4.3-13l-11.1,8l4.3,13L36.1,357.3z"/>
<path class="st0" d="M11.4,323.3l11.1,8h13.6l-11.1-8H11.4z"/>
<path class="st0" d="M20.8,310.3H7.1l4.3,13H25L20.8,310.3z"/>
<path class="st0" d="M31.9,344.4l4.3,13l11.1,8l-4.3-13L31.9,344.4z"/>
<path class="st0" d="M47.1,339.4l-11.1-8l-4.3,13l11.1,8L47.1,339.4z"/>
<path class="st0" d="M51.4,352.4l-4.3,13h13.6l4.3-13H51.4z"/>
<path class="st0" d="M65,352.4l-4.3,13l11.1-8l4.3-13L65,352.4z"/>
<path class="st0" d="M42.9,352.4l4.3,13l4.3-13l-4.3-13L42.9,352.4z"/>
<path class="st0" d="M60.8,339.4H47.1l4.3,13H65L60.8,339.4z"/>
<path class="st0" d="M18.2,412.4l-11.1,8h13.7l11.1-8H18.2z"/>
<path class="st0" d="M25,433.4l-4.3-13H7.1l4.3,13H25z"/>
<path class="st0" d="M18.2,412.4h13.6l4.3-13H22.5L18.2,412.4z"/>
<path class="st0" d="M36.1,425.4l-4.3-13l-11.1,8l4.3,13L36.1,425.4z"/>
<path class="st0" d="M22.5,399.4l-11.1,8l-4.3,13l11.1-8L22.5,399.4z"/>
<path class="st0" d="M65,420.4l11.1-8l-4.3-13l-11,8L65,420.4z"/>
<path class="st0" d="M60.8,433.4l11.1-8l4.3-13l-11.1,8L60.8,433.4z"/>
<path class="st0" d="M87.2,420.4l-11.1-8l-4.3,13l11.1,8L87.2,420.4z"/>
<path class="st0" d="M47.1,407.4h13.6l11.1-8H58.2L47.1,407.4z"/>
<path class="st0" d="M65,420.4l-4.3-13H47.1l4.3,13H65z"/>
<path class="st0" d="M76.1,412.4l11.1,8h13.6l-11.1-8H76.1z"/>
<path class="st0" d="M85.5,399.4H71.8l4.3,13h13.6L85.5,399.4z"/>
<path class="st0" d="M96.5,407.4l4.3,13l11.1-8l-4.3-13L96.5,407.4z"/>
<path class="st0" d="M89.7,412.4l11.1,8l-4.3-13l-11.1-8L89.7,412.4z"/>
<path class="st0" d="M31.9,412.4l4.3,13l11.1,8l-4.3-13L31.9,412.4z"/>
<path class="st0" d="M47.1,407.4l-11.1-8l-4.3,13l11.1,8L47.1,407.4z"/>
<path class="st0" d="M51.4,420.4l-4.3,13h13.6l4.3-13H51.4z"/>
<path class="st0" d="M42.9,420.4l4.3,13l4.3-13l-4.3-13L42.9,420.4z"/>
<path class="st0" d="M212.3,255.4l4.3,13l4.3-13l-4.3-13L212.3,255.4z"/>
<path class="st0" d="M234.3,297.4l11.1-8l-4.3-13l-11.1,8L234.3,297.4z"/>
<path class="st0" d="M256.5,297.4l-11.1-8l-4.3,13l11.1,8L256.5,297.4z"/>
<path class="st0" d="M234.3,297.4l-4.3-13h-13.6l4.3,13H234.3z"/>
<path class="st0" d="M230.2,242.4h-13.6l4.3,13h13.6L230.2,242.4z"/>
<path class="st0" d="M201.2,179.4l4.3,13l11.1,8l-4.3-13L201.2,179.4z"/>
<path class="st0" d="M220.7,213.4l-4.3-13l-11.1,8l4.3,13L220.7,213.4z"/>
<path class="st0" d="M216.5,226.4l-11.1,8l11.1,8l11.1-8L216.5,226.4z"/>
<path class="st0" d="M227.5,234.4l-11.1,8H230l11.1-8H227.5z"/>
<path class="st0" d="M209.7,221.4l-4.3,13l11.1-8l4.3-13L209.7,221.4z"/>
<path class="st0" d="M231.7,221.4l-11.1-8l-4.3,13l11.1,8L231.7,221.4z"/>
<path class="st0" d="M176.5,297.4h13.6l11.1-8h-13.6L176.5,297.4z"/>
<path class="st0" d="M165.5,331.4l-4.3,13l4.3,13l4.3-13L165.5,331.4z"/>
<path class="st0" d="M151.8,373.4l-11.1-8l-4.3,13l11.1,8L151.8,373.4z"/>
<path class="st0" d="M129.7,399.4l11.1-8l-4.3-13l-11.1,8L129.7,399.4z"/>
<path class="st0" d="M154.4,365.4h-13.6l11.1,8h13.6L154.4,365.4z"/>
<path class="st0" d="M176.5,281.4l-11.1,8l11.1,8l11.1-8L176.5,281.4z"/>
<path class="st0" d="M169.6,276.3l-4.3,13l11.1-8l4.3-13L169.6,276.3z"/>
<path class="st0" d="M274.4,200.4l-4.3-13l-4.3,13l4.3,13L274.4,200.4z"/>
<path class="st0" d="M252.2,200.4h13.6l4.3-13h-13.6L252.2,200.4z"/>
<path class="st0" d="M274.4,200.4l-4.3,13l11.1,8l4.3-13L274.4,200.4z"/>
<path class="st0" d="M256.5,213.4h13.6l-4.3-13h-13.6L256.5,213.4z"/>
<path class="st0" d="M292.2,187.4l-11.1-8l-11.1,8l11.1,8L292.2,187.4z"/>
<path class="st0" d="M305.8,187.4l-11.1-8h-13.6l11.1,8H305.8z"/>
<path class="st0" d="M285.3,166.4l-4.3,13h13.6l4.3-13H285.3z"/>
<path class="st0" d="M285.3,208.4l-4.3-13l-11.1-8l4.3,13L285.3,208.4z"/>
<path class="st0" d="M292.2,187.4l-11.1,8l4.3,13l11.1-8L292.2,187.4z"/>
<path class="st0" d="M234.3,187.4l11.1-8l-4.3-13l-11.1,8L234.3,187.4z"/>
<path class="st0" d="M230.2,200.4l11.1-8l4.3-13l-11.1,8L230.2,200.4z"/>
<path class="st0" d="M256.5,187.4l-11.1-8l-4.3,13l11.1,8L256.5,187.4z"/>
<path class="st0" d="M216.5,174.4h13.6l11.1-8h-13.6L216.5,174.4z"/>
<path class="st0" d="M234.3,187.4l-4.3-13h-13.6l4.3,13H234.3z"/>
<path class="st0" d="M245.4,179.4l11.1,8h13.6l-11.1-8H245.4z"/>
<path class="st0" d="M254.9,166.4h-13.6l4.3,13h13.6L254.9,166.4z"/>
<path class="st0" d="M265.8,174.4l4.3,13l11.1-8l-4.3-13L265.8,174.4z"/>
<path class="st0" d="M276.9,166.4l4.3,13l4.3-13l-4.3-13L276.9,166.4z"/>
<path class="st0" d="M259,179.4l11.1,8l-4.3-13l-11.1-8L259,179.4z"/>
<path class="st0" d="M254.9,166.4l11.1,8l11.1-8l-11.1-8L254.9,166.4z"/>
<path class="st0" d="M252.2,242.4l4.3,13h13.6l-4.3-13H252.2z"/>
<path class="st0" d="M241.1,234.4l4.3,13l11.1,8l-4.3-13L241.1,234.4z"/>
<path class="st0" d="M245.4,263.4l11.1-8l-11.1-8l-11.1,8L245.4,263.4z"/>
<path class="st0" d="M270.1,229.4l-4.3,13l4.3,13l4.3-13L270.1,229.4z"/>
<path class="st0" d="M285.3,234.4l-4.3-13l-11.1,8l4.3,13L285.3,234.4z"/>
<path class="st0" d="M252.2,242.4h13.6l4.3-13h-13.6L252.2,242.4z"/>
<path class="st0" d="M256.5,255.4l-11.1,8l-4.3,13l11.1-8L256.5,255.4z"/>
<path class="st0" d="M265.8,268.4l4.3-13h-13.6l-4.3,13H265.8z"/>
<path class="st0" d="M252.2,268.4l-11.1,8h13.7l11.1-8H252.2z"/>
<path class="st0" d="M270.1,213.4h-13.6l-11.1,8H259L270.1,213.4z"/>
<path class="st0" d="M241.1,208.4l4.3,13l11.1-8l-4.3-13L241.1,208.4z"/>
<path class="st0" d="M270.1,229.4l11.1-8l-11.1-8l-11.1,8L270.1,229.4z"/>
<path class="st0" d="M256.5,229.4l-11.1-8l-4.3,13l11.1,8L256.5,229.4z"/>
<path class="st0" d="M234.3,255.4l11.1-8l-4.3-13l-11.1,8L234.3,255.4z"/>
<path class="st0" d="M259,221.4h-13.6l11.1,8h13.6L259,221.4z"/>
<path class="st0" d="M220.7,187.4l-4.3,13H230l4.3-13H220.7z"/>
<path class="st0" d="M252.2,200.4l-11.1-8l-11.1,8l11.1,8L252.2,200.4z"/>
<path class="st0" d="M212.3,187.4l4.3,13l4.3-13l-4.3-13L212.3,187.4z"/>
<path class="st0" d="M234.3,213.4l11.1,8l-4.3-13l-11.1-8L234.3,213.4z"/>
<path class="st0" d="M234.3,213.4l-4.3-13h-13.6l4.3,13H234.3z"/>
<path class="st0" d="M227.5,234.4h13.6l4.3-13h-13.6L227.5,234.4z"/>
<path class="st0" d="M220.7,213.4l11.1,8h13.6l-11.1-8H220.7z"/>
<path class="st0" d="M363.7,187.4h-13.6l-4.3,13h13.6L363.7,187.4z"/>
<path class="st0" d="M374.7,179.4h-13.6l-11.1,8h13.6L374.7,179.4z"/>
<path class="st0" d="M345.9,174.4l4.3,13l11.1-8l-4.3-13L345.9,174.4z"/>
<path class="st0" d="M370.5,208.4l-11.1-8h-13.5l11.1,8H370.5z"/>
<path class="st0" d="M363.7,187.4l-4.3,13l11.1,8l4.3-13L363.7,187.4z"/>
<path class="st0" d="M334.8,166.4l11.1,8l11.1-8l-11.1-8L334.8,166.4z"/>
<path class="st0" d="M316.9,179.4l4.3-13l-11.1,8l-4.3,13L316.9,179.4z"/>
<path class="st0" d="M299,166.4l11.1,8l11.1-8l-11.1-8L299,166.4z"/>
<path class="st0" d="M385.8,213.4l4.3-13l-4.3-13l-4.3,13L385.8,213.4z"/>
<path class="st0" d="M399.5,187.4h-13.7l4.3,13h13.6L399.5,187.4z"/>
<path class="st0" d="M374.7,195.4l11.1-8l-11.1-8l-11.1,8L374.7,195.4z"/>
<path class="st0" d="M356.8,166.4l4.3,13h13.6l-4.3-13H356.8z"/>
<path class="st0" d="M381.6,200.4l4.3-13l-11.1,8l-4.3,13L381.6,200.4z"/>
<path class="st0" d="M425.8,174.4l-11.1-8l-4.3,13l11.1,8L425.8,174.4z"/>
<path class="st0" d="M403.7,200.4l11.1-8l-4.3-13l-11.1,8L403.7,200.4z"/>
<path class="st0" d="M396.8,179.4l-11.1,8h13.6l11.1-8H396.8z"/>
<path class="st0" d="M396.8,179.4h13.6l4.3-13h-13.6L396.8,179.4z"/>
<path class="st0" d="M379,166.4l-4.3,13l11.1,8l4.3-13L379,166.4z"/>
<path class="st0" d="M370.5,166.4l4.3,13l4.3-13l-4.3-13L370.5,166.4z"/>
<path class="st0" d="M401.1,166.4l-11.1,8l-4.3,13l11.1-8L401.1,166.4z"/>
<path class="st0" d="M379,166.4l11.1,8l11.1-8l-11.1-8L379,166.4z"/>
<path class="st0" d="M294.8,221.4l11.1-8l4.3-13l-11.1,8L294.8,221.4z"/>
<path class="st0" d="M321.1,208.4l-11.1-8l-4.3,13l11.1,8L321.1,208.4z"/>
<path class="st0" d="M285.3,208.4l-4.3,13h13.6l4.3-13H285.3z"/>
<path class="st0" d="M316.9,221.4l-11.1-8l-11.1,8l11.1,8L316.9,221.4z"/>
<path class="st0" d="M296.4,200.4H310l-4.3-13h-13.6L296.4,200.4z"/>
<path class="st0" d="M299,166.4l-4.3,13l11.1,8l4.3-13L299,166.4z"/>
<path class="st0" d="M299,208.4l11.1-8h-13.6l-11.1,8H299z"/>
<path class="st0" d="M323.7,200.4h-13.6l11.1,8h13.6L323.7,200.4z"/>
<path class="st0" d="M316.9,179.4l-11.1,8l4.3,13l11.1-8L316.9,179.4z"/>
<path class="st0" d="M281.2,247.4l-11.1,8l11.1,8l11.1-8L281.2,247.4z"/>
<path class="st0" d="M292.2,255.4l-11.1,8h13.6l11.1-8H292.2z"/>
<path class="st0" d="M299,276.3l-4.3-13h-13.6l4.3,13H299z"/>
<path class="st0" d="M274.4,242.4l-4.3,13l11.1-8l4.3-13L274.4,242.4z"/>
<path class="st0" d="M296.4,242.4l-11.1-8l-4.3,13l11.1,8L296.4,242.4z"/>
<path class="st0" d="M276.9,276.3l4.3-13l-11.1-8l-4.3,13L276.9,276.3z"/>
<path class="st0" d="M299,234.4l11.1,8l-4.3-13l-11.1-8L299,234.4z"/>
<path class="st0" d="M316.9,221.4l-11.1,8l4.3,13l11.1-8L316.9,221.4z"/>
<path class="st0" d="M299,234.4l-4.3-13h-13.6l4.3,13H299z"/>
<path class="st0" d="M292.2,255.4h13.6l4.3-13h-13.6L292.2,255.4z"/>
<path class="st0" d="M285.3,234.4l11.1,8H310l-11.1-8H285.3z"/>
<path class="st0" d="M82.9,297.4l-11.1-8l4.3,13l11.1,8L82.9,297.4z"/>
<path class="st0" d="M65,310.3l11.1-8l-4.3-13l-11.1,8L65,310.3z"/>
<path class="st0" d="M82.9,297.4l4.3,13h13.6l-4.3-13H82.9z"/>
<path class="st0" d="M76.1,318.4l11.1-8l-11.1-8l-11.1,8L76.1,318.4z"/>
<path class="st0" d="M89.7,276.3H76.1l-4.3,13h13.6L89.7,276.3z"/>
<path class="st0" d="M100.8,268.4H87.2l-11.1,8h13.6L100.8,268.4z"/>
<path class="st0" d="M71.8,263.4l4.3,13l11.1-8l-4.3-13L71.8,263.4z"/>
<path class="st0" d="M96.5,297.4l-11.1-8H71.8l11.1,8H96.5z"/>
<path class="st0" d="M89.7,276.3l-4.3,13l11.1,8l4.3-13L89.7,276.3z"/>
<path class="st0" d="M42.9,310.3l4.3-13l-11.1-8l-4.3,13L42.9,310.3z"/>
<path class="st0" d="M47.1,323.3l4.3-13l-4.3-13l-4.3,13L47.1,323.3z"/>
<path class="st0" d="M60.8,297.4H47.1l4.3,13H65L60.8,297.4z"/>
<path class="st0" d="M20.8,310.3l11.1-8l4.3-13l-11.1,8L20.8,310.3z"/>
<path class="st0" d="M11.4,297.4l-4.3,13h13.7l4.3-13H11.4z"/>
<path class="st0" d="M42.9,310.3l-11.1-8l-11.1,8l11.1,8L42.9,310.3z"/>
<path class="st0" d="M47.1,297.4h13.6l11.1-8H58.2L47.1,297.4z"/>
<path class="st0" d="M47.1,281.4l-11.1,8l11.1,8l11.1-8L47.1,281.4z"/>
<path class="st0" d="M60.8,281.4l11.1,8l4.3-13l-11.1-8L60.8,281.4z"/>
<path class="st0" d="M65,268.4l11.1,8l-4.3-13l-11.1-8L65,268.4z"/>
<path class="st0" d="M58.2,289.3h13.6l-11.1-8H47.1L58.2,289.3z"/>
<path class="st0" d="M51.4,268.4l-4.3,13h13.6l4.3-13H51.4z"/>
<path class="st0" d="M89.7,344.4l11.1,8l11.1-8l-11.1-8.1L89.7,344.4z"/>
<path class="st0" d="M76.1,344.4l11.1,8h13.6l-11.1-8H76.1z"/>
<path class="st0" d="M96.5,365.4l4.3-13H87.2l-4.3,13H96.5z"/>
<path class="st0" d="M96.5,323.3l4.3,13l11.1,8l-4.3-13L96.5,323.3z"/>
<path class="st0" d="M111.8,318.4l-11-8.1l-4.3,13l11.1,8L111.8,318.4z"/>
<path class="st0" d="M89.7,344.4l11.1-8l-4.3-13l-11.1,8L89.7,344.4z"/>
<path class="st0" d="M100.8,352.4l-4.3,13l4.3,13l4.3-13L100.8,352.4z"/>
<path class="st0" d="M116,357.3l-4.3-13l-11,8.1l4.3,13L116,357.3z"/>
<path class="st0" d="M111.8,370.3l-11,8.1l11.1,8l11.1-8L111.8,370.3z"/>
<path class="st0" d="M122.9,378.4l-11.1,8h13.6l11.1-8H122.9z"/>
<path class="st0" d="M105,365.4l-4.3,13l11.1-8l4.3-13L105,365.4z"/>
<path class="st0" d="M127.1,365.4l-11.1-8.1l-4.3,13l11.1,8L127.1,365.4z"/>
<path class="st0" d="M87.2,310.3l-11.1,8l-4.3,13l11.1-8L87.2,310.3z"/>
<path class="st0" d="M60.8,323.3l11.1,8l4.3-13l-11.1-8L60.8,323.3z"/>
<path class="st0" d="M96.5,323.3l4.3-13H87.2l-4.3,13H96.5z"/>
<path class="st0" d="M85.5,331.4H71.8l4.3,13h13.6L85.5,331.4z"/>
<path class="st0" d="M82.9,365.4l4.3-13l-11.1-8l-4.3,13L82.9,365.4z"/>
<path class="st0" d="M82.9,323.3l-11.1,8h13.6l11.1-8H82.9z"/>
<path class="st0" d="M31.9,318.4l4.3,13l11.1-8l-4.3-13L31.9,318.4z"/>
<path class="st0" d="M65,310.3H51.4l-4.3,13h13.6L65,310.3z"/>
<path class="st0" d="M25,323.3l11.1,8l-4.3-13l-11.1-8L25,323.3z"/>
<path class="st0" d="M58.2,331.4h13.6l-11.1-8H47.1L58.2,331.4z"/>
<path class="st0" d="M58.2,331.4l-11.1-8l-11.1,8l11.1,8L58.2,331.4z"/>
<path class="st0" d="M65,352.4l11.1-8l-4.3-13l-11.1,8L65,352.4z"/>
<path class="st0" d="M47.1,339.4h13.6l11.1-8H58.2L47.1,339.4z"/>
<path class="st0" d="M116,221.4l-4.3,13h13.6l4.3-13H116z"/>
<path class="st0" d="M105,255.4l-4.3-13l-4.3,13l4.3,13L105,255.4z"/>
<path class="st0" d="M187.5,179.4l-11.1,8H190l11.1-8H187.5z"/>
<path class="st0" d="M169.6,208.4l11.1-8l-4.3-13l-11.1,8L169.6,208.4z"/>
<path class="st0" d="M147.6,208.4h13.6l4.3-13h-13.7L147.6,208.4z"/>
<path class="st0" d="M111.8,302.3l4.3-13l-4.3-13l-4.3,13L111.8,302.3z"/>
<path class="st0" d="M125.5,276.3h-13.7l4.3,13h13.6L125.5,276.3z"/>
<path class="st0" d="M96.5,297.4l4.3,13l11.1-8l-4.3-13L96.5,297.4z"/>
<path class="st0" d="M129.7,289.3h-13.6l-4.3,13h13.6L129.7,289.3z"/>
<path class="st0" d="M100.8,284.4l11.1-8l-11.1-8.1l-11.1,8L100.8,284.4z"/>
<path class="st0" d="M82.9,255.4l4.3,13h13.6l-4.3-13H82.9z"/>
<path class="st0" d="M107.6,289.3l4.3-13l-11.1,8.1l-4.3,13L107.6,289.3z"/>
<path class="st0" d="M147.6,276.3l-11.1-8l4.3,13l11.1,8L147.6,276.3z"/>
<path class="st0" d="M129.7,289.3l11.1-8l-4.3-13l-11,8L129.7,289.3z"/>
<path class="st0" d="M161.2,276.3l4.3-13h-13.7l-4.3,13H161.2z"/>
<path class="st0" d="M122.9,268.4l-11.1,8h13.6l11.1-8H122.9z"/>
<path class="st0" d="M105,255.4l-4.3,13l11.1,8l4.3-13L105,255.4z"/>
<path class="st0" d="M107.6,331.4l4.3,13l4.3-13l-4.3-13L107.6,331.4z"/>
<path class="st0" d="M122.9,378.4h13.6l4.3-13h-13.6L122.9,378.4z"/>
<path class="st0" d="M122.9,310.3h13.6l-11.1-8h-13.6L122.9,310.3z"/>
<path class="st0" d="M129.7,289.3l-4.3,13l11.1,8l4.3-13L129.7,289.3z"/>
<path class="st0" d="M122.9,310.3l-11.1-8l-11,8l11.1,8L122.9,310.3z"/>
<path class="st0" d="M111.8,318.4h13.6l11.1-8h-13.6L111.8,318.4z"/>
<path class="st0" d="M147.6,276.3l4.3,13h13.6l-4.3-13H147.6z"/>
<path class="st0" d="M140.8,297.4l11.1-8l-11.1-8l-11.1,8L140.8,297.4z"/>
<path class="st0" d="M165.5,263.4l-4.3,13l4.3,13l4.3-13L165.5,263.4z"/>
<path class="st0" d="M31.9,234.4l4.3,13l11.1,8l-4.3-13L31.9,234.4z"/>
<path class="st0" d="M36.1,263.4l11.1-8l-11.1-8l-11.1,8L36.1,263.4z"/>
<path class="st0" d="M47.1,229.4l-11.1-8l-4.3,13l11.1,8L47.1,229.4z"/>
<path class="st0" d="M25,255.4l11.1-8l-4.3-13l-11.1,8L25,255.4z"/>
<path class="st0" d="M82.9,255.4l-11.1-8l-11.1,8l11.1,8L82.9,255.4z"/>
<path class="st0" d="M42.9,242.4l4.3,13l4.3-13l-4.3-13L42.9,242.4z"/>
<path class="st0" d="M22.5,289.3h13.6l-4.3-13H18.2L22.5,289.3z"/>
<path class="st0" d="M18.2,276.3h13.6l-11.1-8H7.1L18.2,276.3z"/>
<path class="st0" d="M25,255.4l-4.3,13l11.1,8l4.3-13L25,255.4z"/>
<path class="st0" d="M25,297.4l11.1-8H22.5l-11.1,8H25z"/>
<path class="st0" d="M7.1,284.4l4.3,13l11.1-8l-4.3-13L7.1,284.4z"/>
<path class="st0" d="M42.9,268.4l4.3-13l-11.1,8l-4.3,13L42.9,268.4z"/>
<path class="st0" d="M42.9,268.4l-11.1,8l4.3,13l11.1-8L42.9,268.4z"/>
<path class="st0" d="M65,268.4l-4.3-13H47.1l4.3,13H65z"/>
<path class="st0" d="M47.1,281.4l4.3-13l-4.3-13l-4.3,13L47.1,281.4z"/>
<path class="st0" d="M18.2,208.4l-11.1-8l4.3,13l11.1,8L18.2,208.4z"/>
<path class="st0" d="M18.2,208.4l4.3,13h13.6l-4.3-13H18.2z"/>
<path class="st0" d="M18.2,234.4l-11.1,8h13.7l11.1-8H18.2z"/>
<path class="st0" d="M25,255.4l-4.3-13H7.1l4.3,13H25z"/>
<path class="st0" d="M18.2,234.4h13.6l4.3-13H22.5L18.2,234.4z"/>
<path class="st0" d="M22.5,221.4l-11.1,8l-4.3,13l11.1-8L22.5,221.4z"/>
<path class="st0" d="M11.4,255.4l-4.3,13h13.7l4.3-13H11.4z"/>
<path class="st0" d="M111.8,192.3l-11,8.1l11.1,8l11.1-8L111.8,192.3z"/>
<path class="st0" d="M122.9,200.4l-11.1,8h13.6l11.1-8H122.9z"/>
<path class="st0" d="M129.7,221.4l-4.3-13h-13.6l4.3,13H129.7z"/>
<path class="st0" d="M105,187.4l-4.3,13l11.1-8l4.3-13L105,187.4z"/>
<path class="st0" d="M105,187.4l11.1-8l-4.3-13l-11,8L105,187.4z"/>
<path class="st0" d="M127.1,187.4l-11.1-8l-4.3,13l11.1,8L127.1,187.4z"/>
<path class="st0" d="M107.6,221.4l4.3,13l4.3-13l-4.3-13L107.6,221.4z"/>
<path class="st0" d="M129.7,179.4l11.1,8l-4.3-13l-11.1-8L129.7,179.4z"/>
<path class="st0" d="M147.6,166.4l-11.1,8l4.3,13l11.1-8L147.6,166.4z"/>
<path class="st0" d="M129.7,179.4l-4.3-13h-13.6l4.3,13H129.7z"/>
<path class="st0" d="M125.5,166.4l11.1,8l11.1-8l-11.1-8L125.5,166.4z"/>
<path class="st0" d="M122.9,200.4h13.6l4.3-13h-13.6L122.9,200.4z"/>
<path class="st0" d="M116,179.4l11.1,8h13.7l-11.1-8H116z"/>
<path class="st0" d="M151.8,179.4h13.6l-4.3-13h-13.6L151.8,179.4z"/>
<path class="st0" d="M165.5,179.4h-13.7l-11.1,8h13.6L165.5,179.4z"/>
<path class="st0" d="M165.5,195.4l11.1-8l-11.1-8l-11.1,8L165.5,195.4z"/>
<path class="st0" d="M151.8,195.4l-11.1-8l-4.3,13l11.1,8L151.8,195.4z"/>
<path class="st0" d="M154.4,187.4h-13.6l11.1,8h13.6L154.4,187.4z"/>
<path class="st0" d="M85.5,221.4H71.8l4.3,13h13.6L85.5,221.4z"/>
<path class="st0" d="M25,187.4H11.4l-4.3,13h13.7L25,187.4z"/>
<path class="st0" d="M36.1,179.4H22.5l-11.1,8H25L36.1,179.4z"/>
<path class="st0" d="M7.1,174.4l4.3,13l11.1-8l-4.3-13L7.1,174.4z"/>
<path class="st0" d="M31.9,208.4l-11.1-8H7.1l11.1,8H31.9z"/>
<path class="st0" d="M25,187.4l-4.3,13l11.1,8l4.3-13L25,187.4z"/>
<path class="st0" d="M18.2,166.4l4.3,13h13.6l-4.3-13H18.2z"/>
<path class="st0" d="M31.9,166.4l4.3,13l4.3-13l-4.3-13L31.9,166.4z"/>
<path class="st0" d="M421.5,9.3l-11.1-8l4.3,13l11.1,8L421.5,9.3z"/>
<path class="st0" d="M403.7,22.3l11.1-8l-4.3-13l-11.1,8L403.7,22.3z"/>
<path class="st0" d="M454.6,69.3l-4.3-13l-11.1,8l4.3,13L454.6,69.3z"/>
<path class="st0" d="M443.7,77.3l-4.3-13l-4.3,13l4.3,13L443.7,77.3z"/>
<path class="st0" d="M421.5,77.3h13.6l4.3-13h-13.6L421.5,77.3z"/>
<path class="st0" d="M461.5,64.3l-11.1-8l4.3,13l11.1,8L461.5,64.3z"/>
<path class="st0" d="M461.5,64.3l4.3,13h13.6l-4.3-13H461.5z"/>
<path class="st0" d="M454.6,85.4l11.1-8l-11.1-8l-11.1,8L454.6,85.4z"/>
<path class="st0" d="M428.3,56.3h-13.6l11.1,8h13.6L428.3,56.3z"/>
<path class="st0" d="M421.5,77.3l4.3-13l-11.1-8l-4.3,13L421.5,77.3z"/>
<path class="st0" d="M428.3,56.3l11.1,8l11.1-8l-11.1-8L428.3,56.3z"/>
<path class="st0" d="M421.5,35.3l-11.1,8l4.3,13l11.1-8L421.5,35.3z"/>
<path class="st0" d="M425.8,22.3l-11.1,8l-4.3,13l11.1-8L425.8,22.3z"/>
<path class="st0" d="M399.5,35.3l11.1,8l4.3-13l-11.1-8L399.5,35.3z"/>
<path class="st0" d="M439.4,48.3h-13.6l-11.1,8h13.6L439.4,48.3z"/>
<path class="st0" d="M421.5,35.3l4.3,13h13.6l-4.3-13H421.5z"/>
<path class="st0" d="M461.5,90.3l-11.1,8h13.7l11.1-8H461.5z"/>
<path class="st0" d="M461.5,90.3h13.6l4.3-13h-13.6L461.5,90.3z"/>
<path class="st0" d="M443.7,77.3l-4.3,13l11.1,8l4.3-13L443.7,77.3z"/>
<path class="st0" d="M425.8,90.3h13.6l-4.3-13h-13.6L425.8,90.3z"/>
<path class="st0" d="M465.7,77.3l-11.1,8l-4.3,13l11.1-8L465.7,77.3z"/>
<path class="st0" d="M428.3,98.3l11.1-8h-13.6l-11.1,8H428.3z"/>
<path class="st0" d="M443.7,9.3l-4.3,13l11.1-8l4.3-13L443.7,9.3z"/>
<path class="st0" d="M461.5,22.3l-11.1-8l-11.1,8l11.1,8L461.5,22.3z"/>
<path class="st0" d="M465.7,9.3l-11.1-8l-4.3,13l11.1,8L465.7,9.3z"/>
<path class="st0" d="M421.5,9.3l4.3,13h13.6l-4.3-13C435.1,9.3,421.5,9.3,421.5,9.3z"/>
<path class="st0" d="M414.7,30.3l11.1-8l-11.1-8l-11.1,8L414.7,30.3z"/>
<path class="st0" d="M439.4-3.7l-4.3,13l4.3,13l4.3-13L439.4-3.7z"/>
<path class="st0" d="M468.4,43.3h-13.6l-4.3,13h13.6L468.4,43.3z"/>
<path class="st0" d="M479.4,35.3h-13.6l-11.1,8h13.7L479.4,35.3z"/>
<path class="st0" d="M450.5,30.3l4.3,13l11.1-8l-4.3-13L450.5,30.3z"/>
<path class="st0" d="M475.2,64.3l-11.1-8h-13.6l11.1,8H475.2z"/>
<path class="st0" d="M468.4,43.3l-4.3,13l11.1,8l4.3-13L468.4,43.3z"/>
<path class="st0" d="M454.6,43.3l-4.3-13l-11.1-8l4.3,13L454.6,43.3z"/>
<path class="st0" d="M439.4,48.3l11.1,8l4.3-13l-11.1-8L439.4,48.3z"/>
<path class="st0" d="M435.1,35.3l4.3-13h-13.6l-4.3,13H435.1z"/>
<path class="st0" d="M443.7,35.3l-4.3-13l-4.3,13l4.3,13L443.7,35.3z"/>
<path class="st0" d="M475.2,22.3l4.3-13h-13.7l-4.3,13H475.2z"/>
<path class="st0" d="M479.4,51.3l11.1-8l-11.1-8l-11.1,8L479.4,51.3z"/>
<path class="st0" d="M461.5,22.3l4.3,13h13.6l-4.3-13H461.5z"/>
<path class="st0" d="M486.2,56.3l4.3-13l-11.1,8l-4.3,13L486.2,56.3z"/>
<path class="st0" d="M486.2,56.3l-11.1,8l4.3,13l11.1-8L486.2,56.3z"/>
<path class="st0" d="M483.6,22.3l-4.3-13l-4.3,13l4.3,13L483.6,22.3z"/>
<path class="st0" d="M483.6,22.3l-4.3,13l11.1,8l4.3-13L483.6,22.3z"/>
<path class="st0" d="M494.7,30.3l-4.3-13l-11.1-8l4.3,13L494.7,30.3z"/>
<path class="st0" d="M501.5,9.3l-11.1,8l4.3,13l11.1-8L501.5,9.3z"/>
<path class="st0" d="M486.2,166.4l4.3-13l-11.1-8l-4.3,13L486.2,166.4z"/>
<path class="st0" d="M504.1,153.4h-13.6l4.3,13h13.6L504.1,153.4z"/>
<path class="st0" d="M464.1,166.4l11.1-8l4.3-13l-11.1,8L464.1,166.4z"/>
<path class="st0" d="M490.4,137.3l-11.1,8l11.1,8l11.1-8L490.4,137.3z"/>
<path class="st0" d="M494.7,124.3l-4.3,13H504l4.3-13H494.7z"/>
<path class="st0" d="M490.4,69.3l-11.1,8l11.1,8l11.1-8L490.4,69.3z"/>
<path class="st0" d="M508.3,98.3l-4.3-13h-13.6l4.3,13H508.3z"/>
<path class="st0" d="M490.4,85.4l-11.1-8l-4.3,13l11.1,8L490.4,85.4z"/>
<path class="st0" d="M494.7,98.3l-4.3,13H504l4.3-13H494.7z"/>
<path class="st0" d="M486.2,124.3l-11.1,8l4.3,13l11.1-8L486.2,124.3z"/>
<path class="st0" d="M508.3,124.3l-4.3-13h-13.6l4.3,13H508.3z"/>
<path class="st0" d="M494.7,56.3l-4.3,13H504l4.3-13C508.3,56.3,494.7,56.3,494.7,56.3z"/>
<path class="st0" d="M508.3,56.3l-4.3-13h-13.6l4.3,13H508.3z"/>
<path class="st0" d="M490.4,69.3l4.3-13l-4.3-13l-4.3,13L490.4,69.3z"/>
<path class="st0" d="M494.7,30.3l-4.3,13H504l4.3-13H494.7z"/>
<path class="st0" d="M265.8,22.3l4.3-13h-13.6l-4.3,13H265.8z"/>
<path class="st0" d="M230.2,22.3l11.1-8l4.3-13l-11.1,8L230.2,22.3z"/>
<path class="st0" d="M256.5,9.3l-11.1-8l-4.3,13l11.1,8L256.5,9.3z"/>
<path class="st0" d="M363.7,9.3h-13.6l-4.3,13h13.6L363.7,9.3z"/>
<path class="st0" d="M381.6,22.3l4.3-13l-11.1-8l-4.3,13L381.6,22.3z"/>
<path class="st0" d="M385.8,35.3l4.3-13l-4.3-13l-4.3,13L385.8,35.3z"/>
<path class="st0" d="M399.5,9.3h-13.7l4.3,13h13.6L399.5,9.3z"/>
<path class="st0" d="M359.5,22.3l11.1-8l4.3-13l-11.1,8L359.5,22.3z"/>
<path class="st0" d="M381.6,22.3l-11.1-8l-11.1,8l11.1,8L381.6,22.3z"/>
<path class="st0" d="M316.9,1.3l-11.1,8l4.3,13l11.1-8L316.9,1.3z"/>
<path class="st0" d="M334.8,14.2h-13.6l-11.1,8h13.6L334.8,14.2z"/>
<path class="st0" d="M334.8,30.3l11.1-8l-11.1-8l-11.1,8L334.8,30.3z"/>
<path class="st0" d="M296.4,22.3H310l-4.3-13h-13.6L296.4,22.3z"/>
<path class="st0" d="M285.3,14.2l-4.3-13l-11.1,8l4.3,13L285.3,14.2z"/>
<path class="st0" d="M274.4,22.3l-4.3-13l-4.3,13l4.3,13L274.4,22.3z"/>
<path class="st0" d="M292.2,9.3l-11.1-8l4.3,13l11.1,8L292.2,9.3z"/>
<path class="st0" d="M285.3,30.3l11.1-8l-11.1-8l-11.1,8L285.3,30.3z"/>
<path class="st0" d="M334.8,14.2l11.1,8l4.3-13l-11.1-8L334.8,14.2z"/>
<path class="st0" d="M403.7,90.3l-4.3-13h-13.6l4.3,13H403.7z"/>
<path class="st0" d="M414.7,98.3l-4.3-13l-11.1-8l4.3,13L414.7,98.3z"/>
<path class="st0" d="M410.5,69.3l-11.1,8l11.1,8l11.1-8L410.5,69.3z"/>
<path class="st0" d="M385.8,103.3l4.3-13l-4.3-13l-4.3,13L385.8,103.3z"/>
<path class="st0" d="M370.5,98.3l4.3,13l11.1-8l-4.3-13L370.5,98.3z"/>
<path class="st0" d="M403.7,90.3h-13.6l-4.3,13h13.6L403.7,90.3z"/>
<path class="st0" d="M399.5,77.3l11.1-8l4.3-13l-11.1,8L399.5,77.3z"/>
<path class="st0" d="M390,64.3l-4.3,13h13.6l4.3-13H390z"/>
<path class="st0" d="M401.1,56.3h13.6l-4.3-13h-13.6L401.1,56.3z"/>
<path class="st0" d="M396.8,43.3h13.6l-11.1-8h-13.6L396.8,43.3z"/>
<path class="st0" d="M403.7,64.3l11.1-8h-13.6l-11.1,8H403.7z"/>
<path class="st0" d="M385.8,51.3l4.3,13l11.1-8l-4.3-13L385.8,51.3z"/>
<path class="st0" d="M385.8,103.3l-11.1,8l11.1,8l11.1-8L385.8,103.3z"/>
<path class="st0" d="M421.5,77.3l-11.1,8l4.3,13l11.1-8L421.5,77.3z"/>
<path class="st0" d="M443.7,145.3l-4.3-13l-4.3,13l4.3,13L443.7,145.3z"/>
<path class="st0" d="M421.5,119.4l-11.1-8l4.3,13l11.1,8L421.5,119.4z"/>
<path class="st0" d="M350,35.3l11.1,8h13.6l-11.1-8H350z"/>
<path class="st0" d="M370.5,56.3l4.3-13h-13.6l-4.3,13H370.5z"/>
<path class="st0" d="M359.5,22.3h-13.6l4.3,13h13.6L359.5,22.3z"/>
<path class="st0" d="M356.8,56.3l4.3-13l-11.1-8l-4.3,13L356.8,56.3z"/>
<path class="st0" d="M370.5,30.3l4.3,13l11.1-8l-4.3-13L370.5,30.3z"/>
<path class="st0" d="M403.7,22.3h-13.6l-4.3,13h13.6L403.7,22.3z"/>
<path class="st0" d="M363.7,35.3l11.1,8l-4.3-13l-11.1-8L363.7,35.3z"/>
<path class="st0" d="M374.7,85.4l11.1-8l-11.1-8l-11.1,8L374.7,85.4z"/>
<path class="st0" d="M363.7,77.3l11.1-8h-13.6l-11.1,8H363.7z"/>
<path class="st0" d="M356.8,56.3l4.3,13h13.6l-4.3-13C370.4,56.3,356.8,56.3,356.8,56.3z"/>
<path class="st0" d="M381.6,90.3l4.3-13l-11.1,8l-4.3,13L381.6,90.3z"/>
<path class="st0" d="M359.5,90.3l11.1,8l4.3-13l-11.1-8L359.5,90.3z"/>
<path class="st0" d="M379,56.3l-4.3-13l-4.3,13l4.3,13L379,56.3z"/>
<path class="st0" d="M379,56.3l-4.3,13l11.1,8l4.3-13L379,56.3z"/>
<path class="st0" d="M396.8,43.3l-11.1-8l-11.1,8l11.1,8L396.8,43.3z"/>
<path class="st0" d="M390,64.3l-4.3-13l-11.1-8l4.3,13L390,64.3z"/>
<path class="st0" d="M321.1,30.3l-11.1-8l-4.3,13l11.1,8L321.1,30.3z"/>
<path class="st0" d="M316.9,43.3l-11.1-8l4.3,13l11.1,8L316.9,43.3z"/>
<path class="st0" d="M299,56.3l11.1-8l-4.3-13l-11.1,8L299,56.3z"/>
<path class="st0" d="M323.7,22.3h-13.6l11.1,8h13.6L323.7,22.3z"/>
<path class="st0" d="M330.5,43.3l4.3-13h-13.6l-4.3,13H330.5z"/>
<path class="st0" d="M292.2,35.3l-11.1,8h13.6l11.1-8H292.2z"/>
<path class="st0" d="M299,56.3l-4.3-13h-13.6l4.3,13H299z"/>
<path class="st0" d="M292.2,35.3h13.6l4.3-13h-13.6L292.2,35.3z"/>
<path class="st0" d="M274.4,22.3l-4.3,13l11.1,8l4.3-13L274.4,22.3z"/>
<path class="st0" d="M256.5,35.3h13.6l-4.3-13h-13.6L256.5,35.3z"/>
<path class="st0" d="M296.4,22.3l-11.1,8l-4.3,13l11.1-8L296.4,22.3z"/>
<path class="st0" d="M339,43.3l-4.3,13l11.1-8l4.3-13L339,43.3z"/>
<path class="st0" d="M356.8,56.3l-11-8l-11.1,8l11.1,8L356.8,56.3z"/>
<path class="st0" d="M339,43.3l11.1-8l-4.3-13l-11.1,8L339,43.3z"/>
<path class="st0" d="M316.9,43.3l4.3,13h13.6l-4.3-13H316.9z"/>
<path class="st0" d="M310.1,64.3l11.1-8l-11.1-8l-11.1,8L310.1,64.3z"/>
<path class="st0" d="M334.8,30.3l-4.3,13l4.3,13l4.3-13L334.8,30.3z"/>
<path class="st0" d="M363.7,77.3h-13.6l-4.3,13h13.6L363.7,77.3z"/>
<path class="st0" d="M345.9,64.3l4.3,13l11.1-8l-4.3-13L345.9,64.3z"/>
<path class="st0" d="M370.5,98.3l-11.1-8h-13.5l11.1,8H370.5z"/>
<path class="st0" d="M361.1,111.3h13.6l-4.3-13h-13.6L361.1,111.3z"/>
<path class="st0" d="M350,77.3l-4.3-13l-11.1-8l4.3,13L350,77.3z"/>
<path class="st0" d="M334.8,82.3l11.1,8l4.3-13l-11.1-8L334.8,82.3z"/>
<path class="st0" d="M330.5,69.3l4.3-13h-13.6l-4.3,13H330.5z"/>
<path class="st0" d="M316.9,69.3l4.3-13l-11.1,8l-4.3,13L316.9,69.3z"/>
<path class="st0" d="M339,69.3l-4.3-13l-4.3,13l4.3,13L339,69.3z"/>
<path class="st0" d="M321.1,82.3h13.7l-4.3-13h-13.6L321.1,82.3z"/>
<path class="st0" d="M25,9.3H11.4l-4.3,13h13.7L25,9.3z"/>
<path class="st0" d="M212.3,77.3l4.3-13l-11.1-8l-4.3,13L212.3,77.3z"/>
<path class="st0" d="M216.5,90.3l4.3-13l-4.3-13l-4.3,13L216.5,90.3z"/>
<path class="st0" d="M230.2,64.3h-13.6l4.3,13h13.6L230.2,64.3z"/>
<path class="st0" d="M190.2,77.3l11.1-8l4.3-13l-11.1,8L190.2,77.3z"/>
<path class="st0" d="M212.3,77.3l-11.1-8l-11.1,8l11.1,8L212.3,77.3z"/>
<path class="st0" d="M216.5,64.3h13.6l11.1-8h-13.6L216.5,64.3z"/>
<path class="st0" d="M245.4,69.3l-4.3-13l-11.1,8l4.3,13L245.4,69.3z"/>
<path class="st0" d="M216.5,48.3l-11.1,8l11.1,8l11.1-8L216.5,48.3z"/>
<path class="st0" d="M230.2,48.3l11.1,8l4.3-13l-11.1-8L230.2,48.3z"/>
<path class="st0" d="M234.3,35.3l11.1,8l-4.3-13l-11.1-8L234.3,35.3z"/>
<path class="st0" d="M252.2,22.3l-11.1,8l4.3,13l11.1-8L252.2,22.3z"/>
<path class="st0" d="M227.5,56.3h13.6l-11.1-8h-13.6L227.5,56.3z"/>
<path class="st0" d="M220.7,35.3l-4.3,13H230l4.3-13H220.7z"/>
<path class="st0" d="M180.7,90.3l11.1,8h13.6l-11.1-8H180.7z"/>
<path class="st0" d="M201.2,85.4l4.3,13l11.1-8l-4.3-13L201.2,85.4z"/>
<path class="st0" d="M234.3,77.3h-13.6l-4.3,13H230L234.3,77.3z"/>
<path class="st0" d="M194.4,90.3l11.1,8l-4.3-13l-11.1-8L194.4,90.3z"/>
<path class="st0" d="M212.3,145.3l4.3-13l-11.1,8l-4.3,13L212.3,145.3z"/>
<path class="st0" d="M227.5,98.3l-11.1-8l-11.1,8l11.1,8L227.5,98.3z"/>
<path class="st0" d="M241.1,98.3l-11.1-8h-13.6l11.1,8H241.1z"/>
<path class="st0" d="M227.5,98.3l-11.1,8l4.3,13l11.1-8L227.5,98.3z"/>
<path class="st0" d="M201.2,1.3l4.3,13l11.1,8l-4.3-13L201.2,1.3z"/>
<path class="st0" d="M205.4,30.3l11.1-8l-11.1-8l-11.1,8L205.4,30.3z"/>
<path class="st0" d="M194.4,22.3l11.1-8l-4.3-13l-11.1,8L194.4,22.3z"/>
<path class="st0" d="M220.7,9.3l-4.3,13H230l4.3-13C234.3,9.3,220.7,9.3,220.7,9.3z"/>
<path class="st0" d="M252.2,22.3l-11.1-8l-11.1,8l11.1,8L252.2,22.3z"/>
<path class="st0" d="M212.3,9.3l4.3,13l4.3-13l-4.3-13L212.3,9.3z"/>
<path class="st0" d="M191.8,56.3h13.6l-4.3-13h-13.6L191.8,56.3z"/>
<path class="st0" d="M187.5,43.3h13.6l-11.1-8h-13.6L187.5,43.3z"/>
<path class="st0" d="M194.4,22.3l-4.3,13l11.1,8l4.3-13L194.4,22.3z"/>
<path class="st0" d="M194.4,64.3l11.1-8h-13.7l-11.1,8H194.4z"/>
<path class="st0" d="M176.5,51.3l4.3,13l11.1-8l-4.3-13L176.5,51.3z"/>
<path class="st0" d="M212.3,35.3l4.3-13l-11.1,8l-4.3,13L212.3,35.3z"/>
<path class="st0" d="M212.3,35.3l-11.1,8l4.3,13l11.1-8L212.3,35.3z"/>
<path class="st0" d="M234.3,35.3l-4.3-13h-13.6l4.3,13H234.3z"/>
<path class="st0" d="M216.5,48.3l4.3-13l-4.3-13l-4.3,13L216.5,48.3z"/>
<path class="st0" d="M194.4,22.3l-4.3-13h-13.6l4.3,13H194.4z"/>
<path class="st0" d="M187.5,43.3l-11.1-8l-11.1,8l11.1,8L187.5,43.3z"/>
<path class="st0" d="M180.7,22.3l-4.3,13H190l4.3-13H180.7z"/>
<path class="st0" d="M180.7,64.3l-4.3-13l-11.1-8l4.3,13L180.7,64.3z"/>
<path class="st0" d="M176.5,35.3l4.3-13l-4.3-13l-4.3,13L176.5,35.3z"/>
<path class="st0" d="M161.2,30.3l4.3,13l11.1-8l-4.3-13L161.2,30.3z"/>
<path class="st0" d="M172.3,22.3l4.3-13l-11.1,8l-4.3,13L172.3,22.3z"/>
<path class="st0" d="M150.1,22.3l11.1,8l4.3-13l-11.1-8L150.1,22.3z"/>
<path class="st0" d="M230.2,158.3l11.1,8l4.3-13l-11.1-8L230.2,158.3z"/>
<path class="st0" d="M227.5,166.4h13.6l-11.1-8h-13.6L227.5,166.4z"/>
<path class="st0" d="M220.7,145.3l-4.3,13H230l4.3-13H220.7z"/>
<path class="st0" d="M259,153.4l11.1-8h-13.6l-11.1,8H259z"/>
<path class="st0" d="M259,153.4h-13.6l-4.3,13h13.7L259,153.4z"/>
<path class="st0" d="M276.9,166.4l4.3-13l-11.1-8l-4.3,13L276.9,166.4z"/>
<path class="st0" d="M254.9,166.4l11.1-8l4.3-13l-11.1,8L254.9,166.4z"/>
<path class="st0" d="M265.8,90.3l4.3-13h-13.6l-4.3,13H265.8z"/>
<path class="st0" d="M252.2,90.3l4.3-13l-11.1,8l-4.3,13L252.2,90.3z"/>
<path class="st0" d="M234.3,77.3l11.1,8l11.1-8l-11.1-8L234.3,77.3z"/>
<path class="st0" d="M274.4,90.3l-4.3-13l-4.3,13l4.3,13L274.4,90.3z"/>
<path class="st0" d="M274.4,90.3l-4.3,13l11.1,8l4.3-13L274.4,90.3z"/>
<path class="st0" d="M256.5,103.3h13.6l-4.3-13h-13.6L256.5,103.3z"/>
<path class="st0" d="M252.2,64.3l-11.1-8l4.3,13l11.1,8L252.2,64.3z"/>
<path class="st0" d="M252.2,64.3l4.3,13h13.6l-4.3-13H252.2z"/>
<path class="st0" d="M259,43.3h-13.6l-4.3,13h13.7L259,43.3z"/>
<path class="st0" d="M270.1,35.3h-13.6l-11.1,8H259L270.1,35.3z"/>
<path class="st0" d="M265.8,64.3l-11.1-8h-13.6l11.1,8H265.8z"/>
<path class="st0" d="M259,43.3l-4.3,13l11.1,8l4.3-13L259,43.3z"/>
<path class="st0" d="M259,111.3h-13.6l11.1,8h13.6L259,111.3z"/>
<path class="st0" d="M259,111.3l11.1,8l11.1-8l-11.1-8L259,111.3z"/>
<path class="st0" d="M252.2,90.3l-11.1,8l4.3,13l11.1-8L252.2,90.3z"/>
<path class="st0" d="M230.2,90.3l11.1,8l4.3-13l-11.1-8L230.2,90.3z"/>
<path class="st0" d="M270.1,103.3h-13.6l-11.1,8H259L270.1,103.3z"/>
<path class="st0" d="M216.5,158.3l4.3-13l-4.3-13l-4.3,13L216.5,158.3z"/>
<path class="st0" d="M231.7,111.3h13.6l-4.3-13h-13.6L231.7,111.3z"/>
<path class="st0" d="M234.3,119.4l11.1-8h-13.6l-11.1,8H234.3z"/>
<path class="st0" d="M359.5,132.4h-13.6l4.3,13h13.6L359.5,132.4z"/>
<path class="st0" d="M363.7,145.3h-13.6l11.1,8h13.6L363.7,145.3z"/>
<path class="st0" d="M356.8,166.4l4.3-13l-11.1-8l-4.3,13L356.8,166.4z"/>
<path class="st0" d="M363.7,145.3l11.1,8l11.1-8l-11.1-8L363.7,145.3z"/>
<path class="st0" d="M370.5,166.4l4.3-13h-13.6l-4.3,13H370.5z"/>
<path class="st0" d="M410.5,153.4l-11.1-8h-13.6l11.1,8H410.5z"/>
<path class="st0" d="M401.1,166.4h13.6l-4.3-13h-13.6L401.1,166.4z"/>
<path class="st0" d="M390,158.3l-4.3-13l-11.1,8l4.3,13L390,158.3z"/>
<path class="st0" d="M396.8,153.4l-11.1-8l4.3,13l11.1,8L396.8,153.4z"/>
<path class="st0" d="M292.2,77.3l-11.1-8l-11.1,8l11.1,8L292.2,77.3z"/>
<path class="st0" d="M305.8,77.3l-11.1-8h-13.6l11.1,8H305.8z"/>
<path class="st0" d="M285.3,56.3l-4.3,13h13.6l4.3-13C298.9,56.3,285.3,56.3,285.3,56.3z"/>
<path class="st0" d="M285.3,98.3l-4.3-13l-11.1-8l4.3,13L285.3,98.3z"/>
<path class="st0" d="M292.2,77.3l-11.1,8l4.3,13l11.1-8L292.2,77.3z"/>
<path class="st0" d="M281.2,69.3l4.3-13l-4.3-13l-4.3,13L281.2,69.3z"/>
<path class="st0" d="M265.8,64.3l4.3,13l11.1-8l-4.3-13L265.8,64.3z"/>
<path class="st0" d="M270.1,51.3l11.1-8l-11.1-8l-11.1,8L270.1,51.3z"/>
<path class="st0" d="M276.9,56.3l4.3-13l-11.1,8l-4.3,13L276.9,56.3z"/>
<path class="st0" d="M296.4,90.3H310l-4.3-13h-13.6L296.4,90.3z"/>
<path class="st0" d="M299,56.3l-4.3,13l11.1,8l4.3-13L299,56.3z"/>
<path class="st0" d="M299,98.3l11.1-8h-13.6l-11.1,8H299z"/>
<path class="st0" d="M356.8,98.3l-11.1-8l4.3,13l11.1,8L356.8,98.3z"/>
<path class="st0" d="M323.7,90.3h-13.6l11.1,8h13.6L323.7,90.3z"/>
<path class="st0" d="M323.7,90.3l11.1,8l11.1-8l-11.1-8L323.7,90.3z"/>
<path class="st0" d="M316.9,69.3l-11.1,8l4.3,13l11.1-8L316.9,69.3z"/>
<path class="st0" d="M334.8,82.3h-13.6l-11.1,8h13.6L334.8,82.3z"/>
<path class="st0" d="M87.2,22.3l-11.1,8l-4.3,13l11.1-8L87.2,22.3z"/>
<path class="st0" d="M60.8,35.3l11.1,8l4.3-13l-11.1-8L60.8,35.3z"/>
<path class="st0" d="M96.5,35.3l4.3-13H87.2l-4.3,13H96.5z"/>
<path class="st0" d="M65,22.3l11.1,8l11.1-8l-11.1-8.1L65,22.3z"/>
<path class="st0" d="M85.5,43.3H71.8l4.3,13h13.6L85.5,43.3z"/>
<path class="st0" d="M89.7,56.3H76.1l11.1,8h13.6L89.7,56.3z"/>
<path class="st0" d="M82.9,77.3l4.3-13l-11.1-8l-4.3,13L82.9,77.3z"/>
<path class="st0" d="M82.9,35.3l-11.1,8h13.6l11.1-8H82.9z"/>
<path class="st0" d="M100.8,48.3l-4.3-13l-11.1,8l4.3,13L100.8,48.3z"/>
<path class="st0" d="M31.9,30.3l4.3,13l11.1-8l-4.3-13L31.9,30.3z"/>
<path class="st0" d="M42.9,22.3l4.3,13l4.3-13l-4.3-13L42.9,22.3z"/>
<path class="st0" d="M65,22.3H51.4l-4.3,13h13.6L65,22.3z"/>
<path class="st0" d="M25,35.3l11.1,8l-4.3-13l-11.1-8L25,35.3z"/>
<path class="st0" d="M25,35.3l-4.3-13H7.1l4.3,13H25z"/>
<path class="st0" d="M31.9,14.2l-11.1,8l11.1,8l11.1-8L31.9,14.2z"/>
<path class="st0" d="M58.2,43.3h13.6l-11.1-8H47.1L58.2,43.3z"/>
<path class="st0" d="M58.2,43.3l-11.1-8l-11.1,8l11.1,8L58.2,43.3z"/>
<path class="st0" d="M65,64.3l11.1-8l-4.3-13l-11.1,8L65,64.3z"/>
<path class="st0" d="M60.8,77.3l11.1-8l4.3-13l-11.2,8L60.8,77.3z"/>
<path class="st0" d="M47.1,51.3h13.6l11.1-8H58.2L47.1,51.3z"/>
<path class="st0" d="M65,64.3l-4.3-13H47.1l4.3,13H65z"/>
<path class="st0" d="M107.6,1.3l-11.1,8l4.3,13l11.1-8L107.6,1.3z"/>
<path class="st0" d="M82.9,9.3l-11.1-8l4.3,13l11.1,8L82.9,9.3z"/>
<path class="st0" d="M65,22.3l11.1-8l-4.3-13l-11.1,8L65,22.3z"/>
<path class="st0" d="M82.9,9.3l4.3,13h13.6l-4.3-13C96.5,9.3,82.9,9.3,82.9,9.3z"/>
<path class="st0" d="M42.9,22.3l4.3-13l-11.1-8l-4.3,13L42.9,22.3z"/>
<path class="st0" d="M60.8,9.3H47.1l4.3,13H65L60.8,9.3z"/>
<path class="st0" d="M20.8,22.3l11.1-8l4.3-13l-11.1,8L20.8,22.3z"/>
<path class="st0" d="M129.7,111.3l11.1-8l-4.3-13l-11.1,8L129.7,111.3z"/>
<path class="st0" d="M122.9,90.3l-11.1,8h13.6l11.1-8H122.9z"/>
<path class="st0" d="M129.7,111.3l-4.3-13h-13.6l4.3,13H129.7z"/>
<path class="st0" d="M122.9,90.3h13.6l4.3-13h-13.6L122.9,90.3z"/>
<path class="st0" d="M105,77.3l-4.3,13l11.1,8l4.3-13L105,77.3z"/>
<path class="st0" d="M100.8,64.3l-4.3,13l4.3,13l4.3-13L100.8,64.3z"/>
<path class="st0" d="M87.2,90.3h13.6l-4.3-13H82.9L87.2,90.3z"/>
<path class="st0" d="M127.1,77.3l-11.1,8l-4.3,13l11.1-8L127.1,77.3z"/>
<path class="st0" d="M105,77.3l11.1,8l11.1-8l-11.1-8L105,77.3z"/>
<path class="st0" d="M201.2,153.4l-11.1-8h-13.6l11.1,8H201.2z"/>
<path class="st0" d="M107.6,43.3l4.3,13l4.3-13l-4.3-13L107.6,43.3z"/>
<path class="st0" d="M129.7,43.3h-13.6l-4.3,13h13.6L129.7,43.3z"/>
<path class="st0" d="M107.6,43.3l4.3-13l-11.1-8l-4.3,13L107.6,43.3z"/>
<path class="st0" d="M125.5,30.3h-13.7l4.3,13h13.6L125.5,30.3z"/>
<path class="st0" d="M89.7,56.3l11.1,8l11.1-8l-11.1-8L89.7,56.3z"/>
<path class="st0" d="M96.5,77.3l4.3-13H87.2l-4.3,13H96.5z"/>
<path class="st0" d="M96.5,35.3l4.3,13l11.1,8l-4.3-13L96.5,35.3z"/>
<path class="st0" d="M147.6,56.3l-11.1,8l4.3,13l11.1-8L147.6,56.3z"/>
<path class="st0" d="M151.8,43.3l-11.1,8l-4.3,13l11.1-8L151.8,43.3z"/>
<path class="st0" d="M125.5,56.3l11.1,8l4.3-13l-11.1-8L125.5,56.3z"/>
<path class="st0" d="M136.5,64.3l-11.1-8h-13.6l11.1,8H136.5z"/>
<path class="st0" d="M127.1,77.3h13.7l-4.3-13h-13.6L127.1,77.3z"/>
<path class="st0" d="M116,69.3l-4.3-13l-11,8l4.3,13L116,69.3z"/>
<path class="st0" d="M122.9,64.3l-11.1-8l4.3,13l11.1,8L122.9,64.3z"/>
<path class="st0" d="M111.8,30.3h13.6l11.1-8h-13.6L111.8,30.3z"/>
<path class="st0" d="M140.8,35.3l-4.3-13l-11.1,8l4.3,13L140.8,35.3z"/>
<path class="st0" d="M111.8,14.2l-11,8.1l11.1,8l11.1-8L111.8,14.2z"/>
<path class="st0" d="M125.5,14.2l11.1,8l4.3-13l-11.1-8L125.5,14.2z"/>
<path class="st0" d="M122.9,22.3h13.6l-11-8.1h-13.7L122.9,22.3z"/>
<path class="st0" d="M161.2,56.3l4.3-13h-13.7l-4.3,13H161.2z"/>
<path class="st0" d="M129.7,43.3l11.1,8l11.1-8l-11.1-8L129.7,43.3z"/>
<path class="st0" d="M147.6,30.3l-11.1-8l4.3,13l11.1,8L147.6,30.3z"/>
<path class="st0" d="M147.6,30.3l4.3,13h13.6l-4.3-13C161.2,30.3,147.6,30.3,147.6,30.3z"/>
<path class="st0" d="M154.4,9.3h-13.6l-4.3,13h13.6L154.4,9.3z"/>
<path class="st0" d="M161.2,30.3l-11.1-8h-13.6l11.1,8H161.2z"/>
<path class="st0" d="M42.9,90.3l4.3-13l-11.1,8l-4.3,13L42.9,90.3z"/>
<path class="st0" d="M25,77.3l11.1,8l11.1-8l-11.1-8L25,77.3z"/>
<path class="st0" d="M42.9,90.3l-11.1,8l4.3,13l11.1-8L42.9,90.3z"/>
<path class="st0" d="M20.8,90.3l11.1,8l4.3-13l-11.1-8L20.8,90.3z"/>
<path class="st0" d="M65,90.3l-4.3-13H47.1l4.3,13H65z"/>
<path class="st0" d="M76.1,98.3l-4.3-13l-11.1-8l4.3,13L76.1,98.3z"/>
<path class="st0" d="M71.8,69.3l-11.1,8l11.1,8l11.1-8L71.8,69.3z"/>
<path class="st0" d="M47.1,103.3l4.3-13l-4.3-13l-4.3,13L47.1,103.3z"/>
<path class="st0" d="M65,90.3H51.4l-4.3,13h13.6L65,90.3z"/>
<path class="st0" d="M18.2,56.3h13.6l4.3-13H22.5L18.2,56.3z"/>
<path class="st0" d="M7.1,64.3h13.7l11.1-8H18.2L7.1,64.3z"/>
<path class="st0" d="M36.1,69.3l-4.3-13l-11.1,8l4.3,13L36.1,69.3z"/>
<path class="st0" d="M11.4,35.3l11.1,8h13.6l-11.1-8H11.4z"/>
<path class="st0" d="M18.2,56.3l4.3-13l-11.1-8l-4.3,13L18.2,56.3z"/>
<path class="st0" d="M31.9,56.3l4.3,13l11.1,8l-4.3-13L31.9,56.3z"/>
<path class="st0" d="M47.1,51.3l-11.1-8l-4.3,13l11.1,8L47.1,51.3z"/>
<path class="st0" d="M51.4,64.3l-4.3,13h13.6l4.3-13H51.4z"/>
<path class="st0" d="M42.9,64.3l4.3,13l4.3-13l-4.3-13L42.9,64.3z"/>
<path class="st0" d="M22.5,111.3l-11.1,8l-4.3,13l11.1-8L22.5,111.3z"/>
<path class="st0" d="M31.9,124.3l4.3-13H22.5l-4.3,13H31.9z"/>
<path class="st0" d="M31.9,98.3l-11.1-8H7.1l11.1,8H31.9z"/>
<path class="st0" d="M11.4,77.3l-4.3,13h13.7l4.3-13H11.4z"/>
<path class="st0" d="M22.5,111.3h13.6l-4.3-13H18.2L22.5,111.3z"/>
<path class="st0" d="M18.2,98.3l-11.1-8l4.3,13l11.1,8L18.2,98.3z"/>
<path class="st0" d="M25,77.3l-4.3-13H7.1l4.3,13H25z"/>
<path class="st0" d="M100.8,158.3l11.1,8l4.3-13l-11.2-8L100.8,158.3z"/>
<path class="st0" d="M100.8,106.4l11.1-8l-11.1-8.1l-11.1,8L100.8,106.4z"/>
<path class="st0" d="M89.7,98.3l11.1-8H87.2l-11.1,8H89.7z"/>
<path class="st0" d="M107.6,111.3l4.3-13l-11.1,8.1l-4.3,13L107.6,111.3z"/>
<path class="st0" d="M85.5,111.3l11.1,8l4.3-13l-11.1-8L85.5,111.3z"/>
<path class="st0" d="M125.5,166.4l11.1-8l4.3-13l-11.1,8L125.5,166.4z"/>
<path class="st0" d="M151.8,153.4l-11.1-8.1l-4.3,13l11.1,8L151.8,153.4z"/>
<path class="st0" d="M116,153.4l-4.3,13h13.6l4.3-13H116z"/>
<path class="st0" d="M129.7,153.4l11.1-8h-13.6l-11.1,8H129.7z"/>
<path class="st0" d="M147.6,166.4h13.6l4.3-13h-13.7L147.6,166.4z"/>
<path class="st0" d="M154.4,145.3h-13.6l11.1,8h13.6L154.4,145.3z"/>
<path class="st0" d="M47.1,119.4h13.6l11.1-8H58.2L47.1,119.4z"/>
<path class="st0" d="M76.1,124.3l-4.3-13l-11.1,8l4.3,13L76.1,124.3z"/>
<path class="st0" d="M47.1,103.3l-11.1,8l11.1,8l11.1-8L47.1,103.3z"/>
<path class="st0" d="M65,132.4l-4.3-13H47.1l4.3,13H65z"/>
<path class="st0" d="M60.8,103.3l11.1,8l4.3-13l-11.1-8L60.8,103.3z"/>
<path class="st0" d="M82.9,77.3l-11.1,8l4.3,13l11.1-8L82.9,77.3z"/>
<path class="st0" d="M58.2,111.3h13.6l-11.1-8H47.1L58.2,111.3z"/>
<path class="st0" d="M96.5,145.3l4.3-13H87.2l-4.3,13H96.5z"/>
<path class="st0" d="M82.9,145.3l4.3-13l-11.1,8l-4.3,13L82.9,145.3z"/>
<path class="st0" d="M65,132.4l11.1,8l11.1-8l-11.1-8L65,132.4z"/>
<path class="st0" d="M82.9,119.4l-11.1-8l4.3,13l11.1,8L82.9,119.4z"/>
<path class="st0" d="M82.9,119.4l4.3,13h13.6l-4.3-13C96.5,119.4,82.9,119.4,82.9,119.4z"/>
<path class="st0" d="M89.7,98.3H76.1l-4.3,13h13.6L89.7,98.3z"/>
<path class="st0" d="M96.5,119.4l-11.1-8H71.8l11.1,8H96.5z"/>
<path class="st0" d="M20.8,132.4H7.1l4.3,13H25L20.8,132.4z"/>
<path class="st0" d="M25,145.3H11.4l11.1,8h13.6L25,145.3z"/>
<path class="st0" d="M18.2,166.4l4.3-13l-11.1-8l-4.3,13L18.2,166.4z"/>
<path class="st0" d="M18.2,124.3l-11.1,8h13.7l11.1-8H18.2z"/>
<path class="st0" d="M36.1,137.3l-4.3-13l-11.1,8l4.3,13L36.1,137.3z"/>
<path class="st0" d="M42.9,132.4l4.3,13l4.3-13l-4.3-13L42.9,132.4z"/>
<path class="st0" d="M65,132.4H51.4l-4.3,13h13.6L65,132.4z"/>
<path class="st0" d="M42.9,132.4l4.3-13l-11.1-8l-4.3,13L42.9,132.4z"/>
<path class="st0" d="M25,145.3l11.1,8l11-8l-11.1-8L25,145.3z"/>
<path class="st0" d="M31.9,166.4l4.3-13H22.5l-4.3,13H31.9z"/>
<path class="st0" d="M31.9,124.3l4.3,13l11,8l-4.3-13L31.9,124.3z"/>
<path class="st0" d="M60.8,145.3l11.1,8l4.3-13l-11.1-8L60.8,145.3z"/>
<path class="st0" d="M71.8,153.4l-11-8.1H47.1l11.1,8h13.6C71.8,153.3,71.8,153.4,71.8,153.4z"/>
<path class="st0" d="M281.2,137.3l-11.1,8l11.1,8l11.1-8L281.2,137.3z"/>
<path class="st0" d="M292.2,145.3l-11.1,8h13.6l11.1-8H292.2z"/>
<path class="st0" d="M299,166.4l-4.3-13h-13.6l4.3,13H299z"/>
<path class="st0" d="M296.4,132.4l-11.1-8l-4.3,13l11.1,8L296.4,132.4z"/>
<path class="st0" d="M339,153.4l-4.3,13l11.1-8l4.3-13L339,153.4z"/>
<path class="st0" d="M339,153.4l11.1-8l-4.3-13l-11.1,8L339,153.4z"/>
<path class="st0" d="M316.9,153.4l4.3,13h13.6l-4.3-13H316.9z"/>
<path class="st0" d="M305.8,145.3l4.3,13l11.1,8l-4.3-13L305.8,145.3z"/>
<path class="st0" d="M334.8,140.4l-4.3,13l4.3,13l4.3-13L334.8,140.4z"/>
<path class="st0" d="M316.9,153.4h13.6l4.3-13h-13.6L316.9,153.4z"/>
<path class="st0" d="M292.2,145.3h13.6l4.3-13h-13.6L292.2,145.3z"/>
<path class="st0" d="M310.1,158.3l-4.3-13l-11.1,8l4.3,13L310.1,158.3z"/>
<path class="st0" d="M321.1,140.4l-11.1-8l-4.3,13l11.1,8L321.1,140.4z"/>
<path class="st0" d="M323.7,132.4h-13.6l11.1,8h13.6L323.7,132.4z"/>
<path class="st0" d="M294.8,111.3l11.1-8l4.3-13l-11.1,8L294.8,111.3z"/>
<path class="st0" d="M321.1,98.3l-11.1-8l-4.3,13l11.1,8L321.1,98.3z"/>
<path class="st0" d="M285.3,98.3l-4.3,13h13.6l4.3-13H285.3z"/>
<path class="st0" d="M350,103.3l-4.3-13l-11.1,8l4.3,13L350,103.3z"/>
<path class="st0" d="M316.9,111.3h13.6l4.3-13h-13.6L316.9,111.3z"/>
<path class="st0" d="M216.5,352.4h13.6l11.1-8h-13.6L216.5,352.4z"/>
<path class="st0" d="M245.4,357.3l-4.3-13l-11.1,8l4.3,13L245.4,357.3z"/>
<path class="st0" d="M216.5,336.3l-11.1,8l11.1,8l11.1-8L216.5,336.3z"/>
<path class="st0" d="M234.3,365.4l-4.3-13h-13.6l4.3,13H234.3z"/>
<path class="st0" d="M230.2,336.3l11.1,8l4.3-13l-11.1-8L230.2,336.3z"/>
<path class="st0" d="M234.3,323.3l11.1,8l-4.3-13l-11.1-8L234.3,323.3z"/>
<path class="st0" d="M227.5,344.4h13.6l-11.1-8h-13.6L227.5,344.4z"/>
<path class="st0" d="M220.7,323.3l-4.3,13H230l4.3-13H220.7z"/>
<path class="st0" d="M234.3,365.4l11.1,8l11.1-8l-11.1-8L234.3,365.4z"/>
<path class="st0" d="M190.2,365.4h-13.7l4.3,13h13.6L190.2,365.4z"/>
<path class="st0" d="M194.4,378.4h-13.6l11.1,8h13.6L194.4,378.4z"/>
<path class="st0" d="M187.5,399.4l4.3-13l-11.1-8l-4.3,13L187.5,399.4z"/>
<path class="st0" d="M187.5,357.3l-11.1,8H190l11.1-8H187.5z"/>
<path class="st0" d="M187.5,357.3h13.6l4.3-13h-13.6L187.5,357.3z"/>
<path class="st0" d="M205.4,370.3l-4.3-13l-11.1,8l4.3,13L205.4,370.3z"/>
<path class="st0" d="M169.6,386.4l-4.3,13l11.1-8l4.3-13L169.6,386.4z"/>
<path class="st0" d="M187.5,399.4l-11.1-8l-11.1,8l11.1,8L187.5,399.4z"/>
<path class="st0" d="M169.6,386.4l11.1-8l-4.3-13l-11.1,8L169.6,386.4z"/>
<path class="st0" d="M212.3,365.4l4.3,13l4.3-13l-4.3-13L212.3,365.4z"/>
<path class="st0" d="M234.3,365.4h-13.6l-4.3,13H230L234.3,365.4z"/>
<path class="st0" d="M212.3,365.4l4.3-13l-11.1-8l-4.3,13L212.3,365.4z"/>
<path class="st0" d="M194.4,378.4l11.1,8l11.1-8l-11.1-8L194.4,378.4z"/>
<path class="st0" d="M201.2,399.4l4.3-13h-13.7l-4.3,13H201.2z"/>
<path class="st0" d="M201.2,357.3l4.3,13l11.1,8l-4.3-13L201.2,357.3z"/>
<path class="st0" d="M230.2,378.4l11.1,8l4.3-13l-11.1-8L230.2,378.4z"/>
<path class="st0" d="M241.1,386.4l-11.1-8h-13.6l11.1,8H241.1z"/>
<path class="st0" d="M231.7,399.4h13.6l-4.3-13h-13.6L231.7,399.4z"/>
<path class="st0" d="M220.7,391.4l-4.3-13l-11.1,8l4.3,13L220.7,391.4z"/>
<path class="st0" d="M209.7,399.4l-4.3-13l-4.3,13l4.3,13L209.7,399.4z"/>
<path class="st0" d="M227.5,386.4l-11.1-8l4.3,13l11.1,8L227.5,386.4z"/>
<path class="st0" d="M220.7,407.4l11.1-8l-11.1-8l-11.1,8L220.7,407.4z"/>
<path class="st0" d="M230.2,310.3l11.1-8l4.3-13l-11.1,8L230.2,310.3z"/>
<path class="st0" d="M212.3,323.3l4.3-13l-11.1,8l-4.3,13L212.3,323.3z"/>
<path class="st0" d="M194.4,310.3l11.1,8l11.1-8l-11.1-8L194.4,310.3z"/>
<path class="st0" d="M212.3,323.3l-11.1,8l4.3,13l11.1-8L212.3,323.3z"/>
<path class="st0" d="M190.2,323.3l11.1,8l4.3-13l-11.1-8L190.2,323.3z"/>
<path class="st0" d="M234.3,323.3l-4.3-13h-13.6l4.3,13H234.3z"/>
<path class="st0" d="M241.1,302.3l-11.1,8l11.1,8l11.1-8L241.1,302.3z"/>
<path class="st0" d="M216.5,336.3l4.3-13l-4.3-13l-4.3,13L216.5,336.3z"/>
<path class="st0" d="M205.4,302.3l-4.3-13l-11.1,8l4.3,13L205.4,302.3z"/>
<path class="st0" d="M201.2,289.3l4.3,13l11.1,8l-4.3-13L201.2,289.3z"/>
<path class="st0" d="M220.7,297.4l-4.3,13H230l4.3-13H220.7z"/>
<path class="st0" d="M212.3,297.4l4.3,13l4.3-13l-4.3-13L212.3,297.4z"/>
<path class="st0" d="M169.6,344.4l-4.3,13l11.1,8l4.3-13L169.6,344.4z"/>
<path class="st0" d="M191.8,344.4l-11.1,8l-4.3,13l11.1-8L191.8,344.4z"/>
<path class="st0" d="M169.6,344.4l11.1,8l11.1-8l-11.1-8L169.6,344.4z"/>
<path class="st0" d="M165.5,373.4l11.1-8l-11.1-8l-11.1,8L165.5,373.4z"/>
<path class="st0" d="M201.2,331.4l-11.1-8h-13.6l11.1,8H201.2z"/>
<path class="st0" d="M180.7,310.3l-4.3,13H190l4.3-13H180.7z"/>
<path class="st0" d="M191.8,344.4h13.6l-4.3-13h-13.6L191.8,344.4z"/>
<path class="st0" d="M180.7,336.3l-4.3-13l-11.1,8l4.3,13L180.7,336.3z"/>
<path class="st0" d="M187.5,331.4l-11.1-8l4.3,13l11.1,8L187.5,331.4z"/>
<path class="st0" d="M194.4,310.3l-4.3-13h-13.6l4.3,13H194.4z"/>
<path class="st0" d="M172.3,310.3l4.3,13l4.3-13l-4.3-13L172.3,310.3z"/>
<path class="st0" d="M172.3,310.3l4.3-13l-11.1-8l-4.3,13L172.3,310.3z"/>
<path class="st0" d="M154.4,323.3l11.1,8l11.1-8l-11.1-8L154.4,323.3z"/>
<path class="st0" d="M161.2,302.3l4.3,13l11.1,8l-4.3-13L161.2,302.3z"/>
<path class="st0" d="M151.8,357.3h13.6l-4.3-13h-13.6L151.8,357.3z"/>
<path class="st0" d="M165.5,357.3h-13.7l-11.1,8h13.6L165.5,357.3z"/>
<path class="st0" d="M136.5,352.4l4.3,13l11.1-8l-4.3-13L136.5,352.4z"/>
<path class="st0" d="M147.6,344.4h13.6l4.3-13h-13.7L147.6,344.4z"/>
<path class="st0" d="M140.8,323.3l11.1,8h13.6l-11.1-8H140.8z"/>
<path class="st0" d="M116,331.4l-4.3,13h13.6l4.3-13H116z"/>
<path class="st0" d="M129.7,331.4l-4.3,13l11.1-8l4.3-13L129.7,331.4z"/>
<path class="st0" d="M147.6,344.4l-11.1-8l-11.1,8l11.1,8L147.6,344.4z"/>
<path class="st0" d="M125.5,318.4h-13.7l4.3,13h13.6L125.5,318.4z"/>
<path class="st0" d="M129.7,357.3l11.1,8l-4.3-13l-11.1-8L129.7,357.3z"/>
<path class="st0" d="M129.7,357.3l-4.3-13h-13.6l4.3,13H129.7z"/>
<path class="st0" d="M116,357.3l11.1,8h13.7l-11.1-8H116z"/>
<path class="st0" d="M129.7,331.4l11.1-8l-4.3-13l-11.1,8L129.7,331.4z"/>
<path class="st0" d="M151.8,331.4l-11.1-8l-4.3,13l11.1,8L151.8,331.4z"/>
<path class="st0" d="M154.4,323.3l11.1-8l-4.3-13l-11.1,8L154.4,323.3z"/>
<path class="st0" d="M151.8,289.3l-11.1,8l-4.3,13l11.1-8L151.8,289.3z"/>
<path class="st0" d="M161.2,302.3l4.3-13h-13.7l-4.3,13H161.2z"/>
<path class="st0" d="M150.1,310.3h-13.6l4.3,13h13.6L150.1,310.3z"/>
<path class="st0" d="M147.6,302.3l-11.1,8h13.6l11.1-8H147.6z"/>
<path class="st0" d="M381.6,242.4l4.3-13l-11.1-8l-4.3,13L381.6,242.4z"/>
<path class="st0" d="M396.8,221.4l-11.1-8l-11.1,8l11.1,8L396.8,221.4z"/>
<path class="st0" d="M363.7,255.4l11.1,8l11.1-8l-11.1-8L363.7,255.4z"/>
<path class="st0" d="M350,255.4l11.1,8h13.6l-11.1-8H350z"/>
<path class="st0" d="M370.5,276.3l4.3-13h-13.6l-4.3,13H370.5z"/>
<path class="st0" d="M370.5,234.4l4.3,13l11.1,8l-4.3-13L370.5,234.4z"/>
<path class="st0" d="M363.7,255.4l11.1-8l-4.3-13l-11.1,8L363.7,255.4z"/>
<path class="st0" d="M390,268.4l-4.3-13l-11.1,8l4.3,13L390,268.4z"/>
<path class="st0" d="M345.9,268.4l-11.1,8l11.1,8l11.1-8L345.9,268.4z"/>
<path class="st0" d="M359.5,242.4h-13.6l4.3,13h13.6L359.5,242.4z"/>
<path class="st0" d="M356.8,276.3l4.3-13l-11.1-8l-4.3,13L356.8,276.3z"/>
<path class="st0" d="M356.8,234.4l-11.1,8h13.6l11.1-8H356.8z"/>
<path class="st0" d="M356.8,234.4h13.6l4.3-13h-13.6L356.8,234.4z"/>
<path class="st0" d="M339,263.4l-4.3,13l11.1-8l4.3-13L339,263.4z"/>
<path class="st0" d="M339,263.4l11.1-8l-4.3-13l-11.1,8L339,263.4z"/>
<path class="st0" d="M316.9,263.4l4.3,13h13.6l-4.3-13H316.9z"/>
<path class="st0" d="M334.8,250.5l-4.3,13l4.3,13l4.3-13L334.8,250.5z"/>
<path class="st0" d="M316.9,263.4h13.6l4.3-13h-13.6L316.9,263.4z"/>
<path class="st0" d="M361.1,221.4h13.6l-4.3-13h-13.6L361.1,221.4z"/>
<path class="st0" d="M370.5,208.4l4.3,13l11.1-8l-4.3-13L370.5,208.4z"/>
<path class="st0" d="M350,213.4l-4.3-13l-11.1,8l4.3,13L350,213.4z"/>
<path class="st0" d="M339,221.4l-4.3-13l-4.3,13l4.3,13L339,221.4z"/>
<path class="st0" d="M316.9,221.4h13.6l4.3-13h-13.6L316.9,221.4z"/>
<path class="st0" d="M356.8,208.4l-11.1-8l4.3,13l11.1,8L356.8,208.4z"/>
<path class="st0" d="M350,229.4l11.1-8l-11.1-8l-11.1,8L350,229.4z"/>
<path class="st0" d="M339,221.4l-4.3,13l11.1,8l4.3-13L339,221.4z"/>
<path class="st0" d="M321.1,234.4h13.7l-4.3-13h-13.6L321.1,234.4z"/>
<path class="st0" d="M361.1,221.4l-11.1,8l-4.3,13l11.1-8L361.1,221.4z"/>
<path class="st0" d="M334.8,234.4h-13.6l-11.1,8h13.6L334.8,234.4z"/>
<path class="st0" d="M334.8,250.5l11.1-8l-11.1-8l-11.1,8L334.8,250.5z"/>
<path class="st0" d="M323.7,242.4h-13.6l11.1,8h13.6L323.7,242.4z"/>
<g id="text-linker">
	<path class="st-text-grey" d="M231,207.1l1.2-1.4c0.9,0.7,1.8,1.3,2.9,1.3c1.3,0,1.9-0.5,1.9-1.4s-0.7-1.3-1.7-1.7l-1.5-0.7
		c-1.2-0.4-2.2-1.3-2.2-2.9c0-1.7,1.5-3.1,3.6-3.1c1.3,0,2.6,0.5,3.3,1.4l-1,1.3c-0.7-0.5-1.4-1-2.3-1c-1,0-1.7,0.4-1.7,1.3
		c0,0.7,0.9,1.2,1.7,1.5l1.5,0.5c1.3,0.5,2.2,1.4,2.2,2.9c0,1.8-1.5,3.3-3.9,3.3C233.5,208.6,232,208.1,231,207.1z"/>
	<path class="st-text-grey" d="M240.2,204.2c0-2.9,1.9-4.4,4.3-4.4c1,0,1.8,0.4,2.3,1l-1,1.3c-0.4-0.4-0.9-0.5-1.4-0.5
		c-1.4,0-2.2,1.2-2.2,2.9s0.9,2.9,2.2,2.9c0.7,0,1.3-0.2,1.7-0.7l0.9,1.3c-0.9,0.7-1.8,1-2.7,1C241.9,208.6,240.2,207.1,240.2,204.2
		z"/>
	<path class="st-text-grey" d="M248.4,197.8c0-0.7,0.5-1.2,1.3-1.2c0.7,0,1.3,0.4,1.3,1.2s-0.5,1.2-1.3,1.2
		C249,198.8,248.4,198.2,248.4,197.8z M248.5,200.1h1.9v8.3h-1.9V200.1z"/>
	<path class="st-text-grey" d="M252.5,204.2c0-2.7,1.8-4.4,3.8-4.4c2.2,0,3.3,1.7,3.3,3.9c0,0.4,0,0.7-0.2,1h-5.2c0.2,1.4,1.2,2.2,2.3,2.2
		c0.7,0,1.3-0.2,1.9-0.5l0.7,1.3c-0.9,0.5-1.8,0.9-2.9,0.9C254.2,208.6,252.5,207.1,252.5,204.2z M257.9,203.6
		c0-1.3-0.5-2.1-1.7-2.1c-1,0-1.8,0.7-1.9,2.1H257.9z"/>
	<path class="st-text-grey" d="M261.5,200.1h1.5l0.2,1.2l0,0c0.7-0.7,1.5-1.3,2.7-1.3c1.8,0,2.6,1.3,2.6,3.3v5.2h-1.9v-4.9
		c0-1.4-0.4-1.8-1.3-1.8c-0.7,0-1.3,0.4-1.8,1v5.8h-1.9L261.5,200.1L261.5,200.1z"/>
	<path class="st-text-grey" d="M270.4,204.2c0-2.9,1.9-4.4,4.3-4.4c1,0,1.8,0.4,2.3,1l-1,1.3c-0.4-0.4-0.9-0.5-1.4-0.5
		c-1.4,0-2.2,1.2-2.2,2.9s0.9,2.9,2.2,2.9c0.7,0,1.3-0.2,1.7-0.7l0.9,1.3c-0.9,0.7-1.8,1-2.7,1C272.1,208.6,270.4,207.1,270.4,204.2
		z"/>
	<path class="st-text-grey" d="M278,204.2c0-2.7,1.8-4.4,3.8-4.4c2.2,0,3.3,1.7,3.3,3.9c0,0.4,0,0.7-0.2,1h-5.2c0.2,1.4,1.2,2.2,2.3,2.2
		c0.7,0,1.3-0.2,1.9-0.5l0.7,1.3c-0.9,0.5-1.8,0.9-2.9,0.9C279.6,208.6,278,207.1,278,204.2z M283.4,203.6c0-1.3-0.5-2.1-1.7-2.1
		c-1,0-1.8,0.7-1.9,2.1H283.4z"/>
	<path class="st-text-blue" d="M287,197.4h2.2l1.9,5.3c0.2,0.7,0.4,1.4,0.7,2.1l0,0c0.2-0.7,0.4-1.4,0.7-2.1l1.9-5.3h2.2v11h-1.8v-5.1
		c0-1,0.2-2.6,0.2-3.5l0,0l-0.9,2.6l-1.8,4.9h-1.2l-1.8-4.9l-0.9-2.6l0,0c0.2,1,0.2,2.6,0.2,3.5v5h-1.8L287,197.4L287,197.4z"/>
	<path class="st-text-blue" d="M298.9,204.2c0-2.7,1.8-4.4,3.8-4.4c2.2,0,3.3,1.7,3.3,3.9c0,0.4,0,0.7-0.2,1h-5.2c0.2,1.4,1.2,2.2,2.3,2.2
		c0.7,0,1.3-0.2,1.9-0.5l0.7,1.3c-0.9,0.5-1.8,0.9-2.9,0.9C300.8,208.6,298.9,207.1,298.9,204.2z M304.4,203.6
		c0-1.3-0.5-2.1-1.7-2.1c-1,0-1.8,0.7-1.9,2.1H304.4z"/>
	<path class="st-text-blue" d="M307.3,207.6l0.9-1.3c0.7,0.5,1.4,1,2.2,1c0.8,0,1.3-0.4,1.3-1c0-0.7-0.9-1-1.8-1.4c-1.2-0.4-2.3-1-2.3-2.3
		c0-1.4,1.2-2.6,2.9-2.6c1.2,0,2.1,0.4,2.9,1l-0.9,1.2c-0.5-0.4-1.2-0.7-1.8-0.7c-0.9,0-1.3,0.4-1.3,1c0,0.7,0.9,0.9,1.7,1.3
		c1.2,0.4,2.3,1,2.3,2.6c0,1.4-1.2,2.6-3.3,2.6C309.2,208.6,307.9,208.2,307.3,207.6z"/>
	<path class="st-text-blue" d="M315.1,196.6h1.9v3.1l-0.2,1.5c0.7-0.7,1.5-1.3,2.7-1.3c1.8,0,2.6,1.3,2.6,3.3v5.2h-1.8v-4.9
		c0-1.4-0.4-1.8-1.3-1.8c-0.7,0-1.3,0.4-1.8,1v5.8h-1.9L315.1,196.6L315.1,196.6L315.1,196.6z"/>
</g>
<path class="st0" d="M194.4,242.4l11.1-8h-13.7l-11.1,8H194.4z"/>
<path class="st0" d="M187.5,221.4l4.3,13h13.6l-4.3-13H187.5z"/>
<path class="st0" d="M176.5,229.4l4.3,13l11.1-8l-4.3-13L176.5,229.4z"/>
<path class="st0" d="M212.3,255.4l4.3-13l-11.1-8l-4.3,13L212.3,255.4z"/>
<path class="st0" d="M190.2,255.4l11.1-8l4.3-13l-11.1,8L190.2,255.4z"/>
<path class="st0" d="M194.4,200.4l11.1,8l11.1-8l-11.1-8L194.4,200.4z"/>
<path class="st0" d="M180.7,200.4l11.1,8h13.6l-11.1-8H180.7z"/>
<path class="st0" d="M201.2,221.4l4.3-13h-13.7l-4.3,13H201.2z"/>
<path class="st0" d="M194.4,200.4l11.1-8l-4.3-13l-11.1,8L194.4,200.4z"/>
<path class="st0" d="M205.4,208.4l-4.3,13l4.3,13l4.3-13L205.4,208.4z"/>
<path class="st0" d="M151.8,221.4l-11.1,8l-4.3,13l11.1-8L151.8,221.4z"/>
<path class="st0" d="M125.5,234.4l11.1,8l4.3-13l-11.1-8L125.5,234.4z"/>
<path class="st0" d="M147.6,234.4l4.3,13h13.6l-4.3-13H147.6z"/>
<path class="st0" d="M136.5,242.4l-11.1-8h-13.6l11.1,8H136.5z"/>
<path class="st0" d="M180.7,242.4l-4.3-13l-11.1-8l4.3,13L180.7,242.4z"/>
<path class="st0" d="M176.5,213.4l-11.1,8l11.1,8l11.1-8L176.5,213.4z"/>
<path class="st0" d="M161.2,234.4l4.3-13h-13.7l-4.3,13H161.2z"/>
<path class="st0" d="M129.7,221.4l11.1,8l11.1-8l-11.1-8L129.7,221.4z"/>
<path class="st0" d="M169.6,234.4l-4.3-13l-4.3,13l4.3,13L169.6,234.4z"/>
<path class="st0" d="M190.2,187.4h-13.7l4.3,13h13.6L190.2,187.4z"/>
<path class="st0" d="M187.5,221.4l4.3-13l-11.1-8l-4.3,13L187.5,221.4z"/>
<path class="st0" d="M169.6,208.4l-4.3,13l11.1-8l4.3-13L169.6,208.4z"/>
<path class="st0" d="M147.6,208.4l4.3,13h13.6l-4.3-13H147.6z"/>
<path class="st0" d="M136.5,200.4l4.3,13l11.1,8l-4.3-13L136.5,200.4z"/>
<path class="st0" d="M165.5,195.4l-4.3,13l4.3,13l4.3-13L165.5,195.4z"/>
<path class="st0" d="M140.8,213.4l-4.3-13l-11.1,8l4.3,13L140.8,213.4z"/>
<path class="st0" d="M216.5,174.4l-11.1-8l-4.3,13l11.1,8L216.5,174.4z"/>
<path class="st0" d="M205.4,166.4l11.1,8l11.1-8l-11.1-8L205.4,166.4z"/>
<path class="st0" d="M350,187.4l-4.3-13l-11.1-8l4.3,13L350,187.4z"/>
<path class="st0" d="M334.8,192.3l11.1,8l4.3-13l-11.1-8L334.8,192.3z"/>
<path class="st0" d="M330.5,179.4l4.3-13h-13.6l-4.3,13H330.5z"/>
<path class="st0" d="M339,179.4l-4.3-13l-4.3,13l4.3,13L339,179.4z"/>
<path class="st0" d="M321.1,192.3h13.7l-4.3-13h-13.6L321.1,192.3z"/>
<path class="st0" d="M323.7,200.4l11.1,8l11.1-8l-11.1-8L323.7,200.4z"/>
<path class="st0" d="M334.8,192.3h-13.6l-11.1,8h13.6L334.8,192.3z"/>
<path class="st0" d="M187.5,179.4h13.6l4.3-13h-13.6L187.5,179.4z"/>
<path class="st0" d="M169.6,166.4l-4.3,13l11.1,8l4.3-13L169.6,166.4z"/>
<path class="st0" d="M161.2,166.4l4.3,13l4.3-13l-4.3-13L161.2,166.4z"/>
<path class="st0" d="M191.8,166.4l-11.1,8l-4.3,13l11.1-8L191.8,166.4z"/>
<path class="st0" d="M169.6,166.4l11.1,8l11.1-8l-11.1-8L169.6,166.4z"/>
<path class="st0" d="M212.3,145.3l-11.1,8l4.3,13l11.1-8L212.3,145.3z"/>
<path class="st0" d="M191.8,166.4h13.6l-4.3-13h-13.6L191.8,166.4z"/>
<path class="st0" d="M180.7,158.3l-4.3-13l-11.1,8l4.3,13L180.7,158.3z"/>
<path class="st0" d="M187.5,153.4l-11.1-8.1l4.3,13l11.1,8L187.5,153.4z"/>
<g id="mesh-linker">
	<path class="st3" d="M234.3,255.4h-13.6l-4.3,13H230L234.3,255.4z"/>
	<path class="st3" d="M227.5,276.3h13.6l-11.1-8h-13.6L227.5,276.3z"/>
	<path class="st3" d="M234.3,255.4l-4.3,13l11.1,8l4.3-13L234.3,255.4z"/>
	<path class="st3" d="M216.5,284.4h13.6l11.1-8h-13.6L216.5,284.4z"/>
	<path class="st3" d="M450.5,192.3l-11.1,8l11.1,8l11.1-8L450.5,192.3z"/>
	<path class="st3" d="M443.7,187.4l-4.3,13l11.1-8l4.3-13L443.7,187.4z"/>
	<path class="st3" d="M443.7,187.4l11.1-8l-4.3-13l-11.1,8L443.7,187.4z"/>
	<path class="st3" d="M381.6,310.3l4.3,13l4.3-13l-4.3-13L381.6,310.3z"/>
	<path class="st3" d="M370.5,302.3l-11.1,8l11.1,8l11.1-8L370.5,302.3z"/>
	<path class="st3" d="M385.8,297.4h13.6l11.1-8h-13.6L385.8,297.4z"/>
	<path class="st3" d="M396.8,289.3l4.3-13l-11.1-8l-4.3,13L396.8,289.3z"/>
	<path class="st3" d="M421.5,187.4l4.3,13h13.6l-4.3-13H421.5z"/>
	<path class="st3" d="M439.4,174.4l-4.3,13l4.3,13l4.3-13L439.4,174.4z"/>
	<path class="st3" d="M421.5,187.4h13.6l4.3-13h-13.6L421.5,187.4z"/>
	<path class="st3" d="M363.7,297.4l11.1-8h-13.6l-11.1,8H363.7z"/>
	<path class="st3" d="M356.8,276.3l4.3,13h13.6l-4.3-13H356.8z"/>
	<path class="st3" d="M381.6,310.3l4.3-13l-11.1-8l-4.3,13L381.6,310.3z"/>
	<path class="st3" d="M399.5,297.4h-13.7l4.3,13h13.6L399.5,297.4z"/>
	<path class="st3" d="M359.5,310.3l11.1-8l4.3-13l-11.1,8L359.5,310.3z"/>
	<path class="st3" d="M385.8,281.4l-11.1,8l11.1,8l11.1-8L385.8,281.4z"/>
	<path class="st3" d="M379,276.3l-4.3,13l11.1-8l4.3-13L379,276.3z"/>
	<path class="st3" d="M169.6,276.3l11.1-8l-4.3-13l-11.1,8L169.6,276.3z"/>
	<path class="st3" d="M428.3,166.4h-13.6l11.1,8h13.6L428.3,166.4z"/>
	<path class="st3" d="M428.3,166.4l11.1,8l11.1-8l-11.1-8L428.3,166.4z"/>
	<path class="st3" d="M165.5,247.4h-13.7l-11.1,8h13.6L165.5,247.4z"/>
	<path class="st3" d="M165.5,263.4l11.1-8l-11.1-8l-11.1,8L165.5,263.4z"/>
	<path class="st3" d="M122.9,242.4l-11.1-8l4.3,13l11.1,8L122.9,242.4z"/>
	<path class="st3" d="M116,263.4l11.1-8l-11.1-8l-11.1,8L116,263.4z"/>
	<path class="st3" d="M151.8,263.4l-11.1-8l-4.3,13l11.1,8L151.8,263.4z"/>
	<path class="st3" d="M154.4,255.4h-13.6l11.1,8h13.6L154.4,255.4z"/>
	<path class="st3" d="M122.9,268.4h13.6l4.3-13h-13.6L122.9,268.4z"/>
	<path class="st3" d="M127.1,255.4l-11.1,8l-4.3,13l11.1-8L127.1,255.4z"/>
	<path class="st3" d="M403.7,132.4l-4.3-13h-13.6l4.3,13H403.7z"/>
	<path class="st3" d="M209.7,111.3l-4.3-13l-4.3,13l4.3,13L209.7,111.3z"/>
	<path class="st3" d="M209.7,111.3l-4.3,13l11.1,8l4.3-13L209.7,111.3z"/>
	<path class="st3" d="M220.7,119.4l-4.3-13l-11.1-8l4.3,13L220.7,119.4z"/>
	<path class="st3" d="M356.8,124.3l-11.1,8h13.6l11.1-8H356.8z"/>
	<path class="st3" d="M356.8,124.3h13.6l4.3-13h-13.6L356.8,124.3z"/>
	<path class="st3" d="M374.7,137.3l-4.3-13l-11.1,8l4.3,13L374.7,137.3z"/>
	<path class="st3" d="M381.6,132.4l4.3,13l4.3-13l-4.3-13L381.6,132.4z"/>
	<path class="st3" d="M403.7,132.4h-13.6l-4.3,13h13.6L403.7,132.4z"/>
	<path class="st3" d="M381.6,132.4l4.3-13l-11.1-8l-4.3,13L381.6,132.4z"/>
	<path class="st3" d="M370.5,124.3l4.3,13l11.1,8l-4.3-13L370.5,124.3z"/>
	<path class="st3" d="M439.4,158.3h-13.6l-11.1,8h13.6L439.4,158.3z"/>
	<path class="st3" d="M361.1,111.3l-11.1,8l-4.3,13l11.1-8L361.1,111.3z"/>
	<path class="st3" d="M270.1,297.4l-4.3,13l4.3,13l4.3-13L270.1,297.4z"/>
	<path class="st3" d="M316.9,289.3l-11.1,8l4.3,13l11.1-8L316.9,289.3z"/>
	<path class="st3" d="M321.1,276.3l-11.1,8l-4.3,13l11.1-8L321.1,276.3z"/>
	<path class="st3" d="M294.8,289.3l11.1,8l4.3-13l-11.2-8L294.8,289.3z"/>
	<path class="st3" d="M305.8,297.4l-11.1-8h-13.6l11.1,8H305.8z"/>
	<path class="st3" d="M285.3,276.3l-4.3,13h13.6l4.3-13H285.3z"/>
	<path class="st3" d="M296.4,310.3H310l-4.3-13h-13.6L296.4,310.3z"/>
	<path class="st3" d="M285.3,302.3l-4.3-13l-11.1,8l4.3,13L285.3,302.3z"/>
	<path class="st3" d="M252.2,310.3h13.6l4.3-13h-13.6L252.2,310.3z"/>
	<path class="st3" d="M292.2,297.4l-11.1-8l4.3,13l11.1,8L292.2,297.4z"/>
	<path class="st3" d="M299,276.3l11.1,8l11.1-8l-11.1-8L299,276.3z"/>
	<path class="st3" d="M305.8,255.4l4.3,13l11.1,8l-4.3-13L305.8,255.4z"/>
	<path class="st3" d="M201.2,263.4l4.3,13l11.1-8l-4.3-13L201.2,263.4z"/>
	<path class="st3" d="M194.4,268.4l11.1,8l-4.3-13l-11.1-8L194.4,268.4z"/>
	<path class="st3" d="M194.4,268.4l-4.3-13h-13.6l4.3,13H194.4z"/>
	<path class="st3" d="M201.2,247.4l-11.1,8l11.1,8l11.1-8L201.2,247.4z"/>
	<path class="st3" d="M227.5,276.3l-11.1-8l-11.1,8l11.1,8L227.5,276.3z"/>
	<path class="st3" d="M187.5,289.3h13.6l4.3-13h-13.6L187.5,289.3z"/>
	<path class="st3" d="M180.7,268.4l11.1,8h13.6l-11.1-8H180.7z"/>
	<path class="st3" d="M187.5,289.3l4.3-13l-11.1-8l-4.3,13L187.5,289.3z"/>
	<path class="st3" d="M216.5,284.4l-11.1-8l-4.3,13l11.1,8L216.5,284.4z"/>
	<path class="st3" d="M254.9,276.3h-13.6l4.3,13h13.6L254.9,276.3z"/>
	<path class="st3" d="M259,289.3h-13.6l11.1,8h13.6L259,289.3z"/>
	<path class="st3" d="M270.1,281.4l-4.3-13l-11.1,8l4.3,13L270.1,281.4z"/>
	<path class="st3" d="M276.9,276.3l4.3,13l4.3-13l-4.3-13L276.9,276.3z"/>
	<path class="st3" d="M259,289.3l11.1,8l11.1-8l-11.1-8L259,289.3z"/>
	<path class="st3" d="M265.8,268.4l4.3,13l11.1,8l-4.3-13L265.8,268.4z"/>
	<path class="st3" d="M310.1,268.4l-4.3-13l-11.1,8l4.3,13L310.1,268.4z"/>
	<path class="st3" d="M321.1,250.5l-11.1-8l-4.3,13l11.1,8L321.1,250.5z"/>
	<path class="st3" d="M270.1,119.4l-4.3,13l4.3,13l4.3-13L270.1,119.4z"/>
	<path class="st3" d="M256.5,145.3h13.6l-4.3-13h-13.6L256.5,145.3z"/>
	<path class="st3" d="M285.3,124.3l-4.3-13l-11.1,8l4.3,13L285.3,124.3z"/>
	<path class="st3" d="M252.2,132.4h13.6l4.3-13h-13.6L252.2,132.4z"/>
	<path class="st3" d="M274.4,132.4l-4.3,13l11.1-8l4.3-13L274.4,132.4z"/>
	<path class="st3" d="M234.3,145.3l11.1,8l-4.3-13l-11.1-8L234.3,145.3z"/>
	<path class="st3" d="M252.2,132.4l-11.1,8l4.3,13l11.1-8L252.2,132.4z"/>
	<path class="st3" d="M252.2,132.4l4.3-13l-11.1-8l-4.3,13L252.2,132.4z"/>
	<path class="st3" d="M234.3,145.3l-4.3-13h-13.6l4.3,13H234.3z"/>
	<path class="st3" d="M241.1,124.3l-11.1,8l11.1,8l11.1-8L241.1,124.3z"/>
	<path class="st3" d="M230.2,132.4l11.1-8l4.3-13l-11.1,8L230.2,132.4z"/>
	<path class="st3" d="M220.7,119.4l-4.3,13H230l4.3-13C234.3,119.4,220.7,119.4,220.7,119.4z"/>
	<path class="st3" d="M299,124.3l11.1,8l-4.3-13l-11.1-8L299,124.3z"/>
	<path class="st3" d="M316.9,111.3l-11.1,8l4.3,13l11.1-8L316.9,111.3z"/>
	<path class="st3" d="M299,124.3l-4.3-13h-13.6l4.3,13H299z"/>
	<path class="st3" d="M305.8,103.3l-11.1,8l11.1,8l11.1-8L305.8,103.3z"/>
	<path class="st3" d="M285.3,124.3l11.1,8H310l-11.1-8H285.3z"/>
	<path class="st3" d="M339,111.3l-4.3,13l11.1,8l4.3-13L339,111.3z"/>
	<path class="st3" d="M334.8,98.3l-4.3,13l4.3,13l4.3-13L334.8,98.3z"/>
	<path class="st3" d="M321.1,124.3h13.7l-4.3-13h-13.6L321.1,124.3z"/>
	<path class="st3" d="M339,111.3l11.1,8l11.1-8l-11.1-8L339,111.3z"/>
	<path class="st3" d="M334.8,124.3h-13.6l-11.1,8h13.6L334.8,124.3z"/>
	<path class="st3" d="M334.8,140.4l11.1-8l-11.1-8l-11.1,8L334.8,140.4z"/>
	<path class="st3" d="M374.7,263.4l-4.3,13l4.3,13l4.3-13L374.7,263.4z"/>
	<path class="st3" d="M194.4,242.4h-13.6l-4.3,13h13.6L194.4,242.4z"/>
	<path class="st3" d="M147.6,234.4l-11.1,8l4.3,13l11.1-8L147.6,234.4z"/>
	<path class="st3" d="M127.1,255.4h13.7l-4.3-13h-13.6L127.1,255.4z"/>
	<path class="st3" d="M165.5,247.4l11.1,8l4.3-13l-11.1-8L165.5,247.4z"/>
	<path class="st3" d="M122.9,132.4l-11.1-8l-11,8l11.1,8L122.9,132.4z"/>
	<path class="st3" d="M136.5,132.4l-11.1-8h-13.6l11.1,8H136.5z"/>
	<path class="st3" d="M116,111.3l-4.3,13h13.6l4.3-13H116z"/>
	<path class="st3" d="M116,153.4l-4.3-13l-11-8l4.3,13L116,153.4z"/>
	<path class="st3" d="M122.9,132.4l-11.1,8l4.3,13l11.1-8L122.9,132.4z"/>
	<path class="st3" d="M111.8,124.3l4.3-13l-4.3-13l-4.3,13L111.8,124.3z"/>
	<path class="st3" d="M96.5,119.4l4.3,13l11.1-8l-4.3-13L96.5,119.4z"/>
	<path class="st3" d="M127.1,145.3h13.7l-4.3-13h-13.6L127.1,145.3z"/>
	<path class="st3" d="M129.7,111.3l-4.3,13l11.1,8l4.3-13L129.7,111.3z"/>
</g>
<g id="mesh-1">
	<path class="st4" d="M116,247.4l-4.3-13l-11,8l4.3,13L116,247.4z"/>
	<path class="st4" d="M82.9,255.4h13.6l4.3-13H87.2L82.9,255.4z"/>
	<path class="st4" d="M51.4,242.4l-4.3,13h13.6l4.3-13H51.4z"/>
	<path class="st4" d="M65,242.4l-4.3,13l11.1-8l4.3-13L65,242.4z"/>
	<path class="st4" d="M60.8,229.4H47.1l4.3,13H65L60.8,229.4z"/>
	<path class="st4" d="M107.6,221.4l4.3-13l-11.1-8l-4.3,13L107.6,221.4z"/>
	<path class="st4" d="M89.7,234.4l11.1,8l11.1-8l-11.1-8L89.7,234.4z"/>
	<path class="st4" d="M76.1,234.4l11.1,8h13.6l-11.1-8H76.1z"/>
	<path class="st4" d="M96.5,213.4l4.3,13l11.1,8l-4.3-13L96.5,213.4z"/>
	<path class="st4" d="M89.7,234.4l11.1-8l-4.3-13l-11.1,8L89.7,234.4z"/>
	<path class="st4" d="M58.2,221.4h13.6l-11.1-8H47.1L58.2,221.4z"/>
	<path class="st4" d="M65,200.4l-4.3,13l11.1,8l4.3-13L65,200.4z"/>
	<path class="st4" d="M58.2,221.4l-11.1-8l-11.1,8l11.1,8L58.2,221.4z"/>
	<path class="st4" d="M51.4,200.4l-4.3,13h13.6l4.3-13H51.4z"/>
	<path class="st4" d="M65,242.4l11.1-8l-4.3-13l-11.1,8L65,242.4z"/>
	<path class="st4" d="M87.2,242.4l-11.1-8l-4.3,13l11.1,8L87.2,242.4z"/>
	<path class="st4" d="M47.1,229.4h13.6l11.1-8H58.2L47.1,229.4z"/>
	<path class="st4" d="M82.9,187.4l4.3,13h13.6l-4.3-13H82.9z"/>
	<path class="st4" d="M71.8,179.4l4.3,13l11.1,8l-4.3-13L71.8,179.4z"/>
	<path class="st4" d="M76.1,208.4l11.1-8l-11.1-8l-11.1,8L76.1,208.4z"/>
	<path class="st4" d="M100.8,174.4l-4.3,13l4.3,13l4.3-13L100.8,174.4z"/>
	<path class="st4" d="M82.9,187.4h13.6l4.3-13H87.2L82.9,187.4z"/>
	<path class="st4" d="M87.2,200.4l-11.1,8l-4.3,13l11.1-8L87.2,200.4z"/>
	<path class="st4" d="M96.5,213.4l4.3-13H87.2l-4.3,13H96.5z"/>
	<path class="st4" d="M82.9,213.4l-11.1,8h13.6l11.1-8H82.9z"/>
	<path class="st4" d="M47.1,213.4l4.3-13l-4.3-13l-4.3,13L47.1,213.4z"/>
	<path class="st4" d="M60.8,187.4H47.1l4.3,13H65L60.8,187.4z"/>
	<path class="st4" d="M31.9,208.4l4.3,13l11.1-8l-4.3-13L31.9,208.4z"/>
	<path class="st4" d="M36.1,195.4l11.1-8l-11.1-8l-11.1,8L36.1,195.4z"/>
	<path class="st4" d="M42.9,200.4l4.3-13l-11.1,8l-4.3,13L42.9,200.4z"/>
	<path class="st4" d="M87.2,174.4l-11.1-8l-4.3,13l11.1,8L87.2,174.4z"/>
	<path class="st4" d="M65,200.4l11.1-8l-4.3-13l-11.1,8L65,200.4z"/>
	<path class="st4" d="M89.7,166.4H76.1l11.1,8h13.6L89.7,166.4z"/>
	<path class="st4" d="M89.7,166.4l11.1,8l11.1-8l-11.1-8.1L89.7,166.4z"/>
	<path class="st4" d="M58.2,179.4l-11.1,8h13.6l11.1-8H58.2z"/>
	<path class="st4" d="M58.2,179.4h13.6l4.3-13H62.4L58.2,179.4z"/>
	<path class="st4" d="M40.3,166.4l-4.3,13l11.1,8l4.3-13L40.3,166.4z"/>
	<path class="st4" d="M62.4,166.4l-11.1,8l-4.3,13l11.1-8L62.4,166.4z"/>
	<path class="st4" d="M40.3,166.4l11.1,8l11.1-8l-11.1-8L40.3,166.4z"/>
	<path class="st4" d="M105,145.3l-4.3-13l-4.2,13l4.3,13L105,145.3z"/>
	<path class="st4" d="M87.2,158.3h13.6l-4.3-13H82.9L87.2,158.3z"/>
	<path class="st4" d="M82.9,145.3l-11.1,8l4.3,13l11.1-8L82.9,145.3z"/>
	<path class="st4" d="M100.8,158.3H87.2l-11.1,8h13.6L100.8,158.3z"/>
	<path class="st4" d="M62.4,166.4H76l-4.3-13H58.2L62.4,166.4z"/>
	<path class="st4" d="M51.4,158.3l-4.3-13l-11.1,8l4.3,13L51.4,158.3z"/>
	<path class="st4" d="M58.2,153.4l-11.1-8.1l4.3,13l11.1,8L58.2,153.4z"/>
</g>
<g id="mesh-2">
	<path class="st5" d="M151.8,85.4l-11.1-8l-4.3,13l11.1,8L151.8,85.4z"/>
	<path class="st5" d="M161.2,98.3l4.3-13h-13.7l-4.3,13H161.2z"/>
	<path class="st5" d="M180.7,64.3l-4.3,13H190l4.3-13H180.7z"/>
	<path class="st5" d="M190.2,77.3h-13.7l4.3,13h13.6L190.2,77.3z"/>
	<path class="st5" d="M165.5,69.3l11.1,8l4.3-13l-11.1-8L165.5,69.3z"/>
	<path class="st5" d="M154.4,77.3h-13.6l11.1,8h13.6L154.4,77.3z"/>
	<path class="st5" d="M154.4,77.3l11.1,8l11.1-8l-11.1-8L154.4,77.3z"/>
	<path class="st5" d="M169.6,98.3l11.1-8l-4.3-13l-11.1,8L169.6,98.3z"/>
	<path class="st5" d="M165.5,69.3h-13.7l-11.1,8h13.6L165.5,69.3z"/>
	<path class="st5" d="M147.6,56.3l4.3,13h13.6l-4.3-13C161.2,56.3,147.6,56.3,147.6,56.3z"/>
	<path class="st5" d="M169.6,56.3l-4.3-13l-4.3,13l4.3,13L169.6,56.3z"/>
	<path class="st5" d="M201.2,111.3l4.3-13h-13.7l-4.3,13H201.2z"/>
	<path class="st5" d="M187.5,111.3l4.3-13l-11.1-8l-4.3,13L187.5,111.3z"/>
	<path class="st5" d="M205.4,140.4l11.1-8l-11.1-8l-11.1,8L205.4,140.4z"/>
	<path class="st5" d="M194.4,132.4l11.1-8h-13.7l-11.1,8H194.4z"/>
	<path class="st5" d="M187.5,111.3l4.3,13h13.6l-4.3-13H187.5z"/>
	<path class="st5" d="M190.2,145.3l11.1,8l4.3-13l-11.1-8L190.2,145.3z"/>
	<path class="st5" d="M147.6,98.3l-11.1-8l4.3,13l11.1,8L147.6,98.3z"/>
	<path class="st5" d="M169.6,98.3l-4.3,13l11.1-8l4.3-13L169.6,98.3z"/>
	<path class="st5" d="M187.5,111.3l-11.1-8l-11.1,8l11.1,8L187.5,111.3z"/>
	<path class="st5" d="M147.6,98.3l4.3,13h13.6l-4.3-13H147.6z"/>
	<path class="st5" d="M140.8,119.4l11.1-8l-11.1-8l-11.1,8L140.8,119.4z"/>
	<path class="st5" d="M165.5,85.4l-4.3,13l4.3,13l4.3-13L165.5,85.4z"/>
	<path class="st5" d="M194.4,132.4h-13.6l-4.3,13h13.6L194.4,132.4z"/>
	<path class="st5" d="M176.5,119.4l4.3,13l11.1-8l-4.3-13L176.5,119.4z"/>
	<path class="st5" d="M180.7,132.4l-4.3-13l-11.1-8l4.3,13L180.7,132.4z"/>
	<path class="st5" d="M165.5,137.3l11,8l4.3-13l-11.1-8L165.5,137.3z"/>
	<path class="st5" d="M161.2,124.3l4.3-13h-13.7l-4.3,13H161.2z"/>
	<path class="st5" d="M147.6,124.3l4.3-13l-11.1,8l-4.3,13L147.6,124.3z"/>
	<path class="st5" d="M169.6,124.3l-4.3-13l-4.3,13l4.3,13L169.6,124.3z"/>
	<path class="st5" d="M151.8,137.3h13.6l-4.3-13h-13.6L151.8,137.3z"/>
	<path class="st5" d="M154.4,145.3l11.1,8l11-8l-11.1-8L154.4,145.3z"/>
	<path class="st5" d="M147.6,124.3l-11.1,8l4.3,13l11.1-8L147.6,124.3z"/>
	<path class="st5" d="M165.5,137.3h-13.7l-11.1,8h13.6L165.5,137.3z"/>
</g>
<g id="mesh-3">
	<path class="st6" d="M468.4,111.3l-4.3-13h-13.6l4.3,13H468.4z"/>
	<path class="st6" d="M479.4,103.3l-4.3-13l-11.1,8l4.3,13L479.4,103.3z"/>
	<path class="st6" d="M461.5,132.4l-11.1-8l-11.1,8l11.1,8L461.5,132.4z"/>
	<path class="st6" d="M454.6,111.3l-4.3,13H464l4.3-13H454.6z"/>
	<path class="st6" d="M454.6,153.4l-4.3-13l-11.1-8l4.3,13L454.6,153.4z"/>
	<path class="st6" d="M439.4,158.3l11.1,8l4.3-13l-11.1-8L439.4,158.3z"/>
	<path class="st6" d="M461.5,132.4l-11.1,8l4.3,13l11.1-8L461.5,132.4z"/>
	<path class="st6" d="M450.5,124.3l4.3-13l-4.3-13l-4.3,13L450.5,124.3z"/>
	<path class="st6" d="M435.1,119.4l4.3,13l11.1-8l-4.3-13L435.1,119.4z"/>
	<path class="st6" d="M439.4,106.4l11.1-8l-11.1-8l-11.1,8L439.4,106.4z"/>
	<path class="st6" d="M446.2,111.3l4.3-13l-11.1,8l-4.3,13L446.2,111.3z"/>
	<path class="st6" d="M424.2,111.3l11.1,8l4.3-13l-11.1-8L424.2,111.3z"/>
	<path class="st6" d="M454.6,153.4l-4.3,13H464l4.3-13H454.6z"/>
	<path class="st6" d="M475.2,90.3l4.3,13l11.1,8l-4.3-13L475.2,90.3z"/>
	<path class="st6" d="M479.4,119.4l11.1-8l-11.1-8l-11.1,8L479.4,119.4z"/>
	<path class="st6" d="M486.2,98.3l4.3,13l4.3-13l-4.3-13L486.2,98.3z"/>
	<path class="st6" d="M468.4,111.3l-4.3,13l11.1,8l4.3-13L468.4,111.3z"/>
	<path class="st6" d="M468.4,153.4l11.1-8h-13.7l-11.1,8H468.4z"/>
	<path class="st6" d="M486.2,124.3l4.3-13l-11.1,8l-4.3,13L486.2,124.3z"/>
	<path class="st6" d="M490.4,137.3l4.3-13l-4.3-13l-4.3,13L490.4,137.3z"/>
	<path class="st6" d="M385.8,119.4h13.6l11.1-8h-13.6L385.8,119.4z"/>
	<path class="st6" d="M414.7,124.3l-4.3-13l-11.1,8l4.3,13L414.7,124.3z"/>
	<path class="st6" d="M399.5,103.3l11.1,8l4.3-13l-11.1-8L399.5,103.3z"/>
	<path class="st6" d="M396.8,111.3h13.6l-11.1-8h-13.6L396.8,111.3z"/>
	<path class="st6" d="M435.1,145.3l4.3-13h-13.6l-4.3,13H435.1z"/>
	<path class="st6" d="M421.5,145.3l4.3-13l-11.1,8l-4.3,13L421.5,145.3z"/>
	<path class="st6" d="M403.7,132.4l11.1,8l11.1-8l-11.1-8L403.7,132.4z"/>
	<path class="st6" d="M425.8,158.3h13.6l-4.3-13h-13.6L425.8,158.3z"/>
	<path class="st6" d="M421.5,119.4l4.3,13h13.6l-4.3-13C435.1,119.4,421.5,119.4,421.5,119.4z"/>
	<path class="st6" d="M428.3,98.3h-13.6l-4.3,13H424L428.3,98.3z"/>
	<path class="st6" d="M435.1,119.4l-11.1-8h-13.6l11.1,8H435.1z"/>
	<path class="st6" d="M421.5,145.3l-11.1,8l4.3,13l11.1-8L421.5,145.3z"/>
	<path class="st6" d="M399.5,145.3l11.1,8l4.3-13l-11.1-8L399.5,145.3z"/>
	<path class="st6" d="M475.2,132.4l-11.1-8h-13.6l11.1,8H475.2z"/>
	<path class="st6" d="M465.7,145.3h13.6l-4.3-13h-13.6L465.7,145.3z"/>
</g>
<g id="mesh-4">
	<path class="st7" d="M443.7,255.4l-4.3,13l11.1,8l4.3-13L443.7,255.4z"/>
	<path class="st7" d="M439.4,242.4l-4.3,13l4.3,13l4.3-13L439.4,242.4z"/>
	<path class="st7" d="M425.8,268.4h13.6l-4.3-13h-13.6L425.8,268.4z"/>
	<path class="st7" d="M465.7,255.4l-11.1,8l-4.3,13l11.1-8L465.7,255.4z"/>
	<path class="st7" d="M475.2,268.4l4.3-13h-13.7l-4.3,13H475.2z"/>
	<path class="st7" d="M443.7,255.4l11.1,8l11.1-8l-11.1-8L443.7,255.4z"/>
	<path class="st7" d="M410.5,263.4l4.3,13l11.1-8l-4.3-13L410.5,263.4z"/>
	<path class="st7" d="M439.4,284.4l11.1-8l-11.1-8l-11.1,8L439.4,284.4z"/>
	<path class="st7" d="M425.8,284.4l-11.1-8l-4.3,13l11.1,8L425.8,284.4z"/>
	<path class="st7" d="M428.3,276.3h-13.6l11.1,8h13.6L428.3,276.3z"/>
	<path class="st7" d="M435.1,297.4l4.3-13h-13.6l-4.3,13H435.1z"/>
	<path class="st7" d="M475.2,242.4l-11.1-8h-13.6l11.1,8H475.2z"/>
	<path class="st7" d="M454.6,221.4l-4.3,13H464l4.3-13H454.6z"/>
	<path class="st7" d="M465.7,255.4h13.6l-4.3-13h-13.6L465.7,255.4z"/>
	<path class="st7" d="M468.4,221.4l-4.3,13l11.1,8l4.3-13L468.4,221.4z"/>
	<path class="st7" d="M454.6,247.4l-4.3-13l-11.1,8l4.3,13L454.6,247.4z"/>
	<path class="st7" d="M421.5,255.4h13.6l4.3-13h-13.6L421.5,255.4z"/>
	<path class="st7" d="M461.5,242.4l-11.1-8l4.3,13l11.1,8L461.5,242.4z"/>
	<path class="st7" d="M468.4,221.4l-4.3-13h-13.6l4.3,13H468.4z"/>
	<path class="st7" d="M446.2,221.4l4.3,13l4.3-13l-4.3-13L446.2,221.4z"/>
	<path class="st7" d="M446.2,221.4l4.3-13l-11.1-8l-4.3,13L446.2,221.4z"/>
	<path class="st7" d="M428.3,234.4l11.1,8l11.1-8l-11.1-8L428.3,234.4z"/>
	<path class="st7" d="M414.7,234.4l11.1,8h13.6l-11.1-8H414.7z"/>
	<path class="st7" d="M435.1,213.4l4.3,13l11.1,8l-4.3-13L435.1,213.4z"/>
	<path class="st7" d="M428.3,234.4l11.1-8l-4.3-13l-11.1,8L428.3,234.4z"/>
	<path class="st7" d="M450.5,302.3l-11.1,8l11.1,8l11.1-8L450.5,302.3z"/>
	<path class="st7" d="M461.5,310.3l-11.1,8l4.3,13l11.1-8L461.5,310.3z"/>
	<path class="st7" d="M464.1,276.3h-13.6l4.3,13h13.6L464.1,276.3z"/>
	<path class="st7" d="M461.5,310.3l4.3-13l-11.1-8l-4.3,13L461.5,310.3z"/>
	<path class="st7" d="M479.4,281.4l-4.3-13l-11,8l4.3,13L479.4,281.4z"/>
	<path class="st7" d="M443.7,297.4l-4.3,13l11.1-8l4.3-13L443.7,297.4z"/>
	<path class="st7" d="M443.7,297.4l11.1-8l-4.3-13l-11.1,8L443.7,297.4z"/>
	<path class="st7" d="M439.4,284.4l-4.3,13l4.3,13l4.3-13L439.4,284.4z"/>
	<path class="st7" d="M461.5,310.3l4.3,13h13.6l-4.3-13H461.5z"/>
	<path class="st7" d="M475.2,310.3l4.3-13h-13.7l-4.3,13H475.2z"/>
	<path class="st7" d="M490.4,263.4l-11.1-8l-4.3,13l11.1,8L490.4,263.4z"/>
	<path class="st7" d="M479.4,297.4l-4.3,13l4.3,13l4.3-13L479.4,297.4z"/>
	<path class="st7" d="M494.7,302.3l-4.3-13l-11.1,8l4.3,13L494.7,302.3z"/>
	<path class="st7" d="M483.6,310.3l-4.3,13l11.1-8l4.3-13L483.6,310.3z"/>
	<path class="st7" d="M501.5,255.4l-11.1-8l-11.1,8l11.1,8L501.5,255.4z"/>
	<path class="st7" d="M486.2,234.4l4.3-13l-11.1,8l-4.3,13L486.2,234.4z"/>
	<path class="st7" d="M468.4,221.4l11.1,8l11.1-8l-11.1-8L468.4,221.4z"/>
	<path class="st7" d="M486.2,234.4l-11.1,8l4.3,13l11.1-8L486.2,234.4z"/>
	<path class="st7" d="M479.4,213.4l-4.3-13l-11.1,8l4.3,13L479.4,213.4z"/>
	<path class="st7" d="M475.2,200.4l4.3,13l11.1,8l-4.3-13L475.2,200.4z"/>
	<path class="st7" d="M396.8,289.3h13.6l4.3-13h-13.6L396.8,289.3z"/>
	<path class="st7" d="M390,268.4l11.1,8h13.6l-11.1-8H390z"/>
	<path class="st7" d="M425.8,242.4l-11.1-8l-4.3,13l11.1,8L425.8,242.4z"/>
	<path class="st7" d="M424.2,221.4h-13.6l4.3,13h13.6L424.2,221.4z"/>
	<path class="st7" d="M421.5,213.4l-11.1,8H424l11.1-8H421.5z"/>
</g>
<g id="mesh-5">
	<path class="st8" d="M292.2,365.4l-11.1-8l-11.1,8l11.1,8L292.2,365.4z"/>
	<path class="st8" d="M305.8,365.4l-11.1-8h-13.6l11.1,8H305.8z"/>
	<path class="st8" d="M285.3,344.4l-4.3,13h13.6l4.3-13H285.3z"/>
	<path class="st8" d="M292.2,365.4l-11.1,8l4.3,13l11.1-8L292.2,365.4z"/>
	<path class="st8" d="M281.2,357.3l4.3-13l-4.3-13l-4.3,13L281.2,357.3z"/>
	<path class="st8" d="M294.8,331.4h-13.6l4.3,13H299L294.8,331.4z"/>
	<path class="st8" d="M294.8,399.4l11.1-8l4.3-13l-11.1,8L294.8,399.4z"/>
	<path class="st8" d="M321.1,386.4l-11.1-8l-4.3,13l11.1,8L321.1,386.4z"/>
	<path class="st8" d="M296.4,378.4H310l-4.3-13h-13.6L296.4,378.4z"/>
	<path class="st8" d="M299,344.4l-4.3,13l11.1,8l4.3-13L299,344.4z"/>
	<path class="st8" d="M299,386.4l11.1-8h-13.6l-11.1,8H299z"/>
	<path class="st8" d="M323.7,378.4h-13.6l11.1,8h13.6L323.7,378.4z"/>
	<path class="st8" d="M323.7,378.4l11.1,8l11.1-8l-11.1-8L323.7,378.4z"/>
	<path class="st8" d="M316.9,357.3l-11.1,8l4.3,13l11.1-8L316.9,357.3z"/>
	<path class="st8" d="M321.1,344.4l-11.1,8l-4.3,13l11.1-8L321.1,344.4z"/>
	<path class="st8" d="M334.8,370.3h-13.6l-11.1,8h13.6L334.8,370.3z"/>
	<path class="st8" d="M316.9,357.3l4.3,13h13.6l-4.3-13H316.9z"/>
	<path class="st8" d="M316.9,331.4l-11.1-8l4.3,13l11.1,8L316.9,331.4z"/>
	<path class="st8" d="M299,344.4l11.1-8l-4.3-13l-11.1,8L299,344.4z"/>
	<path class="st8" d="M292.2,323.3l-11.1,8h13.6l11.1-8H292.2z"/>
	<path class="st8" d="M274.4,310.3l-4.3,13l11.1,8l4.3-13L274.4,310.3z"/>
	<path class="st8" d="M296.4,310.3l-11.1,8l-4.3,13l11.1-8L296.4,310.3z"/>
	<path class="st8" d="M274.4,310.3l11.1,8l11.1-8l-11.1-8L274.4,310.3z"/>
	<path class="st8" d="M316.9,331.4l4.3,13h13.6l-4.3-13H316.9z"/>
	<path class="st8" d="M310.1,352.4l11.1-8l-11.1-8l-11.1,8L310.1,352.4z"/>
	<path class="st8" d="M334.8,318.4l-4.3,13l4.3,13l4.3-13L334.8,318.4z"/>
	<path class="st8" d="M334.8,370.3l11.1,8l4.3-13l-11.1-8L334.8,370.3z"/>
	<path class="st8" d="M330.5,357.3l4.3-13h-13.6l-4.3,13H330.5z"/>
	<path class="st8" d="M339,357.3l-4.3-13l-4.3,13l4.3,13L339,357.3z"/>
	<path class="st8" d="M390,352.4l-4.3,13h13.6l4.3-13H390z"/>
	<path class="st8" d="M403.7,352.4l11.1-8h-13.6l-11.1,8H403.7z"/>
	<path class="st8" d="M385.8,339.4l4.3,13l11.1-8l-4.3-13L385.8,339.4z"/>
	<path class="st8" d="M350,323.3l11.1,8h13.6l-11.1-8H350z"/>
	<path class="st8" d="M370.5,344.4l4.3-13h-13.6l-4.3,13H370.5z"/>
	<path class="st8" d="M359.5,310.3h-13.6l4.3,13h13.6L359.5,310.3z"/>
	<path class="st8" d="M356.8,344.4l4.3-13l-11.1-8l-4.3,13L356.8,344.4z"/>
	<path class="st8" d="M370.5,318.4l4.3,13l11.1-8l-4.3-13L370.5,318.4z"/>
	<path class="st8" d="M363.7,323.3l11.1,8l-4.3-13l-11.1-8L363.7,323.3z"/>
	<path class="st8" d="M374.7,373.4l11.1-8l-11.1-8l-11.1,8L374.7,373.4z"/>
	<path class="st8" d="M363.7,365.4l11.1-8h-13.6l-11.1,8H363.7z"/>
	<path class="st8" d="M356.8,344.4l4.3,13h13.6l-4.3-13H356.8z"/>
	<path class="st8" d="M381.6,378.4l4.3-13l-11.1,8l-4.3,13L381.6,378.4z"/>
	<path class="st8" d="M359.5,378.4l11.1,8l4.3-13l-11.1-8L359.5,378.4z"/>
	<path class="st8" d="M379,344.4l-4.3-13l-4.3,13l4.3,13L379,344.4z"/>
	<path class="st8" d="M379,344.4l-4.3,13l11.1,8l4.3-13L379,344.4z"/>
	<path class="st8" d="M390,352.4l-4.3-13l-11.1-8l4.3,13L390,352.4z"/>
	<path class="st8" d="M339,331.4l-4.3,13l11.1-8l4.3-13L339,331.4z"/>
	<path class="st8" d="M356.8,344.4l-11.1-8l-11.1,8l11.1,8L356.8,344.4z"/>
	<path class="st8" d="M339,331.4l11.1-8l-4.3-13l-11.1,8L339,331.4z"/>
	<path class="st8" d="M363.7,365.4h-13.6l-4.3,13h13.6L363.7,365.4z"/>
	<path class="st8" d="M345.9,352.4l4.3,13l11.1-8l-4.3-13L345.9,352.4z"/>
	<path class="st8" d="M350,365.4l-4.3-13l-11.1-8l4.3,13L350,365.4z"/>
</g>
</svg>
