<?xml version="1.0" encoding="utf-8"?>
<!-- Generator: Adobe Illustrator 26.0.2, SVG Export Plug-In . SVG Version: 6.00 Build 0)  -->
<svg version="1.1" id="Layer_1" xmlns="http://www.w3.org/2000/svg" xmlns:xlink="http://www.w3.org/1999/xlink" x="0px" y="0px"
	 viewBox="0 0 433 492" style="enable-background:new 0 0 433 492;" xml:space="preserve">
<style type="text/css">
	.developer-st0{fill:none;stroke:#1F91CC;stroke-width:1.43;stroke-linecap:round;stroke-linejoin:round;}
	.developer-st1{fill:none;stroke:#454A54;stroke-linecap:round;stroke-linejoin:round;}
	.developer-st2{fill:none;stroke:#454A54;stroke-width:1.43;stroke-linecap:round;stroke-linejoin:round;}
	.developer-st3{fill:#1F91CC;stroke:#454A54;stroke-width:1.43;stroke-linecap:round;stroke-linejoin:round;}
	.developer-st4{fill:#454A54;stroke:#454A54;stroke-width:1.43;stroke-linecap:round;stroke-linejoin:round;}
	.developer-st5{fill:#1F91CC;stroke:#454A54;stroke-linecap:round;stroke-linejoin:round;}
	.developer-st6{fill:#1F91CC;}
	.developer-st7{fill:#454A54;}
	.developer-st8{fill:#FFFFFF;}
	.developer-st9{fill:#95A5A6;stroke:#454A54;stroke-width:0.75;stroke-linecap:round;stroke-linejoin:round;}
	.developer-st10{fill:#454A54;stroke:#454A54;stroke-width:0.75;stroke-linecap:round;stroke-linejoin:round;}
	.developer-st11{fill:#ECF0F1;}
	.developer-st12{fill:#293848;}
	.developer-st13{fill:#3B4451;}
	.developer-st14{fill:#243548;}
	.developer-st15{fill:#314050;}
	.developer-st16{fill:#425498;}
	.developer-st17{fill:#F3D1BB;}
	.developer-st18{fill:#E8C0A8;}
	.developer-st19{fill:none;stroke:#FFFFFF;stroke-width:0.75;stroke-linecap:round;stroke-linejoin:round;}
	.developer-st20{fill:none;stroke:#1F91CC;stroke-linecap:round;stroke-linejoin:round;stroke-miterlimit:10;}
	.developer-st21{fill:none;stroke:#FFFFFF;stroke-linecap:round;stroke-linejoin:round;stroke-miterlimit:10;}
	.developer-st22{fill:#414042;}
</style>
<polyline class="developer-st0" points="311.9,397.9 367.3,397.9 367.3,136.8 "/>
<g id="Layer_4_00000173868065902366781530000001795239721894411693_">
	<line class="developer-st1" x1="372.9" y1="70.2" x2="357.6" y2="62.6"/>
	<line class="developer-st1" x1="357.6" y1="62.6" x2="372.9" y2="54.9"/>
	<path class="developer-st2" d="M294.6,168.3l-0.3,23.5l13.5,19.2l0.3-23.5L294.6,168.3z"/>
	<path class="developer-st2" d="M272.1,175.3l-22.2-7.5l-0.3,23.5l22.2,7.6L272.1,175.3z"/>
	<path class="developer-st2" d="M322.9,107.2l22.4-7L331.8,81l-22.3,7L322.9,107.2z"/>
	<path class="developer-st2" d="M308.1,187.5l-0.3,23.5l14-18.8l0.3-23.5L308.1,187.5z"/>
	<path class="developer-st2" d="M308.1,187.5l14-18.8l-13.6-19.2l-14,18.8L308.1,187.5z"/>
	<path class="developer-st2" d="M344.5,161.7l-13.6-19.2l-22.3,7l13.6,19.2L344.5,161.7z"/>
	<path class="developer-st2" d="M271.8,198.7l22.4-7l0.3-23.5l-22.4,7L271.8,198.7z"/>
	<path class="developer-st3" d="M272.3,160.8l-22.4,7l22.2,7.5l22.4-7L272.3,160.8z"/>
	<path class="developer-st2" d="M309.4,88l-22.3-7.6l-14.1,18.8l22.2,7.5L309.4,88z"/>
	<path class="developer-st3" d="M331.8,81.1l-22.2-7.5l-22.4,7l22.3,7.6L331.8,81.1z"/>
	<path class="developer-st2" d="M309.4,88l-14.1,18.8l13.6,19.2l14-18.8L309.4,88z"/>
	<path class="developer-st2" d="M330.9,142.5l14-18.8l0.4-23.5l-14,18.8L330.9,142.5z"/>
	<path class="developer-st2" d="M367.6,107.8l-22.2-7.6l-0.3,23.5l22.2,7.6L367.6,107.8z"/>
	<path class="developer-st4" d="M308.9,126l-0.3,23.5l22.3-7l0.3-23.5L308.9,126z"/>
	<path class="developer-st2" d="M331.3,119l14-18.8l-22.4,7l-14,18.8L331.3,119z"/>
	<path class="developer-st2" d="M367.3,131.3l22.4-7l0.3-23.5l-22.4,7L367.3,131.3z"/>
	<path class="developer-st3" d="M367.8,93.3l-22.4,6.9l22.2,7.6l22.4-7L367.8,93.3z"/>
	<circle class="developer-st5" cx="357.6" cy="61.8" r="3.1"/>
	<circle class="developer-st5" cx="372.9" cy="54.2" r="3.1"/>
	<circle class="developer-st5" cx="372.9" cy="69.4" r="3.1"/>
	<path class="developer-st6" d="M301,47.5l3.1,3.1l9.9-9.9l-3.1-3.1L301,47.5z"/>
	<path class="developer-st6" d="M315.1,39.8c0.3-0.3,0.5-0.6,0.8-0.9c0.4-0.5,0.5-1.2,0.2-1.8c-0.3-0.5-0.8-1-1.3-1.4
		c-0.5-0.4-1.1-0.5-1.7-0.2c-0.5,0.3-0.9,0.6-1.2,1.1L315.1,39.8z"/>
	<path class="developer-st6" d="M300.3,49l-1,3.5l3.5-1L300.3,49z"/>
	<path class="developer-st6" d="M300.3,49l2.5,2.4l-3.5,1L300.3,49z"/>
	<circle class="developer-st2" cx="271.7" cy="130.8" r="19"/>
	<line class="developer-st2" x1="271.7" y1="155" x2="271.7" y2="150.6"/>
	<line class="developer-st2" x1="366.8" y1="89.1" x2="366.8" y2="82.1"/>
	<circle class="developer-st2" cx="366.8" cy="61.8" r="20.3"/>
	<circle class="developer-st2" cx="308.5" cy="44.7" r="15.5"/>
	<line class="developer-st2" x1="308.5" y1="67.7" x2="308.5" y2="61.4"/>
	<path class="developer-st7" d="M271.4,140h-7.5c-0.5,0-1-0.1-1.4-0.4c-0.4-0.3-0.7-0.7-0.7-1.2c-0.1-0.7-0.2-1.4-0.2-2.1
		c-0.1-1.2-0.2-2.5-0.4-3.7c-0.2-1.2,0.6-2.4,1.8-2.6c0.1,0,0.2,0,0.3,0h0.2c5.3,0,10.6,0,15.9,0c1,0,1.9,0.6,2.3,1.5
		c0.1,0.5,0.1,0.9,0,1.4l-0.3,3.8c0,0.6-0.1,1.1-0.2,1.7c-0.2,0.9-0.9,1.6-1.9,1.7L271.4,140L271.4,140z"/>
	<path class="developer-st7" d="M271.4,131.1h-7.9c-0.2,0-0.5,0-0.7,0.1c-0.5,0.3-0.8,0.8-0.7,1.4c0.2,1.8,0.4,3.6,0.6,5.5
		c0,0.2,0.1,0.5,0.3,0.6c0.2,0.2,0.6,0.3,0.9,0.3h15.3c0.4,0,0.8-0.4,0.9-0.8c0-0.2,0-0.4,0-0.6c0.2-1.7,0.4-3.3,0.5-5
		c0-0.2,0-0.5-0.1-0.7c-0.2-0.5-0.7-0.8-1.2-0.8L271.4,131.1z"/>
	<path class="developer-st7" d="M276.2,120.4h1.1c0.7,0,1.4,0.5,1.5,1.2c0.3,2.1,0.7,4.1,1.1,6.2c0.1,0.2,0.1,0.4,0.1,0.7
		c0,0.2-0.1,0.5-0.3,0.5c-0.2,0.1-0.5,0-0.6-0.2c-0.1-0.1-0.1-0.2-0.1-0.3c-0.4-2.2-0.7-4.4-1.1-6.6c0-0.4-0.1-0.5-0.5-0.5h-2.3
		c-0.2,0-0.4-0.1-0.5-0.2c-0.1-0.2-0.1-0.4,0-0.5c0.1-0.2,0.3-0.3,0.5-0.3L276.2,120.4z"/>
	<path class="developer-st7" d="M266.6,120.4h1.3c0.3,0,0.5,0.2,0.6,0.5c0,0,0,0,0,0c0,0.3-0.2,0.5-0.5,0.5c0,0,0,0,0,0h-2.3
		c-0.4,0-0.5,0-0.5,0.5c-0.4,2.2-0.7,4.4-1.1,6.6c0,0.4-0.3,0.6-0.6,0.5c-0.3,0-0.5-0.3-0.5-0.6c0,0,0-0.1,0-0.1l0.2-1.2
		c0.3-1.9,0.6-3.7,1-5.6c0.1-0.7,0.7-1.2,1.5-1.2L266.6,120.4z"/>
	<path class="developer-st8" d="M271.4,136.8h-2.6c-0.7,0.1-1.4-0.5-1.4-1.2c0,0,0,0,0-0.1l-0.1-1.1c-0.1-0.3,0.1-0.5,0.4-0.6c0,0,0,0,0,0
		c0.3,0,0.6,0.1,0.6,0.4c0,0,0,0,0,0c0,0.4,0.1,0.8,0.2,1.2c0,0.4,0.1,0.3,0.3,0.3h5.3c0.3,0,0.3,0,0.4-0.3c0-0.3,0.1-0.7,0.2-1.1
		c0-0.3,0.3-0.5,0.6-0.5c0,0,0.1,0,0.1,0c0.3,0,0.5,0.3,0.5,0.6c0,0,0,0.1,0,0.1l-0.1,1.1c-0.1,0.7-0.7,1.3-1.4,1.2L271.4,136.8z"/>
	<path class="developer-st6" d="M271.9,128.7l3.1-4.4c0.2-0.3,0.1-0.7-0.2-0.9c-0.1-0.1-0.2-0.1-0.4-0.1h-6.3c-0.4,0-0.7,0.3-0.7,0.7
		c0,0.1,0,0.3,0.1,0.4l3.1,4.4c0.2,0.3,0.6,0.4,0.9,0.2C271.8,128.9,271.9,128.8,271.9,128.7z"/>
	<path class="developer-st6" d="M272.3,125h-1.9c-0.3,0-0.6-0.2-0.7-0.6l-0.9-5.3c-0.1-0.4,0.2-0.7,0.6-0.8c0,0,0.1,0,0.1,0h3.7
		c0.4,0,0.7,0.3,0.7,0.7c0,0,0,0.1,0,0.1l-0.8,5.3C273,124.8,272.7,125,272.3,125C272.3,125,272.3,125,272.3,125z"/>
</g>
<polygon class="developer-st9" points="323,431.1 277.4,446.4 277.4,383.6 323,367.3 "/>
<polygon class="developer-st10" points="248.6,372.9 248.9,435.2 277.4,446.4 277.4,381.6 "/>
<polygon class="developer-st11" points="279.3,383.5 83.5,319.5 141.1,306.3 328.1,366.3 "/>
<polygon class="developer-st10" points="205.6,324.9 205.6,323.8 175.9,315.9 163.2,323 162.9,324.2 195.1,334.3 "/>
<polygon class="developer-st12" points="205.6,323.8 175.9,314.6 163.2,323 195.1,333.1 "/>
<path class="developer-st13" d="M194.7,326.3v-11.7c0-0.2-0.1-0.4-0.3-0.4l-17.6-5.1c-0.2-0.1-0.5,0.1-0.5,0.3v0.1v11.4c0,0.2,0.1,0.4,0.3,0.4
	l16.9,6.1C193.7,327.3,194.7,326.6,194.7,326.3z"/>
<path class="developer-st10" d="M193.7,327v-11.7c0-0.2-0.1-0.4-0.3-0.4l-17.6-5.1c-0.2-0.1-0.5,0.1-0.6,0.3v0.1v11.4c0,0.2,0.1,0.4,0.3,0.4
	l17.6,5.5C193.3,327.5,193.6,327.3,193.7,327C193.7,327,193.7,327,193.7,327z"/>
<path class="developer-st12" d="M235.8,328.2v-60.8c0-0.9-0.7-1.8-1.6-2L143,238.7c-1.4-0.4-5.2,0.9-5.2,2.4l2.5,58.7c0,0.9,0.7,1.8,1.5,2
	l89.1,29.6C232.3,332,235.8,329.7,235.8,328.2z"/>
<path class="developer-st13" d="M233.3,329.4v-60.9c0-0.9-0.7-1.8-1.5-2l-91.2-26.6c-1.1-0.4-2.3,0.3-2.6,1.4c-0.1,0.2-0.1,0.4-0.1,0.7v59
	c0,0.9,0.7,1.8,1.5,2l91.2,28.4c1.1,0.4,2.3-0.3,2.7-1.4C233.2,329.8,233.3,329.6,233.3,329.4z"/>
<path class="developer-st10" d="M230.3,327.4v-58c0-0.9-0.6-1.7-1.5-2l-87-25.3c-1.1-0.3-2.2,0.3-2.5,1.4c-0.1,0.2-0.1,0.4-0.1,0.6v56.3
	c0,0.9,0.6,1.7,1.4,2l87,27.1c1.1,0.4,2.2-0.3,2.5-1.3C230.3,327.8,230.3,327.6,230.3,327.4z"/>
<polygon class="developer-st14" points="186.4,346.4 194.7,335.9 194.7,339.7 "/>
<polygon class="developer-st15" points="194.7,335.9 150.5,321.8 140.7,332.8 186.4,346.4 "/>
<path class="developer-st13" d="M148,414.1l10-5.6c0,0,0-46.9-11.7-54.1c-7.5-4.6-34.4,9.1-34.4,9.1l7.1,12c0,0,10.7-6.2,16-7.1
	C146.6,366.7,148,414.1,148,414.1z"/>
<path class="developer-st13" d="M176.3,428.2l10-5.6c0,0,0-47-11.7-54.1c-7.5-4.6-34.4,9.1-34.4,9.1l7.1,12c0,0,10.7-6.2,16-7.1
	C174.9,380.8,176.3,428.2,176.3,428.2z"/>
<path class="developer-st16" d="M150.8,377.5l-32.4-18.4c-0.8-0.5-1.9-0.6-2.7-0.1l-38.4,17.8c-1.5,0.7-2.1,2.4-1.4,3.9c0.2,0.5,0.6,0.8,1,1.2
	l32,22.2c0.9,0.7,2.1,0.7,3.1,0.2l38.8-21.5c1.4-0.7,2-2.6,1.2-4C151.8,378.2,151.4,377.8,150.8,377.5z"/>
<polygon class="developer-st11" points="117.4,336 138.3,375.1 127.8,381.6 112.4,360.6 "/>
<path class="developer-st6" d="M113.1,326.7l-15.9-9.4c0,0-9.4-4.8-15.6,0.3c-6.7,5.6-10.9,7.7-11,28.8c0,13.9,8.6,54.7,8.6,54.7l35.1,7.6
	l42.9-24.9l-1.9-9.6c0,0-19.9,7.8-24.2,5.5c-4.6-2.6-11.3-12.4-12.4-17.8c-0.9-4.6-1.1-18.4-1.1-18.4l5.2-10.9L113.1,326.7z"/>
<path class="developer-st6" d="M113.1,326.7l-11.4-7.1c0,0-12.7,0.8-10.1,6.2C94.4,331.6,113.1,326.7,113.1,326.7z"/>
<path class="developer-st17" d="M96.4,323.9c1.3,0.7,2.7,1,4.1,1c1.4,0,2.8-0.4,4.1-1v-13.5h-8.3L96.4,323.9L96.4,323.9z"/>
<path class="developer-st13" d="M130.1,453.5c0-3.7,2-6.7,4.6-6.7c0.6,0,1.1,0.2,1.7,0.5v-0.1l4.6,2.5l-1.6,13.4l-5.8-3.2v-0.1
	C131.5,459.2,130.1,456.7,130.1,453.5z"/>
<ellipse class="developer-st10" cx="139.9" cy="456.5" rx="4.6" ry="6.7"/>
<path class="developer-st13" d="M67.8,420.7c0-3.7,2-6.7,4.6-6.7c0.6,0,1.1,0.2,1.7,0.5v-0.1l4.6,2.5l-1.6,13.4l-5.8-3.2v-0.1
	C69.3,426.3,67.8,423.8,67.8,420.7z"/>
<ellipse class="developer-st10" cx="77.8" cy="423.6" rx="4.6" ry="6.7"/>
<path class="developer-st13" d="M131.3,419.5c0-3.7,2-6.7,4.6-6.7c0.6,0,1.1,0.2,1.7,0.5v-0.1l4.6,2.5l-1.6,13.4l-5.8-3.2v-0.1
	C132.7,425.1,131.3,422.6,131.3,419.5z"/>
<ellipse class="developer-st10" cx="141.1" cy="422.4" rx="4.6" ry="6.7"/>
<path class="developer-st13" d="M68.6,453.5c0-3.7,2-6.7,4.6-6.7c0.6,0,1.1,0.2,1.7,0.5v-0.1l4.6,2.5l-1.6,13.5l-5.8-3.2V460
	C70.1,459.2,68.6,456.7,68.6,453.5z"/>
<ellipse class="developer-st10" cx="78.5" cy="456.5" rx="4.6" ry="6.7"/>
<path class="developer-st10" d="M74.4,441.5l32.4-15.3c1.2,3,1.5,4.5,2.9,7.2C95,442,81,450.5,76.4,452.1C70.7,454.2,72.8,442.4,74.4,441.5z"
	/>
<path class="developer-st10" d="M138.8,411.2c1.7-0.9,3.8-6.5,4.8-4.8c1,1.7,1.5,6.2-0.2,7.2c0,0-18.6,10.6-35,20.2c-1.4-2.7-0.3-4.6-1.5-7.5
	L138.8,411.2z"/>
<path class="developer-st10" d="M70.4,411.8c1-1.7,3.2-2.2,4.8-1.3l0,0l29.7,17.4c0,2.8-2.2,2.4-2.2,5.1l-31-16.4
	C70.1,415.7,69.4,413.6,70.4,411.8L70.4,411.8z"/>
<path class="developer-st10" d="M141.7,445.1c1.7,0.9,0.5,6.4-0.5,8.1c-1,1.7-3.2,2.2-4.8,1.3l-30.6-18.8c0-2.7,0.2-4.9,0.2-7.8L141.7,445.1z"
	/>
<path class="developer-st10" d="M138.9,450.7c2,0,3.5-1.6,3.5-3.5c0-1.2-0.7-2.4-1.8-3L76,406.3c-1.6-1-3.8-0.7-4.8,1s-0.7,3.8,1,4.8
	c0.1,0.1,0.2,0.1,0.3,0.2l64.7,37.9C137.7,450.5,138.4,450.6,138.9,450.7z"/>
<path class="developer-st10" d="M76.1,448.1c0.7,0,1.2-0.2,1.8-0.5l64.4-36.4c1.8-0.8,2.4-3,1.6-4.8s-3-2.4-4.8-1.6c-0.1,0.1-0.2,0.1-0.3,0.2
	l-64.4,36.4c-1.7,0.9-2.3,3.1-1.3,4.8C73.7,447.5,74.9,448.1,76.1,448.1z"/>
<path class="developer-st18" d="M101.7,319.7c9.7-1.2,10.6-13.1,10.6-19.1c0-10.9-7.2-21.5-18.3-21.4c-7.5,0-18.3,10.2-15.3,25.9
	C80,311.6,91.5,321,101.7,319.7z"/>
<path class="developer-st13" d="M106.4,429.1L106.4,429.1c-2.3,0-4.2-1.9-4.2-4.2v-25.1c0-2.3,1.9-4.2,4.2-4.2l0,0c2.3,0,4.2,1.9,4.2,4.2v25.1
	C110.6,427.3,108.7,429.1,106.4,429.1z"/>
<path class="developer-st10" d="M152.3,387.1c0,0-30.2,22.7-42.8,24.1c-10.3,1.2-39.9-13.9-47.9-20.5c-3-2.4-7.6-8.8-9.5-12.1
	c-5.7-10.2-10.3-46.9-9-48.3c2.4-2.6,10.5-5,13.3-3.4c21,12.8,36.5,10.3,43.8,21.4c7.9,11.9,12.6,54.9,12.6,54.9l39.5-23.5V387.1z"
	/>
<path class="developer-st13" d="M110.4,405.1l6.7-4.1c0,0-5.7-42.9-14.8-53.7c-7.2-8.4-32.1-17.6-44.3-21.1c-2.1-0.7-4.4-0.9-6.6-0.7
	c-3.2,0.2-6.4,1.5-8.3,5l0,0l42.9,16.9l6,2.3c3.4,1.3,5.8,4.2,6.7,7.6L110.4,405.1z"/>
<path class="developer-st10" d="M155.4,374.3v-1.7l-8.2-3.2l-30.1,14.2v1.7l4.9,3.7c1.6,1.2,3.8,1.4,5.5,0.4L155.4,374.3z"/>
<path class="developer-st13" d="M155.4,372.7l-6.4-3.8c-1.1-0.7-2.4-0.7-3.5-0.1l-28.2,14.9l5.7,4.3c1.1,0.8,2.7,0.9,3.9,0.3L155.4,372.7z"/>
<path class="developer-st6" d="M122.9,332.7c7.7,3,8.5,29.5,17,32.4c5.3,1.9,18.9-7.9,18.9-7.9l3.7,8.4c0,0-19.8,15.4-26.9,12.9
	c-9.8-3.4-18.3-37.3-18.3-37.3S120.5,331.8,122.9,332.7z"/>
<path class="developer-st17" d="M162.6,365.6l6-3.6c0,0-0.1-5.4-1.5-6.2c-1.8-1.1-8.2,1.5-8.2,1.5L162.6,365.6z"/>
<path class="developer-st10" d="M176,423.8c0,0,0.6,10.2,3.4,11.5c4.8,2,18.7-9.5,18.7-9.5s-0.1-5.7-1.5-6.6c-2-1.3-10.8-0.4-10.8-0.4
	L176,423.8z"/>
<path class="developer-st10" d="M179.3,434.2c4.8,2,18.4-9.1,18.7-9.4c0.1,0.7,0.1,1.1,0.1,1.1s-13.9,11.6-18.7,9.4
	c-2.7-1.2-3.4-11.5-3.4-11.5l0.1-0.1C176.3,426.4,177.1,433.1,179.3,434.2z"/>
<path class="developer-st10" d="M147.8,412.5c0,0,0.6,10.2,3.4,11.5c4.8,2,18.7-9.5,18.7-9.5s-0.1-5.7-1.6-6.6c-2-1.3-10.8-0.4-10.8-0.4
	L147.8,412.5z"/>
<polygon class="developer-st6" points="111.9,337.3 130.3,329.9 124.2,322.1 102.2,332 "/>
<circle class="developer-st6" cx="262.7" cy="426" r="2.8"/>
<line class="developer-st19" x1="253" y1="383.8" x2="273" y2="390.6"/>
<line class="developer-st20" x1="142.1" y1="245.9" x2="225.8" y2="271.6"/>
<line class="developer-st21" x1="151.5" y1="281.2" x2="169.1" y2="286.6"/>
<line class="developer-st21" x1="162.6" y1="268.4" x2="172.7" y2="271.5"/>
<line class="developer-st21" x1="158.1" y1="267.1" x2="162.6" y2="268.4"/>
<line class="developer-st21" x1="148.9" y1="264.2" x2="158.1" y2="267.1"/>
<line class="developer-st21" x1="148.1" y1="272.1" x2="165.2" y2="277.3"/>
<line class="developer-st21" x1="150.6" y1="289.1" x2="163.2" y2="292.9"/>
<path class="developer-st21" d="M225.8,279.7"/>
<line class="developer-st21" x1="147.8" y1="255.8" x2="159.1" y2="259.3"/>
<line class="developer-st21" x1="142.1" y1="254" x2="144.7" y2="254.8"/>
<line class="developer-st21" x1="148.5" y1="296.5" x2="153.5" y2="298.1"/>
<path class="developer-st22" d="M107.1,279.6c2.4,1.7-8.2,5.5-8.5,8.4c-0.4,4.5,6.1,17.2,6.1,17.2l0,0c0,0-6.1-7.2-8.1-5.7
	c-2,1.5,3.3,10.4,3.3,10.4L93.6,322c0,0-22.6-8.3-18.2-31.3C79.2,270.2,100.4,274.9,107.1,279.6z"/>
<path class="developer-st17" d="M128.1,331.2l6.6-4c0,0-0.1-6-1.6-6.9c-2-1.2-9.1,1.6-9.1,1.6L128.1,331.2z"/>
</svg>
