<?xml version="1.0" encoding="utf-8"?>
<!-- Generator: Adobe Illustrator 26.0.2, SVG Export Plug-In . SVG Version: 6.00 Build 0)  -->
<svg version="1.1" id="Layer_1" xmlns="http://www.w3.org/2000/svg" xmlns:xlink="http://www.w3.org/1999/xlink" x="0px" y="0px"
	 viewBox="0 0 433 492" style="enable-background:new 0 0 433 492;" xml:space="preserve">
<style type="text/css">
	.researcher-st0{fill:none;stroke:#CCCCCC;stroke-width:1.74;stroke-linecap:round;stroke-linejoin:round;}
	.researcher-st1{fill:#454A54;}
	.researcher-st2{fill:#95A5A6;}
	.researcher-st3{fill:none;}
	.researcher-st4{fill:#1F91CC;}
	.researcher-st5, .cls-transferline{fill:none;stroke:#454A54;stroke-width:1.74;stroke-linecap:round;stroke-linejoin:round;}
	.researcher-st6{fill:#95A5A6;stroke:#454A54;stroke-width:0.75;stroke-linecap:round;stroke-linejoin:round;}
	.researcher-st7{fill:#454A54;stroke:#454A54;stroke-width:0.75;stroke-linecap:round;stroke-linejoin:round;}
	.researcher-st8{fill:#ECF0F1;}
	.researcher-st9{fill:#293848;}
	.researcher-st10{fill:#3B4451;}
	.researcher-st11{fill:#5395CD;}
	.researcher-st12{fill:#243548;}
	.researcher-st13{fill:#314050;}
	.researcher-st14{fill:#425498;}
	.researcher-st15{fill:#845F41;}
	.researcher-st16{fill:#A27D57;}
	.researcher-st17{fill:#5B3A1B;}
	.researcher-st18{fill:none;stroke:#FFFFFF;stroke-width:0.75;stroke-linecap:round;stroke-linejoin:round;}
</style>
<g id="Layer_4">
	<path class="researcher-st0" d="M281.8,109.2l21.2,7.1l21.3-6.8l-21.2-7.1L281.8,109.2z"/>
	<path class="researcher-st0" d="M255.5,109.1l-0.2,22.4l13,18.2l0.2-22.4L255.5,109.1z"/>
	<path class="researcher-st0" d="M282.2,50.7l21.3-6.8l-13-18.2l-21.4,6.8L282.2,50.7z"/>
	<path class="researcher-st0" d="M234.5,65.8l0.1-22.4l-21.3,6.8l-0.2,22.4L234.5,65.8z"/>
	<path class="researcher-st0" d="M281.7,131.6l-13.3,18l21.2,7.1l13.3-18L281.7,131.6z"/>
	<path class="researcher-st0" d="M302.9,138.7l-13.3,18l21.3-6.7l13.3-18L302.9,138.7z"/>
	<path class="researcher-st0" d="M268.5,127.3l-0.2,22.4l13.3-18l0.1-22.4L268.5,127.3z"/>
	<path class="researcher-st0" d="M268.5,127.3l13.3-18l-13-18.2l-13.3,18L268.5,127.3z"/>
	<path class="researcher-st0" d="M303,116.3l-21.2-7.1l-0.1,22.4l21.2,7.1L303,116.3z"/>
	<path class="researcher-st0" d="M303.1,102.5l21.2,7.1l-13-18.2l-21.2-7.1L303.1,102.5z"/>
	<path class="researcher-st0" d="M324.6,73.3l-13.3,18l13,18.2l13.3-18L324.6,73.3z"/>
	<path class="researcher-st0" d="M303.1,102.5l-13-18.2l-21.3,6.8l13,18.2L303.1,102.5z"/>
	<path class="researcher-st0" d="M303.4,66.3l-13.3,18l21.2,7.1l13.3-18L303.4,66.3z"/>
	<path class="researcher-st0" d="M302.9,138.7l21.3-6.8l0.1-22.4l-21.3,6.8L302.9,138.7z"/>
	<path class="researcher-st0" d="M337.7,91.5l21.3-6.8l-13-18.2l-21.3,6.8L337.7,91.5z"/>
	<path class="researcher-st0" d="M359,84.8l-21.3,6.8l-13.3,18l21.3-6.8L359,84.8z"/>
	<path class="researcher-st0" d="M234,138.2l13,18.2l21.3-6.8l-13-18.2L234,138.2z"/>
	<path class="researcher-st0" d="M212.8,131.1l13,18.2l21.2,7.1l-13-18.2L212.8,131.1z"/>
	<path class="researcher-st0" d="M234,138.2l21.3-6.8l0.2-22.4l-21.3,6.8L234,138.2z"/>
	<path class="researcher-st0" d="M269.2,32.5L248,25.4l-13.3,18l21.2,7.1L269.2,32.5z"/>
	<path class="researcher-st0" d="M290.5,25.7l-21.2-7.1L248,25.4l21.2,7.1L290.5,25.7z"/>
	<path class="researcher-st0" d="M269,68.7l-13-18.2l-21.2-7.1l13,18.2L269,68.7z"/>
	<path class="researcher-st0" d="M269.2,32.5l-13.3,18l13,18.2l13.3-18L269.2,32.5z"/>
	<path class="researcher-st0" d="M290.3,61.9l13.3-18l-21.3,6.8l-13.2,18L290.3,61.9z"/>
	<path class="researcher-st0" d="M247.7,61.6l-13-18.2l-0.1,22.4l13,18.2L247.7,61.6z"/>
	<path class="researcher-st0" d="M226.2,90.7l21.3-6.8l-13-18.2l-21.3,6.8L226.2,90.7z"/>
	<path class="researcher-st0" d="M213.2,72.6l-13.3,18l13,18.2l13.3-18L213.2,72.6z"/>
	<path class="researcher-st0" d="M247.6,84l-21.3,6.8l-13.3,18l21.3-6.8L247.6,84z"/>
	<path class="researcher-st1" d="M234.2,115.8l-21.2-7.1l-0.2,22.4l21.2,7.1L234.2,115.8z"/>
	<path class="researcher-st2" d="M247.6,84l21.2,7.1l0.2-22.4l-21.2-7.1L247.6,84z"/>
	<path class="researcher-st3" d="M234.3,102l-21.3,6.8l21.2,7.1l21.3-6.8L234.3,102z"/>
	<path class="researcher-st3" d="M234.3,102l21.2,7.1l13.3-18L247.6,84L234.3,102z"/>
	<path class="researcher-st2" d="M290.1,84.3l13.3-18l0.2-22.4l-13.3,18L290.1,84.3z"/>
	<path class="researcher-st2" d="M324.8,51l-21.2-7.1l-0.2,22.4l21.2,7.1L324.8,51z"/>
	<path class="researcher-st3" d="M269,68.7l-0.2,22.4l21.3-6.8l0.2-22.4L269,68.7z"/>
	<path class="researcher-st2" d="M324.6,73.3l21.4-6.8l0.2-22.4L324.8,51L324.6,73.3z"/>
	<path class="researcher-st4" d="M324.9,37.1l-21.3,6.8l21.2,7.1l21.3-6.8L324.9,37.1z"/>
	<rect x="312.1" y="11.5" class="researcher-st4" width="4.1" height="22"/>
	<rect x="319" y="15.7" class="researcher-st4" width="4.1" height="17.9"/>
	<rect x="325.9" y="22.6" class="researcher-st4" width="4.1" height="11"/>
	<rect x="332.8" y="24.6" class="researcher-st4" width="4.1" height="8.9"/>
	<polyline class="researcher-st5" points="212.4,131.2 214,132.1 233.5,138.6 233.7,116.3 255,109.5 268.3,91.5 289.6,84.7 302.9,66.7
		324.1,73.8 345.5,67 345.6,44.6 324.4,37.6 303.1,44.3 289.8,62.3 268.5,69.1 247.2,62 247.1,84.4 233.8,102.4 212.4,109.2
		212.3,131 212.3,131 212.3,182.9 243.4,182.9 403,182.9 403,297 341,358 	"/>
	<polyline class="researcher-st5 cls-transferline" points="212.4,131.2 214,132.1 233.5,138.6 233.7,116.3 255,109.5 268.3,91.5 289.6,84.7 302.9,66.7
		324.1,73.8 345.5,67 345.6,44.6 324.4,37.6 303.1,44.3 289.8,62.3 268.5,69.1 247.2,62 247.1,84.4 233.8,102.4 212.4,109.2 
		212.3,131 212.3,131 212.3,182.9 243.4,182.9 403,182.9 403,297 341,358 	"/>
	<line class="researcher-st5" x1="303" y1="45" x2="303" y2="67"/>
	<line class="researcher-st5" x1="290" y1="62" x2="290" y2="84"/>
	<line class="researcher-st5" x1="268" y1="69" x2="268" y2="91"/>
	<line class="researcher-st5" x1="247" y1="84" x2="268" y2="91"/>
	<line class="researcher-st5" x1="234" y1="102" x2="256" y2="109"/>
	<polyline class="researcher-st5" points="303.1,44.3 324.8,51 345.6,44.6 	"/>
	<line class="researcher-st5" x1="325" y1="73" x2="325" y2="52"/>
	<polygon class="researcher-st6" points="341,411.8 293,427.9 293,361.7 341,344.6 	"/>
	<polygon class="researcher-st7" points="262.6,350.4 263,416.1 293,427.9 293,359.6 	"/>
	<polygon class="researcher-st8" points="295,361.6 88.8,294.2 149.4,280.3 346.4,343.5 	"/>
	<polygon class="researcher-st7" points="217.4,299.9 217.4,298.8 186.1,290.5 172.7,297.9 172.4,299.2 206.3,309.8 	"/>
	<polygon class="researcher-st9" points="217.4,298.8 186.1,289.1 172.7,297.9 206.3,308.5 	"/>
	<path class="researcher-st10" d="M205.9,301.3V289c0-0.2-0.1-0.4-0.3-0.4l-18.5-5.4c-0.2-0.1-0.5,0.1-0.5,0.3v0.1v12c0,0.2,0.1,0.4,0.3,0.4
		l17.8,6.4C204.8,302.4,205.9,301.6,205.9,301.3z"/>
	<path class="researcher-st7" d="M204.8,302.1v-12.4c0-0.2-0.1-0.4-0.3-0.4L186,284c-0.2-0.1-0.5,0.1-0.6,0.3v0.1v12c0,0.2,0.1,0.4,0.3,0.4
		l18.5,5.8C204.4,302.6,204.7,302.4,204.8,302.1C204.8,302.1,204.8,302.1,204.8,302.1z"/>
	<path class="researcher-st9" d="M249.2,303.4v-64.1c0-1-0.7-1.9-1.7-2.2l-96.1-28.1c-1.5-0.4-5.5,1-5.5,2.6l2.6,61.8c0,1,0.7,1.9,1.6,2.2
		l93.8,31.2C245.4,307.3,249.2,305,249.2,303.4z"/>
	<path class="researcher-st10" d="M246.5,304.7v-64.2c0-1-0.7-1.9-1.6-2.2l-96.1-28c-1.2-0.4-2.5,0.3-2.7,1.5c-0.1,0.2-0.1,0.4-0.1,0.7v62.1
		c0,1,0.7,1.9,1.6,2.2l96.1,29.9c1.2,0.4,2.5-0.3,2.8-1.5C246.4,305.1,246.5,304.9,246.5,304.7z"/>
	<path class="researcher-st8" d="M243.4,302.5v-61.1c0-1-0.6-1.8-1.6-2.1l-91.7-26.7c-1.2-0.3-2.4,0.3-2.6,1.5c-0.1,0.2-0.1,0.4-0.1,0.6V274
		c0,1,0.6,1.8,1.5,2.1l91.7,28.6c1.2,0.4,2.4-0.3,2.6-1.4C243.4,302.9,243.4,302.7,243.4,302.5z"/>
	<polygon class="researcher-st10" points="229.4,295.6 232.9,296.6 232.9,287.5 229.4,286.4 	"/>
	<polygon class="researcher-st10" points="223.9,293.8 227.4,294.9 227.4,263.9 223.9,262.8 	"/>
	<polygon class="researcher-st10" points="218.4,292.2 221.8,293.2 221.8,266.6 218.4,265.5 	"/>
	<polygon class="researcher-st10" points="212.9,290.5 216.3,291.5 216.3,266.4 212.9,265.4 	"/>
	<polygon class="researcher-st10" points="207.3,288.8 210.7,289.8 210.7,279.1 207.3,277.8 	"/>
	<polygon class="researcher-st10" points="201.7,286.9 205.1,287.9 205.1,262.4 201.7,261.3 	"/>
	<polygon class="researcher-st10" points="196.2,285.3 199.6,286.4 199.6,244.5 196.2,243.4 	"/>
	<polygon class="researcher-st10" points="190.6,283.6 194,284.6 194,259 190.6,258 	"/>
	<polygon class="researcher-st10" points="185.1,282.1 188.5,283.1 188.5,259.2 185.1,258.2 	"/>
	<polygon class="researcher-st10" points="179.5,280.2 182.9,281.2 182.9,255.6 179.5,254.6 	"/>
	<polygon class="researcher-st10" points="174,278.2 177.4,279.2 177.4,258.2 174,257.2 	"/>
	<polygon class="researcher-st10" points="168.4,276.9 171.8,277.9 171.8,251.9 168.4,251.3 	"/>
	<polygon class="researcher-st10" points="162.9,274.6 166.3,275.5 166.3,244 162.9,242.9 	"/>
	<polygon class="researcher-st10" points="157.3,273.3 160.8,274.3 160.8,242.9 157.3,241.8 	"/>
	<polygon class="researcher-st11" points="232.3,296.7 230.6,287 225.2,264 214.9,266 208.9,280.1 202.8,262 197.8,245.8 192.7,258.8
		186.5,258.8 181.3,255.7 175.6,258.4 175.3,258.1 169.7,252 164.3,243.9 158.9,242.3 159.2,241.2 165,243 170.7,251.3 175.9,257 
		181.3,254.4 187,257.6 192,257.6 197.9,242.3 204,261.7 209.1,276.8 214.1,264.9 226.1,262.6 231.7,286.8 233.5,296.5 	"/>
	<polygon class="researcher-st12" points="197.2,322.5 205.9,311.5 205.9,315.5 	"/>
	<polygon class="researcher-st13" points="205.9,311.5 159.3,296.6 149,308.2 197.2,322.5 	"/>
	<path class="researcher-st10" d="M156.7,393.9l10.5-5.9c0,0,0-49.4-12.4-57c-7.9-4.8-36.2,9.6-36.2,9.6l7.5,12.7c0,0,11.3-6.6,16.9-7.5
		C155.3,343.9,156.7,393.9,156.7,393.9z"/>
	<path class="researcher-st10" d="M186.5,408.7l10.5-5.9c0,0,0-49.5-12.4-57c-7.9-4.8-36.2,9.6-36.2,9.6l7.5,12.7c0,0,11.3-6.6,16.9-7.5
		C185,358.7,186.5,408.7,186.5,408.7z"/>
	<path class="researcher-st14" d="M159.7,355.3l-34.1-19.4c-0.9-0.5-2-0.6-2.8-0.1l-40.4,18.7c-1.6,0.7-2.3,2.6-1.5,4.1
		c0.2,0.5,0.6,0.9,1.1,1.3l33.8,23.4c1,0.7,2.3,0.7,3.2,0.2l40.8-22.7c1.5-0.8,2.1-2.7,1.3-4.2C160.7,356,160.3,355.6,159.7,355.3z"
		/>
	<polygon class="researcher-st8" points="124.4,311.5 146.4,352.8 135.4,359.6 119.1,337.5 	"/>
	<path class="researcher-st8 cls-transferline" d="M119.9,301.8l-16.8-9.9c0,0-9.9-5.1-16.4,0.3c-7.1,5.9-11.5,8.1-11.6,30.3c0,14.6,9,57.6,9,57.6l37,8
		l45.2-26.2l-2-10.1c0,0-21,8.2-25.5,5.8c-4.8-2.7-11.9-13.1-13.1-18.7c-1-4.8-1.2-19.3-1.2-19.3l5.5-11.5L119.9,301.8z"/>
	<path class="researcher-st4" d="M119.9,301.8l-12-7.5c0,0-13.3,0.9-10.6,6.6C100.2,306.9,119.9,301.8,119.9,301.8z"/>
	<path class="researcher-st15" d="M102.4,298.9c1.4,0.7,2.8,1.1,4.3,1.1c1.5,0,2.9-0.4,4.3-1.1v-14.2h-8.7L102.4,298.9L102.4,298.9z"/>
	<path class="researcher-st10" d="M137.8,435.4c0-3.9,2.2-7.1,4.8-7.1c0.6,0,1.2,0.2,1.8,0.5v-0.1l4.8,2.6l-1.7,14.1l-6.1-3.3v-0.1
		C139.3,441.4,137.8,438.7,137.8,435.4z"/>
	<ellipse class="researcher-st7" cx="148.2" cy="438.5" rx="4.8" ry="7.1"/>
	<path class="researcher-st10" d="M72.2,400.8c0-3.9,2.2-7.1,4.8-7.1c0.6,0,1.2,0.2,1.8,0.5v-0.1l4.8,2.6L82,411l-6.1-3.3v-0.1
		C73.8,406.7,72.2,404.1,72.2,400.8z"/>
	<ellipse class="researcher-st7" cx="82.7" cy="403.9" rx="4.8" ry="7.1"/>
	<path class="researcher-st10" d="M139.1,399.6c0-3.9,2.2-7.1,4.8-7.1c0.6,0,1.2,0.2,1.8,0.5v-0.1l4.8,2.6l-1.7,14.1l-6.1-3.3v-0.1
		C140.5,405.5,139.1,402.8,139.1,399.6z"/>
	<ellipse class="researcher-st7" cx="149.5" cy="402.6" rx="4.8" ry="7.1"/>
	<path class="researcher-st10" d="M73,435.4c0-3.9,2.2-7.1,4.8-7.1c0.6,0,1.2,0.2,1.8,0.5v-0.1l4.8,2.6l-1.7,14.2l-6.1-3.3v-0.1
		C74.6,441.4,73,438.7,73,435.4z"/>
	<ellipse class="researcher-st7" cx="83.5" cy="438.5" rx="4.8" ry="7.1"/>
	<path class="researcher-st7" d="M79.2,422.7l34.1-16.1c1.3,3.1,1.6,4.7,3,7.6c-15.5,9-30.3,18-35.1,19.7C75.3,436.1,77.4,423.7,79.2,422.7z"/>
	<path class="researcher-st7" d="M147,390.8c1.8-1,4-6.9,5.1-5.1c1.1,1.8,1.6,6.6-0.2,7.6c0,0-19.6,11.2-36.9,21.3c-1.5-2.8-0.3-4.8-1.6-7.9
		L147,390.8z"/>
	<path class="researcher-st7" d="M75,391.4c1.1-1.8,3.3-2.4,5.1-1.4l0,0l31.3,18.4c0,2.9-2.4,2.6-2.4,5.4l-32.7-17.3
		C74.6,395.5,73.9,393.3,75,391.4L75,391.4z"/>
	<path class="researcher-st7" d="M150.1,426.6c1.8,1,0.5,6.8-0.5,8.5c-1.1,1.8-3.3,2.4-5.1,1.4l-32.2-19.8c0-2.8,0.2-5.2,0.2-8.2L150.1,426.6z"
		/>
	<path class="researcher-st7" d="M147.1,432.4c2.1,0,3.7-1.7,3.7-3.7c0-1.3-0.7-2.6-1.9-3.1l-68.1-39.9c-1.7-1.1-4-0.7-5.1,1.1
		c-1.1,1.8-0.7,4,1.1,5.1c0.1,0.1,0.2,0.1,0.3,0.2l68.1,39.9C145.8,432.2,146.5,432.3,147.1,432.4z"/>
	<path class="researcher-st7" d="M81,429.7c0.7,0,1.3-0.2,1.9-0.5l67.8-38.4c1.9-0.9,2.6-3.1,1.7-5c-0.9-1.9-3.1-2.6-5-1.7
		c-0.1,0.1-0.2,0.1-0.3,0.2l-67.8,38.4c-1.8,1-2.5,3.2-1.4,5.1C78.4,429,79.7,429.7,81,429.7z"/>
	<path class="researcher-st16" d="M108,294.4c10.2-1.3,11.2-13.8,11.2-20.1c0-11.5-7.6-22.7-19.2-22.6c-7.9,0-19.2,10.8-16.1,27.3
		C85.1,285.9,97.2,295.7,108,294.4z"/>
	<path class="researcher-st10" d="M112.9,409.7L112.9,409.7c-2.5,0-4.4-2-4.4-4.4v-26.4c0-2.5,2-4.4,4.4-4.4l0,0c2.5,0,4.4,2,4.4,4.4v26.4
		C117.3,407.7,115.3,409.7,112.9,409.7z"/>
	<path class="researcher-st17" d="M108.7,320c0.3,7.1-32.4-11.8-32.4-11.8c0.9-14.6,2.6-29.2,5.2-43.7c3.6-18.8,23.1-14.5,29.1-10.3
		c2.3,1.6-3.7,16.9-4,19.6"/>
	<path class="researcher-st7" d="M161.2,365.4c0,0-31.8,23.9-45,25.4c-10.9,1.3-42-14.6-50.4-21.6c-3.1-2.6-8-9.2-10-12.8
		c-6-10.8-10.9-49.4-9.5-50.8c2.6-2.7,11.1-5.3,14-3.5c22.1,13.4,38.5,10.9,46.1,22.6c8.3,12.6,13.2,57.8,13.2,57.8l41.6-24.7V365.4
		z"/>
	<path class="researcher-st10" d="M117.1,384.4l7.1-4.3c0,0-6-45.1-15.6-56.5c-7.6-8.8-33.9-18.5-46.6-22.3c-2.3-0.7-4.6-1-7-0.8
		c-3.3,0.2-6.8,1.6-8.7,5.3l0,0l45.2,17.8l6.3,2.5c3.5,1.4,6.1,4.4,7.1,8L117.1,384.4z"/>
	<path class="researcher-st7" d="M164.5,352v-1.8l-8.6-3.3l-31.7,14.9v1.8l5.2,3.9c1.7,1.3,4,1.5,5.8,0.4L164.5,352z"/>
	<path class="researcher-st10" d="M164.5,350.2l-6.8-4c-1.2-0.7-2.6-0.7-3.7-0.1l-29.7,15.7l6,4.5c1.2,0.9,2.8,1,4.1,0.3L164.5,350.2z"/>
	<path class="researcher-st8" d="M130.2,308.1c8.1,3.1,8.9,31.1,18,34.1c5.6,2,19.9-8.3,19.9-8.3l3.9,8.8c0,0-20.9,16.2-28.4,13.6
		c-10.3-3.5-19.2-39.3-19.2-39.3S127.7,307.1,130.2,308.1z"/>
	<path class="researcher-st16" d="M172,342.8l6.3-3.8c0,0-0.1-5.7-1.6-6.6c-1.9-1.2-8.6,1.6-8.6,1.6L172,342.8z"/>
	<path class="researcher-st7" d="M186.2,404.1c0,0,0.6,10.8,3.5,12.1c5.1,2.2,19.7-10,19.7-10s-0.1-6-1.6-7c-2.2-1.4-11.4-0.4-11.4-0.4
		L186.2,404.1z"/>
	<path class="researcher-st7" d="M189.6,415c5,2.2,19.3-9.6,19.7-9.9c0.1,0.7,0.1,1.2,0.1,1.2s-14.6,12.2-19.7,9.9c-2.8-1.3-3.5-12.1-3.5-12.1
		l0.1-0.1C186.5,406.8,187.3,413.9,189.6,415z"/>
	<path class="researcher-st7" d="M156.4,392.2c0,0,0.6,10.8,3.5,12.1c5.1,2.2,19.7-10,19.7-10s-0.1-6-1.7-7c-2.2-1.4-11.4-0.4-11.4-0.4
		L156.4,392.2z"/>
	<polygon class="researcher-st8" points="118.7,312.9 138,305.2 131.6,296.9 108.4,307.4 	"/>
	<path class="researcher-st16" d="M135.8,305.7l6.3-3.8c0,0-0.1-5.7-1.6-6.6c-1.9-1.2-8.6,1.6-8.6,1.6L135.8,305.7z"/>
	<circle class="researcher-st4" cx="277.5" cy="406.3" r="2.9"/>
	<line class="researcher-st18" x1="267.3" y1="361.9" x2="288.3" y2="369.1"/>
</g>
</svg>
