<?xml version="1.0" encoding="utf-8"?>
<!-- Generator: Adobe Illustrator 25.4.1, SVG Export Plug-In . SVG Version: 6.00 Build 0)  -->
<svg version="1.1" id="Layer_1" xmlns="http://www.w3.org/2000/svg" xmlns:xlink="http://www.w3.org/1999/xlink" x="0px" y="0px"
	 viewBox="0 0 433 492" style="enable-background:new 0 0 433 492;" xml:space="preserve">
<style type="text/css">
	polygon {stroke:none;}
	.researcher-st0{fill:#95A5A6;stroke:#454A54;stroke-width:1.74;stroke-linecap:round;stroke-linejoin:round;}
	.researcher-st1{fill:#454A54;stroke:#454A54;stroke-width:1.74;stroke-linecap:round;stroke-linejoin:round;}
	.researcher-st2{fill:#95A5A6;}
	.researcher-st3{fill:#ECF0F1; stroke: none}
	.researcher-st4{fill:#293848;}
	.researcher-st5{fill:#3B4451;}
	.researcher-st6{fill:#5395CD;}
	.researcher-st7{fill:#243548;}
	.researcher-st8{fill:#314050;}
	.researcher-st9{fill:#425498;}
	.researcher-st10{fill:#1F91CC;}
	.researcher-st11{fill:#845F41;}
	.researcher-st12{fill:#ECEFF0;}
	.researcher-st13{fill:#A27D57;}
	.researcher-st14{fill:#5B3A1B;}
	.researcher-st15{fill:none;stroke:#CCCCCC;stroke-width:1.74;stroke-linecap:round;stroke-linejoin:round;}
	.researcher-st16{fill:#454A54;}
	.researcher-st17{fill:none;}
	.researcher-st18 {fill:none;stroke:#FFFFFF;stroke-linecap:round;stroke-linejoin:round;}
	.researcher-st19, .cls-transferline {fill:none;stroke:#454A54;stroke-width:1.74;stroke-linecap:round;stroke-linejoin:round;}
</style>
<g id="Layer_4">
	<polygon class="researcher-st0" points="335,388.3 297.8,442 297.8,374.5 335,325 	"/>
	<polygon class="researcher-st1" points="266.8,363 266.8,431 297.8,442 297.8,372.4 	"/>
	<path class="researcher-st2" d="M41,291.3v74c0,3.4,3.8,5,6,2.7l76.6-82.1c1.3-1.4,1.4-3.6,0.2-5.1l-30.9-39.7c-1.1-1.5-3.2-1.8-4.7-0.7
		c-0.2,0.1-0.3,0.3-0.4,0.4l-45.7,47.8C41.4,289.4,41,290.3,41,291.3z"/>
	<path class="researcher-st3" d="M85.2,240.7l-42.4,41.4c-2.6,2.5-2.6,6.7-0.1,9.3c0.7,0.8,1.7,1.3,2.7,1.7l249.1,80c2.7,0.9,5.6-0.1,7.3-2.3
		l33.8-45.3c2.2-2.9,1.6-7-1.3-9.2c-0.6-0.4-1.2-0.8-1.9-1l-240.5-76C89.5,238.5,86.9,239.1,85.2,240.7z"/>
	<polygon class="researcher-st1" points="220.7,311.5 220.7,310.4 188.8,301.9 175.2,309.5 174.9,310.8 209.4,321.6 	"/>
	<polygon class="researcher-st4" points="220.7,310.4 188.8,300.5 175.2,309.5 209.4,320.3 	"/>
	<path class="researcher-st5" d="M209,313v-12.6c0-0.2-0.1-0.4-0.3-0.4l-18.9-5.5c-0.2-0.1-0.5,0.1-0.5,0.3c0,0,0,0.1,0,0.1v12.2
		c0,0.2,0.1,0.4,0.3,0.4l18.1,6.5C207.9,314.1,209,313.3,209,313z"/>
	<path class="researcher-st1" d="M207.9,313.8v-12.6c0-0.2-0.1-0.4-0.3-0.4l-18.9-5.5c-0.2-0.1-0.5,0.1-0.6,0.3c0,0,0,0.1,0,0.1v12.2
		c0,0.2,0.1,0.4,0.3,0.4l18.9,5.9c0.2,0.1,0.5-0.1,0.6-0.3C207.9,313.8,207.9,313.8,207.9,313.8z"/>
	<path class="researcher-st4" d="M253.1,315.1v-65.3c0-1-0.7-1.9-1.7-2.2L153.5,219c-1.5-0.4-5.6,1-5.6,2.6l2.7,63c0,1,0.7,1.9,1.6,2.2
		l95.6,31.8C249.3,319.1,253.1,316.7,253.1,315.1z"/>
	<path class="researcher-st5" d="M250.4,316.4V251c0-1-0.7-1.9-1.6-2.2l-97.9-28.5c-1.2-0.4-2.5,0.3-2.8,1.5c-0.1,0.2-0.1,0.4-0.1,0.7v63.3
		c0,1,0.7,1.9,1.6,2.2l97.9,30.5c1.2,0.4,2.5-0.3,2.9-1.5C250.3,316.8,250.4,316.6,250.4,316.4z"/>
	<path class="researcher-st3" d="M247.2,314.2v-62.3c0-1-0.6-1.8-1.6-2.1l-93.4-27.2c-1.2-0.3-2.4,0.3-2.7,1.5c-0.1,0.2-0.1,0.4-0.1,0.6v60.4
		c0,1,0.6,1.8,1.5,2.1l93.4,29.1c1.2,0.4,2.4-0.3,2.7-1.4C247.2,314.6,247.2,314.4,247.2,314.2z"/>
	<polygon class="researcher-st5" points="233,307.1 236.5,308.2 236.5,298.9 233,297.8 	"/>
	<polygon class="researcher-st5" points="227.4,305.3 230.9,306.4 230.9,274.8 227.4,273.7 	"/>
	<polygon class="researcher-st5" points="221.7,303.7 225.2,304.7 225.2,277.6 221.7,276.5 	"/>
	<polygon class="researcher-st5" points="216.1,302 219.6,303 219.6,277.4 216.1,276.4 	"/>
	<polygon class="researcher-st5" points="210.4,300.2 213.9,301.2 213.9,290.3 210.4,289 	"/>
	<polygon class="researcher-st5" points="204.7,298.3 208.2,299.3 208.2,273.3 204.7,272.2 	"/>
	<polygon class="researcher-st5" points="199.1,296.7 202.6,297.8 202.6,255.1 199.1,254 	"/>
	<polygon class="researcher-st5" points="193.4,294.9 196.9,295.9 196.9,269.9 193.4,268.8 	"/>
	<polygon class="researcher-st5" points="187.8,293.4 191.3,294.4 191.3,270.1 187.8,269 	"/>
	<polygon class="researcher-st5" points="182.1,291.5 185.6,292.5 185.6,266.4 182.1,265.4 	"/>
	<polygon class="researcher-st5" points="176.5,289.4 180,290.4 180,269 176.5,268 	"/>
	<polygon class="researcher-st5" points="170.8,288.1 174.3,289.1 174.3,262.6 170.8,262 	"/>
	<polygon class="researcher-st5" points="165.2,285.7 168.7,286.7 168.7,254.6 165.2,253.4 	"/>
	<polygon class="researcher-st5" points="159.5,284.4 163,285.4 163,253.4 159.5,252.3 	"/>
	<polygon class="researcher-st6" points="235.9,308.3 234.2,298.4 228.7,274.9 218.2,277 212.1,291.4 205.9,272.9 200.8,256.4 195.6,269.6 
		189.2,269.6 183.9,266.5 178.1,269.2 177.8,268.9 172.1,262.7 166.6,254.5 161.1,252.8 161.4,251.7 167.3,253.5 173.1,262 
		178.4,267.8 183.9,265.2 189.7,268.4 194.8,268.4 200.9,252.8 207.1,272.6 212.3,288 217.4,275.9 229.6,273.5 235.3,298.2 
		237.1,308.1 	"/>
	<polygon class="researcher-st7" points="200.1,334.6 209,323.3 209,327.4 	"/>
	<polygon class="researcher-st8" points="209,323.3 161.5,308.2 151,320 200.1,334.6 	"/>
	<path class="researcher-st5" d="M158.9,407.3l10.7-6c0,0,0-50.3-12.6-58.1c-8.1-4.9-36.9,9.8-36.9,9.8l7.6,12.9c0,0,11.5-6.7,17.2-7.6
		C157.4,356.4,158.9,407.3,158.9,407.3z"/>
	<path class="researcher-st5" d="M189.2,422.4l10.7-6c0,0,0-50.4-12.6-58.1c-8.1-4.9-36.9,9.8-36.9,9.8l7.6,12.9c0,0,11.5-6.7,17.2-7.6
		C187.7,371.5,189.2,422.4,189.2,422.4z"/>
	<path class="researcher-st9" d="M161.9,368l-34.8-19.8c-0.9-0.5-2-0.6-2.9-0.1L83,367.2c-1.6,0.7-2.3,2.6-1.5,4.2c0.2,0.5,0.6,0.9,1.1,1.3
		l34.4,23.8c1,0.7,2.3,0.7,3.3,0.2l41.6-23.1c1.5-0.8,2.1-2.8,1.3-4.3C162.9,368.7,162.5,368.3,161.9,368z"/>
	<polygon class="researcher-st3" points="126,323.4 148.4,365.4 137.2,372.4 120.6,349.8 	"/>
	<path class="researcher-st3" d="M121.4,313.5l-17.1-10.1c0,0-10.1-5.2-16.7,0.3c-7.2,6-11.7,8.3-11.8,30.9c0,14.9,9.2,58.7,9.2,58.7l37.7,8.2
		l46.1-26.7l-2-10.3c0,0-21.4,8.4-26,5.9c-4.9-2.8-12.1-13.3-13.3-19.1c-1-4.9-1.2-19.7-1.2-19.7l5.6-11.7L121.4,313.5z"/>
	<path class="researcher-st10" d="M121.4,313.5l-12.2-7.6c0,0-13.6,0.9-10.8,6.7C101.3,318.7,121.4,313.5,121.4,313.5z"/>
	<path class="researcher-st11" d="M103.5,310.5c1.4,0.7,2.9,1.1,4.4,1.1c1.5,0,3-0.4,4.4-1.1V296h-8.9V310.5L103.5,310.5z"/>
	<path class="researcher-st5" d="M139.6,449.6c0-4,2.2-7.2,4.9-7.2c0.6,0,1.2,0.2,1.8,0.5v-0.1l4.9,2.7l-1.7,14.4l-6.2-3.4v-0.1
		C141.1,455.7,139.6,453,139.6,449.6z"/>
	<ellipse class="researcher-st1" cx="150.2" cy="452.8" rx="4.9" ry="7.2"/>
	<path class="researcher-st5" d="M72.8,414.4c0-4,2.2-7.2,4.9-7.2c0.6,0,1.2,0.2,1.8,0.5v-0.1l4.9,2.7l-1.7,14.4l-6.2-3.4v-0.1
		C74.4,420.4,72.8,417.7,72.8,414.4z"/>
	<ellipse class="researcher-st1" cx="83.5" cy="417.5" rx="4.9" ry="7.2"/>
	<path class="researcher-st5" d="M140.9,413.1c0-4,2.2-7.2,4.9-7.2c0.6,0,1.2,0.2,1.8,0.5v-0.1l4.9,2.7l-1.7,14.4l-6.2-3.4v-0.1
		C142.4,419.1,140.9,416.4,140.9,413.1z"/>
	<ellipse class="researcher-st1" cx="151.5" cy="416.2" rx="4.9" ry="7.2"/>
	<path class="researcher-st5" d="M73.6,449.6c0-4,2.2-7.2,4.9-7.2c0.6,0,1.2,0.2,1.8,0.5v-0.1l4.9,2.7L83.5,460l-6.2-3.4v-0.1
		C75.2,455.7,73.6,453,73.6,449.6z"/>
	<ellipse class="researcher-st1" cx="84.3" cy="452.8" rx="4.9" ry="7.2"/>
	<path class="researcher-st1" d="M79.9,436.7l34.8-16.4c1.3,3.2,1.6,4.8,3.1,7.7c-15.8,9.2-30.9,18.3-35.8,20.1
		C75.9,450.3,78.1,437.7,79.9,436.7z"/>
	<path class="researcher-st1" d="M149,404.2c1.8-1,4.1-7,5.2-5.2s1.6,6.7-0.2,7.7c0,0-20,11.4-37.6,21.7c-1.5-2.9-0.3-4.9-1.6-8.1L149,404.2z"
		/>
	<path class="researcher-st1" d="M75.6,404.8c1.1-1.8,3.4-2.4,5.2-1.4c0,0,0,0,0,0l31.9,18.7c0,3-2.4,2.6-2.4,5.5L77,410
		C75.2,409,74.5,406.7,75.6,404.8C75.6,404.8,75.6,404.8,75.6,404.8z"/>
	<path class="researcher-st1" d="M152.1,440.6c1.8,1,0.5,6.9-0.5,8.7c-1.1,1.8-3.4,2.4-5.2,1.4l-32.8-20.2c0-2.9,0.2-5.3,0.2-8.4L152.1,440.6z"
		/>
	<path class="researcher-st12" d="M149.1,446.6c2.1,0,3.8-1.7,3.8-3.8c0-1.3-0.7-2.6-1.9-3.2l-69.4-40.7c-1.7-1.1-4.1-0.7-5.2,1.1
		s-0.7,4.1,1.1,5.2c0.1,0.1,0.2,0.1,0.3,0.2l69.4,40.7C147.8,446.4,148.5,446.5,149.1,446.6z"/>
	<path class="researcher-st12" d="M81.7,443.8c0.7,0,1.3-0.2,1.9-0.5l69.1-39.1c1.9-0.9,2.6-3.2,1.7-5.1s-3.2-2.6-5.1-1.7
		c-0.1,0.1-0.2,0.1-0.3,0.2l-69.1,39.1c-1.8,1-2.5,3.3-1.4,5.2C79.1,443.1,80.4,443.8,81.7,443.8z"/>
	<path class="researcher-st13" d="M109.2,305.9c10.4-1.3,11.4-14.1,11.4-20.5c0-11.7-7.7-23.1-19.6-23c-8.1,0-19.6,11-16.4,27.8
		C85.9,297.3,98.2,307.3,109.2,305.9z"/>
	<path class="researcher-st12" d="M114.2,423.4L114.2,423.4c-2.5,0-4.5-2-4.5-4.5V392c0-2.5,2-4.5,4.5-4.5l0,0c2.5,0,4.5,2,4.5,4.5v26.9
		C118.7,421.4,116.7,423.4,114.2,423.4z"/>
	<path class="researcher-st14" d="M110,332c0.3,7.2-33-12-33-12c0.9-14.9,2.7-29.8,5.3-44.5c3.7-19.2,23.5-14.8,29.7-10.5
		c2.3,1.6-3.8,17.2-4.1,20"/>
	<path class="researcher-st1" d="M163.5,378.3c0,0-32.4,24.4-45.9,25.9c-11.1,1.3-42.8-14.9-51.4-22c-3.2-2.6-8.2-9.4-10.2-13
		c-6.1-11-11.1-50.3-9.7-51.8c2.6-2.8,11.3-5.4,14.3-3.6c22.5,13.7,39.2,11.1,47,23c8.5,12.8,13.5,58.9,13.5,58.9l42.4-25.2
		L163.5,378.3z"/>
	<path class="researcher-st5" d="M118.5,397.6l7.2-4.4c0,0-6.1-46-15.9-57.6c-7.7-9-34.5-18.9-47.5-22.7c-2.3-0.7-4.7-1-7.1-0.8
		c-3.4,0.2-6.9,1.6-8.9,5.4l0,0l46.1,18.1l6.4,2.5c3.6,1.4,6.2,4.5,7.2,8.2L118.5,397.6z"/>
	<path class="researcher-st1" d="M166.8,364.6v-1.8l-8.8-3.4l-32.3,15.2v1.8l5.3,4c1.7,1.3,4.1,1.5,5.9,0.4L166.8,364.6z"/>
	<path class="researcher-st5" d="M166.8,362.8l-6.9-4.1c-1.2-0.7-2.6-0.7-3.8-0.1l-30.3,16l6.1,4.6c1.2,0.9,2.9,1,4.2,0.3L166.8,362.8z"/>
	<path class="researcher-st3" d="M131.9,319.9c8.3,3.2,9.1,31.7,18.3,34.8c5.7,2,20.3-8.5,20.3-8.5l4,9c0,0-21.3,16.5-28.9,13.9
		c-10.5-3.6-19.6-40-19.6-40S129.3,318.9,131.9,319.9z"/>
	<path class="researcher-st13" d="M174.5,355.2l6.4-3.9c0,0-0.1-5.8-1.6-6.7c-1.9-1.2-8.8,1.6-8.8,1.6L174.5,355.2z"/>
	<path class="researcher-st1" d="M188.9,417.7c0,0,0.6,11,3.6,12.3c5.2,2.2,20.1-10.2,20.1-10.2s-0.1-6.1-1.6-7.1c-2.2-1.4-11.6-0.4-11.6-0.4
		L188.9,417.7z"/>
	<path class="researcher-st1" d="M192.4,428.8c5.1,2.2,19.7-9.8,20.1-10.1c0.1,0.7,0.1,1.2,0.1,1.2s-14.9,12.4-20.1,10.1
		c-2.9-1.3-3.6-12.3-3.6-12.3l0.1-0.1C189.2,420.5,190.1,427.7,192.4,428.8z"/>
	<path class="researcher-st1" d="M158.6,405.6c0,0,0.6,11,3.6,12.3c5.2,2.2,20.1-10.2,20.1-10.2s-0.1-6.1-1.7-7.1c-2.2-1.4-11.6-0.4-11.6-0.4
		L158.6,405.6z"/>
	<polygon class="researcher-st3" points="120.1,324.8 139.8,316.9 133.3,308.5 109.7,319.2 	"/>
	<path class="researcher-st13" d="M137.6,317.4l6.4-3.9c0,0-0.1-5.8-1.6-6.7c-1.9-1.2-8.8,1.6-8.8,1.6L137.6,317.4z"/>
	<path class="researcher-st15" d="M281.8,109.2l21.2,7.1l21.3-6.8l-21.2-7.1L281.8,109.2z"/>
	<path class="researcher-st15" d="M255.5,109.1l-0.2,22.4l13,18.2l0.2-22.4L255.5,109.1z"/>
	<path class="researcher-st15" d="M282.2,50.7l21.3-6.8l-13-18.2l-21.4,6.8L282.2,50.7z"/>
	<path class="researcher-st15" d="M234.5,65.8l0.1-22.4l-21.3,6.8l-0.2,22.4L234.5,65.8z"/>
	<path class="researcher-st15" d="M281.7,131.6l-13.3,18l21.2,7.1l13.3-18L281.7,131.6z"/>
	<path class="researcher-st15" d="M302.9,138.7l-13.3,18l21.3-6.7l13.3-18L302.9,138.7z"/>
	<path class="researcher-st15" d="M268.5,127.3l-0.2,22.4l13.3-18l0.1-22.4L268.5,127.3z"/>
	<path class="researcher-st15" d="M268.5,127.3l13.3-18l-13-18.2l-13.3,18L268.5,127.3z"/>
	<path class="researcher-st15" d="M303,116.3l-21.2-7.1l-0.1,22.4l21.2,7.1L303,116.3z"/>
	<path class="researcher-st15" d="M303.1,102.5l21.2,7.1l-13-18.2l-21.2-7.1L303.1,102.5z"/>
	<path class="researcher-st15" d="M324.6,73.3l-13.3,18l13,18.2l13.3-18L324.6,73.3z"/>
	<path class="researcher-st15" d="M303.1,102.5l-13-18.2l-21.3,6.8l13,18.2L303.1,102.5z"/>
	<path class="researcher-st15" d="M303.4,66.3l-13.3,18l21.2,7.1l13.3-18L303.4,66.3z"/>
	<path class="researcher-st15" d="M302.9,138.7l21.3-6.8l0.1-22.4l-21.3,6.8L302.9,138.7z"/>
	<path class="researcher-st15" d="M337.7,91.5l21.3-6.8l-13-18.2l-21.3,6.8L337.7,91.5z"/>
	<path class="researcher-st15" d="M359,84.8l-21.3,6.8l-13.3,18l21.3-6.8L359,84.8z"/>
	<path class="researcher-st15" d="M234,138.2l13,18.2l21.3-6.8l-13-18.2L234,138.2z"/>
	<path class="researcher-st15" d="M212.8,131.1l13,18.2l21.2,7.1l-13-18.2L212.8,131.1z"/>
	<path class="researcher-st15" d="M234,138.2l21.3-6.8l0.2-22.4l-21.3,6.8L234,138.2z"/>
	<path class="researcher-st15" d="M269.2,32.5L248,25.4l-13.3,18l21.2,7.1L269.2,32.5z"/>
	<path class="researcher-st15" d="M290.5,25.7l-21.2-7.1L248,25.4l21.2,7.1L290.5,25.7z"/>
	<path class="researcher-st15" d="M269,68.7l-13-18.2l-21.2-7.1l13,18.2L269,68.7z"/>
	<path class="researcher-st15" d="M269.2,32.5l-13.3,18l13,18.2l13.3-18L269.2,32.5z"/>
	<path class="researcher-st15" d="M290.3,61.9l13.3-18l-21.3,6.8l-13.2,18L290.3,61.9z"/>
	<path class="researcher-st15" d="M247.7,61.6l-13-18.2l-0.1,22.4l13,18.2L247.7,61.6z"/>
	<path class="researcher-st15" d="M226.2,90.7l21.3-6.8l-13-18.2l-21.3,6.8L226.2,90.7z"/>
	<path class="researcher-st15" d="M213.2,72.6l-13.3,18l13,18.2l13.3-18L213.2,72.6z"/>
	<path class="researcher-st15" d="M247.6,84l-21.3,6.8l-13.3,18l21.3-6.8L247.6,84z"/>
	<path class="researcher-st16" d="M234.2,115.8l-21.2-7.1l-0.2,22.4l21.2,7.1L234.2,115.8z"/>
	<path class="researcher-st2" d="M247.6,84l21.2,7.1l0.2-22.4l-21.2-7.1L247.6,84z"/>
	<path class="researcher-st17" d="M234.3,102l-21.3,6.8l21.2,7.1l21.3-6.8L234.3,102z"/>
	<path class="researcher-st17" d="M234.3,102l21.2,7.1l13.3-18L247.6,84L234.3,102z"/>
	<path class="researcher-st2" d="M290.1,84.3l13.3-18l0.2-22.4l-13.3,18L290.1,84.3z"/>
	<path class="researcher-st2" d="M324.8,51l-21.2-7.1l-0.2,22.4l21.2,7.1L324.8,51z"/>
	<path class="researcher-st17" d="M269,68.7l-0.2,22.4l21.3-6.8l0.2-22.4L269,68.7z"/>
	<path class="researcher-st2" d="M324.6,73.3l21.4-6.8l0.2-22.4L324.8,51L324.6,73.3z"/>
	<path class="researcher-st10" d="M324.9,37.1l-21.3,6.8l21.2,7.1l21.3-6.8L324.9,37.1z"/>
	<rect x="312.1" y="11.5" class="researcher-st10" width="4.1" height="22"/>
	<rect x="319" y="15.7" class="researcher-st10" width="4.1" height="17.9"/>
	<rect x="325.9" y="22.6" class="researcher-st10" width="4.1" height="11"/>
	<rect x="332.8" y="24.6" class="researcher-st10" width="4.1" height="8.9"/>
	<circle class="researcher-st10" cx="282" cy="420" r="3"/>
	<line class="researcher-st18" x1="271" y1="376" x2="293" y2="382"/>
	<polyline class="researcher-st19" points="212.4,131.2 214,132.1 233.5,138.6 233.7,116.3 255,109.5 268.3,91.5 289.6,84.7 302.9,66.7
		324.1,73.8 345.5,67 345.6,44.6 324.4,37.6 303.1,44.3 289.8,62.3 268.5,69.1 247.2,62 247.1,84.4 233.8,102.4 212.4,109.2
		212.3,131 212.3,131 212.3,182.9 243.4,182.9 403,182.9 403,297 341,358 	"/>
	<polyline class="cls-transferline" points="212.4,131.2 214,132.1 233.5,138.6 233.7,116.3 255,109.5 268.3,91.5 289.6,84.7 302.9,66.7
		324.1,73.8 345.5,67 345.6,44.6 324.4,37.6 303.1,44.3 289.8,62.3 268.5,69.1 247.2,62 247.1,84.4 233.8,102.4 212.4,109.2 
		212.3,131 212.3,131 212.3,182.9 243.4,182.9 403,182.9 403,297 341,358 	"/>
	<line class="researcher-st19" x1="303" y1="45" x2="303" y2="67"/>
	<line class="researcher-st19" x1="290" y1="62" x2="290" y2="84"/>
	<line class="researcher-st19" x1="268" y1="69" x2="268" y2="91"/>
	<line class="researcher-st19" x1="247" y1="84" x2="268" y2="91"/>
	<line class="researcher-st19" x1="234" y1="102" x2="256" y2="109"/>
	<polyline class="researcher-st19" points="303.1,44.3 324.8,51 345.6,44.6 	"/>
	<line class="researcher-st19" x1="325" y1="73" x2="325" y2="52"/>
</g>
</svg>
