<svg xmlns="http://www.w3.org/2000/svg" viewBox="0 0 221 278"><defs><style>.cls-1{fill:none;}.cls-1,.cls-2,.cls-3,.cls-4{stroke:#454a54;stroke-linecap:round;stroke-linejoin:round;}.cls-1,.cls-2,.cls-4{stroke-width:2px;}.cls-2{fill:#1f91cc;}.cls-3,.cls-7{fill:#95a5a6;}.cls-3{stroke-width:1.74px;}.cls-4{fill:#454a54;}.cls-5{fill:#ecf0f1;}.cls-6{fill:#2f3e4e;}.cls-8{fill:#d7b28f;}.cls-9{fill:#e5c1a0;}.cls-10{fill:#414042;}</style></defs><g id="Layer_4" data-name="Layer 4"><path class="cls-1" d="M135.66,85.54,153.88,95l20.29-3L156,82.48Z"/><path class="cls-2" d="M94,93.16,90.66,113.4l9.18,18.36,3.36-20.24Z"/><path class="cls-1" d="M108.28,57.73l18.21,9.46,3.36-20.25-18.21-9.45Z"/><path class="cls-3" d="M99.1,39.38l3.36-20.24L82.17,22.19,78.81,42.43Z"/><path class="cls-1" d="M121.05,99.94l-3.37,20.24,14.62-14.4,3.36-20.24Z"/><path class="cls-1" d="M121.05,99.94l14.61-14.4-9.17-18.35L111.87,81.58Z"/><path class="cls-1" d="M156,82.48l18.22,9.46L165,73.58l-18.21-9.45Z"/><path class="cls-1" d="M179.61,59.19,165,73.58l9.18,18.36,14.61-14.4Z"/><path class="cls-3" d="M156,82.48l-9.17-18.35-20.29,3.06,9.17,18.35Z"/><path class="cls-4" d="M161.4,49.73l-14.62,14.4L165,73.58l14.62-14.39Z"/><path class="cls-1" d="M93.66,72.13,73.37,75.19l18.21,9.45,20.29-3.06Z"/><path class="cls-1" d="M93.66,72.13l18.21,9.45,14.62-14.39-18.21-9.46Z"/><path class="cls-2" d="M129.85,46.94l-9.17-18.35-18.22-9.45,9.18,18.35Z"/><path class="cls-1" d="M146.78,64.13l14.62-14.4,3.36-20.24-14.62,14.4Z"/><path class="cls-1" d="M183,38.94l-18.21-9.45L161.4,49.73l18.21,9.46Z"/><path class="cls-1" d="M129.85,46.94l-3.36,20.25,20.29-3.06,3.36-20.24Z"/><path class="cls-1" d="M150.14,43.89l14.62-14.4-20.29,3.06L129.85,46.94Z"/><path class="cls-1" d="M78.81,42.43l3.36-20.24L67.55,36.59,64.19,56.83Z"/><path class="cls-1" d="M111.64,37.49l-9.18-18.35L99.1,39.38l9.18,18.35Z"/><path class="cls-1" d="M88,60.79l20.29-3.06L99.1,39.38l-20.29,3Z"/><path class="cls-1" d="M78.81,42.43,64.19,56.83l9.18,18.36L88,60.79Z"/><path class="cls-1" d="M108.28,57.73,88,60.79,73.37,75.19l20.29-3.06Z"/><path class="cls-5" d="M45.8,209.62,19.46,227.9c-2.19,1.52-1.32,4.15,1.6,4.82L175.69,268a5.09,5.09,0,0,0,4.5-1l21-20c1.67-1.6.64-3.89-2-4.49L49.86,208.93A5.27,5.27,0,0,0,45.8,209.62Z"/><path class="cls-6" d="M65.49,115s7,15,11.72,15c3.22,0,8-10.14,8-10.14l4.86,2s-6.67,18.45-12.26,18.71c-6.28.29-15.7-19.67-15.7-19.67Z"/><rect class="cls-7" x="54.25" y="168.9" width="9.08" height="57.44"/><path class="cls-6" d="M59.33,219.41s8-2.75,9.67-1c1,1.08.13,4.84-.94,5.88-1.94,1.88-7.42,3.67-10.12,3.77-1.17,0-4,.23-4.63-.75-1-1.49,1.14-7.11,1.14-7.11Z"/><rect class="cls-7" x="68.6" y="176.7" width="9.08" height="57.44"/><path class="cls-6" d="M73.1,228.2s8-2.75,9.67-1c1,1.08.13,4.84-.94,5.88-1.94,1.88-7.42,3.67-10.12,3.77-1.17,0-4,.22-4.63-.75-1-1.49,1.14-7.11,1.14-7.11Z"/><path class="cls-6" d="M59.86,120.69c5.46,0,14.27,3.12,16.59,7.95,2.23,4.65,4.63,50.61,2.23,54.4-1.54,2.42-8.23,3.64-11.12,3.35-4.31-.44-12.33-7-14.3-10.82-2.2-16.33-3.08-34.08-.73-48.79C52.86,124.68,57.69,120.69,59.86,120.69Z"/><path class="cls-7" d="M75.07,126.42c.55.62-9.84,1.82-11.78-.08-.94-.92.91-4.33.91-4.33S71.85,122.83,75.07,126.42Z"/><rect class="cls-8" x="65.14" y="118.85" width="5.82" height="6.84"/><path class="cls-9" d="M70.5,122.76c6.7-.82,7.36-9.1,7.36-13.21,0-7.52-4.93-14.86-12.65-14.83-5.19,0-12.59,7.11-10.56,17.88C55.52,117.22,63.44,123.61,70.5,122.76Z"/><path class="cls-10" d="M72.35,96.43c1.45,1-4.93,3.3-5.11,5.07-.27,2.73,3.66,10.36,3.66,10.36h0s-3.68-4.34-4.88-3.46,2,6.3,2,6.3L64.2,122s-13.62-5-11-18.89C55.57,90.78,68.32,93.58,72.35,96.43Z"/><ellipse class="cls-8" cx="68.05" cy="125.68" rx="2.91" ry="0.74"/><path class="cls-6" d="M74.88,127.78s7,15,11.72,15c3.22,0,14.11-19.5,14.11-19.5l4.39,4.38s-12.36,25.43-17.95,25.69c-6.28.29-15.7-19.67-15.7-19.67Z"/><path class="cls-8" d="M90,121.87s4.43-7.67-2.16-10c-1-.36-3.22,1.69-3.51,2.77-.33,1.27-.07,4.22.81,5.19S90,121.87,90,121.87Z"/><path class="cls-8" d="M105.55,127.66s4.42-7.66-2.17-10c-1-.37-3.22,1.68-3.5,2.76-.34,1.27-.07,4.22.81,5.2S105.55,127.66,105.55,127.66Z"/></g></svg>