<svg xmlns="http://www.w3.org/2000/svg" viewBox="0 0 198 278"><defs><style>.cls-1{fill:none;}.cls-1,.cls-2,.cls-3,.cls-4{stroke:#454a54;stroke-linecap:round;stroke-linejoin:round;}.cls-1,.cls-2,.cls-4{stroke-width:2px;}.cls-2{fill:#1f91cc;}.cls-3,.cls-5{fill:#95a5a6;}.cls-3{stroke-width:1.74px;}.cls-4{fill:#454a54;}.cls-6{fill:#2f3e4e;}.cls-7{fill:#d7b28f;}.cls-8{fill:#e5c1a0;}.cls-9{fill:#414042;}</style></defs><g id="Layer_4" data-name="Layer 4"><path class="cls-1" d="M124.66,85.54,142.88,95l20.29-3L145,82.48Z"/><path class="cls-2" d="M74,98.16,70.66,118.4l9.18,18.36,3.36-20.24Z"/><path class="cls-1" d="M97.28,57.73l18.21,9.46,3.36-20.25-18.21-9.45Z"/><path class="cls-3" d="M88.1,39.38l3.36-20.24L71.17,22.19,67.81,42.43Z"/><path class="cls-1" d="M110.05,99.94l-3.37,20.24,14.62-14.4,3.36-20.24Z"/><path class="cls-1" d="M110.05,99.94l14.61-14.4-9.17-18.35L100.87,81.58Z"/><path class="cls-1" d="M145,82.48l18.22,9.46L154,73.58l-18.21-9.45Z"/><path class="cls-1" d="M168.61,59.19,154,73.58l9.18,18.36,14.61-14.4Z"/><path class="cls-3" d="M145,82.48l-9.17-18.35-20.29,3.06,9.17,18.35Z"/><path class="cls-4" d="M150.4,49.73l-14.62,14.4L154,73.58l14.62-14.39Z"/><path class="cls-1" d="M82.66,72.13,62.37,75.19l18.21,9.45,20.29-3.06Z"/><path class="cls-1" d="M82.66,72.13l18.21,9.45,14.62-14.39L97.28,57.73Z"/><path class="cls-2" d="M118.85,46.94l-9.17-18.35L91.46,19.14l9.18,18.35Z"/><path class="cls-1" d="M135.78,64.13l14.62-14.4,3.36-20.24-14.62,14.4Z"/><path class="cls-1" d="M172,38.94l-18.21-9.45L150.4,49.73l18.21,9.46Z"/><path class="cls-1" d="M118.85,46.94l-3.36,20.25,20.29-3.06,3.36-20.24Z"/><path class="cls-1" d="M139.14,43.89l14.62-14.4-20.29,3.06L118.85,46.94Z"/><path class="cls-1" d="M67.81,42.43l3.36-20.24L56.55,36.59,53.19,56.83Z"/><path class="cls-1" d="M100.64,37.49,91.46,19.14,88.1,39.38l9.18,18.35Z"/><path class="cls-1" d="M77,60.79l20.29-3.06L88.1,39.38l-20.29,3Z"/><path class="cls-1" d="M67.81,42.43,53.19,56.83l9.18,18.36L77,60.79Z"/><path class="cls-1" d="M97.28,57.73,77,60.79,62.37,75.19l20.29-3.06Z"/><rect class="cls-5" x="26.98" y="178" width="10.36" height="65.53"/><path class="cls-6" d="M32.79,235.63s9.12-3.14,11-1.13c1.16,1.23.14,5.52-1.08,6.71-2.21,2.14-8.46,4.19-11.54,4.3-1.34,0-4.54.26-5.29-.85-1.15-1.7,1.3-8.12,1.3-8.12Z"/><rect class="cls-5" x="43.36" y="186.9" width="10.36" height="65.53"/><path class="cls-6" d="M48.5,245.66s9.13-3.14,11-1.13c1.16,1.23.14,5.52-1.08,6.7-2.21,2.15-8.46,4.2-11.53,4.3-1.34.05-4.55.27-5.29-.84-1.15-1.71,1.29-8.12,1.29-8.12Z"/><path class="cls-7" d="M81.52,145s5-8.75-2.47-11.36c-1.2-.42-3.68,1.92-4,3.15-.38,1.45-.09,4.81.92,5.93S81.52,145,81.52,145Z"/><path class="cls-6" d="M33.39,123c6.23,0,16.28,3.56,18.93,9.07,2.54,5.3,5.28,57.74,2.54,62.06-1.75,2.76-9.39,4.15-12.69,3.82-4.91-.49-14.07-8-16.31-12.33C23.35,167,22.34,146.73,25,130,25.41,127.55,30.92,123,33.39,123Z"/><path class="cls-5" d="M50.74,129.54c.63.7-11.22,2.07-13.44-.1-1.07-1,1-4.93,1-4.93S47.06,125.45,50.74,129.54Z"/><rect class="cls-7" x="39.42" y="120.89" width="6.65" height="7.8"/><path class="cls-8" d="M45.53,125.36c7.65-.93,8.4-10.38,8.4-15.07,0-8.58-5.62-17-14.43-16.92-5.92,0-14.37,8.11-12,20.4C28.44,119,37.47,126.33,45.53,125.36Z"/><path class="cls-9" d="M47.64,95.31c1.66,1.17-5.63,3.78-5.83,5.79C41.5,104.22,46,112.92,46,112.92h0s-4.19-5-5.56-3.94c-1.52,1.12,2.32,7.19,2.32,7.19l-4.4,8.34S22.81,118.86,25.82,103C28.49,88.87,43,92.07,47.64,95.31Z"/><ellipse class="cls-7" cx="42.74" cy="128.69" rx="3.32" ry="0.85"/><path class="cls-6" d="M53.53,137.08s7.93,17.15,13.36,17.17c3.68,0,9.08-11.57,9.08-11.57L81.51,145s-7.61,21-14,21.34c-7.16.34-17.91-22.44-17.91-22.44Z"/></g></svg>