<?xml version="1.0" encoding="utf-8"?>
<!-- Generator: Adobe Illustrator 26.0.2, SVG Export Plug-In . SVG Version: 6.00 Build 0)  -->
<svg version="1.1" id="Layer_1" xmlns="http://www.w3.org/2000/svg" xmlns:xlink="http://www.w3.org/1999/xlink" x="0px" y="0px"
	 viewBox="0 0 347.5 418.6" style="enable-background:new 0 0 347.5 418.6;" xml:space="preserve">
<style type="text/css">
	.st0{fill:#ECF0F1;}
	.st1{fill:none;stroke:#E6E6E6;stroke-linecap:round;stroke-linejoin:round;}
	.st2{fill:none;stroke:#454A54;stroke-width:2;stroke-linecap:round;stroke-linejoin:round;}
	.st3{fill:#1F91CC;stroke:#454A54;stroke-width:2;stroke-linecap:round;stroke-linejoin:round;}
	.st4{fill:#95A5A6;stroke:#454A54;stroke-width:1.74;stroke-linecap:round;stroke-linejoin:round;}
	.st5{fill:#454A54;stroke:#454A54;stroke-width:2;stroke-linecap:round;stroke-linejoin:round;}
	.st6{fill:#2F3E4E;}
	.st7{fill:#95A5A6;}
	.st8{fill:#D7B28F;}
	.st9{fill:#E5C1A0;}
	.st10{fill:#414042;}
</style>
<path class="st0" d="M87.5,242.5l100.8,33.7L289.5,244l-100.8-33.7L87.5,242.5z"/>
<path class="st1" d="M188.8,210.7L127,124.2L25.7,156.5L87.5,243L188.8,210.7z"/>
<path class="st1" d="M187.8,382.7l101.2-32.3l0.5-106.5l-101.2,32.3L187.8,382.7z"/>
<path class="st1" d="M188.3,276.3L87.5,242.5L87.1,349l100.8,33.7L188.3,276.3z"/>
<g id="Layer_4">
	<path class="st2" d="M263.4,94.3l18.2,9.5l20.3-3l-18.2-9.5L263.4,94.3z"/>
	<path class="st3" d="M221.7,101.9l-3.3,20.2l9.2,18.4l3.4-20.2L221.7,101.9z"/>
	<path class="st2" d="M236,66.5l18.2,9.5l3.4-20.2l-18.2-9.5L236,66.5z"/>
	<path class="st4" d="M226.8,48.1l3.4-20.2l-20.3,3l-3.4,20.2L226.8,48.1z"/>
	<path class="st2" d="M248.8,108.7l-3.4,20.2l14.6-14.4l3.4-20.2L248.8,108.7z"/>
	<path class="st2" d="M248.8,108.7l14.6-14.4L254.2,76l-14.6,14.4L248.8,108.7z"/>
	<path class="st2" d="M283.7,91.2l18.2,9.5l-9.2-18.4l-18.2-9.4L283.7,91.2z"/>
	<path class="st2" d="M307.3,68l-14.6,14.4l9.2,18.4l14.6-14.4L307.3,68z"/>
	<path class="st4" d="M283.7,91.2l-9.2-18.3L254.2,76l9.2,18.3L283.7,91.2z"/>
	<path class="st5" d="M289.1,58.5l-14.6,14.4l18.2,9.5L307.3,68L289.1,58.5z"/>
	<path class="st2" d="M221.4,80.9L201.1,84l18.2,9.4l20.3-3.1L221.4,80.9z"/>
	<path class="st2" d="M221.4,80.9l18.2,9.4L254.2,76L236,66.5L221.4,80.9z"/>
	<path class="st3" d="M257.6,55.7l-9.2-18.4l-18.2-9.4l9.2,18.3L257.6,55.7z"/>
	<path class="st2" d="M274.5,72.9l14.6-14.4l3.4-20.2l-14.6,14.4L274.5,72.9z"/>
	<path class="st2" d="M310.7,47.7l-18.2-9.5l-3.4,20.2l18.2,9.5L310.7,47.7z"/>
	<path class="st2" d="M257.6,55.7L254.2,76l20.3-3.1l3.4-20.2L257.6,55.7z"/>
	<path class="st2" d="M277.8,52.7l14.6-14.4l-20.3,3.1l-14.6,14.4L277.8,52.7z"/>
	<path class="st2" d="M206.5,51.2l3.4-20.2l-14.6,14.4l-3.4,20.2L206.5,51.2z"/>
	<path class="st2" d="M239.3,46.3l-9.2-18.4l-3.4,20.2l9.2,18.4L239.3,46.3z"/>
	<path class="st2" d="M215.7,69.6l20.3-3.1l-9.2-18.3l-20.3,3L215.7,69.6z"/>
	<path class="st2" d="M206.5,51.2l-14.6,14.4l9.2,18.4l14.6-14.4L206.5,51.2z"/>
	<path class="st2" d="M236,66.5l-20.3,3.1L201.1,84l20.3-3.1L236,66.5z"/>
	<path class="st6" d="M193.2,123.8c0,0,7,15,11.7,15c3.2,0,8-10.1,8-10.1l4.9,2c0,0-6.7,18.4-12.3,18.7
		c-6.3,0.3-15.7-19.7-15.7-19.7L193.2,123.8z"/>
	<rect x="182" y="177.7" class="st7" width="9.1" height="57.4"/>
	<path class="st6" d="M187,228.2c0,0,8-2.8,9.7-1c1,1.1,0.1,4.8-0.9,5.9c-1.9,1.9-7.4,3.7-10.1,3.8c-1.2,0-4,0.2-4.6-0.8
		c-1-1.5,1.1-7.1,1.1-7.1L187,228.2z"/>
	<rect x="196.3" y="185.5" class="st7" width="9.1" height="57.4"/>
	<path class="st6" d="M200.8,237c0,0,8-2.8,9.7-1c1,1.1,0.1,4.8-0.9,5.9c-1.9,1.9-7.4,3.7-10.1,3.8c-1.2,0-4,0.2-4.6-0.8
		c-1-1.5,1.1-7.1,1.1-7.1L200.8,237z"/>
	<path class="st6" d="M187.6,129.5c5.5,0,14.3,3.1,16.6,7.9c2.2,4.6,4.6,50.6,2.2,54.4c-1.5,2.4-8.2,3.6-11.1,3.4
		c-4.3-0.4-12.3-7-14.3-10.8c-2.2-16.3-3.1-34.1-0.7-48.8C180.6,133.4,185.4,129.5,187.6,129.5z"/>
	<path class="st7" d="M202.8,135.2c0.6,0.6-9.8,1.8-11.8-0.1c-0.9-0.9,0.9-4.3,0.9-4.3S199.6,131.6,202.8,135.2z"/>
	<rect x="192.8" y="127.6" class="st8" width="5.8" height="6.8"/>
	<path class="st9" d="M198.2,131.5c6.7-0.8,7.4-9.1,7.4-13.2c0-7.5-4.9-14.9-12.6-14.8c-5.2,0-12.6,7.1-10.6,17.9
		C183.2,126,191.1,132.4,198.2,131.5z"/>
	<path class="st10" d="M200.1,105.2c1.4,1-4.9,3.3-5.1,5.1c-0.3,2.7,3.7,10.4,3.7,10.4l0,0c0,0-3.7-4.3-4.9-3.5s2,6.3,2,6.3
		l-3.8,7.3c0,0-13.6-5-11-18.9C183.3,99.5,196,102.3,200.1,105.2z"/>
	<ellipse class="st8" cx="195.8" cy="134.4" rx="2.9" ry="0.7"/>
	<path class="st6" d="M202.6,136.5c0,0,7,15,11.7,15c3.2,0,14.1-19.5,14.1-19.5l4.4,4.4c0,0-12.4,25.4-18,25.7
		c-6.3,0.3-15.7-19.7-15.7-19.7L202.6,136.5z"/>
	<path class="st8" d="M217.7,130.6c0,0,4.4-7.7-2.2-10c-1-0.4-3.2,1.7-3.5,2.8c-0.3,1.3-0.1,4.2,0.8,5.2
		C213.7,129.6,217.7,130.6,217.7,130.6z"/>
	<path class="st8" d="M233.3,136.4c0,0,4.4-7.7-2.2-10c-1-0.4-3.2,1.7-3.5,2.8c-0.3,1.3-0.1,4.2,0.8,5.2
		C229.3,135.4,233.3,136.4,233.3,136.4z"/>
</g>
</svg>
