<svg xmlns="http://www.w3.org/2000/svg" viewBox="0 0 323.26 338.37"><defs><style>.cls-1{fill:#ecf0f1;}.cls-2,.cls-8{fill:#454a54;}.cls-3,.cls-9{fill:#1f91cc;}.cls-4{fill:#f3c12f;}.cls-5,.cls-7{fill:#95a5a6;}.cls-11,.cls-12,.cls-13,.cls-6{fill:none;}.cls-10,.cls-6,.cls-7,.cls-8,.cls-9{stroke:#454a54;}.cls-10,.cls-11,.cls-12,.cls-13,.cls-6,.cls-7,.cls-8,.cls-9{stroke-linecap:round;stroke-linejoin:round;}.cls-10,.cls-11,.cls-12,.cls-13,.cls-6,.cls-8,.cls-9{stroke-width:2px;}.cls-7{stroke-width:1.74px;}.cls-10{fill:#fff;}.cls-11,.cls-12,.cls-13{stroke:#f3c12f;}.cls-12{stroke-dasharray:3.59 3.59;}.cls-13{stroke-dasharray:3.64 3.64;}</style></defs><g id="Layer_4" data-name="Layer 4"><path class="cls-1" d="M14.1,49.44c8.17-16,25.47-26.31,41.8-32.21,18.76-6.77,42.44-7.45,61.7-2.2,9.31,2.54,18.27,7.69,23.44,15.84,16.78,26.46-1.3,66.38-6.12,93.91C132,141.4,118.79,154.5,119.49,172c.31,7.67,1.37,16.12-3.16,22.32-9.49,13-31.58,7.71-44.69,6.11-15.2-1.86-37.37-2.94-50.32-11.77-11.75-8-11-23.47-12.86-36-2-13.56-1.88-27.65-1.6-41.32.4-19.2-1.73-43.77,7-61.36Z"/><path class="cls-2" d="M238.17,291.15l1.93-1.87a5,5,0,0,0,3.89,1.87c1.76,0,2.68-.85,2.68-2.13,0-1-.48-1.65-2.07-1.94l-1.43-.21c-3.07-.48-4.54-1.94-4.54-4.42,0-2.71,2.1-4.47,5.49-4.47a6.37,6.37,0,0,1,5.2,2.24l-2,1.84A4,4,0,0,0,244,280.5c-1.63,0-2.48.65-2.48,1.78s.66,1.63,2.11,1.89l1.42.26c3.06.55,4.49,1.91,4.49,4.41,0,2.87-2.06,4.83-5.69,4.83A7,7,0,0,1,238.17,291.15Z"/><path class="cls-2" d="M251.45,287.71c0-3.63,1.89-5.91,5.24-5.91a4.4,4.4,0,0,1,4.46,2.87l-2.29,1a2.11,2.11,0,0,0-2.17-1.65c-1.54,0-2.32,1.09-2.32,2.67v2.07c0,1.58.78,2.65,2.32,2.65a2.42,2.42,0,0,0,2.39-1.78l2.13,1a4.43,4.43,0,0,1-4.52,3C253.34,293.67,251.45,291.36,251.45,287.71Z"/><path class="cls-2" d="M263.13,279v-.43c0-.81.48-1.39,1.63-1.39s1.63.58,1.63,1.39V279c0,.81-.5,1.39-1.63,1.39S263.13,279.83,263.13,279Zm.24,3h2.78v11.35h-2.78Z"/><path class="cls-2" d="M268.61,287.71c0-3.58,1.93-5.91,5.26-5.91,3.54,0,5.17,2.61,5.17,5.72v.91H271.5v.28a2.52,2.52,0,0,0,2.76,2.74,3.45,3.45,0,0,0,2.89-1.54l1.5,1.67a5.64,5.64,0,0,1-4.7,2.09C270.61,293.67,268.61,291.34,268.61,287.71Zm2.89-1.17v.17h4.65v-.19c0-1.57-.81-2.63-2.24-2.63A2.41,2.41,0,0,0,271.5,286.54Z"/><path class="cls-2" d="M281.5,293.41V282.06h2.78V284h.11a3.14,3.14,0,0,1,3.17-2.15c2.33,0,3.63,1.61,3.63,4.44v7.17h-2.78v-6.89c0-1.61-.54-2.44-1.87-2.44-1.15,0-2.26.61-2.26,1.83v7.5Z"/><path class="cls-2" d="M293.52,287.71c0-3.63,1.89-5.91,5.24-5.91a4.38,4.38,0,0,1,4.45,2.87l-2.28,1a2.11,2.11,0,0,0-2.17-1.65c-1.54,0-2.32,1.09-2.32,2.67v2.07c0,1.58.78,2.65,2.32,2.65a2.42,2.42,0,0,0,2.39-1.78l2.13,1a4.43,4.43,0,0,1-4.52,3C295.41,293.67,293.52,291.36,293.52,287.71Z"/><path class="cls-2" d="M304.57,287.71c0-3.58,1.93-5.91,5.26-5.91,3.54,0,5.17,2.61,5.17,5.72v.91h-7.54v.28a2.52,2.52,0,0,0,2.76,2.74,3.44,3.44,0,0,0,2.89-1.54l1.5,1.67a5.64,5.64,0,0,1-4.7,2.09C306.57,293.67,304.57,291.34,304.57,287.71Zm2.89-1.17v.17h4.65v-.19c0-1.57-.8-2.63-2.24-2.63A2.41,2.41,0,0,0,307.46,286.54Z"/><path class="cls-3" d="M238.17,297.15h3.24l3.89,7.41h.08l3.85-7.41h3.11v15.17h-2.72V301.43h-.09l-1.17,2.42-3.11,5.73-3.1-5.73L241,301.43h-.08v10.89h-2.72Z"/><path class="cls-3" d="M255,306.63c0-3.59,1.93-5.91,5.26-5.91,3.54,0,5.17,2.6,5.17,5.71v.91h-7.54v.29a2.51,2.51,0,0,0,2.76,2.73,3.45,3.45,0,0,0,2.89-1.54l1.5,1.68a5.63,5.63,0,0,1-4.7,2.08C257,312.58,255,310.26,255,306.63Zm2.89-1.18v.18h4.65v-.2c0-1.56-.81-2.63-2.24-2.63A2.41,2.41,0,0,0,257.87,305.45Z"/><path class="cls-3" d="M266.89,310.5l1.7-1.66a4,4,0,0,0,3.1,1.55c1.33,0,1.9-.5,1.9-1.31,0-.65-.4-1.06-1.4-1.19l-1.13-.15c-2.43-.31-3.78-1.37-3.78-3.44s1.72-3.58,4.31-3.58A5.41,5.41,0,0,1,276,302.5l-1.63,1.63a3.73,3.73,0,0,0-2.72-1.22c-1.19,0-1.71.48-1.71,1.18s.41,1.1,1.47,1.28l1.16.15c2.47.35,3.67,1.46,3.67,3.35,0,2.19-1.85,3.71-4.67,3.71A5.77,5.77,0,0,1,266.89,310.5Z"/><path class="cls-3" d="M278.72,296.24h2.78v6.63h.11a3.12,3.12,0,0,1,3.17-2.15c2.33,0,3.63,1.6,3.63,4.43v7.17h-2.78v-6.89c0-1.61-.54-2.43-1.87-2.43-1.15,0-2.26.61-2.26,1.82v7.5h-2.78Z"/><path class="cls-4" d="M40.13,209.49H42V220H40.13Z"/><path class="cls-4" d="M44.48,212.1H46l.14,1.06h0a3.71,3.71,0,0,1,2.58-1.25c1.69,0,2.42,1.14,2.42,3.12V220H49.34v-4.69c0-1.3-.37-1.78-1.22-1.78a2.5,2.5,0,0,0-1.8,1V220H44.48Z"/><path class="cls-4" d="M53.72,217.31v-3.75H52.59v-1.38l1.22-.08L54,210h1.53v2.15h2v1.46h-2v3.75c0,.92.36,1.38,1.11,1.38a2.45,2.45,0,0,0,.82-.18l.32,1.36a5.17,5.17,0,0,1-1.61.28C54.39,220.15,53.72,219,53.72,217.31Z"/><path class="cls-4" d="M58.44,216a3.83,3.83,0,0,1,3.63-4.13c2.12,0,3.24,1.53,3.24,3.73a5.06,5.06,0,0,1-.08.9h-5a2.24,2.24,0,0,0,2.32,2.19,3.4,3.4,0,0,0,1.82-.57L65,219.3a4.85,4.85,0,0,1-2.69.85A3.8,3.8,0,0,1,58.44,216Zm5.28-.76c0-1.21-.54-1.95-1.62-1.95a2,2,0,0,0-1.88,1.95Z"/><path class="cls-4" d="M67.07,212.1h1.51l.14,1.4h.06A2.67,2.67,0,0,1,71,211.91a2,2,0,0,1,.89.16l-.32,1.6a2.59,2.59,0,0,0-.81-.13c-.62,0-1.38.43-1.85,1.63V220H67.07Z"/><path class="cls-4" d="M72.36,216a3.76,3.76,0,1,1,3.74,4.11A3.81,3.81,0,0,1,72.36,216Zm5.58,0c0-1.58-.69-2.63-1.84-2.63s-1.84,1.05-1.84,2.63.69,2.61,1.84,2.61S77.94,217.61,77.94,216Z"/><path class="cls-4" d="M81.66,212.1h1.51l.15.84h.05a3.78,3.78,0,0,1,2.37-1c2,0,3.09,1.57,3.09,4,0,2.69-1.61,4.24-3.36,4.24a3.15,3.15,0,0,1-2-.86l.06,1.31v2.47H81.66Zm5.27,3.83c0-1.57-.51-2.5-1.71-2.5a2.5,2.5,0,0,0-1.71.88V218a2.44,2.44,0,0,0,1.57.65C86.13,218.63,86.93,217.71,86.93,215.93Z"/><path class="cls-4" d="M90.17,216a3.82,3.82,0,0,1,3.62-4.13c2.13,0,3.25,1.53,3.25,3.73a5.06,5.06,0,0,1-.08.9H92a2.24,2.24,0,0,0,2.32,2.19,3.43,3.43,0,0,0,1.82-.57l.63,1.14a4.86,4.86,0,0,1-2.7.85A3.79,3.79,0,0,1,90.17,216Zm5.27-.76c0-1.21-.53-1.95-1.61-1.95A2,2,0,0,0,92,215.28Z"/><path class="cls-4" d="M98.8,212.1h1.51l.14,1.4h0a2.68,2.68,0,0,1,2.24-1.59,2,2,0,0,1,.89.16l-.32,1.6a2.59,2.59,0,0,0-.81-.13c-.63,0-1.38.43-1.86,1.63V220H98.8Z"/><path class="cls-4" d="M103.93,217.85c0-1.69,1.39-2.56,4.62-2.91,0-.84-.36-1.55-1.43-1.55a4.25,4.25,0,0,0-2.2.78l-.68-1.23a6,6,0,0,1,3.22-1c2,0,2.94,1.21,2.94,3.4V220h-1.52l-.14-.87h0a3.79,3.79,0,0,1-2.44,1.06A2.2,2.2,0,0,1,103.93,217.85Zm4.62,0v-1.76c-2.13.27-2.84.82-2.84,1.62s.47,1,1.13,1A2.48,2.48,0,0,0,108.55,217.85Z"/><path class="cls-4" d="M114.27,219.14h0l-.16.82h-1.45V208.65h1.84v2.93l0,1.31a3.55,3.55,0,0,1,2.27-1c2,0,3.1,1.57,3.1,4,0,2.7-1.6,4.25-3.35,4.25A3.17,3.17,0,0,1,114.27,219.14Zm3.61-3.21c0-1.57-.52-2.5-1.71-2.5a2.5,2.5,0,0,0-1.72.88V218a2.42,2.42,0,0,0,1.58.65C117.08,218.63,117.88,217.71,117.88,215.93Z"/><path class="cls-4" d="M121.4,209.68a1.14,1.14,0,1,1,1.14,1A1.05,1.05,0,0,1,121.4,209.68Zm.22,2.42h1.84V220h-1.84Z"/><path class="cls-4" d="M125.81,217.94v-9.29h1.84V218c0,.46.21.62.4.62a1.21,1.21,0,0,0,.29,0l.23,1.37a2.65,2.65,0,0,1-1,.16C126.29,220.15,125.81,219.31,125.81,217.94Z"/><path class="cls-4" d="M129.93,209.68a1.14,1.14,0,1,1,1.14,1A1.05,1.05,0,0,1,129.93,209.68Zm.21,2.42H132V220h-1.85Z"/><path class="cls-4" d="M134.61,217.31v-3.75h-1.12v-1.38l1.22-.08.21-2.15h1.53v2.15h2v1.46h-2v3.75c0,.92.36,1.38,1.12,1.38a2.45,2.45,0,0,0,.82-.18l.31,1.36a5.17,5.17,0,0,1-1.61.28C135.28,220.15,134.61,219,134.61,217.31Z"/><path class="cls-4" d="M139.6,223l.34-1.43a2.4,2.4,0,0,0,.57.11,1.67,1.67,0,0,0,1.57-1.35l.14-.49-3.09-7.77H141l1.36,3.85c.23.7.46,1.48.69,2.23h.06c.2-.74.4-1.51.6-2.23l1.18-3.85h1.78l-2.85,8.22c-.65,1.77-1.48,2.87-3.19,2.87A3.27,3.27,0,0,1,139.6,223Z"/><path class="cls-4" d="M63.87,228.69h3.3c2.32,0,4,.81,4,3.23s-1.73,3.39-4,3.39h-1.5v3.85H63.87Zm3.21,5.14c1.56,0,2.31-.62,2.31-1.91s-.82-1.74-2.37-1.74H65.73v3.65Z"/><path class="cls-4" d="M73,237.14v-9.29h1.85v9.38c0,.46.2.62.4.62a1.1,1.1,0,0,0,.28,0l.23,1.37a2.55,2.55,0,0,1-1,.16C73.5,239.35,73,238.51,73,237.14Z"/><path class="cls-4" d="M76.94,237.05c0-1.69,1.39-2.56,4.62-2.91,0-.84-.36-1.55-1.43-1.55a4.32,4.32,0,0,0-2.21.78l-.67-1.23a6,6,0,0,1,3.22-1c2,0,2.93,1.21,2.93,3.4v4.65H81.89l-.14-.87h0a3.79,3.79,0,0,1-2.44,1.06A2.19,2.19,0,0,1,76.94,237.05Zm4.62,0v-1.77c-2.13.27-2.84.82-2.84,1.62s.47,1,1.13,1A2.51,2.51,0,0,0,81.56,237.06Z"/><path class="cls-4" d="M85.64,236.51v-3.75H84.51v-1.38l1.22-.08.22-2.15h1.53v2.15h2v1.46h-2v3.75c0,.92.36,1.38,1.11,1.38a2.45,2.45,0,0,0,.82-.18l.32,1.36a5.17,5.17,0,0,1-1.61.28C86.31,239.35,85.64,238.21,85.64,236.51Z"/><path class="cls-4" d="M90.39,231.38l1.16-.08h3.28v1.46H90.39Zm1.06-.89c0-1.63.75-2.83,2.61-2.83a4,4,0,0,1,1.44.28l-.36,1.37a2.2,2.2,0,0,0-.85-.18c-.65,0-1,.41-1,1.32v8.71H91.45Z"/><path class="cls-4" d="M95.53,235.24a3.76,3.76,0,1,1,3.74,4.11A3.81,3.81,0,0,1,95.53,235.24Zm5.58,0c0-1.58-.69-2.63-1.84-2.63s-1.85,1-1.85,2.63.7,2.61,1.85,2.61S101.11,236.81,101.11,235.24Z"/><path class="cls-4" d="M104.83,231.3h1.51l.14,1.4h.06a2.68,2.68,0,0,1,2.23-1.59,2,2,0,0,1,.89.16l-.32,1.6a2.59,2.59,0,0,0-.81-.13c-.62,0-1.38.43-1.85,1.63v4.79h-1.85Z"/><path class="cls-4" d="M110.8,231.3h1.51l.14,1.07h0a3.41,3.41,0,0,1,2.42-1.26,2.11,2.11,0,0,1,2.17,1.41,3.56,3.56,0,0,1,2.53-1.41c1.66,0,2.42,1.14,2.42,3.12v4.93H120.2v-4.69c0-1.29-.38-1.78-1.21-1.78a2.43,2.43,0,0,0-1.65,1v5.49H115.5v-4.69c0-1.29-.38-1.78-1.21-1.78a2.45,2.45,0,0,0-1.65,1v5.49H110.8Z"/><path class="cls-5" d="M59.34,20.88h1.91l3.25,5.89L65.59,29h.06c-.09-1.08-.24-2.41-.24-3.57V20.88h1.77V31.35H65.27L62,25.46l-1.08-2.23h-.07c.09,1.11.24,2.37.24,3.54v4.58H59.34Z"/><path class="cls-5" d="M69.16,27.43a3.82,3.82,0,0,1,3.63-4.13C74.91,23.3,76,24.83,76,27a4.84,4.84,0,0,1-.08.89H71a2.23,2.23,0,0,0,2.32,2.19,3.32,3.32,0,0,0,1.82-.57l.63,1.15a4.86,4.86,0,0,1-2.7.85A3.79,3.79,0,0,1,69.16,27.43Zm5.28-.76c0-1.21-.54-2-1.62-2a2,2,0,0,0-1.88,2Z"/><path class="cls-5" d="M77,23.49h1.85l1,4.08c.15.76.27,1.49.41,2.26h.06c.16-.77.31-1.52.5-2.26l1-4.08h1.67l1,4.08c.19.76.35,1.49.52,2.26h.07c.15-.77.26-1.5.42-2.26l.94-4.08H88.2l-2,7.86H84l-.92-3.67c-.17-.74-.31-1.46-.47-2.28h-.07c-.15.82-.29,1.56-.47,2.29l-.89,3.66H79.08Z"/><path class="cls-5" d="M92.4,30l1.08-1.28a4.1,4.1,0,0,0,2.73,1.2c1.18,0,1.83-.54,1.83-1.35s-.68-1.14-1.63-1.54L95,26.42a3,3,0,0,1-2.12-2.78c0-1.67,1.47-2.95,3.52-2.95A4.6,4.6,0,0,1,99.6,22l-.95,1.18a3.42,3.42,0,0,0-2.27-.9c-1,0-1.64.47-1.64,1.23s.8,1.13,1.66,1.48l1.42.6a2.9,2.9,0,0,1,2.11,2.82c0,1.7-1.41,3.11-3.76,3.11A5.42,5.42,0,0,1,92.4,30Z"/><path class="cls-5" d="M101.47,21.07a1.14,1.14,0,1,1,1.14,1A1.06,1.06,0,0,1,101.47,21.07Zm.21,2.42h1.84v7.86h-1.84Z"/><path class="cls-5" d="M106.15,28.7V25H105V23.57l1.21-.08.22-2.15H108v2.15h2V25h-2V28.7c0,.92.36,1.38,1.11,1.38a2.45,2.45,0,0,0,.82-.18l.32,1.35a5.15,5.15,0,0,1-1.61.29C106.82,31.54,106.15,30.4,106.15,28.7Z"/><path class="cls-5" d="M110.87,27.43a3.83,3.83,0,0,1,3.63-4.13c2.12,0,3.24,1.53,3.24,3.73a4.84,4.84,0,0,1-.08.89h-5A2.23,2.23,0,0,0,115,30.11a3.32,3.32,0,0,0,1.82-.57l.63,1.15a4.85,4.85,0,0,1-2.69.85A3.8,3.8,0,0,1,110.87,27.43Zm5.28-.76c0-1.21-.54-2-1.62-2a2,2,0,0,0-1.88,2Z"/></g><g id="Layer_5" data-name="Layer 5"><path class="cls-6" d="M336.72,92.94h-19.5l6,18.55h19.5Z"/><path class="cls-6" d="M333,81.47,317.22,92.94h19.5L352.5,81.47Z"/><path class="cls-6" d="M307.47,123l15.78-11.46-6-18.55L301.44,104.4Z"/><path class="cls-6" d="M275.91,123l6,18.55h19.51l-6-18.55Z"/><path class="cls-6" d="M260.13,111.49l6,18.55,15.78,11.46-6-18.55Z"/><path class="cls-7" d="M266.15,153l15.78-11.47L266.15,130,250.37,141.5Z"/><path class="cls-8" d="M301.44,104.4l-6,18.55,6,18.55,6-18.55Z"/><path class="cls-6" d="M275.91,123h19.5l6-18.55H281.93Z"/><path class="cls-6" d="M250.37,81.47l15.78,11.47-6-18.55L244.35,62.92Z"/><path class="cls-6" d="M275.91,62.92,260.13,74.39l6,18.55,15.78-11.47Z"/><path class="cls-6" d="M250.37,81.47l-6-18.55H224.84l6,18.55Z"/><path class="cls-9" d="M260.13,51.46,244.35,62.92l15.78,11.47,15.78-11.47Z"/><path class="cls-6" d="M240.62,111.49h19.51l6-18.55h-19.5Z"/><path class="cls-6" d="M224.84,123h19.51l15.78-11.46H240.62Z"/><path class="cls-6" d="M266.15,130l-6-18.55L244.35,123l6,18.55Z"/><path class="cls-6" d="M230.87,81.47l15.78,11.47h19.5L250.37,81.47Z"/><path class="cls-7" d="M240.62,111.49l6-18.55L230.87,81.47l-6,18.55Z"/><path class="cls-6" d="M307.47,62.92l-6,18.55,15.78,11.47,6-18.55Z"/><path class="cls-6" d="M301.44,44.37l-6,18.55,6,18.55,6-18.55Z"/><path class="cls-6" d="M281.93,81.47h19.51l-6-18.55h-19.5Z"/><path class="cls-6" d="M339,62.92,323.25,74.39l-6,18.55L333,81.47Z"/><path class="cls-6" d="M307.47,62.92l15.78,11.47L339,62.92,323.25,51.46Z"/><path class="cls-6" d="M301.44,81.47H281.93L266.15,92.94h19.51Z"/><path class="cls-6" d="M301.44,104.4l15.78-11.46L301.44,81.47,285.66,92.94Z"/><path class="cls-6" d="M281.93,104.4,266.15,92.94l-6,18.55L275.91,123Z"/><path class="cls-6" d="M285.66,92.94H266.15l15.78,11.46h19.51Z"/><path class="cls-6" d="M342.75,171.52h-19.5l-6,18.55h19.5Z"/><path class="cls-6" d="M358.53,160.06H339l-15.78,11.46h19.5Z"/><path class="cls-6" d="M352.5,201.54l-15.78-11.47h-19.5L333,201.54Z"/><path class="cls-6" d="M323.25,171.52l-6-18.55L301.44,141.5l6,18.56Z"/><path class="cls-6" d="M301.44,178.61l15.78,11.46,6-18.55-15.78-11.46Z"/><path class="cls-6" d="M295.41,160.06l6-18.56H281.93l-6,18.56Z"/><path class="cls-6" d="M275.91,160.06l6-18.56L266.15,153l-6,18.55Z"/><path class="cls-6" d="M307.47,160.06l-6-18.56-6,18.56,6,18.55Z"/><path class="cls-6" d="M281.93,178.61h19.51l-6-18.55h-19.5Z"/><path class="cls-6" d="M323.25,208.62l-6-18.55-15.78,11.47,6,18.55Z"/><path class="cls-7" d="M333,201.54l-15.78-11.47,6,18.55L339,220.09Z"/><path class="cls-6" d="M323.25,231.55,339,220.09l-15.78-11.47-15.78,11.47Z"/><path class="cls-6" d="M285.66,190.07H266.15l15.78,11.47h19.51Z"/><path class="cls-6" d="M275.91,220.09l6-18.55-15.78-11.47-6,18.55Z"/><path class="cls-6" d="M285.66,190.07l15.78,11.47,15.78-11.47-15.78-11.46Z"/><path class="cls-6" d="M275.91,160.06l-15.78,11.46,6,18.55,15.78-11.46Z"/><path class="cls-6" d="M244.35,160.06l15.78,11.46,6-18.55L250.37,141.5Z"/><path class="cls-7" d="M301.44,178.61H281.93l-15.78,11.46h19.51Z"/><path class="cls-6" d="M333,238.64,317.22,250.1h19.5l15.78-11.46Z"/><path class="cls-6" d="M342.75,268.65l-6-18.55h-19.5l6,18.55Z"/><path class="cls-9" d="M307.47,220.09l-6,18.55,15.78,11.46,6-18.55Z"/><path class="cls-6" d="M339,220.09l-15.78,11.46-6,18.55L333,238.64Z"/><path class="cls-6" d="M158,171.52l15.78-11.46-6-18.56L152,153Z"/><path class="cls-6" d="M152,190.07l15.78-11.46,6-18.55L158,171.52Z"/><path class="cls-6" d="M189.56,171.52l-15.78-11.46-6,18.55,15.78,11.46Z"/><path class="cls-6" d="M132.46,153H152l15.78-11.47H148.24Z"/><path class="cls-6" d="M158,171.52,152,153H132.46l6,18.55Z"/><path class="cls-6" d="M173.78,160.06l15.78,11.46h19.5l-15.78-11.46Z"/><path class="cls-6" d="M203,190.07l6-18.55h-19.5l-6,18.55Z"/><path class="cls-6" d="M187.25,141.5h-19.5l6,18.56h19.5Z"/><path class="cls-6" d="M203,153l6,18.55,15.78-11.46-6-18.56Z"/><path class="cls-6" d="M218.81,141.5l6,18.56,6-18.56-6-18.55Z"/><path class="cls-6" d="M250.37,141.5h-19.5l-6,18.56h19.51Z"/><path class="cls-6" d="M193.28,160.06l15.78,11.46L203,153,187.25,141.5Z"/><path class="cls-6" d="M138.49,171.52l-6,18.55H152l6-18.55Z"/><path class="cls-6" d="M230.87,81.47l-6-18.55L209.06,74.39l6,18.55Z"/><path class="cls-6" d="M224.84,100l-15.78,11.47L224.84,123l15.78-11.46Z"/><path class="cls-6" d="M250.37,141.5l-6-18.55H224.84l6,18.55Z"/><path class="cls-6" d="M215.09,92.94l-6,18.55L224.84,100l6-18.55Z"/><path class="cls-6" d="M209.06,231.55l15.78-11.46-15.78-11.47-15.78,11.47Z"/><path class="cls-6" d="M193.28,220.09l15.78-11.47h-19.5l-15.78,11.47Z"/><path class="cls-6" d="M183.53,190.07l6,18.55h19.5l-6-18.55Z"/><path class="cls-6" d="M218.81,238.64l6-18.55-15.78,11.46-6,18.55Z"/><path class="cls-6" d="M218.81,238.64,203,250.1l6,18.55,15.78-11.46Z"/><path class="cls-6" d="M187.25,238.64,203,250.1l6-18.55-15.78-11.46Z"/><path class="cls-6" d="M215.09,190.07l-6-18.55-6,18.55,6,18.55Z"/><path class="cls-6" d="M215.09,190.07l-6,18.55,15.78,11.47,6-18.55Z"/><path class="cls-6" d="M240.62,171.52l-15.78-11.46-15.78,11.46L224.84,183Z"/><path class="cls-6" d="M260.13,171.52l-15.78-11.46H224.84l15.78,11.46Z"/><path class="cls-6" d="M230.87,201.54l-6-18.56-15.78-11.46,6,18.55Z"/><path class="cls-6" d="M240.62,171.52,224.84,183l6,18.56,15.78-11.47Z"/><path class="cls-6" d="M193.28,220.09h-19.5l-6,18.55h19.5Z"/><path class="cls-6" d="M203,250.1l-15.78-11.46h-19.5l15.78,11.46Z"/><path class="cls-6" d="M218.81,298.67l6,18.55,6-18.55-6-18.55Z"/><path class="cls-6" d="M218.81,298.67l6-18.55-15.78-11.47-6,18.55Z"/><path class="cls-6" d="M203,287.2l6,18.55,15.78,11.47-6-18.55Z"/><path class="cls-6" d="M250.37,238.64l-6-18.55H224.84l6,18.55Z"/><path class="cls-6" d="M266.15,250.1l-6-18.55-15.78-11.46,6,18.55Z"/><path class="cls-6" d="M260.13,208.62l-15.78,11.47,15.78,11.46,15.78-11.46Z"/><path class="cls-6" d="M224.84,257.19l6-18.55-6-18.55-6,18.55Z"/><path class="cls-7" d="M250.37,238.64h-19.5l-6,18.55h19.51Z"/><path class="cls-7" d="M244.35,220.09l15.78-11.47,6-18.55-15.78,11.47Z"/><path class="cls-6" d="M230.87,201.54l-6,18.55h19.51l6-18.55Z"/><path class="cls-9" d="M246.65,190.07h19.5l-6-18.55H240.62Z"/><path class="cls-6" d="M250.37,201.54l15.78-11.47h-19.5l-15.78,11.47Z"/><path class="cls-6" d="M224.84,257.19l-15.78,11.46,15.78,11.47,15.78-11.47Z"/><path class="cls-6" d="M244.35,257.19l15.78,11.46,6-18.55-15.78-11.46Z"/><path class="cls-6" d="M275.91,220.09l-15.78,11.46,6,18.55,15.78-11.46Z"/><path class="cls-6" d="M240.62,268.65h19.51l-15.78-11.46H224.84Z"/><path class="cls-6" d="M285.66,250.1H266.15l-6,18.55h19.5Z"/><path class="cls-10" d="M89.9,184.07l15.78-11.46-6-18.55L83.88,165.52Z"/><path class="cls-10" d="M121.46,124l6-18.55-6-18.55-6,18.55Z"/><path class="cls-10" d="M99.66,117l6,18.55L121.46,124l-6-18.55Z"/><path class="cls-7" d="M70.4,124l-6-18.55L48.59,117l6,18.55Z"/><path class="cls-7" d="M54.62,135.5l-6-18.55-6,18.55,6,18.56Z"/><path class="cls-10" d="M23.06,135.5h19.5l6-18.55H29.09Z"/><path class="cls-7" d="M80.15,117,64.37,105.49l6,18.55L86.18,135.5Z"/><path class="cls-10" d="M80.15,117l6,18.55h19.5l-6-18.55Z"/><path class="cls-7" d="M70.4,147,86.18,135.5,70.4,124,54.62,135.5Z"/><path class="cls-10" d="M32.81,105.49H13.31L29.09,117h19.5Z"/><path class="cls-7" d="M32.81,105.49,48.59,117l15.78-11.46L48.59,94Z"/><path class="cls-10" d="M48.59,94H29.09L13.31,105.49h19.5Z"/><path class="cls-10" d="M23.06,75.47l6,18.55h19.5l-6-18.55Z"/><path class="cls-10" d="M80.15,154.06,64.37,165.52H83.88l15.78-11.46Z"/><path class="cls-10" d="M89.9,184.07l-6-18.55H64.37l6,18.55Z"/><path class="cls-10" d="M80.15,154.06H99.66l6-18.56H86.18Z"/><path class="cls-7" d="M54.62,135.5l-6,18.56,15.78,11.46,6-18.55Z"/><path class="cls-10" d="M29.09,154.06h19.5l-6-18.56H23.06Z"/><path class="cls-7" d="M86.18,135.5,70.4,147l-6,18.55,15.78-11.46Z"/><path class="cls-10" d="M48.59,177l15.78-11.46L48.59,154.06,32.81,165.52Z"/><path class="cls-8" d="M32.81,165.52l15.78-11.46H29.09L13.31,165.52Z"/><path class="cls-8" d="M80.15,56.92,64.37,45.46,48.59,56.92,64.37,68.39Z"/><path class="cls-8" d="M89.9,86.94H70.4l-6,18.55H83.88Z"/><path class="cls-10" d="M105.68,75.47H86.18L70.4,86.94H89.9Z"/><path class="cls-10" d="M64.37,68.39l6,18.55L86.18,75.47l-6-18.55Z"/><path class="cls-7" d="M99.66,117,83.88,105.49H64.37L80.15,117Z"/><path class="cls-10" d="M89.9,86.94l-6,18.55L99.66,117l6-18.55Z"/><path class="cls-7" d="M70.4,86.94l-6-18.55L48.59,56.92l6,18.55Z"/><path class="cls-7" d="M48.59,94l15.78,11.47,6-18.55L54.62,75.47Z"/><path class="cls-8" d="M42.56,75.47l6-18.55H29.09l-6,18.55Z"/><path class="cls-10" d="M54.62,75.47l-6-18.55-6,18.55,6,18.55Z"/><path class="cls-10" d="M105.68,98.4l15.78-11.46L105.68,75.47,89.9,86.94Z"/><path class="cls-10" d="M80.15,56.92l6,18.55h19.5l-6-18.55Z"/><path class="cls-8" d="M115.44,105.49l6-18.55L105.68,98.4l-6,18.55Z"/><path class="cls-10" d="M111.71,56.92l-6-18.55-6,18.55,6,18.55Z"/><path class="cls-8" d="M111.71,56.92l-6,18.55,15.78,11.47,6-18.55Z"/><path class="cls-10" d="M127.49,68.39l-6-18.55L105.68,38.37l6,18.55Z"/><line class="cls-11" x1="125" y1="126.37" x2="126.73" y2="127.38"/><line class="cls-12" x1="129.84" y1="129.17" x2="140.72" y2="135.47"/><line class="cls-11" x1="142.27" y1="136.37" x2="144" y2="137.37"/><line class="cls-11" x1="110" y1="175.53" x2="111.73" y2="176.53"/><line class="cls-12" x1="114.84" y1="178.33" x2="125.71" y2="184.63"/><line class="cls-11" x1="127.27" y1="185.53" x2="129" y2="186.53"/><line class="cls-11" x1="110" y1="139.53" x2="111.73" y2="140.53"/><line class="cls-12" x1="114.84" y1="142.33" x2="125.71" y2="148.63"/><line class="cls-11" x1="127.27" y1="149.53" x2="129" y2="150.53"/><line class="cls-11" x1="106.13" y1="155.17" x2="107.88" y2="156.14"/><line class="cls-13" x1="111.08" y1="157.89" x2="128.65" y2="167.53"/><line class="cls-11" x1="130.25" y1="168.41" x2="132" y2="169.37"/></g></svg>