<svg xmlns="http://www.w3.org/2000/svg" viewBox="0 0 323.26 338.37">
    <defs>
        <style>
            .sys-admin-st-1,.sys-admin-st-7{fill:#454a54;}.sys-admin-st-2,.sys-admin-st-9{fill:#1f91cc;}.sys-admin-st-3{fill:#f3c12f;}.sys-admin-st-4{fill:#ecf0f1;}.sys-admin-st-5{fill:#fff;}.sys-admin-st-5,.sys-admin-st-6,.sys-admin-st-7,.sys-admin-st-8,.sys-admin-st-9{stroke:#454a54;}.sys-admin-st-10,.sys-admin-st-11,.sys-admin-st-12,.sys-admin-st-5,.sys-admin-st-6,.sys-admin-st-7,.sys-admin-st-8,.sys-admin-st-9{stroke-linecap:round;stroke-linejoin:round;}.sys-admin-st-10,.sys-admin-st-11,.sys-admin-st-12,.sys-admin-st-5,.sys-admin-st-7,.sys-admin-st-8,.sys-admin-st-9{stroke-width:2px;}.sys-admin-st-14,.sys-admin-st-6{fill:#95a5a6;}.sys-admin-st-6{stroke-width:1.74px;}.sys-admin-st-10,.sys-admin-st-11,.sys-admin-st-12,.sys-admin-st-8{fill:none;}.sys-admin-st-10,.sys-admin-st-11,.sys-admin-st-12{stroke:#f3c12f;}.sys-admin-st-11{stroke-dasharray:4.27
            4.27;}.sys-admin-st-12{stroke-dasharray:3.72
            3.72;}.sys-admin-st-13{fill:#2f3e4e;}.sys-admin-st-15{fill:#d7b28f;}.sys-admin-st-16{fill:#e5c1a0;}.sys-admin-st-17{fill:#414042;}
        </style>
    </defs>
    <g id="Layer_4" data-name="Layer 4">
        <path class="sys-admin-st-1"
              d="M251.25,230.58l1.52-1.47a3.91,3.91,0,0,0,3.07,1.47c1.38,0,2.1-.67,2.1-1.68,0-.8-.38-1.3-1.63-1.52l-1.12-.17c-2.42-.38-3.58-1.52-3.58-3.47,0-2.14,1.66-3.52,4.33-3.52A5,5,0,0,1,260,222l-1.53,1.45a3.19,3.19,0,0,0-2.67-1.23c-1.28,0-1.95.51-1.95,1.4s.51,1.28,1.66,1.49l1.11.2c2.41.43,3.54,1.51,3.54,3.47,0,2.26-1.63,3.8-4.48,3.8A5.54,5.54,0,0,1,251.25,230.58Z"/>
        <path class="sys-admin-st-1"
              d="M261.71,227.88c0-2.86,1.48-4.65,4.12-4.65a3.45,3.45,0,0,1,3.5,2.25l-1.79.81a1.66,1.66,0,0,0-1.71-1.3c-1.22,0-1.83.85-1.83,2.1v1.62c0,1.25.61,2.09,1.83,2.09a1.92,1.92,0,0,0,1.88-1.4l1.67.8a3.49,3.49,0,0,1-3.55,2.36C263.19,232.56,261.71,230.75,261.71,227.88Z"/>
        <path class="sys-admin-st-1"
              d="M270.89,221v-.35c0-.63.38-1.09,1.29-1.09s1.28.46,1.28,1.09V221c0,.63-.4,1.09-1.28,1.09S270.89,221.67,270.89,221Zm.19,2.39h2.19v8.93h-2.19Z"/>
        <path class="sys-admin-st-1"
              d="M275.2,227.88c0-2.83,1.53-4.65,4.14-4.65,2.79,0,4.07,2.05,4.07,4.49v.72h-5.93v.22a2,2,0,0,0,2.17,2.16,2.7,2.7,0,0,0,2.27-1.22l1.18,1.32a4.4,4.4,0,0,1-3.69,1.64C276.78,232.56,275.2,230.73,275.2,227.88Zm2.28-.93v.14h3.66v-.15c0-1.24-.64-2.07-1.76-2.07A1.89,1.89,0,0,0,277.48,227Z"/>
        <path class="sys-admin-st-1"
              d="M285.35,232.36v-8.93h2.19v1.49h.08a2.46,2.46,0,0,1,2.5-1.69c1.83,0,2.85,1.26,2.85,3.48v5.65h-2.18v-5.42c0-1.27-.43-1.92-1.48-1.92-.9,0-1.77.48-1.77,1.44v5.9Z"/>
        <path class="sys-admin-st-1"
              d="M294.81,227.88c0-2.86,1.49-4.65,4.12-4.65a3.45,3.45,0,0,1,3.5,2.25l-1.79.81a1.66,1.66,0,0,0-1.71-1.3c-1.21,0-1.83.85-1.83,2.1v1.62c0,1.25.62,2.09,1.83,2.09a1.92,1.92,0,0,0,1.88-1.4l1.68.8a3.5,3.5,0,0,1-3.56,2.36C296.3,232.56,294.81,230.75,294.81,227.88Z"/>
        <path class="sys-admin-st-1"
              d="M303.5,227.88c0-2.83,1.52-4.65,4.14-4.65,2.79,0,4.07,2.05,4.07,4.49v.72h-5.94v.22a2,2,0,0,0,2.18,2.16,2.72,2.72,0,0,0,2.27-1.22l1.18,1.32a4.42,4.42,0,0,1-3.69,1.64C305.07,232.56,303.5,230.73,303.5,227.88Zm2.27-.93v.14h3.66v-.15c0-1.24-.63-2.07-1.76-2.07A1.89,1.89,0,0,0,305.77,227Z"/>
        <path class="sys-admin-st-2"
              d="M251.25,235.3h2.55l3.06,5.83h.07l3-5.83h2.44v11.94h-2.14v-8.57h-.06l-.93,1.9-2.44,4.51-2.45-4.51-.92-1.9h-.07v8.57h-2.14Z"/>
        <path class="sys-admin-st-2"
              d="M264.48,242.76c0-2.82,1.52-4.65,4.14-4.65,2.78,0,4.06,2,4.06,4.49v.72h-5.93v.23a2,2,0,0,0,2.17,2.15,2.71,2.71,0,0,0,2.28-1.22l1.18,1.32a4.43,4.43,0,0,1-3.7,1.64C266.05,247.44,264.48,245.61,264.48,242.76Zm2.27-.93V242h3.66v-.15c0-1.23-.63-2.07-1.76-2.07A1.89,1.89,0,0,0,266.75,241.83Z"/>
        <path class="sys-admin-st-2"
              d="M273.85,245.8l1.34-1.3a3.14,3.14,0,0,0,2.44,1.22c1,0,1.49-.4,1.49-1s-.31-.84-1.09-.94l-.89-.12c-1.92-.24-3-1.08-3-2.7s1.35-2.82,3.39-2.82a4.23,4.23,0,0,1,3.48,1.4l-1.28,1.28a2.93,2.93,0,0,0-2.14-1c-.93,0-1.35.38-1.35.93s.33.87,1.17,1l.9.12c1.95.27,2.89,1.14,2.89,2.63,0,1.73-1.45,2.92-3.67,2.92A4.52,4.52,0,0,1,273.85,245.8Z"/>
        <path class="sys-admin-st-2"
              d="M283.16,234.59h2.19v5.21h.08a2.47,2.47,0,0,1,2.5-1.69c1.83,0,2.86,1.26,2.86,3.49v5.64H288.6v-5.42c0-1.27-.43-1.92-1.47-1.92s-1.78.48-1.78,1.44v5.9h-2.19Z"/>
        <path class="sys-admin-st-3" d="M96.28,162H97.7v8H96.28Z"/>
        <path class="sys-admin-st-3"
              d="M99.61,164h1.15l.11.81h0a2.82,2.82,0,0,1,2-1c1.29,0,1.85.87,1.85,2.39V170h-1.4v-3.59c0-1-.29-1.36-.94-1.36a1.88,1.88,0,0,0-1.37.75V170H99.61Z"/>
        <path class="sys-admin-st-3"
              d="M106.68,168v-2.87h-.86v-1.06l.93-.06.17-1.64h1.17V164h1.53v1.12h-1.53V168c0,.71.27,1.06.85,1.06a1.81,1.81,0,0,0,.62-.14l.24,1a3.75,3.75,0,0,1-1.22.22C107.19,170.18,106.68,169.3,106.68,168Z"/>
        <path class="sys-admin-st-3"
              d="M110.29,167a2.93,2.93,0,0,1,2.77-3.16c1.63,0,2.49,1.18,2.49,2.86a3.7,3.7,0,0,1-.06.68h-3.82a1.71,1.71,0,0,0,1.77,1.68,2.52,2.52,0,0,0,1.4-.44l.48.88a3.81,3.81,0,0,1-2.06.65A2.91,2.91,0,0,1,110.29,167Zm4-.58c0-.92-.41-1.48-1.24-1.48a1.5,1.5,0,0,0-1.43,1.48Z"/>
        <path class="sys-admin-st-3"
              d="M116.9,164h1.15l.11,1.07h0a2.06,2.06,0,0,1,1.71-1.22,1.44,1.44,0,0,1,.68.13l-.25,1.22a2,2,0,0,0-.61-.1c-.48,0-1.06.33-1.42,1.25V170H116.9Z"/>
        <path class="sys-admin-st-3"
              d="M120.94,167a2.87,2.87,0,1,1,2.86,3.15A2.92,2.92,0,0,1,120.94,167Zm4.27,0c0-1.2-.53-2-1.41-2s-1.41.81-1.41,2,.53,2,1.41,2S125.21,168.23,125.21,167Z"/>
        <path class="sys-admin-st-3"
              d="M128.06,164h1.16l.11.64h0a2.92,2.92,0,0,1,1.81-.79c1.5,0,2.36,1.21,2.36,3.06,0,2.06-1.23,3.25-2.56,3.25a2.4,2.4,0,0,1-1.55-.66l0,1v1.89h-1.41Zm4,2.93c0-1.2-.39-1.91-1.31-1.91a1.93,1.93,0,0,0-1.31.67v2.8a1.87,1.87,0,0,0,1.21.5C131.48,169,132.09,168.31,132.09,167Z"/>
        <path class="sys-admin-st-3"
              d="M134.57,167a2.93,2.93,0,0,1,2.77-3.16c1.63,0,2.48,1.18,2.48,2.86a3.7,3.7,0,0,1-.06.68H136a1.71,1.71,0,0,0,1.77,1.68,2.51,2.51,0,0,0,1.39-.44l.48.88a3.76,3.76,0,0,1-2.06.65A2.9,2.9,0,0,1,134.57,167Zm4-.58c0-.92-.42-1.48-1.24-1.48a1.5,1.5,0,0,0-1.44,1.48Z"/>
        <path class="sys-admin-st-3"
              d="M141.17,164h1.16l.11,1.07h0a2.06,2.06,0,0,1,1.71-1.22,1.47,1.47,0,0,1,.68.13l-.25,1.22a2,2,0,0,0-.62-.1c-.48,0-1.05.33-1.42,1.25V170h-1.41Z"/>
        <path class="sys-admin-st-3"
              d="M145.1,168.42c0-1.29,1.07-2,3.53-2.23,0-.64-.27-1.18-1.09-1.18a3.38,3.38,0,0,0-1.69.59l-.52-.94a4.79,4.79,0,0,1,2.47-.79c1.5,0,2.24.93,2.24,2.6V170h-1.15l-.11-.66h0a2.89,2.89,0,0,1-1.86.81A1.69,1.69,0,0,1,145.1,168.42Zm3.53,0v-1.35c-1.63.21-2.17.63-2.17,1.24s.36.76.87.76A1.87,1.87,0,0,0,148.63,168.42Z"/>
        <path class="sys-admin-st-3"
              d="M153,169.4h0l-.12.63h-1.11v-8.64h1.41v2.23l0,1a2.73,2.73,0,0,1,1.74-.75c1.5,0,2.37,1.21,2.37,3.06,0,2.06-1.23,3.25-2.57,3.25A2.42,2.42,0,0,1,153,169.4Zm2.76-2.45c0-1.2-.39-1.91-1.31-1.91a1.91,1.91,0,0,0-1.31.67v2.8a1.84,1.84,0,0,0,1.2.5C155.16,169,155.77,168.31,155.77,167Z"/>
        <path class="sys-admin-st-3" d="M158.47,162.17a.87.87,0,1,1,.87.8A.81.81,0,0,1,158.47,162.17Zm.16,1.85H160v6h-1.41Z"/>
        <path class="sys-admin-st-3"
              d="M161.84,168.48v-7.09h1.41v7.17c0,.35.16.47.3.47a.64.64,0,0,0,.22,0l.18,1.06a2.18,2.18,0,0,1-.74.12C162.21,170.18,161.84,169.53,161.84,168.48Z"/>
        <path class="sys-admin-st-3" d="M165,162.17a.87.87,0,1,1,.87.8A.81.81,0,0,1,165,162.17Zm.16,1.85h1.41v6h-1.41Z"/>
        <path class="sys-admin-st-3"
              d="M168.58,168v-2.87h-.86v-1.06l.93-.06.17-1.64H170V164h1.53v1.12H170V168c0,.71.27,1.06.85,1.06a1.92,1.92,0,0,0,.63-.14l.24,1a3.87,3.87,0,0,1-1.23.22C169.09,170.18,168.58,169.3,168.58,168Z"/>
        <path class="sys-admin-st-3"
              d="M172.4,172.38l.26-1.1a1.5,1.5,0,0,0,.43.09,1.27,1.27,0,0,0,1.2-1l.11-.38L172,164h1.43l1,2.95c.18.53.35,1.12.52,1.7h.05c.16-.56.31-1.15.46-1.7l.9-2.95h1.36l-2.17,6.29c-.5,1.35-1.13,2.19-2.45,2.19A2.46,2.46,0,0,1,172.4,172.38Z"/>
        <path class="sys-admin-st-3"
              d="M114.45,176.72H117c1.78,0,3.09.62,3.09,2.47s-1.32,2.59-3,2.59h-1.15v2.94h-1.42Zm2.45,3.93c1.2,0,1.76-.48,1.76-1.46s-.62-1.33-1.81-1.33h-1v2.79Z"/>
        <path class="sys-admin-st-3"
              d="M121.45,183.18v-7.1h1.41v7.17c0,.35.16.47.31.47a.9.9,0,0,0,.21,0l.18,1.05a1.92,1.92,0,0,1-.74.12C121.82,184.87,121.45,184.22,121.45,183.18Z"/>
        <path class="sys-admin-st-3"
              d="M124.45,183.11c0-1.29,1.06-2,3.53-2.22,0-.65-.28-1.19-1.09-1.19a3.34,3.34,0,0,0-1.69.59l-.52-.94a4.73,4.73,0,0,1,2.47-.78c1.5,0,2.24.92,2.24,2.6v3.55h-1.15l-.11-.66h0a2.92,2.92,0,0,1-1.87.81A1.68,1.68,0,0,1,124.45,183.11Zm3.53,0v-1.35c-1.63.21-2.17.63-2.17,1.24s.36.76.86.76A1.89,1.89,0,0,0,128,183.11Z"/>
        <path class="sys-admin-st-3"
              d="M131.1,182.7v-2.87h-.85v-1.05l.93-.07.16-1.64h1.17v1.64H134v1.12h-1.53v2.86c0,.71.28,1.06.85,1.06a1.87,1.87,0,0,0,.63-.14l.24,1a3.87,3.87,0,0,1-1.23.22C131.62,184.87,131.1,184,131.1,182.7Z"/>
        <path class="sys-admin-st-3"
              d="M134.74,178.78l.89-.07h2.51v1.12h-3.4Zm.81-.69c0-1.24.57-2.16,2-2.16a3.27,3.27,0,0,1,1.11.21l-.27,1.06a1.62,1.62,0,0,0-.66-.15c-.49,0-.76.32-.76,1v6.65h-1.41Z"/>
        <path class="sys-admin-st-3"
              d="M138.67,181.72a2.87,2.87,0,1,1,2.86,3.15A2.91,2.91,0,0,1,138.67,181.72Zm4.27,0c0-1.2-.53-2-1.41-2s-1.41.8-1.41,2,.53,2,1.41,2S142.94,182.93,142.94,181.72Z"/>
        <path class="sys-admin-st-3"
              d="M145.79,178.71H147l.1,1.07h0a2.06,2.06,0,0,1,1.71-1.21,1.43,1.43,0,0,1,.68.12l-.24,1.22a2,2,0,0,0-.62-.1c-.48,0-1.06.33-1.42,1.25v3.66h-1.41Z"/>
        <path class="sys-admin-st-3"
              d="M150.36,178.71h1.15l.11.82h0a2.58,2.58,0,0,1,1.84-1,1.63,1.63,0,0,1,1.67,1.07,2.69,2.69,0,0,1,1.93-1.07c1.27,0,1.85.87,1.85,2.38v3.77h-1.41v-3.58c0-1-.29-1.37-.92-1.37a1.89,1.89,0,0,0-1.26.75v4.2H154v-3.58c0-1-.29-1.37-.92-1.37a1.87,1.87,0,0,0-1.26.75v4.2h-1.41Z"/>

    </g>
    <g id="Layer_5" data-name="Layer 5">
        <path class="sys-admin-st-5" d="M127.37,146.57l12.07-8.78-4.61-14.19-12.07,8.77Z"/>
        <path class="sys-admin-st-5" d="M151.52,100.63l4.61-14.19-4.61-14.2-4.61,14.2Z"/>
        <path class="sys-admin-st-5" d="M134.83,95.21l4.61,14.19,12.08-8.77-4.61-14.19Z"/>
        <path class="sys-admin-st-6" d="M112.44,100.63l-4.61-14.19L95.76,95.21l4.61,14.19Z"/>
        <path class="sys-admin-st-6" d="M100.37,109.4,95.76,95.21,91.14,109.4l4.62,14.2Z"/>
        <path class="sys-admin-st-5" d="M76.22,109.4H91.14l4.62-14.19H80.83Z"/>
        <path class="sys-admin-st-6" d="M119.91,95.21l-12.08-8.77,4.61,14.19,12.08,8.77Z"/>
        <path class="sys-admin-st-5" d="M119.91,95.21l4.61,14.19h14.92l-4.61-14.19Z"/>
        <path class="sys-admin-st-6" d="M112.44,118.18l12.08-8.78-12.08-8.77-12.07,8.77Z"/>
        <path class="sys-admin-st-5" d="M83.68,86.44H68.76l12.07,8.77H95.76Z"/>
        <path class="sys-admin-st-6" d="M83.68,86.44l12.08,8.77,12.07-8.77L95.76,77.66Z"/>
        <path class="sys-admin-st-5" d="M95.76,77.66H80.83L68.76,86.44H83.68Z"/>
        <path class="sys-admin-st-5" d="M76.22,63.47l4.61,14.19H95.76L91.14,63.47Z"/>
        <path class="sys-admin-st-5" d="M119.91,123.6l-12.08,8.77h14.93l12.07-8.77Z"/>
        <path class="sys-admin-st-5" d="M127.37,146.57l-4.61-14.2H107.83l4.61,14.2Z"/>
        <path class="sys-admin-st-5" d="M119.91,123.6h14.92l4.61-14.2H124.52Z"/>
        <path class="sys-admin-st-6" d="M100.37,109.4l-4.61,14.2,12.07,8.77,4.61-14.19Z"/>
        <path class="sys-admin-st-5" d="M80.83,123.6H95.76l-4.62-14.2H76.22Z"/>
        <path class="sys-admin-st-6" d="M124.52,109.4l-12.08,8.78-4.61,14.19,12.08-8.77Z"/>
        <path class="sys-admin-st-5" d="M95.76,141.14l12.07-8.77L95.76,123.6l-12.08,8.77Z"/>
        <path class="sys-admin-st-7" d="M83.68,132.37l12.08-8.77H80.83l-12.07,8.77Z"/>
        <path class="sys-admin-st-7" d="M119.91,49.27,107.83,40.5,95.76,49.27l12.07,8.78Z"/>
        <path class="sys-admin-st-7" d="M127.37,72.24H112.44l-4.61,14.2h14.93Z"/>
        <path class="sys-admin-st-5" d="M139.44,63.47H124.52l-12.08,8.77h14.93Z"/>
        <path class="sys-admin-st-5" d="M107.83,58.05l4.61,14.19,12.08-8.77-4.61-14.2Z"/>
        <path class="sys-admin-st-6" d="M134.83,95.21l-12.07-8.77H107.83l12.08,8.77Z"/>
        <path class="sys-admin-st-5" d="M127.37,72.24l-4.61,14.2,12.07,8.77L139.44,81Z"/>
        <path class="sys-admin-st-6" d="M112.44,72.24l-4.61-14.19L95.76,49.27l4.61,14.2Z"/>
        <path class="sys-admin-st-6" d="M95.76,77.66l12.07,8.78,4.61-14.2-12.07-8.77Z"/>
        <path class="sys-admin-st-7" d="M91.14,63.47l4.62-14.2H80.83l-4.61,14.2Z"/>
        <path class="sys-admin-st-5" d="M100.37,63.47l-4.61-14.2-4.62,14.2,4.62,14.19Z"/>
        <path class="sys-admin-st-5" d="M139.44,81l12.08-8.77-12.08-8.77-12.07,8.77Z"/>
        <path class="sys-admin-st-5" d="M119.91,49.27l4.61,14.2h14.92l-4.61-14.2Z"/>
        <path class="sys-admin-st-7" d="M146.91,86.44l4.61-14.2L139.44,81l-4.61,14.2Z"/>
        <path class="sys-admin-st-5" d="M144.06,49.27l-4.62-14.19-4.61,14.19,4.61,14.2Z"/>
        <path class="sys-admin-st-7" d="M144.06,49.27l-4.62,14.2,12.08,8.77,4.61-14.19Z"/>
        <path class="sys-admin-st-5" d="M156.13,58.05l-4.61-14.2-12.08-8.77,4.62,14.19Z"/>
        <path class="sys-admin-st-8" d="M279.8,97.21l4.75,14.59H299.9l-4.75-14.59Z"/>
        <path class="sys-admin-st-8" d="M267.39,88.18l4.74,14.6,12.42,9L279.8,97.21Z"/>
        <path class="sys-admin-st-6" d="M272.13,120.82l12.42-9-12.42-9-12.42,9Z"/>
        <path class="sys-admin-st-7" d="M299.9,82.61l-4.75,14.6,4.75,14.59,4.74-14.59Z"/>
        <path class="sys-admin-st-8" d="M279.8,97.21h15.35l4.75-14.6H284.55Z"/>
        <path class="sys-admin-st-8" d="M259.71,64.57l12.42,9L267.39,59,255,50Z"/>
        <path class="sys-admin-st-8" d="M279.8,50l-12.41,9,4.74,14.6,12.42-9Z"/>
        <path class="sys-admin-st-8" d="M259.71,64.57,255,50H239.62l4.75,14.6Z"/>
        <path class="sys-admin-st-9" d="M267.39,41,255,50l12.42,9,12.41-9Z"/>
        <path class="sys-admin-st-8" d="M252,88.18h15.35l4.74-14.59H256.78Z"/>
        <path class="sys-admin-st-8" d="M239.62,97.21H255l12.42-9H252Z"/>
        <path class="sys-admin-st-8" d="M272.13,102.78l-4.74-14.6-12.42,9,4.74,14.59Z"/>
        <path class="sys-admin-st-8" d="M244.37,64.57l12.41,9h15.35l-12.42-9Z"/>
        <path class="sys-admin-st-6" d="M252,88.18l4.74-14.59-12.41-9-4.75,14.59Z"/>
        <path class="sys-admin-st-8" d="M284.55,82.61l-12.42-9-4.74,14.59,12.41,9Z"/>
        <path class="sys-admin-st-8" d="M287.48,73.59H272.13l12.42,9H299.9Z"/>
        <path class="sys-admin-st-8" d="M295.15,126.4l4.75-14.6H284.55l-4.75,14.6Z"/>
        <path class="sys-admin-st-8" d="M279.8,126.4l4.75-14.6-12.42,9-4.74,14.6Z"/>
        <path class="sys-admin-st-8" d="M304.64,126.4l-4.74-14.6-4.75,14.6L299.9,141Z"/>
        <path class="sys-admin-st-8" d="M284.55,141H299.9l-4.75-14.6H279.8Z"/>
        <path class="sys-admin-st-8" d="M287.48,150H272.13l12.42,9H299.9Z"/>
        <path class="sys-admin-st-8" d="M279.8,173.63,284.55,159l-12.42-9-4.74,14.59Z"/>
        <path class="sys-admin-st-8" d="M287.48,150l12.42,9,12.41-9-12.41-9Z"/>
        <path class="sys-admin-st-8" d="M279.8,126.4l-12.41,9,4.74,14.6,12.42-9Z"/>
        <path class="sys-admin-st-8" d="M255,126.4l12.42,9,4.74-14.6-12.42-9Z"/>
        <path class="sys-admin-st-6" d="M299.9,141H284.55l-12.42,9h15.35Z"/>
        <path class="sys-admin-st-8" d="M187,135.42l12.41-9-4.74-14.6-12.42,9Z"/>
        <path class="sys-admin-st-8" d="M182.28,150l12.42-9,4.74-14.6-12.41,9Z"/>
        <path class="sys-admin-st-8" d="M211.86,135.42l-12.42-9L194.7,141l12.42,9Z"/>
        <path class="sys-admin-st-8" d="M166.94,120.82h15.34l12.42-9H179.35Z"/>
        <path class="sys-admin-st-8" d="M187,135.42l-4.75-14.6H166.94l4.74,14.6Z"/>
        <path class="sys-admin-st-8" d="M199.44,126.4l12.42,9h15.35l-12.42-9Z"/>
        <path class="sys-admin-st-8" d="M222.46,150l4.75-14.6H211.86L207.12,150Z"/>
        <path class="sys-admin-st-8" d="M210.05,111.8H194.7l4.74,14.6h15.35Z"/>
        <path class="sys-admin-st-8" d="M222.46,120.82l4.75,14.6,12.41-9-4.74-14.6Z"/>
        <path class="sys-admin-st-8" d="M234.88,111.8l4.74,14.6,4.75-14.6-4.75-14.59Z"/>
        <path class="sys-admin-st-8" d="M259.71,111.8H244.37l-4.75,14.6H255Z"/>
        <path class="sys-admin-st-8" d="M214.79,126.4l12.42,9-4.75-14.6-12.41-9Z"/>
        <path class="sys-admin-st-8" d="M171.68,135.42,166.94,150h15.34l4.75-14.6Z"/>
        <path class="sys-admin-st-8" d="M244.37,64.57,239.62,50l-12.41,9L232,73.59Z"/>
        <path class="sys-admin-st-8" d="M239.62,79.16l-12.41,9,12.41,9,12.42-9Z"/>
        <path class="sys-admin-st-8" d="M259.71,111.8,255,97.21H239.62l4.75,14.59Z"/>
        <path class="sys-admin-st-8" d="M232,73.59l-4.74,14.59,12.41-9,4.75-14.59Z"/>
        <path class="sys-admin-st-8" d="M227.21,182.66l12.41-9-12.41-9-12.42,9Z"/>
        <path class="sys-admin-st-8" d="M214.79,173.63l12.42-9H211.86l-12.42,9Z"/>
        <path class="sys-admin-st-8" d="M207.12,150l4.74,14.59h15.35L222.46,150Z"/>
        <path class="sys-admin-st-8" d="M234.88,188.23l4.74-14.6-12.41,9-4.75,14.59Z"/>
        <path class="sys-admin-st-8" d="M234.88,188.23l-12.42,9,4.75,14.6,12.41-9Z"/>
        <path class="sys-admin-st-8" d="M210.05,188.23l12.41,9,4.75-14.59-12.42-9Z"/>
        <path class="sys-admin-st-8" d="M232,150l-4.74-14.6L222.46,150l4.75,14.59Z"/>
        <path class="sys-admin-st-8" d="M232,150l-4.74,14.59,12.41,9L244.37,159Z"/>
        <path class="sys-admin-st-8" d="M252,135.42l-12.42-9-12.41,9,12.41,9Z"/>
        <path class="sys-admin-st-8" d="M267.39,135.42l-12.42-9H239.62l12.42,9Z"/>
        <path class="sys-admin-st-8" d="M244.37,159l-4.75-14.6-12.41-9L232,150Z"/>
        <path class="sys-admin-st-8" d="M252,135.42l-12.42,9,4.75,14.6,12.41-9Z"/>
        <path class="sys-admin-st-8" d="M214.79,173.63H199.44l-4.74,14.6h15.35Z"/>
        <path class="sys-admin-st-8" d="M222.46,197.25l-12.41-9H194.7l12.42,9Z"/>
        <path class="sys-admin-st-8" d="M234.88,235.47l4.74,14.59,4.75-14.59-4.75-14.6Z"/>
        <path class="sys-admin-st-8" d="M234.88,235.47l4.74-14.6-12.41-9-4.75,14.6Z"/>
        <path class="sys-admin-st-8" d="M222.46,226.45,227.21,241l12.41,9-4.74-14.59Z"/>
        <path class="sys-admin-st-8" d="M259.71,188.23,255,173.63H239.62l4.75,14.6Z"/>
        <path class="sys-admin-st-8" d="M272.13,197.25l-4.74-14.59-12.42-9,4.74,14.6Z"/>
        <path class="sys-admin-st-8" d="M267.39,164.61l-12.42,9,12.42,9,12.41-9Z"/>
        <path class="sys-admin-st-8" d="M239.62,202.83l4.75-14.6-4.75-14.6-4.74,14.6Z"/>
        <path class="sys-admin-st-6" d="M259.71,188.23H244.37l-4.75,14.6H255Z"/>
        <path class="sys-admin-st-6" d="M255,173.63l12.42-9L272.13,150l-12.42,9Z"/>
        <path class="sys-admin-st-8" d="M244.37,159l-4.75,14.59H255L259.71,159Z"/>
        <path class="sys-admin-st-9" d="M256.78,150h15.35l-4.74-14.6H252Z"/>
        <path class="sys-admin-st-8" d="M259.71,159l12.42-9H256.78l-12.41,9Z"/>
        <path class="sys-admin-st-8" d="M239.62,202.83l-12.41,9,12.41,9,12.42-9Z"/>
        <path class="sys-admin-st-8" d="M255,202.83l12.42,9,4.74-14.6-12.42-9Z"/>
        <path class="sys-admin-st-8" d="M279.8,173.63l-12.41,9,4.74,14.59,12.42-9Z"/>
        <path class="sys-admin-st-8" d="M252,211.85h15.35l-12.42-9H239.62Z"/>
        <path class="sys-admin-st-8" d="M287.48,197.25H272.13l-4.74,14.6h15.35Z"/>
        <line class="sys-admin-st-10" x1="159.22" y1="100.42" x2="160.96" y2="101.42"/>
        <line class="sys-admin-st-11" x1="164.65" y1="103.56" x2="170.19" y2="106.76"/>
        <line class="sys-admin-st-10" x1="172.03" y1="107.83" x2="173.76" y2="108.83"/>
        <line class="sys-admin-st-10" x1="147.74" y1="138.03" x2="149.47" y2="139.03"/>
        <line class="sys-admin-st-11" x1="153.17" y1="141.17" x2="158.71" y2="144.38"/>
        <line class="sys-admin-st-10" x1="160.55" y1="145.45" x2="162.28" y2="146.45"/>
        <line class="sys-admin-st-10" x1="147.74" y1="110.48" x2="149.47" y2="111.49"/>
        <line class="sys-admin-st-11" x1="153.17" y1="113.62" x2="158.71" y2="116.83"/>
        <line class="sys-admin-st-10" x1="160.55" y1="117.9" x2="162.28" y2="118.9"/>
        <line class="sys-admin-st-10" x1="144.79" y1="122.45" x2="146.54" y2="123.42"/>
        <line class="sys-admin-st-12" x1="149.8" y1="125.21" x2="161.2" y2="131.46"/>
        <line class="sys-admin-st-10" x1="162.83" y1="132.36" x2="164.58" y2="133.32"/>
        <path class="sys-admin-st-13"
              d="M45.84,133.31s7.93,17.15,13.37,17.16c3.67,0,9.07-11.57,9.07-11.57l5.55,2.28s-7.62,21-14,21.35c-7.17.33-17.91-22.44-17.91-22.44Z"/>
        <rect class="sys-admin-st-14" x="33.01" y="194.83" width="10.36" height="65.53"/>
        <path class="sys-admin-st-13"
              d="M38.81,252.46s9.13-3.14,11-1.12c1.16,1.23.15,5.52-1.07,6.7-2.21,2.15-8.47,4.19-11.54,4.3-1.34.05-4.54.26-5.29-.85-1.15-1.7,1.3-8.11,1.3-8.11Z"/>
        <rect class="sys-admin-st-14" x="49.39" y="203.73" width="10.36" height="65.53"/>
        <path class="sys-admin-st-13"
              d="M54.52,262.49s9.13-3.14,11-1.12c1.17,1.23.15,5.51-1.07,6.7-2.21,2.14-8.47,4.19-11.54,4.3-1.34,0-4.54.26-5.29-.85-1.15-1.7,1.3-8.12,1.3-8.12Z"/>
        <path class="sys-admin-st-13"
              d="M39.42,139.83c6.22,0,16.27,3.56,18.92,9.08,2.54,5.29,5.28,57.74,2.54,62.05-1.75,2.76-9.38,4.16-12.68,3.83-4.92-.5-14.07-8-16.32-12.34-2.51-18.64-3.51-38.89-.83-55.67C31.43,144.38,36.94,139.83,39.42,139.83Z"/>
        <path class="sys-admin-st-14"
              d="M56.76,146.38c.64.69-11.22,2.06-13.44-.11-1.07-1,1-4.93,1-4.93S53.09,142.28,56.76,146.38Z"/>
        <rect class="sys-admin-st-15" x="45.44" y="137.73" width="6.65" height="7.8"/>
        <path class="sys-admin-st-16"
              d="M51.55,142.19c7.65-.93,8.4-10.37,8.4-15.07,0-8.58-5.62-17-14.43-16.92-5.92,0-14.37,8.11-12.05,20.4C34.46,135.88,43.49,143.17,51.55,142.19Z"/>
        <path class="sys-admin-st-17"
              d="M53.67,112.15c1.65,1.17-5.63,3.77-5.84,5.78-.31,3.12,4.17,11.82,4.17,11.82h0s-4.19-5-5.56-3.94S48.76,133,48.76,133l-4.4,8.34s-15.53-5.65-12.52-21.56C34.51,105.71,49.07,108.91,53.67,112.15Z"/>
        <ellipse class="sys-admin-st-15" cx="48.76" cy="145.53" rx="3.32" ry="0.85"/>
        <path class="sys-admin-st-13"
              d="M56.55,147.92s7.93,17.15,13.37,17.16c3.67,0,16.1-22.25,16.1-22.25l5,5s-14.1,29-20.47,29.31c-7.17.33-17.91-22.44-17.91-22.44Z"/>
        <path class="sys-admin-st-15"
              d="M73.83,141.18s5-8.75-2.47-11.36c-1.2-.42-3.68,1.92-4,3.15-.38,1.45-.08,4.82.92,5.93S73.83,141.18,73.83,141.18Z"/>
        <path class="sys-admin-st-15"
              d="M91.54,147.79s5-8.75-2.47-11.36c-1.2-.42-3.67,1.92-4,3.15-.38,1.46-.08,4.82.92,5.93S91.54,147.79,91.54,147.79Z"/>
    </g>
</svg>