<svg xmlns="http://www.w3.org/2000/svg" viewBox="0 0 132.83 118.52"><defs><style>.cls-1{fill:#454a55;}.cls-2,.cls-3,.cls-4,.cls-5{fill:none;stroke-linecap:round;stroke-linejoin:round;stroke-width:2px;}.cls-2{stroke:#454a55;}.cls-3,.cls-4,.cls-5{stroke:#9d9d9c;}.cls-4{stroke-dasharray:3.29 6.58;}.cls-5{stroke-dasharray:3.37 6.73;}</style></defs><g id="Layer_2" data-name="Layer 2"><path class="cls-1" d="M39.62,74.44,27.23,68,24.94,81.76l12.4,6.44Z"/><path class="cls-1" d="M83.41,29.72l13.66-2.06L90.9,15.3,77.23,17.35Z"/><polygon class="cls-2" points="44.33 104.83 29.47 96.65 21.9 81.47 24.67 64.78 17.1 49.62 29.17 37.72 31.96 20.96 48.71 18.47 63.76 26.28 75.83 14.38 92.59 11.87 100.17 27.05 97.39 43.74 112.44 51.56 120.01 66.72 107.94 78.61 91.19 81.14 88.4 97.85 76.33 109.75 61.28 101.9 44.33 104.83"/><line class="cls-3" x1="42.14" y1="72.99" x2="43.2" y2="71.92"/><polyline class="cls-4" points="47.85 67.27 58.92 56.2 69.6 56.2"/><polyline class="cls-3" points="72.89 56.2 74.39 56.2 74.39 54.7"/><line class="cls-5" x1="74.39" y1="47.97" x2="74.39" y2="41.24"/><polyline class="cls-3" points="74.39 37.87 74.39 36.37 75.66 35.58"/><line class="cls-3" x1="80.2" y1="32.76" x2="81.48" y2="31.97"/></g></svg>