<svg xmlns="http://www.w3.org/2000/svg" viewBox="0 0 132.83 118.52"><defs><style>.cls-1,.cls-2,.cls-3,.cls-4{fill:none;stroke-linecap:round;stroke-width:2px;}.cls-1,.cls-4{stroke:#454a55;}.cls-1,.cls-2{stroke-linejoin:round;}.cls-2{stroke:#9d9d9c;}.cls-3{stroke:#2391cd;}</style></defs><g id="Layer_2" data-name="Layer 2"><polygon class="cls-1" points="42.19 103.29 27.33 95.11 19.76 79.92 22.53 63.23 14.96 48.07 27.03 36.18 29.82 19.41 46.57 16.93 61.62 24.73 73.69 12.84 90.45 10.32 98.03 25.5 95.25 42.2 110.3 50.01 117.87 65.17 105.8 77.07 89.05 79.59 86.26 96.31 74.19 108.2 59.14 100.35 42.19 103.29"/><line class="cls-2" x1="45.17" y1="44" x2="66.42" y2="44"/><line class="cls-2" x1="45.17" y1="57.98" x2="84.83" y2="57.98"/><line class="cls-2" x1="45.17" y1="71.97" x2="67" y2="71.97"/><line class="cls-3" x1="72.14" y1="64.35" x2="72.14" y2="72.99"/><line class="cls-4" x1="70.55" y1="36.37" x2="70.55" y2="45"/></g></svg>