<svg xmlns="http://www.w3.org/2000/svg" viewBox="0 0 132.83 118.52"><defs><style>.cls-1,.cls-2,.cls-4,.cls-5{fill:none;stroke-linecap:round;stroke-linejoin:round;}.cls-1,.cls-4,.cls-5{stroke:#454a55;}.cls-2{stroke:#9d9d9c;}.cls-2,.cls-4{stroke-width:2px;}.cls-3{fill:#454a55;}.cls-5{stroke-width:0.5px;}</style></defs><g id="Layer_2" data-name="Layer 2"><line class="cls-1" x1="36.91" y1="10.66" x2="72.86" y2="28.29"/><polyline class="cls-2" points="53.42 44.5 64.97 42.77 70.19 53.23"/><path class="cls-3" d="M58.64,55.07l9.41-1.42L63.8,45.14l-9.42,1.41Z"/><polyline class="cls-4" points="70.19 53.23 68.28 64.73 78.64 70.11 83.86 80.56 75.54 88.75 64 90.49 62.08 102.01 53.76 110.2 43.4 104.8 31.72 106.81 21.48 101.18 16.26 90.72 18.18 79.22 12.96 68.78 21.27 60.58 23.19 49.03 34.74 47.32 45.1 52.7 53.42 44.5"/><circle class="cls-3" cx="72.86" cy="28.29" r="7.36"/><circle class="cls-3" cx="36.91" cy="10.66" r="2.08"/><line class="cls-4" x1="61.8" y1="47.94" x2="70.19" y2="33.97"/><circle class="cls-3" cx="101.52" cy="17.3" r="4.16"/><line class="cls-1" x1="72.86" y1="28.29" x2="101.52" y2="17.3"/><circle class="cls-3" cx="95.28" cy="8.57" r="2.08"/><circle class="cls-3" cx="117.82" cy="13.87" r="2.08"/><line class="cls-5" x1="95.28" y1="8.57" x2="101.52" y2="17.3"/><line class="cls-5" x1="117.82" y1="13.87" x2="101.52" y2="17.3"/><line class="cls-1" x1="63.36" y1="48" x2="105.69" y2="40.96"/><circle class="cls-3" cx="107.44" cy="38.98" r="4.16"/><line class="cls-1" x1="107.44" y1="38.98" x2="101.52" y2="17.3"/></g></svg>