<svg xmlns="http://www.w3.org/2000/svg" viewBox="0 0 206 238"><defs><style>.cls-1{fill:none;}.cls-1,.cls-2,.cls-3{stroke:#454a54;stroke-linecap:round;stroke-linejoin:round;stroke-width:2px;}.cls-2,.cls-5{fill:#1f91cc;}.cls-3,.cls-4{fill:#454a54;}</style></defs><g id="Layer_4" data-name="Layer 4"><path class="cls-1" d="M86,109.49l-14.25,14,17.75,9.22,14.25-14Z"/><path class="cls-1" d="M75,103.79l-3.28,19.73,14.25-14,3.28-19.73Z"/><path class="cls-1" d="M75,103.79l14.25-14-9-17.89-14.25,14Z"/><path class="cls-1" d="M107,99,89.26,89.76,86,109.49l17.75,9.21Z"/><path class="cls-1" d="M109,86.78,126.79,96l-9-17.89-17.75-9.21Z"/><path class="cls-1" d="M132.09,64.07l-14.25,14,9,17.89L141,82Z"/><path class="cls-1" d="M109,86.78l-9-17.89-19.78,3,9,17.89Z"/><path class="cls-1" d="M114.34,54.85l-14.25,14,17.75,9.21,14.25-14Z"/><path class="cls-2" d="M89.26,89.76,107,99l19.78-3L109,86.78Z"/><path class="cls-1" d="M43,108.61l9,17.89,19.78-3-9-17.89Z"/><path class="cls-1" d="M25.25,99.4l8.94,17.89L52,126.5l-9-17.89Z"/><path class="cls-2" d="M66.06,85.9l-3.28,19.73,9,17.89L75,103.79Z"/><path class="cls-1" d="M43,108.61l19.78-3L66.06,85.9l-19.78,3Z"/><path class="cls-3" d="M46.28,88.88,28.53,79.67,25.25,99.4,43,108.61Z"/><path class="cls-1" d="M48.31,76.69l-19.78,3,17.75,9.21,19.78-3Z"/><path class="cls-1" d="M48.31,76.69,66.06,85.9l14.25-14L62.56,62.65Z"/><path class="cls-1" d="M83.59,52.13l-9-17.89L56.89,25l9,17.89Z"/><path class="cls-2" d="M62.56,62.65l17.75,9.22,3.28-19.74L65.84,42.92Z"/><path class="cls-1" d="M88.9,20.21l-14.26,14,9,17.89,14.25-14Z"/><path class="cls-1" d="M100.09,68.89l14.25-14,3.28-19.73-14.25,14Z"/><path class="cls-1" d="M83.59,52.13,80.31,71.87l19.78-3,3.28-19.73Z"/><path class="cls-3" d="M97.84,38.1l19.78-3-9-17.89-19.77,3Z"/><path class="cls-1" d="M103.37,49.16l14.25-14-19.78,3-14.25,14Z"/><path class="cls-2" d="M53.61,44.76,56.89,25,37.11,28,33.83,47.74Z"/><path class="cls-1" d="M65.84,42.92,56.89,25,53.61,44.76l9,17.89Z"/><path class="cls-1" d="M42.78,65.63l19.78-3-9-17.89-19.78,3Z"/><path class="cls-1" d="M33.83,47.74l-14.25,14,9,17.9,14.25-14Z"/><path class="cls-1" d="M62.56,62.65l-19.78,3-14.25,14,19.78-3Z"/><path class="cls-4" d="M19.58,178.83l4.24-4.1a10.84,10.84,0,0,0,8.53,4.1c3.86,0,5.86-1.86,5.86-4.67,0-2.24-1.05-3.62-4.53-4.24l-3.14-.48c-6.72-1.05-10-4.24-10-9.67,0-6,4.62-9.81,12.05-9.81,5,0,8.72,1.71,11.39,4.91l-4.29,4a8.86,8.86,0,0,0-7.43-3.43c-3.57,0-5.43,1.43-5.43,3.91s1.43,3.57,4.62,4.14l3.1.58c6.71,1.19,9.86,4.19,9.86,9.67,0,6.28-4.53,10.57-12.48,10.57A15.46,15.46,0,0,1,19.58,178.83Z"/><path class="cls-4" d="M48.7,171.3c0-8,4.15-13,11.48-13,5,0,8.29,2.38,9.77,6.29l-5,2.24a4.65,4.65,0,0,0-4.77-3.62c-3.38,0-5.09,2.38-5.09,5.86v4.52c0,3.48,1.71,5.81,5.09,5.81,2.91,0,4.34-1.66,5.24-3.9l4.67,2.24c-1.62,4.38-5.1,6.57-9.91,6.57C52.85,184.35,48.7,179.3,48.7,171.3Z"/><path class="cls-4" d="M74.3,152.25v-1c0-1.76,1-3,3.57-3s3.57,1.29,3.57,3v1c0,1.76-1.1,3-3.57,3S74.3,154,74.3,152.25Zm.52,6.66h6.1v24.87h-6.1Z"/><path class="cls-4" d="M86.31,171.3c0-7.86,4.23-13,11.52-13,7.77,0,11.34,5.72,11.34,12.53v2H92.64v.62c0,3.57,2,6,6,6a7.58,7.58,0,0,0,6.34-3.38l3.28,3.67c-2,2.81-5.67,4.57-10.29,4.57C90.69,184.35,86.31,179.25,86.31,171.3Zm6.33-2.57v.38h10.2v-.43c0-3.43-1.77-5.76-4.91-5.76S92.64,165.3,92.64,168.73Z"/><path class="cls-4" d="M114.57,183.78V158.91h6.09v4.15h.24a6.87,6.87,0,0,1,7-4.72c5.09,0,8,3.53,8,9.72v15.72h-6.1v-15.1c0-3.53-1.19-5.34-4.09-5.34-2.53,0-5,1.34-5,4v16.43Z"/><path class="cls-4" d="M140.92,171.3c0-8,4.14-13,11.48-13,5,0,8.29,2.38,9.77,6.29l-5,2.24a4.64,4.64,0,0,0-4.77-3.62c-3.38,0-5.09,2.38-5.09,5.86v4.52c0,3.48,1.71,5.81,5.09,5.81,2.91,0,4.34-1.66,5.24-3.9l4.67,2.24c-1.62,4.38-5.1,6.57-9.91,6.57C145.06,184.35,140.92,179.3,140.92,171.3Z"/><path class="cls-4" d="M165.14,171.3c0-7.86,4.24-13,11.52-13,7.77,0,11.34,5.72,11.34,12.53v2H171.47v.62c0,3.57,2.05,6,6.05,6a7.54,7.54,0,0,0,6.33-3.38l3.29,3.67c-2,2.81-5.67,4.57-10.29,4.57C169.52,184.35,165.14,179.25,165.14,171.3Zm6.33-2.57v.38h10.2v-.43c0-3.43-1.77-5.76-4.91-5.76S171.47,165.3,171.47,168.73Z"/><path class="cls-5" d="M19.58,192h7.1l8.53,16.24h.19L43.83,192h6.81v33.25h-6V201.37h-.19l-2.57,5.29-6.81,12.58L28.3,206.66l-2.57-5.29h-.19v23.87h-6Z"/><path class="cls-5" d="M56.43,212.76c0-7.86,4.23-13,11.52-13,7.77,0,11.34,5.72,11.34,12.53v2H62.76V215c0,3.57,2.05,6,6.05,6a7.58,7.58,0,0,0,6.34-3.38l3.28,3.67c-2.05,2.81-5.67,4.57-10.29,4.57C60.81,225.81,56.43,220.71,56.43,212.76Zm6.33-2.57v.38H73v-.43c0-3.43-1.77-5.76-4.91-5.76S62.76,206.76,62.76,210.19Z"/><path class="cls-5" d="M82.54,221.24l3.72-3.62A8.75,8.75,0,0,0,93.07,221c2.9,0,4.15-1.1,4.15-2.86,0-1.43-.86-2.33-3-2.62l-2.48-.33c-5.33-.67-8.29-3-8.29-7.53,0-4.81,3.76-7.86,9.43-7.86,4.86,0,7.34,1.43,9.72,3.91L99,207.28a8.24,8.24,0,0,0-6-2.67c-2.62,0-3.76,1-3.76,2.58s.9,2.42,3.24,2.81l2.52.33c5.43.76,8,3.19,8,7.34,0,4.81-4,8.14-10.24,8.14A12.63,12.63,0,0,1,82.54,221.24Z"/><path class="cls-5" d="M108.47,190h6.1v14.53h.23a6.87,6.87,0,0,1,7-4.72c5.1,0,8,3.53,8,9.72v15.72h-6.09v-15.1c0-3.53-1.19-5.33-4.1-5.33-2.52,0-5,1.33-5,4v16.43h-6.1Z"/></g></svg>