<svg xmlns="http://www.w3.org/2000/svg" viewBox="0 0 130 124"><defs><style>.edit-cls1,.edit-cls2{fill:none;}.edit-cls1,.edit-cls2,.edit-cls3,.edit-cls4,.edit-cls5{stroke:#454a54;stroke-linecap:round;stroke-linejoin:round;}.edit-cls2,.edit-cls3,.edit-cls4{stroke-width:1.43px;}.edit-cls3,.edit-cls5,.edit-cls6{fill:#1f91cc;}.edit-cls4,.edit-cls7{fill:#454a54;}.edit-cls8{fill:#fff;}</style></defs><g id="Layer_4" data-name="Layer 4"><line class="edit-cls1" x1="96.37" y1="30.85" x2="87.15" y2="26.23"/><line class="edit-cls1" x1="87.15" y1="26.23" x2="96.37" y2="21.62"/><path class="edit-cls2" d="M49,90.2l-.18,14.2L57,116l.18-14.2Z"/><path class="edit-cls2" d="M35.42,94.41,22,89.85l-.18,14.2,13.45,4.57Z"/><path class="edit-cls2" d="M66.16,53.24,79.72,49l-8.2-11.6L58,41.64Z"/><path class="edit-cls2" d="M57.18,101.8,57,116l8.49-11.38.19-14.2Z"/><path class="edit-cls2" d="M57.18,101.8l8.5-11.38-8.2-11.6L49,90.2Z"/><path class="edit-cls2" d="M79.24,86.2,71,74.61,57.48,78.82l8.2,11.6Z"/><path class="edit-cls2" d="M35.24,108.62,48.8,104.4,49,90.2,35.42,94.41Z"/><path class="edit-cls3" d="M35.53,85.64,22,89.85l13.45,4.56L49,90.2Z"/><path class="edit-cls2" d="M58,41.64,44.51,37.07,36,48.46,49.46,53Z"/><path class="edit-cls3" d="M71.52,37.42,58.07,32.86,44.51,37.07,58,41.64Z"/><path class="edit-cls2" d="M58,41.64,49.46,53l8.2,11.6,8.5-11.38Z"/><path class="edit-cls2" d="M71,74.61l8.5-11.39L79.72,49,71.23,60.4Z"/><path class="edit-cls2" d="M93.17,53.59,79.72,49l-.18,14.2L93,67.79Z"/><path class="edit-cls4" d="M57.66,64.62l-.18,14.2L71,74.61l.19-14.21Z"/><path class="edit-cls2" d="M71.23,60.4,79.72,49,66.16,53.24l-8.5,11.38Z"/><path class="edit-cls2" d="M93,67.79l13.56-4.22.19-14.2L93.17,53.59Z"/><path class="edit-cls3" d="M93.29,44.81,79.72,49l13.45,4.57,13.57-4.22Z"/><circle class="edit-cls5" cx="87.15" cy="25.77" r="1.85"/><circle class="edit-cls5" cx="96.37" cy="21.16" r="1.85"/><circle class="edit-cls5" cx="96.37" cy="30.39" r="1.85"/><path class="edit-cls6" d="M52.89,17.13,54.78,19l6-6-1.89-1.9Z"/><path class="edit-cls6" d="M61.4,12.47c.16-.17.33-.34.49-.53A1,1,0,0,0,62,10.86a3.48,3.48,0,0,0-.76-.82,1,1,0,0,0-1-.15,2.74,2.74,0,0,0-.75.64Z"/><path class="edit-cls6" d="M52.46,18l-.59,2.09L54,19.47Z"/><path class="edit-cls6" d="M52.46,18,54,19.47l-2.12.58Z"/><circle class="edit-cls2" cx="35.16" cy="67.52" r="11.52"/><line class="edit-cls2" x1="35.16" y1="82.15" x2="35.16" y2="79.5"/><line class="edit-cls2" x1="92.73" y1="42.31" x2="92.73" y2="38.04"/><circle class="edit-cls2" cx="92.73" cy="25.77" r="12.27"/><circle class="edit-cls2" cx="57.42" cy="15.4" r="9.4"/><line class="edit-cls2" x1="57.42" y1="29.32" x2="57.42" y2="25.51"/><path class="edit-cls7" d="M35,73.11H30.44a1.32,1.32,0,0,1-.86-.27,1.09,1.09,0,0,1-.45-.7c-.07-.43-.11-.86-.15-1.29-.08-.74-.15-1.49-.23-2.23A1.38,1.38,0,0,1,30.07,67h.11c3.21,0,6.41,0,9.62,0a1.4,1.4,0,0,1,1.37.92,2,2,0,0,1,0,.85L41,71.08a9.23,9.23,0,0,1-.13,1,1.22,1.22,0,0,1-1.12,1H35Z"/><path class="edit-cls7" d="M35,67.67H30.21a1,1,0,0,0-.42.08.75.75,0,0,0-.4.83c.12,1.1.23,2.2.34,3.3a.73.73,0,0,0,.17.38.71.71,0,0,0,.56.19h9.23a.63.63,0,0,0,.54-.47c0-.12,0-.25,0-.38.11-1,.22-2,.32-3a.93.93,0,0,0-.05-.41.73.73,0,0,0-.74-.48Z"/><path class="edit-cls7" d="M37.87,61.25h.69a.85.85,0,0,1,.89.74c.21,1.25.43,2.5.64,3.76a2.79,2.79,0,0,1,.07.4.32.32,0,0,1-.21.33.31.31,0,0,1-.36-.12.44.44,0,0,1-.08-.2c-.23-1.33-.45-2.66-.68-4,0-.24-.08-.28-.33-.28H37.08a.37.37,0,0,1-.31-.13.3.3,0,0,1,0-.33.29.29,0,0,1,.28-.18Z"/><path class="edit-cls7" d="M32.11,61.25h.78a.32.32,0,0,1,.34.32.32.32,0,0,1-.34.32H31.48c-.25,0-.29,0-.33.28-.23,1.34-.45,2.67-.68,4,0,.22-.17.34-.35.33a.34.34,0,0,1-.29-.43l.12-.71c.2-1.13.39-2.25.58-3.38a.87.87,0,0,1,.89-.74Z"/><path class="edit-cls8" d="M35,71.17h-1.6a.8.8,0,0,1-.87-.76l-.09-.66a.31.31,0,0,1,.27-.37.32.32,0,0,1,.37.27c0,.24.07.47.1.7s.06.17.2.17H36.6c.17,0,.2,0,.22-.19s.07-.43.1-.65a.32.32,0,0,1,.38-.3.31.31,0,0,1,.26.41l-.09.64a.81.81,0,0,1-.84.74Z"/><path class="edit-cls6" d="M35.31,66.26l1.9-2.69a.4.4,0,0,0-.33-.63H33.09a.4.4,0,0,0-.33.63l1.9,2.69A.39.39,0,0,0,35.31,66.26Z"/><path class="edit-cls6" d="M35.55,64H34.42a.41.41,0,0,1-.41-.34l-.54-3.19a.4.4,0,0,1,.39-.46h2.25a.4.4,0,0,1,.39.46L36,63.65A.4.4,0,0,1,35.55,64Z"/></g></svg>