<svg xmlns="http://www.w3.org/2000/svg" viewBox="0 0 128 128"><defs><style>.cls-1{fill:#1f91cc;}</style></defs><g id="Layer_5" data-name="Layer 5"><path class="cls-1" d="M99.08,46.59A12.28,12.28,0,1,0,83.35,58.38,9.45,9.45,0,0,1,81.67,64C79.3,67,74.1,67.47,68.59,68c-4.32.4-8.8.83-12.47,2.59V48.48a12.28,12.28,0,1,0-7.36,0V79.06a12.29,12.29,0,1,0,8.1.27,5.37,5.37,0,0,1,2.28-2c2.49-1.26,6.2-1.6,10.14-2,6.48-.59,13.81-1.28,18.14-6.65,2.15-2.67,3.24-6.11,3.31-10.42a12.33,12.33,0,0,0,8.35-11.65Z"/></g></svg>