<svg xmlns="http://www.w3.org/2000/svg" viewBox="0 0 128 128"><defs><style>.cls-1{fill:#1f91cc;}</style></defs><g id="Layer_5" data-name="Layer 5"><path class="cls-1" d="M92.36,76.69V34.51a3,3,0,0,0-3-3H48.18a12.06,12.06,0,0,0-12,12V83.72a12.06,12.06,0,0,0,12,12H89.35a3,3,0,0,0,3-3v-2a3,3,0,0,0-1.11-2.34,27.87,27.87,0,0,1,0-9.38,3,3,0,0,0,1.11-2.33ZM52.2,48.32a.76.76,0,0,1,.75-.75H79.56a.76.76,0,0,1,.75.75v2.51a.76.76,0,0,1-.75.75H53a.76.76,0,0,1-.75-.75Zm0,8A.76.76,0,0,1,53,55.6H79.56a.76.76,0,0,1,.75.75v2.51a.76.76,0,0,1-.75.76H53a.76.76,0,0,1-.75-.76ZM84,87.73H48.18a4,4,0,1,1,0-8H84A46.81,46.81,0,0,0,84,87.73Z"/></g></svg>