<svg xmlns="http://www.w3.org/2000/svg" viewBox="0 0 130 124">
    <defs>
        <style>
            .remote-analysis-cls-1,
            .remote-analysis-cls-4 {
                fill: none;
            }

            .remote-analysis-cls-1 {
                stroke: #ccc;
            }

            .remote-analysis-cls-1,
            .remote-analysis-cls-2,
            .remote-analysis-cls-3,
            .remote-analysis-cls-4,
            .remote-analysis-cls-5 {
                stroke-linecap: round;
                stroke-linejoin: round;
                stroke-width: 1.74px;
            }

            .remote-analysis-cls-2 {
                fill: #454a54;
            }

            .remote-analysis-cls-2,
            .remote-analysis-cls-3,
            .remote-analysis-cls-4,
            .remote-analysis-cls-5 {
                stroke: #454a54;
            }

            .remote-analysis-cls-3 {
                fill: #bdc3c7;
            }

            .remote-analysis-cls-5,
            .remote-analysis-cls-6 {
                fill: #1f91cc;
            }
        </style>
    </defs>
    <g id="Layer_4" data-name="Layer 4">
        <path class="remote-analysis-cls-1" d="M67.92,78.16,83.35,83.3l15.5-4.92L83.42,73.25Z" />
        <path class="remote-analysis-cls-1" d="M48.8,78l-.11,16.26,9.46,13.22.12-16.26Z" />
        <path class="remote-analysis-cls-1" d="M68.22,35.59l15.5-4.91L74.26,17.45,58.75,22.37Z" />
        <path class="remote-analysis-cls-1" d="M33.56,46.58l.11-16.26-15.5,4.92L18.06,51.5Z" />
        <path class="remote-analysis-cls-1" d="M67.8,94.43l-9.65,13.08,15.43,5.14,9.65-13.09Z" />
        <path class="remote-analysis-cls-1" d="M83.23,99.56l-9.65,13.09,15.5-4.92,9.65-13.09Z" />
        <path class="remote-analysis-cls-1" d="M58.27,91.25l-.12,16.26L67.8,94.43l.12-16.27Z" />
        <path class="remote-analysis-cls-1" d="M58.27,91.25l9.65-13.09L58.45,64.94,48.8,78Z" />
        <path class="remote-analysis-cls-1" d="M83.35,83.3,67.92,78.16,67.8,94.43l15.43,5.13Z" />
        <path class="remote-analysis-cls-1" d="M83.42,73.25l15.43,5.13L89.38,65.16,74,60Z" />
        <path class="remote-analysis-cls-1" d="M99,52.07,89.38,65.16l9.47,13.22L108.5,65.3Z" />
        <path class="remote-analysis-cls-1" d="M83.42,73.25,74,60l-15.5,4.91,9.47,13.22Z" />
        <path class="remote-analysis-cls-1" d="M83.61,46.94,74,60l15.43,5.13L99,52.07Z" />
        <path class="remote-analysis-cls-1" d="M83.23,99.56l15.5-4.92.12-16.26L83.35,83.3Z" />
        <path class="remote-analysis-cls-1" d="M108.5,65.3,124,60.38l-9.46-13.22L99,52.07Z" />
        <path class="remote-analysis-cls-1" d="M124,60.38,108.5,65.3,98.85,78.38l15.5-4.91Z" />
        <path class="remote-analysis-cls-1" d="M33.19,99.21l9.46,13.22,15.5-4.92L48.69,94.29Z" />
        <path class="remote-analysis-cls-1" d="M17.76,94.07l9.46,13.22,15.43,5.14L33.19,99.21Z" />
        <path class="remote-analysis-cls-1" d="M33.19,99.21l15.5-4.92L48.8,78,33.3,82.94Z" />
        <path class="remote-analysis-cls-1" d="M58.75,22.37,43.33,17.24,33.67,30.32,49.1,35.46Z" />
        <path class="remote-analysis-cls-1" d="M74.26,17.45,58.83,12.32l-15.5,4.92,15.42,5.13Z" />
        <path class="remote-analysis-cls-1" d="M58.57,48.68,49.1,35.46,33.67,30.32l9.47,13.23Z" />
        <path class="remote-analysis-cls-1" d="M58.75,22.37,49.1,35.46l9.47,13.22,9.65-13.09Z" />
        <path class="remote-analysis-cls-1" d="M74.07,43.76l9.65-13.08-15.5,4.91L58.57,48.68Z" />
        <path class="remote-analysis-cls-1" d="M18.06,51.5l.11-16.26L8.52,48.33,8.41,64.59Z" />
        <path class="remote-analysis-cls-1" d="M43.14,43.55,33.67,30.32l-.11,16.26L43,59.81Z" />
        <path class="remote-analysis-cls-1" d="M27.52,64.72,43,59.81,33.56,46.58,18.06,51.5Z" />
        <path class="remote-analysis-cls-1" d="M18.06,51.5,8.41,64.59l9.46,13.22,9.65-13.09Z" />
        <path class="remote-analysis-cls-1" d="M43,59.81l-15.5,4.91L17.87,77.81l15.5-4.92Z" />
        <path class="remote-analysis-cls-2" d="M33.3,82.94,17.87,77.81l-.11,16.26,15.43,5.14Z" />
        <path class="remote-analysis-cls-3" d="M43,59.81l15.43,5.13.12-16.26L43.14,43.55Z" />
        <path class="remote-analysis-cls-4" d="M33.37,72.89l-15.5,4.92L33.3,82.94,48.8,78Z" />
        <path class="remote-analysis-cls-4" d="M33.37,72.89,48.8,78l9.65-13.09L43,59.81Z" />
        <path class="remote-analysis-cls-3" d="M74,60l9.66-13.09.11-16.26L74.07,43.76Z" />
        <path class="remote-analysis-cls-3" d="M99.15,35.81,83.72,30.68l-.11,16.26L99,52.07Z" />
        <path class="remote-analysis-cls-4" d="M58.57,48.68l-.12,16.26L74,60l.12-16.27Z" />
        <path class="remote-analysis-cls-3" d="M99,52.07l15.51-4.91.11-16.26-15.5,4.91Z" />
        <path class="remote-analysis-cls-5" d="M99.22,25.76l-15.5,4.92,15.43,5.13,15.5-4.91Z" />
        <rect class="remote-analysis-cls-6" x="89.96" y="7.17" width="3" height="16.02" />
        <rect class="remote-analysis-cls-6" x="94.96" y="10.17" width="3" height="13.01" />
        <rect class="remote-analysis-cls-6" x="99.97" y="15.18" width="3" height="8.01" />
        <rect class="remote-analysis-cls-6" x="104.97" y="16.68" width="3" height="6.51" />
    </g>
</svg>