<svg xmlns="http://www.w3.org/2000/svg" viewBox="0 0 130 124">
    <defs>
        <style>
            .cls-1,
            .cls-3,
            .cls-4 {
                fill: none;
            }

            .cls-1 {
                stroke: #ccc;
            }

            .cls-1,
            .cls-2,
            .cls-3,
            .cls-transferline,
            .cls-5 {
                stroke-linecap: round;
                stroke-linejoin: round;
                stroke-width: 1.87px;
            }

            .cls-2 {
                fill: #454a54;
            }

            .cls-2,
            .cls-3,
            .cls-5 {
                stroke: #454a54;
            }

            .cls-transferline {
                fill: none;
            }

            .cls-4 {
                stroke: red;
            }

            .cls-5 {
                fill: #1f91cc;
            }
        </style>
    </defs>
    <g id="Layer_4" data-name="Layer 4">
        <path class="cls-1" d="M97.57,50.47,112,45.88l.11-15.17L97.68,35.3Z" />
        <path class="cls-1" d="M50.7,74.69l-.11,15.18,8.83,12.34L59.53,87Z" />
        <path class="cls-1" d="M68.82,35.09,83.28,30.5,74.45,18.17,60,22.75Z" />
        <path class="cls-1" d="M36.47,45.35l.11-15.18L22.11,34.76,22,49.94Z" />
        <path class="cls-1" d="M68.43,90l-9,12.22L73.82,107l9-12.21Z" />
        <path class="cls-1" d="M82.83,94.79l-9,12.21,14.47-4.59,9-12.21Z" />
        <path class="cls-1" d="M59.53,87l-.11,15.18,9-12.22.11-15.17Z" />
        <path class="cls-1" d="M59.53,87l9-12.21L59.7,62.48l-9,12.21Z" />
        <path class="cls-1" d="M82.93,79.61,68.54,74.82,68.43,90l14.4,4.8Z" />
        <path class="cls-1" d="M83,70.23,97.4,75,88.57,62.68l-14.4-4.79Z" />
        <path class="cls-1" d="M97.57,50.47l-9,12.21L97.4,75l9-12.21Z" />
        <path class="cls-1" d="M83.18,45.68l-9,12.21,14.4,4.79,9-12.21Z" />
        <path class="cls-1" d="M82.83,94.79,97.29,90.2,97.4,75,82.93,79.61Z" />
        <path class="cls-1" d="M106.41,62.81l14.46-4.59L112,45.88,97.57,50.47Z" />
        <path class="cls-1" d="M120.87,58.22l-14.46,4.59L97.4,75l14.47-4.58Z" />
        <path class="cls-1" d="M36.12,94.46,45,106.8l14.46-4.59L50.59,89.87Z" />
        <path class="cls-1" d="M21.73,89.66,30.56,102,45,106.8,36.12,94.46Z" />
        <path class="cls-1" d="M36.12,94.46l14.47-4.59.11-15.18L36.23,79.28Z" />
        <path class="cls-1" d="M60,22.75,51,35l8.83,12.34,9-12.22Z" />
        <path class="cls-1" d="M74.28,42.72l9-12.22L68.82,35.09l-9,12.22Z" />
        <path class="cls-1" d="M22,49.94l.1-15.18L13.11,47,13,62.15Z" />
        <path class="cls-1" d="M45.41,42.51,36.58,30.17l-.11,15.18L45.3,57.69Z" />
        <path class="cls-1" d="M30.84,62.28,45.3,57.69,36.47,45.35,22,49.94Z" />
        <path class="cls-1" d="M22,49.94,13,62.15l8.83,12.34,9-12.21Z" />
        <path class="cls-1" d="M45.3,57.69,30.84,62.28l-9,12.21L36.3,69.9Z" />
        <path class="cls-1" d="M36.23,79.28l-14.4-4.79-.1,15.17,14.39,4.8Z" />
        <path class="cls-2" d="M45.3,57.69l14.4,4.79.11-15.17-14.4-4.8Z" />
        <path class="cls-3" d="M36.3,69.9l14.4,4.79,9-12.21L45.3,57.69Z" />
        <path class="cls-3" d="M74.17,57.89l9-12.21.1-15.18-9,12.22Z" />
        <path class="cls-3" d="M97.68,35.3l-14.4-4.8-.1,15.18,14.39,4.79Z" />
        <path class="cls-3" d="M59.81,47.31,59.7,62.48l14.47-4.59.11-15.17Z" />
        <path class="cls-3" d="M60,22.75,45.59,18l-9,12.21L51,35Z" />
        <path class="cls-3" d="M59.81,47.31,51,35l-14.4-4.8,8.83,12.34Z" />
        <path class="cls-2" d="M83,70.23,74.17,57.89,59.7,62.48l8.84,12.34Z" />
        <polygon class="cls-transferline"
            points="83.29 30.5 74.29 42.72 59.82 47.31 50.99 34.97 59.99 22.75 45.6 17.96 36.59 30.17 45.42 42.51 45.31 57.69 36.31 69.9 50.71 74.69 59.71 62.48 68.55 74.82 83.01 70.23 74.18 57.89 83.19 45.68 97.58 50.47 97.69 35.3 83.29 30.5" />
        <path class="cls-5" d="M36.3,69.9,21.83,74.49l14.4,4.79L50.7,74.69Z" />
        <path class="cls-5" d="M97.75,25.92,83.28,30.5l14.4,4.8,14.47-4.59Z" />
        <path class="cls-5" d="M74.45,18.17l-14.4-4.8L45.59,18,60,22.75Z" />
        <path class="cls-5" d="M68.54,74.82l14.39,4.79L97.4,75,83,70.23Z" />
    </g>
</svg>